<svg width="61" height="60" fill="none" xmlns="http://www.w3.org/2000/svg"><circle cx="30.547" cy="30" r="30" fill="#F8F9FA"/><mask id="a" style="mask-type:alpha" maskUnits="userSpaceOnUse" x="0" y="0" width="61" height="60"><circle cx="30.547" cy="30" r="30" fill="#F9F9F9"/></mask><g mask="url(#a)"><path d="M44.928 25.987c-.81-1.941-2.467-.985-2.467-.985.96-8.816-3.524-14.633-11.924-14.633-8.405 0-12.885 5.817-11.93 14.633 0 0-1.655-.951-2.466.985-.811 1.936.67 6.483 1.588 7.932.917 1.443 2.54 2.539 2.54 2.539s.588 1.622 1.008 2.752c.179.478 1.067 1.694 2.13 2.993v10.331h14.256V42.203c1.066-1.299 1.95-2.515 2.129-2.993a260.93 260.93 0 001.008-2.752s1.623-1.091 2.54-2.54c.922-1.448 2.4-5.99 1.588-7.931z" fill="#E1E3EA"/><path d="M30.533 10.37c-8.405 0-12.885 5.816-11.93 14.632 1.111.724 1.367 2.689 1.193 4.635 0 0-.372 6.193.85 9.119 1.216 2.92 3.34 7.488 9.887 7.435 6.546.048 8.666-4.514 9.887-7.44 1.217-2.92.85-9.12.85-9.12-.174-1.858-.179-3.9 1.192-4.634.951-8.81-3.529-14.628-11.93-14.628zm9.192 13.54s-.164 8.087-1.41 9.859c-1.25 1.772-.86-2.158-7.782-2.226-6.923-.067-6.537 3.998-7.787 2.226-1.246-1.767-1.41-9.824-1.41-9.858.082-1.786.256-3.495 1.024-4.258.994-.99 2.447-.83 3.688-.512 1.448.372 2.945.87 4.475.908 1.618.043 3.158-.55 4.707-.927 1.207-.29 2.516-.42 3.471.53.768.768.942 2.473 1.024 4.264v-.005z" fill="#3C3C3B"/><path d="M54.923 51.447c-6.754-1.636-16.428-2.076-16.428-2.076v-3.186c0-.178-.305-.352-.83-.502v.898c-3.289 1.221-11.196 1.125-14.257.101v-1.047c-.633.164-1 .352-1 .55v3.186s-9.327.609-16.018 2.168h-.183l-.02 18.75h48.741l-.005-18.842z" fill="#C3C8D5"/><path d="M26.625 38.385a4.312 4.312 0 007.92 0h-7.92z" fill="#E1E3EA"/></g></svg>