<svg width="61" height="60" fill="none" xmlns="http://www.w3.org/2000/svg"><circle cx="30.547" cy="30" r="30" fill="#F8F9FA"/><mask id="a" style="mask-type:alpha" maskUnits="userSpaceOnUse" x="0" y="0" width="61" height="60"><circle cx="30.547" cy="30" r="30" fill="#F9F9F9"/></mask><g mask="url(#a)"><path d="M34.236 48.125c-.97.613-2.299.97-3.678.97-1.38 0-2.708-.357-3.78-.97-.767-.46-2.351-1.942-3.833-3.525v7.867h15.072v-7.816c-1.43 1.532-2.963 3.014-3.78 3.474z" fill="#9FA4B0"/><path d="M45.268 26.411c-.818-1.992-2.555-1.021-2.555-1.021 1.022-9.043-3.576-15.02-12.21-15.02S17.27 16.346 18.24 25.39c0 0-1.686-.971-2.554 1.021-.869 1.993.664 6.642 1.635 8.124.92 1.481 2.35.868 2.35.868s.357 3.423.766 4.547c.409 1.175 5.364 6.489 6.795 7.306 1.89 1.124 4.7 1.124 6.386 0 1.43-.817 6.387-6.13 6.795-7.306.409-1.175.767-4.649.767-4.649s1.43.664 2.35-.817c1.073-1.43 2.605-6.08 1.737-8.073z" fill="#E1E3EA"/><path d="M19.471 30.141c2.555 0 .613-8.225 2.657-10.27 1.022-1.02 15.787-.97 16.758 0 1.992 1.993.05 10.27 2.656 10.27-.153-1.89-.204-3.985 1.226-4.751.971-9.043-3.627-15.02-12.261-15.02-8.635 0-13.233 5.977-12.262 15.02 1.175.715 1.43 2.758 1.226 4.751zM30.507 32.9s-6.08-.154-6.335 3.933h12.67c-.255-4.087-6.335-3.934-6.335-3.934z" fill="#3C3C3B"/><path d="M54.876 54.051a7.874 7.874 0 00-.97-.409c-.102-.05-.154-.05-.256-.102-.306-.102-.613-.255-.92-.357-.05 0-.05 0-.102-.051-.306-.154-.664-.256-.97-.358-.102-.051-.154-.051-.256-.102-.306-.102-.562-.205-.868-.307-.051 0-.102-.05-.154-.05-.306-.103-.664-.205-.97-.307-.102-.052-.153-.052-.256-.103-.255-.102-.51-.153-.766-.255-.051 0-.153-.051-.204-.051a6.163 6.163 0 00-.92-.256c-.051-.102-.153-.102-.256-.153-.255-.051-.46-.153-.715-.204-.05 0-.153-.051-.204-.051-.307-.102-.562-.154-.869-.256-.05 0-.153-.05-.204-.05-.204-.052-.46-.103-.664-.154-.051 0-.153-.051-.204-.051-.256-.051-.511-.154-.767-.205-.051 0-.102 0-.153-.05a13.466 13.466 0 00-.664-.154c-.051 0-.102 0-.154-.051-.255-.051-.46-.102-.715-.153h-.102l-.613-.154h-.102c-.46-.102-2.861-.51-2.861-.51-4.037 4.189-11.547 4.24-15.072 0l-1.686.306c-.358.051-.766.153-1.226.255h-.102c-.205.052-.409.103-.664.154h-.052c-.255.05-.46.102-.715.153-.05 0-.102 0-.153.051-.204.051-.409.102-.664.153-.051 0-.102 0-.154.051-.255.052-.51.103-.766.205-.05 0-.153.05-.204.05-.205.052-.46.103-.664.154-.051 0-.154.051-.205.051-.306.051-.562.154-.868.256-.051 0-.153.05-.205.05-.255.052-.46.154-.715.205-.102 0-.153.051-.255.051-.307.102-.613.205-.92.256-.051 0-.153.05-.204.05-.256.103-.511.154-.767.256-.102.051-.153.051-.255.102a15.77 15.77 0 01-.869.307c-.05 0-.102.051-.153.051-.255.102-.562.204-.817.307-.103.05-.154.05-.256.102-.306.102-.664.255-.97.357-.052 0-.052 0-.103.052-.357.153-.664.255-.92.357-.102.051-.153.051-.255.102a7.843 7.843 0 01-.97.409v20.13h48.74l-.052-20.079z" fill="#9FA4B0"/></g></svg>