<svg width="60" height="61" fill="none" xmlns="http://www.w3.org/2000/svg"><rect y=".289" width="60" height="60" rx="30" fill="url(#paint0_linear_645_8352)"/><g clip-path="url(#clip0_645_8352)"><path d="M35.39 27.56h-1.289l-2.122 3.08-3.994-5.909v-2.954l7.656-3.661-9.987-4.827v11.36L14.961 41v2.288h30.083v-2.122L35.391 27.56zm-7.364-10.526l2.205 1.082-2.205 1.082v-2.164zM17.79 40.959l9.03-13.773 9.32 13.773H17.79zm21.18 0l-5.576-8.239 1.373-1.955 7.24 10.194h-3.038z" fill="#fff"/></g><defs><linearGradient id="paint0_linear_645_8352" x1="30" y1=".289" x2="30" y2="60.289" gradientUnits="userSpaceOnUse"><stop stop-color="#FFAE00"/><stop offset="1" stop-color="#FF7549"/></linearGradient><clipPath id="clip0_645_8352"><path fill="#fff" transform="translate(14.96 13.29)" d="M0 0h30.083v30H0z"/></clipPath></defs></svg>