<svg width="38" height="18" fill="none" xmlns="http://www.w3.org/2000/svg"><mask id="a" style="mask-type:alpha" maskUnits="userSpaceOnUse" x="0" y="0" width="38" height="18"><path fill="#C4C4C4" d="M.713 0h36.555v18H.713z"/></mask><g mask="url(#a)"><path d="M6.788 20.899c.126.679.303 1.348.533 1.996.032.094 0 .188-.083.23l-.429.25a3.944 3.944 0 00-1.442 5.381l.115.21a.227.227 0 00.314.083l3.636-2.1a.178.178 0 01.24.041c.44.523.93 1.004 1.463 1.463a.193.193 0 01.042.251l-.24.418a3.944 3.944 0 001.441 5.381l.21.115c.114.063.25.02.313-.084l2.1-3.636a.19.19 0 01.23-.083c.658.23 1.327.418 1.996.543a.19.19 0 01.156.188v.491a3.942 3.942 0 003.94 3.94h.24c.125 0 .23-.105.23-.23v-4.201c0-.094.062-.178.156-.188a12.99 12.99 0 001.996-.533c.094-.031.188 0 .23.084l.25.428a3.944 3.944 0 005.382 1.442l.209-.115a.226.226 0 00.083-.313L28 28.714a.178.178 0 01.042-.24c.522-.439 1.003-.93 1.463-1.463a.193.193 0 01.25-.041l.429.25a3.944 3.944 0 005.38-1.442l.116-.209a.233.233 0 00-.084-.313l-3.636-2.1a.19.19 0 01-.083-.23c.23-.658.418-1.327.543-1.996a.19.19 0 01.188-.157h.491a3.942 3.942 0 003.94-3.939v-.271a.232.232 0 00-.23-.23h-4.201c-.094 0-.178-.063-.188-.157a13.061 13.061 0 00-.533-1.996c-.031-.094 0-.188.084-.23l.428-.25a3.944 3.944 0 001.442-5.381l-.115-.21a.227.227 0 00-.314-.083l-3.636 2.1a.178.178 0 01-.24-.041 12.897 12.897 0 00-1.463-1.463.193.193 0 01-.041-.251l.25-.428a3.944 3.944 0 00-1.442-5.381l-.209-.115a.233.233 0 00-.313.083l-2.1 3.636c-.052.084-.146.115-.23.084a13.791 13.791 0 00-1.996-.543.19.19 0 01-.157-.189v-.49a3.942 3.942 0 00-3.939-3.94l-.271.01a.232.232 0 00-.23.23v4.2c0 .095-.063.179-.157.189a12.99 12.99 0 00-1.996.533c-.094.031-.188 0-.23-.084l-.25-.428A3.944 3.944 0 009.38 4.296l-.21.115a.227.227 0 00-.083.313l2.1 3.637a.221.221 0 01-.052.26 12.82 12.82 0 00-1.452 1.463.222.222 0 01-.251.042l-.428-.25a3.944 3.944 0 00-5.382 1.442l-.114.208a.233.233 0 00.083.314l3.636 2.1c.084.052.115.146.084.23a13.79 13.79 0 00-.543 1.996.19.19 0 01-.189.156h-.49a3.949 3.949 0 00-3.93 3.95v.24c0 .126.105.23.23.23h4.2c.095-.01.179.063.2.157zm14.639-5.538c1.745 1.014 2.35 3.25 1.337 4.994-1.013 1.745-3.25 2.351-4.994 1.338-1.745-1.014-2.351-3.25-1.337-4.995 1.003-1.744 3.239-2.34 4.994-1.337z" fill="#E4E7EF"/><mask id="b" fill="#fff"><path d="M5.193 19.834c.126.679.303 1.347.533 1.995.031.094 0 .188-.084.23l-.428.25a3.944 3.944 0 00-1.442 5.382l.115.209a.227.227 0 00.314.084l3.636-2.1a.178.178 0 01.24.041c.439.523.93 1.003 1.463 1.463a.193.193 0 01.042.25l-.24.419a3.944 3.944 0 001.441 5.38l.21.116c.114.062.25.02.313-.084l2.1-3.636a.19.19 0 01.23-.084c.658.23 1.327.418 1.995.544a.19.19 0 01.157.188v.49a3.942 3.942 0 003.94 3.94h.24c.125 0 .23-.105.23-.23v-4.2c0-.094.062-.178.156-.188.68-.126 1.348-.303 1.996-.533.094-.032.188 0 .23.083l.25.429a3.944 3.944 0 005.382 1.442l.209-.115a.226.226 0 00.083-.314l-2.1-3.636a.178.178 0 01.042-.24c.522-.439 1.003-.93 1.462-1.463a.193.193 0 01.251-.042l.429.251a3.944 3.944 0 005.38-1.442l.116-.209a.233.233 0 00-.084-.313l-3.636-2.1c-.084-.053-.115-.147-.084-.23.23-.659.418-1.327.544-1.996a.19.19 0 01.188-.157h.49a3.942 3.942 0 003.94-3.939v-.272a.232.232 0 00-.23-.23h-4.2c-.094 0-.178-.062-.188-.156a13.061 13.061 0 00-.533-1.996c-.032-.094 0-.188.083-.23l.429-.25a3.944 3.944 0 001.442-5.382l-.115-.209a.227.227 0 00-.314-.083l-3.636 2.1a.178.178 0 01-.24-.042 12.903 12.903 0 00-1.463-1.463.193.193 0 01-.042-.25l.251-.429a3.944 3.944 0 00-1.442-5.38l-.209-.116a.233.233 0 00-.313.084l-2.1 3.636a.19.19 0 01-.23.084 13.79 13.79 0 00-1.996-.544.19.19 0 01-.157-.188v-.49A3.942 3.942 0 0016.3.022l-.272.01a.232.232 0 00-.23.23v4.2c0 .095-.062.178-.156.189a13.07 13.07 0 00-1.996.533c-.094.03-.188 0-.23-.084l-.25-.428A3.944 3.944 0 007.784 3.23l-.209.115a.227.227 0 00-.083.313l2.1 3.636a.221.221 0 01-.052.261A12.81 12.81 0 008.087 9.02a.222.222 0 01-.25.042l-.429-.25a3.944 3.944 0 00-5.38 1.441l-.116.21a.233.233 0 00.084.313l3.636 2.1c.084.052.115.146.084.23a13.79 13.79 0 00-.544 1.995.19.19 0 01-.188.157h-.49a3.949 3.949 0 00-3.93 3.95v.24c0 .125.105.23.23.23h4.2c.095-.01.178.063.2.157zm14.639-5.538c1.745 1.013 2.35 3.25 1.337 4.994-1.013 1.745-3.25 2.351-4.994 1.338-1.745-1.014-2.351-3.25-1.338-4.995 1.003-1.745 3.24-2.34 4.995-1.337z"/></mask><path d="M5.193 19.834c.126.679.303 1.347.533 1.995.031.094 0 .188-.084.23l-.428.25a3.944 3.944 0 00-1.442 5.382l.115.209a.227.227 0 00.314.084l3.636-2.1a.178.178 0 01.24.041c.439.523.93 1.003 1.463 1.463a.193.193 0 01.042.25l-.24.419a3.944 3.944 0 001.441 5.38l.21.116c.114.062.25.02.313-.084l2.1-3.636a.19.19 0 01.23-.084c.658.23 1.327.418 1.995.544a.19.19 0 01.157.188v.49a3.942 3.942 0 003.94 3.94h.24c.125 0 .23-.105.23-.23v-4.2c0-.094.062-.178.156-.188.68-.126 1.348-.303 1.996-.533.094-.032.188 0 .23.083l.25.429a3.944 3.944 0 005.382 1.442l.209-.115a.226.226 0 00.083-.314l-2.1-3.636a.178.178 0 01.042-.24c.522-.439 1.003-.93 1.462-1.463a.193.193 0 01.251-.042l.429.251a3.944 3.944 0 005.38-1.442l.116-.209a.233.233 0 00-.084-.313l-3.636-2.1c-.084-.053-.115-.147-.084-.23.23-.659.418-1.327.544-1.996a.19.19 0 01.188-.157h.49a3.942 3.942 0 003.94-3.939v-.272a.232.232 0 00-.23-.23h-4.2c-.094 0-.178-.062-.188-.156a13.061 13.061 0 00-.533-1.996c-.032-.094 0-.188.083-.23l.429-.25a3.944 3.944 0 001.442-5.382l-.115-.209a.227.227 0 00-.314-.083l-3.636 2.1a.178.178 0 01-.24-.042 12.903 12.903 0 00-1.463-1.463.193.193 0 01-.042-.25l.251-.429a3.944 3.944 0 00-1.442-5.38l-.209-.116a.233.233 0 00-.313.084l-2.1 3.636a.19.19 0 01-.23.084 13.79 13.79 0 00-1.996-.544.19.19 0 01-.157-.188v-.49A3.942 3.942 0 0016.3.022l-.272.01a.232.232 0 00-.23.23v4.2c0 .095-.062.178-.156.189a13.07 13.07 0 00-1.996.533c-.094.03-.188 0-.23-.084l-.25-.428A3.944 3.944 0 007.784 3.23l-.209.115a.227.227 0 00-.083.313l2.1 3.636a.221.221 0 01-.052.261A12.81 12.81 0 008.087 9.02a.222.222 0 01-.25.042l-.429-.25a3.944 3.944 0 00-5.38 1.441l-.116.21a.233.233 0 00.084.313l3.636 2.1c.084.052.115.146.084.23a13.79 13.79 0 00-.544 1.995.19.19 0 01-.188.157h-.49a3.949 3.949 0 00-3.93 3.95v.24c0 .125.105.23.23.23h4.2c.095-.01.178.063.2.157zm14.639-5.538c1.745 1.013 2.35 3.25 1.337 4.994-1.013 1.745-3.25 2.351-4.994 1.338-1.745-1.014-2.351-3.25-1.338-4.995 1.003-1.745 3.24-2.34 4.995-1.337z" stroke="#3C3C3B" stroke-width="3" mask="url(#b)"/></g></svg>