<svg width="63" height="25" viewBox="0 0 63 25" fill="none" xmlns="http://www.w3.org/2000/svg">
<g clip-path="url(#clip0_3473_26628)">
<path d="M3.17749 6.00298V13.5258H4.50204C5.66576 13.5258 6.57402 13.1766 7.23629 12.4875C7.89857 11.7891 8.22971 10.8451 8.22971 9.64639C8.22971 8.51373 7.89857 7.62647 7.24576 6.97518C6.59295 6.32391 5.67521 6.00298 4.48312 6.00298H3.17749ZM0.5 15.6967V3.83203H4.71019C8.93929 3.83203 11.0491 5.75757 11.0491 9.61809C11.0491 11.4681 10.472 12.9406 9.31773 14.045C8.16348 15.1493 6.63079 15.6967 4.71019 15.6967H0.5Z" fill="#484848"/>
<path d="M17.6338 10.6008C17.6338 9.38314 17.1418 8.77908 16.1578 8.77908C15.7415 8.77908 15.3725 8.94895 15.0699 9.29823C14.7671 9.64743 14.5778 10.0816 14.5116 10.6008H17.6338ZM20.0558 12.2054H14.5116C14.5967 13.4324 15.3725 14.0555 16.8391 14.0555C17.7757 14.0555 18.5988 13.8383 19.299 13.3948V15.2825C18.5137 15.6978 17.4918 15.9149 16.2335 15.9149C14.8616 15.9149 13.802 15.5373 13.0357 14.7728C12.2788 14.0177 11.9004 12.9606 11.9004 11.6014C11.9004 10.1949 12.3072 9.08109 13.1303 8.25994C13.944 7.43875 14.9563 7.02344 16.1483 7.02344C17.3878 7.02344 18.3433 7.39156 19.0246 8.12779C19.7057 8.86403 20.0369 9.85511 20.0369 11.1199V12.2054H20.0558Z" fill="#484848"/>
<path d="M23.8971 15.6967H21.2764V3.15234H23.8971V15.6967Z" fill="#484848"/>
<path d="M28.391 15.696H25.7703V7.21987H28.391V15.696ZM27.0948 5.87954C26.6502 5.87954 26.2906 5.7474 26.0068 5.48311C25.7229 5.21882 25.5811 4.89789 25.5811 4.52034C25.5811 4.13335 25.7229 3.81242 26.0068 3.55757C26.2906 3.31216 26.6502 3.18945 27.0948 3.18945C27.5394 3.18945 27.9085 3.31216 28.1828 3.55757C28.4667 3.80298 28.5991 4.1239 28.5991 4.52034C28.5991 4.91677 28.4572 5.24713 28.1828 5.49254C27.9085 5.75684 27.5394 5.87954 27.0948 5.87954Z" fill="#484848"/>
<path d="M38.3448 7.2207L35.1848 15.6969H32.1951L29.1865 7.2207H31.987L33.463 12.4404C33.6332 13.0351 33.7279 13.5354 33.7562 13.9506H33.794C33.8319 13.5637 33.936 13.0729 34.0968 12.4971L35.6105 7.23014H38.3448V7.2207Z" fill="#484848"/>
<path d="M44.1629 10.6008C44.1629 9.38314 43.6709 8.77908 42.687 8.77908C42.2707 8.77908 41.9017 8.94895 41.599 9.29823C41.2962 9.64743 41.107 10.0816 41.0408 10.6008H44.1629ZM46.5944 12.2054H41.0502C41.1354 13.4324 41.9112 14.0555 43.3776 14.0555C44.3143 14.0555 45.1375 13.8383 45.8375 13.3948V15.2825C45.0523 15.6978 44.0305 15.9149 42.7722 15.9149C41.4003 15.9149 40.3407 15.5373 39.5743 14.7728C38.8174 14.0177 38.439 12.9606 38.439 11.6014C38.439 10.1949 38.8458 9.08109 39.6689 8.25994C40.4825 7.43875 41.4949 7.02344 42.687 7.02344C43.9264 7.02344 44.882 7.39156 45.5632 8.12779C46.2443 8.86403 46.5755 9.85511 46.5755 11.1199V12.2054H46.5944Z" fill="#484848"/>
<path d="M53.3494 9.58143C53.0372 9.41152 52.6682 9.32652 52.2425 9.32652C51.6748 9.32652 51.2301 9.53419 50.9085 9.94955C50.5868 10.3648 50.4259 10.9312 50.4259 11.6485V15.6978H47.8052V7.22166H50.4259V8.79796H50.4637C50.8801 7.64641 51.6275 7.08008 52.7061 7.08008C52.9804 7.08008 53.198 7.10839 53.3494 7.1839V9.58143Z" fill="#484848"/>
<path d="M62.9996 7.2207L59.5463 16.3764C58.7138 18.5757 57.4649 19.6801 55.7997 19.6801C55.1659 19.6801 54.6455 19.6046 54.2292 19.4629V17.377C54.5793 17.5846 54.9578 17.679 55.3646 17.679C56.0363 17.679 56.5094 17.3581 56.7743 16.7257L57.2189 15.6779L53.7656 7.2207H56.6702L58.2502 12.3744C58.3543 12.6953 58.43 13.0729 58.4867 13.5071H58.5246C58.5719 13.1861 58.6665 12.8179 58.7989 12.3932L60.3979 7.2207H62.9996Z" fill="#484848"/>
<path d="M12.6013 23.8244C11.9296 24.202 11.2389 24.3908 10.5294 24.3908C9.64 24.3908 8.93045 24.0887 8.38171 23.4941C7.83297 22.89 7.55859 22.1066 7.55859 21.1343C7.55859 20.1526 7.85189 19.3315 8.44793 18.6708C9.03452 18.01 9.82928 17.6797 10.8132 17.6797C11.3809 17.6797 11.9391 17.7929 12.4784 18.0195V18.5103C11.8918 18.2271 11.3146 18.0856 10.747 18.0856C9.92384 18.0856 9.27105 18.3687 8.76961 18.9256C8.26817 19.4825 8.02218 20.1999 8.02218 21.0588C8.02218 21.9744 8.25871 22.6823 8.72231 23.2015C9.1859 23.7206 9.81982 23.9754 10.6145 23.9754C11.2012 23.9754 11.7121 23.8527 12.1567 23.5979V21.4552H10.624V21.0493H12.6108V23.8244H12.6013Z" fill="#484848"/>
<path d="M14.3702 18.1966V20.9716H15.4865C15.9786 20.9716 16.3759 20.8395 16.6692 20.5846C16.9625 20.3297 17.1044 19.9711 17.1044 19.518C17.1044 19.1027 16.972 18.7818 16.7071 18.5458C16.4422 18.3098 16.0637 18.1966 15.5812 18.1966H14.3702ZM17.2464 24.2753L16.3759 22.378C16.1962 21.9816 16.0164 21.7267 15.8366 21.5852C15.6569 21.453 15.4299 21.387 15.1649 21.387H14.3607V24.2753H13.916V17.7812H15.7231C16.3002 17.7812 16.7449 17.9323 17.076 18.2437C17.4072 18.5553 17.5681 18.9612 17.5681 19.4708C17.5681 19.9428 17.4356 20.3297 17.1612 20.6412C16.8963 20.9528 16.5178 21.1604 16.0353 21.2454V21.2642C16.2907 21.368 16.5462 21.6796 16.7922 22.1987L17.7573 24.2658H17.2464V24.2753Z" fill="#484848"/>
<path d="M21.6172 18.0853C20.8602 18.0853 20.2359 18.3589 19.7534 18.9064C19.2613 19.4539 19.0248 20.1713 19.0248 21.049C19.0248 21.9457 19.2519 22.6537 19.7155 23.1822C20.1791 23.7108 20.7941 23.9751 21.5699 23.9751C22.3741 23.9751 23.0079 23.7108 23.481 23.1917C23.9541 22.6726 24.1811 21.9364 24.1811 21.0019C24.1811 20.0863 23.9541 19.3689 23.4904 18.8498C23.0268 18.3401 22.4025 18.0853 21.6172 18.0853ZM21.5699 24.3905C20.6521 24.3905 19.9142 24.0884 19.3749 23.4748C18.8261 22.8614 18.5518 22.078 18.5518 21.0963C18.5518 20.058 18.8356 19.2368 19.3938 18.6044C19.952 17.9814 20.7184 17.6699 21.6928 17.6699C22.5727 17.6699 23.2823 17.972 23.8216 18.5666C24.3609 19.1613 24.6352 19.9541 24.6352 20.9264C24.6352 22.0024 24.3609 22.8425 23.8027 23.4655C23.2444 24.0884 22.497 24.3905 21.5699 24.3905Z" fill="#484848"/>
<path d="M30.2079 21.6818C30.2079 23.4847 29.4415 24.3908 27.8899 24.3908C26.4235 24.3908 25.6855 23.5224 25.6855 21.7856V17.793H26.1302V21.729C26.1302 23.2392 26.7452 23.9849 27.9751 23.9849C29.1672 23.9849 29.7538 23.2487 29.7538 21.7856V17.793H30.1985V21.6818H30.2079Z" fill="#484848"/>
<path d="M32.0618 18.1989V21.2665H32.989C33.5756 21.2665 34.0203 21.1249 34.323 20.8512C34.6258 20.5681 34.7772 20.181 34.7772 19.6714C34.7772 18.6991 34.219 18.2083 33.0931 18.2083H32.0618V18.1989ZM32.0618 21.6818V24.287H31.6172V17.793H33.1877C33.8594 17.793 34.3703 17.944 34.7204 18.2555C35.0705 18.567 35.2502 19.02 35.2502 19.6148C35.2502 20.2188 35.0516 20.7097 34.6541 21.1061C34.2568 21.4931 33.7081 21.6913 32.9984 21.6913H32.0618V21.6818Z" fill="#484848"/>
<path d="M40.047 5.6256H35.5908L37.9845 2.81279L35.5908 0H40.047L42.4406 2.81279L40.047 5.6256Z" fill="#FDCE00"/>
<path d="M46.8976 5.6256H42.4414L44.8351 2.81279L42.4414 0H46.8976L49.2912 2.81279L46.8976 5.6256Z" fill="#B2B2B3"/>
<path d="M53.7566 5.6256H49.291L51.6846 2.81279L49.291 0H53.7566L56.1503 2.81279L53.7566 5.6256Z" fill="#3F53A1"/>
<path d="M60.6065 5.6256H56.1504L58.5441 2.81279L56.1504 0H60.6065L63.0002 2.81279L60.6065 5.6256Z" fill="#95B51F"/>
</g>
<defs>
<clipPath id="clip0_3473_26628">
<rect width="62.5" height="25" fill="white" transform="translate(0.5)"/>
</clipPath>
</defs>
</svg>
