<svg width="64" height="26" fill="none" xmlns="http://www.w3.org/2000/svg"><g clip-path="url(#clip0_1454_16419)"><path d="M3.45 6.855v7.522h1.325c1.164 0 2.072-.349 2.735-1.038.662-.698.993-1.642.993-2.841 0-1.133-.331-2.02-.984-2.671-.653-.652-1.57-.972-2.762-.972H3.45zM.774 16.548V4.684h4.21c4.23 0 6.34 1.925 6.34 5.786 0 1.85-.578 3.322-1.732 4.426-1.154 1.105-2.687 1.652-4.607 1.652H.774zm17.133-5.096c0-1.217-.492-1.821-1.476-1.821-.416 0-.785.17-1.088.519-.303.349-.492.783-.558 1.302h3.122zm2.422 1.605h-5.544c.085 1.227.861 1.85 2.328 1.85.936 0 1.76-.217 2.46-.66v1.887c-.786.415-1.808.633-3.066.633-1.372 0-2.432-.378-3.198-1.143-.757-.755-1.135-1.812-1.135-3.171 0-1.406.407-2.52 1.23-3.341.813-.822 1.826-1.237 3.018-1.237 1.24 0 2.195.368 2.876 1.104.681.737 1.012 1.728 1.012 2.993v1.085h.02zm3.843 3.491H21.55V4.004h2.62v12.544zm4.493.002h-2.62V8.072h2.62v8.476zM27.37 6.732c-.444 0-.804-.132-1.088-.396a1.266 1.266 0 01-.425-.963c0-.387.141-.708.425-.963.284-.245.644-.368 1.088-.368.445 0 .814.123 1.088.368.284.246.416.566.416.963 0 .396-.141.727-.416.972-.274.264-.643.387-1.088.387zm11.247 1.342l-3.16 8.476h-2.99L29.46 8.074h2.8l1.476 5.22c.17.595.265 1.095.294 1.51h.037c.038-.387.142-.878.303-1.453l1.514-5.267h2.734v-.01zm5.82 3.378c0-1.217-.492-1.821-1.476-1.821-.416 0-.785.17-1.088.519-.303.349-.492.783-.558 1.302h3.122zm2.431 1.605h-5.544c.085 1.227.861 1.85 2.328 1.85.936 0 1.76-.217 2.46-.66v1.887c-.786.415-1.808.633-3.066.633-1.372 0-2.431-.378-3.198-1.143-.757-.755-1.135-1.812-1.135-3.171 0-1.406.407-2.52 1.23-3.341.814-.822 1.826-1.237 3.018-1.237 1.24 0 2.195.368 2.876 1.104.681.737 1.012 1.728 1.012 2.993v1.085h.02zm6.754-2.626c-.312-.17-.68-.255-1.107-.255-.567 0-1.012.208-1.334.623-.321.415-.482.982-.482 1.7v4.048h-2.62V8.071h2.62v1.577h.038c.416-1.152 1.163-1.718 2.242-1.718.274 0 .492.028.643.104v2.397zm9.651-2.357L59.82 17.23c-.833 2.2-2.082 3.304-3.747 3.304-.634 0-1.154-.076-1.57-.217V18.23c.35.208.728.302 1.135.302.672 0 1.145-.32 1.41-.953l.444-1.047-3.453-8.458h2.905l1.58 5.154c.104.32.18.698.236 1.133h.038c.047-.321.142-.69.274-1.114l1.6-5.173h2.601zM12.875 24.676c-.672.378-1.363.566-2.072.566-.89 0-1.6-.302-2.148-.896-.549-.605-.823-1.388-.823-2.36 0-.982.293-1.803.89-2.464.586-.66 1.38-.99 2.365-.99a4.27 4.27 0 011.665.34v.49c-.587-.283-1.164-.425-1.732-.425-.823 0-1.476.283-1.977.84-.501.557-.747 1.274-.747 2.133 0 .916.236 1.624.7 2.143.463.52 1.097.774 1.892.774.587 0 1.098-.123 1.542-.378v-2.142h-1.532V21.9h1.986v2.775h-.01zm1.769-5.628v2.775h1.116c.492 0 .89-.132 1.183-.387.293-.255.435-.613.435-1.066 0-.416-.133-.737-.398-.973-.264-.236-.643-.349-1.125-.349h-1.211zm2.876 6.079l-.87-1.897c-.18-.397-.36-.652-.54-.793a1.11 1.11 0 00-.672-.199h-.804v2.889h-.444v-6.494h1.806c.578 0 1.022.15 1.353.462.332.312.492.718.492 1.227 0 .472-.132.86-.406 1.17-.265.312-.644.52-1.126.605v.019c.255.104.51.415.757.934l.965 2.067h-.511v.01zm4.37-6.188c-.757 0-1.382.273-1.864.821-.492.547-.729 1.265-.729 2.142 0 .897.227 1.605.691 2.134.463.528 1.079.793 1.854.793.805 0 1.438-.265 1.911-.784.474-.519.7-1.255.7-2.19 0-.915-.226-1.633-.69-2.152-.464-.51-1.088-.764-1.873-.764zm-.048 6.305c-.917 0-1.655-.302-2.195-.916-.548-.613-.823-1.396-.823-2.378 0-1.038.284-1.86.842-2.492.558-.623 1.325-.935 2.3-.935.88 0 1.589.303 2.128.897.54.595.814 1.388.814 2.36 0 1.076-.275 1.916-.833 2.539-.558.623-1.305.925-2.233.925zm8.639-2.711c0 1.803-.766 2.71-2.318 2.71-1.466 0-2.204-.869-2.204-2.606v-3.992h.445v3.936c0 1.51.615 2.256 1.845 2.256 1.192 0 1.778-.737 1.778-2.2v-3.992h.445v3.888h.01zm1.854-3.483v3.068h.927c.587 0 1.032-.141 1.334-.415.303-.283.455-.67.455-1.18 0-.972-.559-1.463-1.684-1.463h-1.032v-.01zm0 3.483v2.605h-.444v-6.494h1.57c.672 0 1.183.152 1.533.463.35.312.53.765.53 1.36 0 .603-.199 1.094-.596 1.49-.398.388-.947.586-1.656.586h-.937v-.01z" fill="#484848"/><path d="M40.321 6.477h-4.456l2.394-2.813L35.865.852h4.456l2.394 2.812-2.394 2.813z" fill="#FDCE00"/><path d="M47.171 6.477h-4.456l2.393-2.813L42.715.852h4.456l2.394 2.812-2.394 2.813z" fill="#B2B2B3"/><path d="M54.03 6.477h-4.465l2.393-2.813L49.565.852h4.465l2.394 2.812-2.394 2.813z" fill="#3F53A1"/><path d="M60.88 6.477h-4.456l2.394-2.813L56.424.852h4.456l2.394 2.812-2.394 2.813z" fill="#95B51F"/></g><defs><clipPath id="clip0_1454_16419"><path fill="#fff" transform="translate(.773 .852)" d="M0 0h62.5v25H0z"/></clipPath></defs></svg>