<svg width="95" height="26" fill="none" xmlns="http://www.w3.org/2000/svg"><path d="M17.39 14.83l-8.281-1.828c-2.49-.56-4.014-2.998-3.455-5.488.559-2.489 3.048-4.013 5.487-3.454 2.49.559 4.014 2.997 3.455 5.487-.305 1.22-1.017 2.235-2.033 2.845-.05 0-.05.05-.05.101 0 .051.05.102.101.102l3.658.813c.102 0 .204 0 .254-.102a7.892 7.892 0 001.626-4.826c0-4.217-3.353-7.723-7.52-7.977h-.355A8.784 8.784 0 004.892 2.18C.725 5.076-.24 10.766 2.656 14.932l7.367 10.517c.05.051.102.051.152.051.051 0 .102-.05.153-.05l7.214-10.314c0-.051.051-.051.051-.102a.397.397 0 00-.203-.203z" fill="#FFC629"/><path d="M27.346 20.467c-.05-.051-.101-.051-.152 0a1.806 1.806 0 01-1.473.71c-.508 0-.966-.152-1.27-.507-.356-.356-.509-.762-.509-1.321 0-.508.153-.965.509-1.321.355-.356.762-.508 1.27-.508.61 0 1.067.254 1.422.711.051.05.102.05.153 0l.254-.203c.05 0 .05-.051.05-.051 0-.05 0-.05-.05-.102-.458-.558-1.067-.863-1.88-.863-.66 0-1.22.203-1.677.66-.457.457-.66 1.016-.66 1.677 0 .66.203 1.22.66 1.676.458.458 1.016.66 1.677.66.762 0 1.372-.304 1.88-.863.05-.05.05-.101 0-.152l-.204-.203zm6.657-3.35h-.356c-.05 0-.102.051-.203.102l-1.016 1.27-1.779 2.337h-.05l.05-1.473v-2.134c0-.102-.05-.102-.101-.102h-.356a.11.11 0 00-.101.102v4.318c0 .051.05.102.101.102h.356c.05 0 .101 0 .152-.05l1.372-1.78 1.423-1.93h.05l-.05 1.474v2.134c0 .05.05.101.101.101h.407a.11.11 0 00.101-.101v-4.319s-.05-.05-.101-.05zm7.061 0H38.22a.11.11 0 00-.101.102l-.458 3.455c-.05.355-.203.508-.508.508a.462.462 0 01-.406-.203c-.051-.051-.102-.051-.102 0l-.254.254c-.05.05-.05.101 0 .152.203.203.457.305.762.305.61 0 .915-.305 1.016-.966l.407-3.099h2.032v3.912c0 .051.05.102.102.102h.355a.11.11 0 00.102-.102V17.22a.11.11 0 00-.102-.102zm4.929 1.321h-1.626v-1.22a.11.11 0 00-.101-.1h-.356a.11.11 0 00-.102.1v4.32c0 .05.051.101.102.101h2.083a1.82 1.82 0 001.22-.457c.304-.305.457-.66.457-1.118 0-.457-.153-.813-.458-1.118-.355-.355-.71-.508-1.219-.508zm.813 2.388c-.203.203-.457.305-.813.305h-1.626v-2.185h1.626c.356 0 .61.102.813.305.203.203.305.457.305.813 0 .356-.102.559-.305.762zm7.164-3.709h-.305c-.102 0-.102.051-.102.102v1.829H50.77v-1.83a.11.11 0 00-.102-.1h-.406a.11.11 0 00-.102.1v4.32c0 .05.051.101.102.101h.305c.101 0 .101-.05.101-.102v-1.981h2.795v1.981c0 .051.05.102.101.102h.305c.102 0 .102-.05.102-.102V17.22c.101-.051.05-.102 0-.102zm3.202 0h-.356a.11.11 0 00-.102.102v4.318a.11.11 0 00.102.102h.356a.11.11 0 00.101-.102V17.22a.11.11 0 00-.101-.102zm8.636 0h-2.084a.11.11 0 00-.101.102v4.318c0 .051.05.102.101.102h.356a.11.11 0 00.102-.102v-1.219h1.626a1.82 1.82 0 001.219-.457c.305-.305.457-.66.457-1.118 0-.457-.152-.813-.457-1.118a1.651 1.651 0 00-1.22-.508zm.812 2.388c-.203.203-.457.305-.813.305h-1.625v-2.185h1.626c.355 0 .61.102.812.305.204.203.305.457.305.762 0 .356-.101.61-.305.813zm5.336-2.388h-.66c-.051 0-.102.051-.153.102l-1.93 4.318c-.051.102 0 .102.05.102h.407a.11.11 0 00.102-.102l.406-.863h2.794l.356.863c0 .051.05.102.102.102h.406c.05 0 .05 0 .05-.05v-.102l-1.879-4.319c.05 0 .05-.05-.05-.05zm-1.524 3.049l1.118-2.592h.152l1.118 2.592h-2.388zm8.942-1.016c.152-.102.305-.255.406-.356a.82.82 0 00.153-.457c0-.407-.153-.712-.56-.915a2.36 2.36 0 00-1.168-.305c-.711 0-1.27.203-1.778.61-.05.05-.05.101 0 .152l.152.203c.051.051.102.051.153 0 .203-.152.406-.304.61-.355.203-.05.457-.102.812-.102.356 0 .66.051.864.203.254.102.356.305.356.56a.534.534 0 01-.254.457 1.024 1.024 0 01-.56.152h-.965a.11.11 0 00-.101.102v.203c0 .05.05.102.101.102h.966c.305 0 .559.05.813.203.203.152.305.355.305.66a.81.81 0 01-.407.712 2 2 0 01-1.016.254c-.356 0-.66-.051-.915-.153a2.217 2.217 0 01-.762-.508c-.05-.05-.101-.05-.152 0l-.203.203c-.051.051-.051.102 0 .153.254.305.558.508.863.61.305.101.66.203 1.118.203a2.6 2.6 0 001.423-.407c.406-.254.559-.61.559-1.067-.051-.61-.305-.965-.813-1.118zm5.335-2.087c-.66 0-1.22.203-1.677.66-.457.457-.66 1.016-.66 1.677 0 .66.203 1.219.66 1.676.457.457 1.016.66 1.677.66.66 0 1.219-.203 1.676-.66.458-.457.66-1.016.66-1.676 0-.66-.202-1.22-.66-1.677-.406-.457-.965-.66-1.676-.66zm1.32 3.607c-.355.355-.761.508-1.27.508-.508 0-.965-.153-1.27-.508-.355-.356-.508-.762-.508-1.321 0-.508.153-.965.508-1.321.356-.356.762-.508 1.27-.508.509 0 .966.152 1.27.508.356.356.509.762.509 1.32 0 .56-.203.966-.508 1.322zm8.485-3.553h-.61c-.05 0-.101.051-.152.102l-.813 1.829-.762 1.829h-.05l-.712-1.575-.965-2.083c-.051-.102-.102-.102-.153-.102h-.61a.11.11 0 00-.101.102v4.318c0 .102.05.102.102.102h.355a.11.11 0 00.102-.102v-2.235l-.051-1.575h.05l.712 1.575 1.016 2.235c.051.051.102.102.153.102h.254c.05 0 .101-.05.152-.102l1.016-2.184.712-1.626h.05l-.05 1.677v2.133c0 .102.05.102.101.102h.305a.11.11 0 00.102-.102V17.22c-.051-.051-.102-.102-.153-.102zm-69.25-3.914c-.101.152-.05.203.102.203h1.524a.28.28 0 00.254-.152l4.319-7.621c.05-.05.05-.102 0-.152-.051-.051-.102-.102-.153-.102h-1.473c-.153 0-.203.05-.254.152L27.5 9.647h-.102L24.959 5.48c-.05-.051-.101-.102-.152-.102H23.18c-.152 0-.152.05-.102.203l3.455 5.589-1.27 2.032zm13.006.254h1.778c.051 0 .102 0 .153-.05 0-.052 0-.102-.051-.153l-3.71-4.268 3.506-3.302c.05-.051.05-.102.05-.153 0-.05-.05-.05-.101-.05h-1.778a.957.957 0 00-.407.101l-3.3 3.252v-3.15c0-.153-.051-.204-.203-.204h-1.27c-.153 0-.204.051-.204.204v7.52c0 .151.051.202.203.202h1.27c.153 0 .204-.05.204-.203v-2.591l.864-.66 2.692 3.353c0 .101.153.152.305.152zm6.809-8.027H41.47c-.152 0-.203.05-.203.203v7.57c0 .152.05.203.203.203h1.27c.153 0 .204-.05.204-.203v-1.93h2.134c.914 0 1.625-.255 2.235-.813.61-.56.864-1.27.864-2.134 0-.813-.305-1.525-.915-2.083-.559-.508-1.27-.813-2.184-.813zm1.066 3.912c-.254.254-.61.355-1.016.355h-2.133V7.056h2.133c.458 0 .763.101 1.017.355.254.254.355.559.355.965 0 .407-.152.712-.355.966zM56.359 5.43h-6.554c-.153 0-.203.05-.203.203v7.57c0 .152.05.203.203.203h1.27c.152 0 .203-.05.203-.203V7.056h3.557v6.147c0 .152.05.203.203.203h1.27c.153 0 .203-.05.203-.203v-7.57c.051-.102-.05-.203-.152-.203zm10.009 4.013c0-1.168-.407-2.133-1.22-2.946-.813-.813-1.829-1.169-2.946-1.169-1.169 0-2.134.407-2.998 1.169-.813.813-1.22 1.778-1.22 2.946 0 1.169.407 2.134 1.22 2.947.813.762 1.829 1.169 2.998 1.169 1.168 0 2.133-.407 2.946-1.169.813-.813 1.22-1.778 1.22-2.947zm-2.439 1.779c-.457.457-1.067.711-1.778.711-.712 0-1.321-.254-1.779-.711-.457-.458-.71-1.067-.71-1.83 0-.761.253-1.371.71-1.828.458-.458 1.068-.712 1.779-.712.711 0 1.32.254 1.778.712.457.457.711 1.067.711 1.829s-.254 1.371-.711 1.829zm13.819 1.981v-7.57c0-.153-.05-.203-.203-.203h-1.27c-.153 0-.204.05-.204.203v6.198h-2.49V5.633c0-.153-.05-.203-.203-.203h-1.27c-.152 0-.203.05-.203.203v6.198h-2.49V5.633c0-.153-.05-.203-.203-.203h-1.27c-.152 0-.203.05-.203.203v7.57c0 .152.05.203.203.203h9.603c.152.051.203-.05.203-.203zm5.588 0V7.056h2.54c.152 0 .203-.051.203-.204v-1.22c0-.152-.05-.202-.203-.202h-6.808c-.153 0-.203.05-.203.203v1.22c0 .152.05.203.203.203h2.54v6.147c0 .152.051.203.203.203h1.27c.204.051.255-.05.255-.203zm11.433 0l-3.303-7.62c-.05-.103-.101-.103-.203-.103h-1.677c-.101 0-.152.051-.203.102l-3.404 7.621c-.05.152 0 .203.152.203h1.474a.28.28 0 00.254-.152l.559-1.423h4.013l.508 1.372c.051.152.153.203.305.203h1.372c.05 0 .102 0 .153-.05.05-.051.05-.102 0-.153zm-5.792-2.896l1.32-3.302h.153l1.27 3.302h-2.743z" fill="#373A36"/></svg>