<svg width="44" height="19" fill="none" xmlns="http://www.w3.org/2000/svg"><path fill-rule="evenodd" clip-rule="evenodd" d="M23.607.527c.353 0 .504.252.655.605 1.463 3.832 2.925 7.664 4.387 11.446a468.954 468.954 0 002.32 5.95h-3.026l-1.361-3.48H19.12l-1.362 3.48h-3.025c.807-2.017 1.563-3.984 2.32-5.95.73-1.916 1.462-3.82 2.193-5.723.73-1.903 1.462-3.807 2.193-5.723.151-.353.302-.605.655-.605h1.513zm-3.429 11.748h5.345a463.554 463.554 0 00-2.672-6.907 257.75 257.75 0 01-1.436 3.715c-.42 1.07-.834 2.126-1.237 3.192zM30.111.578v2.723h5.193v15.076h2.774V3.3h5.193V.578H30.11zM8.481 8.191H5.758c-1.412-.05-2.47-1.11-2.47-2.42 0-1.362 1.058-2.37 2.52-2.37h6.505V.628H5.607A5.115 5.115 0 00.515 5.367C.313 8.039 2.229 10.46 4.9 10.812c.889.122 1.81.113 2.711.105.224-.002.447-.004.667-.004 1.513.05 2.622 1.06 2.622 2.42 0 1.362-1.16 2.37-2.622 2.37H1.12v2.773h7.663c2.824-.151 5.043-2.52 4.942-5.294-.152-2.723-2.42-4.991-5.244-4.991z" fill="#1E3F6A"/></svg>