<svg width="64" height="21" fill="none" xmlns="http://www.w3.org/2000/svg"><g clip-path="url(#clip0_1454_16358)"><path d="M48.584 8.334c-1.484-.515-1.947-.82-1.947-1.379 0-.62.515-.989 1.431-.989.748 0 1.495.21 2.053.432l.242-2.695a9.14 9.14 0 00-2.421-.337c-3 0-4.926 1.705-4.926 3.958-.021 1.431.936 2.79 3.442 3.642 1.41.474 1.779.768 1.779 1.379 0 .621-.474 1.01-1.61 1.01-1.106 0-2.538-.494-3.243-.915l-.663 2.694c.916.495 2.316.842 3.916.842 3.473 0 5.242-1.652 5.242-3.915-.021-1.78-.98-2.937-3.295-3.727zm9.105 4.58c-1.137 0-1.484-.664-1.484-2.127V.355l-3.684.843v2.431h-1.4l-.253 2.769h1.663v4.936c0 1.706.348 2.864 1.042 3.59.59.62 1.6 1.042 2.811 1.042 1.063 0 1.947-.126 2.442-.326l-.021-2.842a6.618 6.618 0 01-1.116.115zM56.5 6.407h2.306V3.63H56.5v2.78zM14.722 9.892a162.805 162.805 0 01-.137-6.337h-.074a76.433 76.433 0 01-1.79 5.969l-1.957 6.02H7.93L6.216 9.567a67.258 67.258 0 01-1.453-6.021H4.72c-.095 2.074-.169 4.463-.284 6.39l-.285 5.852H.773L1.794.366h4.843l1.568 5.147c.495 1.78 1 3.716 1.358 5.516h.074c.452-1.779 1-3.831 1.526-5.537L12.879.366h4.747l.884 15.421h-3.558l-.231-5.895zm19.926.99c.126 1.558 1.653 2.295 3.421 2.295 1.284 0 2.316-.169 3.348-.495l.494 2.547c-1.231.495-2.737.737-4.379.737-4.105 0-6.452-2.368-6.452-6.158 0-3.063 1.905-6.453 6.105-6.453 3.916 0 5.39 3.032 5.39 6.032 0 .642-.074 1.21-.127 1.484l-7.8.01zm4.432-2.58c0-.915-.4-2.441-2.127-2.441-1.579 0-2.22 1.431-2.315 2.442h4.442z" fill="#0862AF"/><path d="M61.383.375l2.547 4.642-2.547 4.663h-2.579l2.548-4.663L58.794.375h2.59c0-.01 0-.01 0 0zM29.857 20.354H19.499v-2.568h10.358v2.568zM22.54 10.87c.126 1.558 1.653 2.295 3.421 2.295 1.284 0 2.316-.169 3.348-.495l.494 2.547c-1.231.495-2.737.737-4.379.737-4.105 0-6.452-2.368-6.452-6.158 0-3.063 1.905-6.452 6.105-6.452 3.916 0 5.39 3.031 5.39 6.031 0 .642-.074 1.21-.127 1.484h-7.8v.01zm4.432-2.58c0-.915-.4-2.441-2.127-2.441-1.579 0-2.22 1.431-2.326 2.442h4.453z" fill="#ED1C24"/></g><defs><clipPath id="clip0_1454_16358"><path fill="#fff" transform="translate(.773 .355)" d="M0 0h63.158v20H0z"/></clipPath></defs></svg>