<svg width="68" height="24" fill="none" xmlns="http://www.w3.org/2000/svg"><g clip-path="url(#clip0_1454_16295)" fill-rule="evenodd" clip-rule="evenodd"><path d="M9.157.984l-8.2 8.2v14.118l17.703-.016 8.222-8.147.008-13.854v-.3H9.157z" fill="#FCB614"/><path d="M49.936 11.49l-2.588 4.853v-5.135H43.93v10.093h3.187a.544.544 0 00.473-.275l2.69-4.856v5.13h3.416V11.208h-3.28c-.2 0-.383.108-.479.283zm-1.183-1.232c-1.731 0-3.14-1.308-3.14-2.992h2.115c0 .614.293 1.157 1.025 1.157.757 0 1.024-.543 1.024-1.157h2.114c0 1.684-1.408 2.992-3.138 2.992zm-15.755.95h-8.854v3.016h2.68v7.077h3.494v-7.077h2.68v-3.016zm6.955 10.093h3.321l-3.636-9.805a.442.442 0 00-.415-.288h-3.291a.443.443 0 00-.415.288L31.88 21.3h3.321a.228.228 0 00.217-.156l.369-1.12h3.58l.37 1.12c.03.093.117.156.216.156zm-3.363-3.804l.987-2.997.988 2.997H36.59zm27.146-6.038l-2.424 4.093-2.423-4.093a.513.513 0 00-.442-.251h-3.193v10.093h3.495v-4.766l1.556 2.548c.049.08.137.13.232.13h1.552c.095 0 .183-.05.232-.13l1.554-2.548v4.766h3.495V11.208h-3.193a.513.513 0 00-.441.251zm-55.707-.255h3.38v3.598h2.798v-3.598h3.38V21.3h-3.38v-3.598h-2.798V21.3H8.03V11.204zM3.018 21.3H6.63V11.204H3.018V21.3z" fill="#221F20"/></g><defs><clipPath id="clip0_1454_16295"><path fill="#fff" transform="translate(.773 .86)" d="M0 0h66.756v23H0z"/></clipPath></defs></svg>