<svg width="72" height="26" fill="none" xmlns="http://www.w3.org/2000/svg"><path fill-rule="evenodd" clip-rule="evenodd" d="M13.668.84h-.33l-.303.126-4.72 4.65c-.203.264-.14.453.202.453h2.088c.342 0 .607.277.607.605v3.453c0 .327.266.592.608.592h3.43c.405 0 .67-.265.67-.592V6.674c0-.328.279-.605.608-.605h1.962c.329 0 .405-.189.202-.453l-4.72-4.65-.304-.126zm29.64 4.107h-.038c-2.152 0-3.91 1.664-3.91 3.78a3.902 3.902 0 003.91 3.92l.038-.013v-1.525l-.038.013c-1.215 0-2.152-1.071-2.152-2.394 0-1.26.937-2.256 2.152-2.256l.038.013V4.947zm-10.276.126H31.55v1.399h.607c.063 0 .063.063.063.063v5.973h1.62V9.52h2.899v2.987h1.62V6.535l.063-.063h.607V5.073h-1.417c-.608 0-.873.265-.873.87V8.06h-2.898V5.943c0-.605-.266-.87-.81-.87zm10.277-.126l.746.076c1.785.34 3.126 1.852 3.126 3.705a3.882 3.882 0 01-3.126 3.83l-.746.076v-1.525l.822-.176c.798-.366 1.367-1.21 1.367-2.205 0-.946-.57-1.74-1.367-2.08l-.822-.163V4.947zm6.464.126h-2.265v1.399h.683v5.179c0 .592.266.857.81.857h1.848v-1.462h-.974c-.04 0-.06 0-.069-.01-.008-.008-.008-.023-.008-.053V9.32h1.051V7.997h-1.051V6.472h1.051V5.073h-1.076zm1.079 0h.025c1.493 0 2.366.807 2.366 2.004 0 .718-.341 1.184-.67 1.524.607.265 1 .92 1 1.651 0 1.399-1.076 2.256-2.62 2.256h-.101v-1.462h.164c.544 0 .873-.328.873-.857 0-.529-.329-.87-.873-.87h-.164V7.998h.025c.48 0 .747-.328.747-.794s-.266-.731-.747-.731h-.025v-1.4zm6.504 0h-.684l-2.151 5.91a.248.248 0 01-.06.05c-.026.013-.06.013-.143.013h-.341v1.462h1.012c.544 0 .81-.202.95-.655l.468-1.198h2.149l.469 1.122c.139.53.404.73.949.73h.936v-1.461h-.265c-.084 0-.117 0-.144-.013a.246.246 0 01-.059-.05l-2.152-5.91h-.934zm.795 4.184h-1.34l.532-1.525c0-.2.075-.389.138-.527.063.138.139.326.139.527l.531 1.525zm-20.74 5.368h-5.86v1.399h.67v6.035h1.62v-6.035h2.696c.063 0 .063.075.063.075v5.104c0 .592.279.857.886.857h1.405v-1.462h-.531c-.04 0-.06 0-.068-.01-.008-.008-.008-.024-.008-.053v-5.04c0-.593-.33-.87-.873-.87zm5.73-.125h.025v1.537l-.026-.012c-1.227 0-2.164.995-2.164 2.255 0 1.323.937 2.394 2.164 2.394l.026-.012v1.524l-.026.013c-2.164 0-3.847-1.726-3.847-3.919 0-2.117 1.683-3.78 3.847-3.78zm.799.076l-.772-.076v1.537l.86.164c.798.34 1.33 1.134 1.33 2.08 0 .995-.532 1.839-1.33 2.204l-.86.177v1.524l.772-.075c1.81-.353 3.1-1.915 3.1-3.83 0-1.853-1.29-3.365-3.1-3.705zm3.443.049h1.48c.545 0 .81.277.81.87v5.04c0 .031 0 .047.008.055s.024.008.056.008h1.949v-5.973h1.62v5.973h1.962c.031 0 .047 0 .055-.008s.008-.024.008-.055v-5.04c0-.593.265-.87.81-.87h1.48v1.399h-.607c-.076 0-.076.075-.076.075v5.104c0 .592-.266.857-.797.857h-7.214c-.608 0-.873-.265-.873-.857v-5.104s0-.075-.064-.075h-.607v-1.399zm16.57 0h-5.05c-.544 0-.747.277-.747.806v1.26h1.481V16.1c0-.037 0-.056.01-.066.009-.01.028-.01.066-.01h.937v6.037h1.62v-6.036h.936c.038 0 .057 0 .066.01.01.009.01.028.01.065v.593h1.48v-1.26c0-.53-.202-.807-.81-.807zm2.895 0h1.606l2.164 5.91a.25.25 0 00.059.05c.027.013.06.013.143.013h.266v1.462h-.936c-.545 0-.81-.202-.95-.731l-.468-1.122H66.57l-.47 1.123c-.126.529-.405.73-.936.73h-1.013v-1.461h.342c.07 0 .102 0 .129-.011a.303.303 0 00.073-.052l2.152-5.897v-.013zm.808 4.183h.671l-.544-1.524c0-.201-.063-.39-.126-.528a1.13 1.13 0 00-.138.528l-.544 1.524h.681zM21.173 8.237c.076-.025.178.025.279.164l4.581 4.435c.266.265.266.668 0 .87l-4.581 4.51c-.101.127-.203.164-.279.127-.075-.038-.126-.164-.126-.328V8.527c0-.164.05-.265.126-.29zM5.96 8.135c.076.05.127.164.127.328v9.677c0 .177-.05.277-.127.303-.088.037-.202 0-.341-.101L.973 13.705c-.266-.202-.266-.605 0-.87l4.644-4.574c.14-.126.254-.164.342-.126zm9.287 7.624h-3.43a.598.598 0 00-.607.605v3.641c0 .404-.266.668-.608.668H8.64c-.33 0-.469.19-.19.39l4.581 4.575a.635.635 0 00.469.201.655.655 0 00.468-.201l4.581-4.574c.266-.202.14-.39-.202-.39h-1.823c-.329 0-.595-.265-.595-.669v-3.641c0-.34-.278-.605-.683-.605z" fill="#ED1C24"/></svg>