<svg width="95" height="25" fill="none" xmlns="http://www.w3.org/2000/svg"><path fill-rule="evenodd" clip-rule="evenodd" d="M64.33 0zm0 0v.81a2.15 2.15 0 01-1.406 2.009L58.73 4.386V2.093L64.33 0zm-1.268 3.4L58.73 5.042v2.293l2.937-1.114a2.149 2.149 0 001.396-2.005V3.4zm-4.197 16.034h3.455c.08 0 .145-.064.145-.143V7.84a.144.144 0 00-.145-.143h-3.455a.144.144 0 00-.144.143v11.45c0 .078.064.143.144.143zM54.2 14.608v.118c0 1.534 1.447 1.848 2.683 1.87.079 0 .142.064.142.142v2.552a.144.144 0 01-.145.143h-1.14c-1.394 0-5.34-.029-5.34-4.278v-4.301c0-2.548.001-4.763 0-5.33 0-.08.064-.142.144-.142h3.511c.08 0 .145.062.145.141v2.175h2.64c.08 0 .144.064.144.143v2.755a.144.144 0 01-.144.143h-2.644c.005 1.555.004 3.333.004 3.867v.002zM21.21 17.87c0 .75-.41 1.844-2.701 1.865a.145.145 0 00-.146.142v2.552c0 .079.065.142.145.142h1.141c1.393 0 5.34-.05 5.34-4.3v-4.42c-.001-2.81-.002-5.39 0-6.012a.143.143 0 00-.145-.142h-3.487a.143.143 0 00-.145.142c-.002 1.023-.002 7.294-.001 9.395v.636zm10.72-1.175c1.044 0 1.643-.559 1.637-1.538V7.84c0-.08.066-.143.146-.143h3.454c.08 0 .145.064.145.143v7.703c0 4.324-4.058 4.324-5.38 4.324-1.323 0-5.381-.015-5.381-4.324v-3.677c.001-1.982.002-3.583 0-4.027 0-.08.064-.143.145-.143h3.454c.08 0 .145.063.145.142.004.758.002 4.38 0 6.256v1.059c0 .982.59 1.541 1.634 1.541zm36.291-4.718c-.005-.98.593-1.54 1.638-1.54s1.635.56 1.635 1.542v1.057c-.002 1.875-.004 5.5 0 6.258 0 .079.065.142.144.142h3.455c.08 0 .146-.063.145-.143-.002-.443-.001-2.035 0-4.01v-3.694c0-4.309-4.058-4.324-5.38-4.324s-5.381 0-5.381 4.324v7.703c0 .08.064.143.144.143h3.455c.08 0 .145-.064.145-.143v-7.316zm-23.726.297c.68.121 1.836.326 1.902.341 1.587.36 2.766 1.528 2.765 3.307 0 2.403-1.748 3.983-5.261 3.983-4.435 0-5.248-2.937-5.297-4.066a.143.143 0 01.146-.148h3.256c.073 0 .135.053.143.124.045.387.363 1.276 1.818 1.276 1.299 0 1.618-.687 1.618-1.099 0-1.047-1.818-1.298-3.15-1.482a11.51 11.51 0 01-.97-.159c-1.581-.376-2.766-1.323-2.766-3.102 0-2.338 1.673-3.984 5.017-3.984 4.407 0 5.147 2.552 5.193 3.944a.143.143 0 01-.145.145h-3.022a.143.143 0 01-.144-.136c-.013-.402-.188-1.241-1.6-1.241-1.297 0-1.619.686-1.619 1.1 0 .624.643.932 1.628 1.11l.488.087zm-6.54 11.95a1.284 1.284 0 01-.928.367c-.367 0-.676-.123-.928-.367a1.208 1.208 0 01-.379-.905c0-.359.126-.66.379-.905.252-.244.561-.366.928-.366.366 0 .675.122.928.366.252.245.379.546.379.905 0 .36-.127.66-.38.905zm-1.36-.482a.588.588 0 00.432.168.588.588 0 00.432-.168.568.568 0 00.17-.422.569.569 0 00-.17-.422.588.588 0 00-.432-.169.588.588 0 00-.431.169.568.568 0 00-.171.422c0 .169.057.31.17.422zm-1.472.12h.264V25h-.704v-.465h-1.056V25h-.705v-1.14h.261c.099-.175.148-.42.148-.736v-1.021h1.792v1.758zm-1.212 0h.508v-1.12h-.384v.39c0 .301-.041.544-.124.73zm5.212.364c.245.243.552.365.923.365.227 0 .438-.053.63-.16.192-.106.343-.25.45-.434l-.612-.347a.436.436 0 01-.185.19.572.572 0 01-.283.07.562.562 0 01-.423-.166.583.583 0 01-.162-.424c0-.171.054-.313.162-.424a.563.563 0 01.423-.167c.103 0 .197.023.282.07a.44.44 0 01.187.187l.612-.347a1.178 1.178 0 00-.451-.43 1.28 1.28 0 00-.63-.16 1.253 1.253 0 00-1.289 1.27c0 .362.122.664.366.907zm4.187-2.122v.674h-.581v1.758h-.704v-1.758h-.581v-.674h1.866zm2.571 0h-.74l-.348.924-.426-.924h-.74l.818 1.663c-.111.098-.273.138-.487.122v.646c.308.012.557-.049.749-.18.191-.133.346-.334.463-.605l.711-1.646zm2.36 0v2.431h-.705v-1.757h-.528v1.758h-.704v-2.432h1.936zm2.605 0h-.704v.861h-.599v-.861h-.704v2.431h.704v-.896h.6v.896h.703v-2.431zm2.025 2.431l-.085-.312h-.711l-.084.313h-.758l.785-2.432h.825l.785 2.431h-.757zm-.236-.868l-.204-.747-.204.747h.408zm4.638.195h-.264v-1.758h-1.792v1.021c0 .315-.05.56-.148.737h-.26V25h.704v-.465h1.056V25h.704v-1.14zm-.968 0h-.507c.082-.186.123-.429.123-.73v-.39h.384v1.12zm3.536.362a1.284 1.284 0 01-.928.367c-.366 0-.675-.123-.928-.367a1.208 1.208 0 01-.378-.905c0-.359.126-.66.378-.905.252-.244.562-.366.928-.366s.675.122.928.366c.253.245.379.546.379.905 0 .36-.126.66-.379.905zm-1.359-.482a.588.588 0 00.431.168.588.588 0 00.432-.168.568.568 0 00.17-.422.57.57 0 00-.17-.422.588.588 0 00-.432-.169.588.588 0 00-.431.169.568.568 0 00-.17.422c0 .169.056.31.17.422zm2.528.484c.244.243.551.365.922.365.228 0 .438-.053.63-.16.192-.106.343-.25.45-.434l-.612-.347a.436.436 0 01-.185.19.572.572 0 01-.283.07.562.562 0 01-.423-.166.583.583 0 01-.162-.424c0-.171.054-.313.162-.424a.563.563 0 01.423-.167c.103 0 .197.023.282.07a.44.44 0 01.187.187l.612-.347a1.178 1.178 0 00-.45-.43 1.28 1.28 0 00-.631-.16 1.253 1.253 0 00-1.289 1.27c0 .362.122.664.367.907zm4.187-2.122v.674h-.582v1.758h-.704v-1.758h-.581v-.674h1.867zm1.622 2.119l.085.313h.757l-.786-2.432h-.824l-.785 2.431h.757l.084-.312h.712zm-.15-.556h-.41l.205-.747.204.747zm2.965-.386a.578.578 0 01.317.538c0 .223-.073.398-.22.525-.147.127-.36.19-.64.19H68.05v-2.43h.98c.276 0 .487.058.633.176.146.118.218.287.218.508a.574.574 0 01-.246.493zm-.648-.58h-.233v.327l.271-.004c.101-.014.152-.067.152-.16a.142.142 0 00-.057-.122.22.22 0 00-.133-.04zm.063 1.236a.207.207 0 00.14-.048.157.157 0 00.057-.125c0-.097-.053-.154-.158-.17l-.335-.004v.348h.296zm2.694.599h.781l-.767-1.251.732-1.181h-.782l-.577.973v-.973h-.704v2.431h.704v-1.042l.613 1.043zm2.7 0l-.085-.313h-.712l-.084.313h-.757l.785-2.432h.825l.785 2.431h-.757zm-.645-.87h.409l-.204-.746-.205.747z" fill="#304FFE"/></svg>