<svg width="33" height="31" fill="none" xmlns="http://www.w3.org/2000/svg"><g clip-path="url(#clip0_1454_16495)" fill="#FFAE00"><path d="M25.722 30.345c1.026-1.3 6.545-8.41 6.545-11.357 0-3.652-2.94-6.617-6.545-6.617-3.607 0-6.546 2.971-6.546 6.617 0 2.948 5.52 10.056 6.546 11.357zm0-14.1c1.495 0 2.713 1.23 2.713 2.743 0 1.512-1.217 2.742-2.713 2.742s-2.714-1.23-2.714-2.742 1.218-2.743 2.714-2.743z"/><path d="M23.194 26.945a67.088 67.088 0 01-1.078-1.583l-6.372 2.643v-15.12l11.26-4.676v4.29a6.307 6.307 0 011.854.685V6.726a.938.938 0 00-.573-.867L15.17.413a.924.924 0 00-.708 0L1.347 5.86a.938.938 0 00-.574.867v17.23c0 .38.227.72.574.867l13.115 5.445a.925.925 0 00.708 0c.005 0-.354.152 8.024-3.323zm-8.378-24.65l3.218 1.337L7.592 8.238 4.049 6.767l10.767-4.472zm-.928 25.71L2.628 23.33V8.209l4.17 1.728v4.882c0 .516.417.938.927.938s.928-.422.928-.938v-4.114l5.23 2.174v15.126h.005zm.928-16.766l-4.83-2.005 10.442-4.606 5.155 2.139-10.767 4.471z"/></g><defs><clipPath id="clip0_1454_16495"><path fill="#fff" transform="translate(.773 .344)" d="M0 0h31.5v30H0z"/></clipPath></defs></svg>