<svg width="25" height="25" viewBox="0 0 25 25" fill="none" xmlns="http://www.w3.org/2000/svg">
<path fill-rule="evenodd" clip-rule="evenodd" d="M16.5678 13.4047C16.6323 13.1133 16.6663 12.8105 16.6663 12.4997C16.6663 10.1985 14.8009 8.33301 12.4997 8.33301C12.1889 8.33301 11.886 8.36704 11.5947 8.43157L16.5678 13.4047ZM9.0632 10.1428C8.60259 10.8131 8.33301 11.6249 8.33301 12.4997C8.33301 14.8009 10.1985 16.6663 12.4997 16.6663C13.3745 16.6663 14.1863 16.3968 14.8566 15.9361L13.3941 14.4737C13.1215 14.5974 12.8186 14.6663 12.4997 14.6663C11.3031 14.6663 10.333 13.6963 10.333 12.4997C10.333 12.1807 10.4019 11.8779 10.5257 11.6052L9.0632 10.1428Z" fill="#C3C8D5"/>
<path fill-rule="evenodd" clip-rule="evenodd" d="M17.2329 18.3121L15.766 16.8452C14.7288 17.3993 13.6253 17.75 12.5004 17.75C10.8858 17.75 9.31499 17.0272 7.92121 16.0179C6.53567 15.0145 5.41082 13.7896 4.70933 12.9332C4.60976 12.8116 4.53526 12.7206 4.47353 12.6404C4.4242 12.5764 4.39283 12.5319 4.37238 12.5C4.39283 12.4681 4.4242 12.4236 4.47353 12.3596C4.53526 12.2794 4.60976 12.1884 4.70933 12.0668C5.40902 11.2126 6.52993 9.99178 7.9106 8.98982L6.48098 7.56019C5.03014 8.65904 3.87922 9.924 3.16211 10.7995C3.13849 10.8283 3.11386 10.858 3.08851 10.8885C2.77612 11.2647 2.35449 11.7726 2.35449 12.5C2.35449 13.2274 2.77612 13.7353 3.08851 14.1115C3.11386 14.142 3.13849 14.1717 3.16211 14.2005C3.92269 15.1291 5.17128 16.4958 6.74813 17.6377C8.31673 18.7737 10.2973 19.75 12.5004 19.75C14.2499 19.75 15.859 19.1344 17.2329 18.3121ZM9.144 5.98058C10.1773 5.53689 11.3062 5.25 12.5004 5.25C14.7036 5.25 16.6842 6.22632 18.2528 7.36229C19.8296 8.50423 21.0782 9.87092 21.8388 10.7995C21.8624 10.8283 21.887 10.8579 21.9123 10.8884L21.9124 10.8885C22.2248 11.2647 22.6464 11.7726 22.6464 12.5C22.6464 13.2274 22.2248 13.7353 21.9124 14.1115L21.9122 14.1117C21.8869 14.1421 21.8624 14.1717 21.8388 14.2005C21.3213 14.8323 20.5779 15.6669 19.6589 16.4955L18.2426 15.0792C19.097 14.3184 19.7987 13.5349 20.2916 12.9332C20.3911 12.8116 20.4656 12.7206 20.5274 12.6404C20.5767 12.5764 20.6081 12.5319 20.6285 12.5C20.6081 12.4681 20.5767 12.4236 20.5274 12.3596C20.4656 12.2794 20.3911 12.1884 20.2916 12.0668C19.5901 11.2104 18.4652 9.98553 17.0797 8.98213C15.6859 7.97277 14.1151 7.25 12.5004 7.25C11.8912 7.25 11.2882 7.35289 10.6987 7.53525L9.144 5.98058Z" fill="#C3C8D5"/>
<path d="M5.20801 2.08301L21.8747 18.7497" stroke="#C3C8D5" stroke-width="2"/>
</svg>
