<svg width="22" height="22" fill="none" xmlns="http://www.w3.org/2000/svg"><path fill-rule="evenodd" clip-rule="evenodd" d="M9.788 3.187l1.784 6.66c.244.91.367 1.366.16 1.724-.208.359-.663.48-1.574.725l-6.66 1.784c-.935.251-1.403.376-1.786.106-.383-.271-.416-.7-.483-1.556A10.894 10.894 0 017.397 1.946c.775-.37 1.163-.555 1.589-.359.426.197.551.664.802 1.6zm3.488 7.237l-1.964-7.328a8.716 8.716 0 11-7.13 12.353l7.326-1.963.043-.012c.186-.05.448-.12.672-.213.281-.117.7-.349.982-.837.282-.488.273-.966.234-1.269a5.453 5.453 0 00-.152-.688l-.011-.043z" fill="#308AFC"/></svg>