<svg width="22" height="22" fill="none" xmlns="http://www.w3.org/2000/svg"><mask id="a" maskUnits="userSpaceOnUse" x=".832" y=".834" width="21" height="21" fill="#000"><path fill="#fff" d="M.832.834h21v21h-21z"/><path d="M10.999 1.834a9.167 9.167 0 11-6.482 2.685L7.11 7.112A5.5 5.5 0 1010.999 5.5V1.834z"/></mask><path d="M10.999 1.834a9.167 9.167 0 11-6.482 2.685L7.11 7.112A5.5 5.5 0 1010.999 5.5V1.834z" fill="#57CA70"/><path d="M10.999 1.834v-1h-1v1h1zm5.815 2.08l.634-.772-.634.773zm2.269 11.408l.882.471-.882-.471zm-4.576 4.148l.382.923-.382-.924zm-11.13-3.377l-.832.556.832-.556zm-1.5-5.99l-.996-.099.995.098zm2.64-5.584l.707-.707-.707-.707-.707.707.707.707zM7.11 7.112l.707.707.707-.707-.707-.708-.707.708zm-1.585 3.35l-.995-.098.995.098zm.9 3.594l-.83.556.83-.556zm2.977 2.208l-.29.957.29-.957zm3.702-.182l.382.924-.383-.924zm1.384-9.333l.634-.773-.634.773zm-3.49-1.248h-1v1h1v-1zm0-2.667c1.89 0 3.721.655 5.182 1.854l1.268-1.546a10.167 10.167 0 00-6.45-2.308v2zm5.182 1.854a8.167 8.167 0 012.829 4.72l1.961-.39a10.166 10.166 0 00-3.522-5.876L16.18 4.688zm2.829 4.72a8.167 8.167 0 01-.808 5.442l1.764.943a10.166 10.166 0 001.005-6.776l-1.961.39zM18.2 14.85a8.167 8.167 0 01-4.077 3.696l.765 1.847a10.166 10.166 0 005.076-4.6L18.2 14.85zm-4.077 3.696a8.167 8.167 0 01-5.496.27l-.58 1.914c2.25.682 4.668.564 6.841-.337l-.765-1.847zm-5.496.27a8.167 8.167 0 01-4.42-3.278l-1.663 1.11a10.166 10.166 0 005.502 4.082l.581-1.914zm-4.42-3.278A8.167 8.167 0 012.871 10.2l-1.99-.196c-.23 2.34.358 4.69 1.664 6.645l1.663-1.111zM2.871 10.2a8.167 8.167 0 012.353-4.974L3.81 3.812a10.167 10.167 0 00-2.93 6.192l1.99.196zm.939-4.974l2.593 2.593 1.414-1.415-2.593-2.592L3.81 5.226zm2.593 1.178a6.5 6.5 0 00-1.873 3.96l1.99.196a4.5 4.5 0 011.297-2.741L6.403 6.404zm-1.873 3.96a6.5 6.5 0 001.064 4.248L7.257 13.5a4.5 4.5 0 01-.737-2.941l-1.99-.197zm1.064 4.248a6.5 6.5 0 003.518 2.609l.58-1.914A4.5 4.5 0 017.257 13.5l-1.663 1.11zm3.518 2.609a6.5 6.5 0 004.374-.215l-.765-1.848a4.5 4.5 0 01-3.029.149l-.58 1.914zm4.374-.215a6.5 6.5 0 003.245-2.941l-1.764-.943a4.5 4.5 0 01-2.246 2.036l.765 1.848zm3.245-2.941a6.5 6.5 0 00.643-4.332l-1.962.39a4.5 4.5 0 01-.445 2.999l1.764.943zm.643-4.332a6.5 6.5 0 00-2.252-3.757l-1.268 1.546a4.5 4.5 0 011.558 2.6l1.962-.39zm-2.252-3.757A6.5 6.5 0 0011 4.501v2a4.5 4.5 0 012.854 1.021l1.27-1.546zM12 5.501V1.834h-2v3.667h2z" fill="#57CA70" mask="url(#a)"/><path d="M10.999 11L4.582 4.585" stroke="#57CA70" stroke-width="2" stroke-linecap="round"/></svg>