<svg width="269" height="183" fill="none" xmlns="http://www.w3.org/2000/svg"><path d="M221.85 100.232h.75v-.75h-.75v.75zm0 24.62h-.75v.75h.75v-.75zm-45.746-24.62l-.74.123.105.627h.635v-.75zm-2.542-15.25l-.647-.377-.137.234.045.267.739-.123zM221.85 2.228v-.75h-.43l-.218.372.648.378zm21.126 0h.75v-.75h-.75v.75zm0 78.15h-.75v.75h.75v-.75zm11.754 0h.75v-.75h-.75v.75zm0 19.855v.75h.75v-.75h-.75zm-11.754 0v-.75h-.75v.75h.75zm0 24.62v.75h.75v-.75h-.75zM221.85 80.376v.75h.75v-.75h-.75zm-21.92 0l-.66-.355-.596 1.105h1.256v-.75zm21.92-18.108l-.747-.065-.003.032v.034h.75zm.005-.059l.748.066.002-.033v-.033h-.75zm0-22.53h.75l-1.41-.356.66.355zm-.755 60.553v24.62h1.5v-24.62h-1.5zm-44.996.75h45.746v-1.5h-45.746v1.5zm-3.281-15.876l2.541 15.249 1.48-.247-2.542-15.249-1.479.247zM221.202 1.85l-48.287 82.756 1.295.756 48.288-82.756-1.296-.756zm21.774-.372H221.85v1.5h21.126v-1.5zm.75 78.9V2.226h-1.5v78.15h1.5zm11.004-.75h-11.754v1.5h11.754v-1.5zm.75 20.605V80.376h-1.5v19.856h1.5zm-12.504.75h11.754v-1.5h-11.754v1.5zm.75 23.87v-24.62h-1.5v24.62h1.5zm-21.876.75h21.126v-1.5H221.85v1.5zm0-45.976h-21.92v1.5h21.92v-1.5zm-.75-17.358v18.108h1.5V62.268h-1.5zm.008-.125l-.005.06 1.494.131.006-.059-1.495-.132zm1.497.066V39.68h-1.5v22.53h1.5zM200.59 80.732l21.926-40.698-1.321-.711L199.27 80.02l1.32.711zm-150.978 19.5h.75v-.75h-.75v.75zm0 24.62h-.75v.75h.75v-.75zm-45.746-24.62l-.74.123.104.627h.636v-.75zm-2.542-15.25l-.648-.377-.136.234.044.267.74-.123zM49.612 2.228v-.75h-.43l-.218.372.648.378zm21.126 0h.75v-.75h-.75v.75zm0 78.15h-.75v.75h.75v-.75zm11.754 0h.75v-.75h-.75v.75zm0 19.855v.75h.75v-.75h-.75zm-11.754 0v-.75h-.75v.75h.75zm0 24.62v.75h.75v-.75h-.75zM49.612 80.376v.75h.75v-.75h-.75zm-21.92 0l-.66-.355-.596 1.105h1.256v-.75zm21.92-18.108l-.747-.065-.003.032v.034h.75zm.005-.059l.747.066.003-.033v-.033h-.75zm0-22.53h.75l-1.41-.356.66.355zm-.755 60.553v24.62h1.5v-24.62h-1.5zm-44.996.75h45.746v-1.5H3.866v1.5zM.584 85.106l2.542 15.249 1.48-.247-2.542-15.249-1.48.247zM48.964 1.85L.676 84.605l1.296.756L50.26 2.605l-1.296-.756zm21.774-.372H49.612v1.5h21.126v-1.5zm.75 78.9V2.226h-1.5v78.15h1.5zm11.004-.75H70.738v1.5h11.754v-1.5zm.75 20.605V80.376h-1.5v19.856h1.5zm-12.504.75h11.754v-1.5H70.738v1.5zm.75 23.87v-24.62h-1.5v24.62h1.5zm-21.876.75h21.126v-1.5H49.612v1.5zm0-45.976h-21.92v1.5h21.92v-1.5zm-.75-17.358v18.108h1.5V62.268h-1.5zm.008-.125l-.005.06 1.494.131.005-.059-1.494-.132zm1.497.066V39.68h-1.5v22.53h1.5zM28.352 80.732l21.926-40.698-1.321-.711L27.032 80.02l1.32.711z" fill="#3C3C3B"/><path d="M163.94 114.183c.308-2.523.462-5.224.462-8.107v-49.4c0-25.256-11.755-36.533-36.375-36.533-24.62 0-36.375 11.913-36.375 36.533v49.4c0 13.693 3.456 23.278 10.544 29.183m11.621-25.197c-.17-1.573-.245-3.275-.245-5.098V57.788c0-11.595 3.018-18.267 14.455-18.267 11.437 0 14.455 6.672 14.455 18.267v47.176c0 10.829-2.633 17.363-12.297 18.18" stroke="#3C3C3B" stroke-width="1.5"/><path fill-rule="evenodd" clip-rule="evenodd" d="M158.311 15.754v-.202c.033 0 .065.004.099.008a.477.477 0 00.371-.075c.42.228.836.457 1.25.684h.001c1.17.642 2.322 1.275 3.512 1.87 3.066 1.537 6.028 3.23 9.024 4.941l.002.002.003.001 1.234.705h.001a379.103 379.103 0 005.298 3.025c.974.562 1.947 1.098 2.914 1.63 1.234.679 2.458 1.352 3.66 2.068 1.48.837 2.937 1.716 4.386 2.59 1.113.671 2.221 1.34 3.329 1.982 2.683 1.547 5.299 3.026 8.117 4.37 2.817 1.278 5.567 2.488 8.586 3.16.403.068.537.27.537.673.033 1.177.033 2.337.033 3.496 0 1.16 0 2.32.034 3.497.027 1.263.032 2.515.037 3.766.008 1.878.017 3.75.097 5.647.045 1.033.03 2.097.015 3.15v.001a102.02 102.02 0 00-.015 1.555c0 3.16 0 6.253.134 9.413.027.592.032 1.184.038 1.775.008.888.016 1.775.096 2.663.081.928.089 1.832.097 2.742.005.605.011 1.212.038 1.83.044 1.118.029 2.266.015 3.424-.008.583-.015 1.168-.015 1.753 0 2.286-.068 4.572-.135 6.858 0 .261-.015.538-.032.823-.017.303-.035.614-.035.925.039 1.151-.011 2.28-.06 3.412a59.006 59.006 0 00-.074 2.572c.038.69-.011 1.358-.06 2.029a20.953 20.953 0 00-.074 1.535c0 1.469-.118 2.968-.236 4.477v.001c-.061.769-.121 1.541-.167 2.313-.049 1.184-.206 2.332-.366 3.497-.058.423-.117.847-.17 1.277a30.4 30.4 0 01-.604 3.563c-.07.317-.104.468-.197.53-.084.057-.218.04-.474.008-.469-.067-1.006-.134-1.476-.134-2.683-.068-5.232.403-7.647 1.748-1.073.605-1.878 1.344-2.616 2.286-.47.605-.671 1.277-.872 2.017-.335 1.412.201 2.487 1.274 3.227 1.074.74 2.348 1.143 3.69.941 1.342-.134 2.616-.47 3.757-1.21 1.274-.874 2.414-1.882 3.354-3.16.805-1.076 1.408-2.286 1.878-3.563.134-.337.268-.538.671-.404 1.476.404 2.817.874 4.159 1.547 2.683 1.344 5.031 3.227 7.11 5.378.403.404.738.875 1.007 1.412-.336.068-.604.135-.872.202-1.387.288-2.842.404-4.291.521-.585.047-1.169.094-1.747.151l-.188.02c-1.878.195-3.698.384-5.581.384-.235 0-.469.017-.704.034-.235.016-.47.033-.704.033-3.287.202-6.642.336-9.929.202-3.018-.135-6.037-.471-9.056-1.143-.134-.067-.335-.067-.536-.067-.336 0-.537.134-.604.47-.067.269 0 .605.335.74.336.202.671.269 1.074.336.89.096 1.78.228 2.674.359h.001c1.597.235 3.204.472 4.838.515l.186.008c1.543.064 3.029.127 4.577.127l3.085-.101.011-.001 3.075-.1h.001c.469 0 1.006 0 1.542-.067a250.54 250.54 0 012.845-.207c2.402-.165 4.793-.33 7.15-.667.322-.054.649-.103.978-.153h.003c.903-.135 1.824-.274 2.709-.52.805-.202.939-.538.671-1.277-.403-1.009-1.141-1.883-1.879-2.623-1.006-.941-2.079-1.815-3.152-2.689h-.001c-.737-.538-1.475-1.076-2.213-1.546-1.811-1.143-3.757-1.883-5.769-2.421l-.173-.048c-.464-.128-.661-.182-.72-.303-.043-.09-.012-.215.044-.434.032-.128.073-.288.111-.492.402-1.883.738-3.766.872-5.648.052-.665.109-1.325.166-1.984.161-1.871.321-3.724.371-5.614.022-.426.052-.852.082-1.277.059-.852.119-1.704.119-2.555 0-.874.033-1.731.067-2.588v-.002c.033-.857.067-1.714.067-2.588 0-.84.033-1.697.067-2.554.034-.858.067-1.715.067-2.556 0-.974.034-1.933.067-2.89a81.1 81.1 0 00.067-2.892c0-.448.008-.896.015-1.344.015-.897.03-1.794-.015-2.69-.027-.618-.032-1.225-.037-1.83-.008-.91-.016-1.814-.097-2.742-.08-.928-.088-1.832-.097-2.741-.005-.606-.01-1.213-.037-1.831-.081-1.13-.089-2.282-.097-3.43a78.336 78.336 0 00-.037-2.285c-.067-1.143-.067-2.353-.067-3.496a452.394 452.394 0 01-.067-4.942 508.532 508.532 0 00-.067-4.942c-.068-2.69-.068-5.312-.068-8.001v-.47a76.84 76.84 0 01-.067-1.883 68.01 68.01 0 00-.067-1.883c0-.336.134-.47.47-.47.738 0 1.409-.135 2.146-.337 2.147-.605 4.16-3.564 2.147-6.253-1.342-1.815-3.421-1.614-4.629-.134-.872 1.075-1.274 2.42-1.341 3.832l-.015.173c-.056.658-.082.966-.24 1.065-.138.086-.378.011-.828-.129l-.326-.1c-2.817-.807-5.568-2.017-8.251-3.362-3.757-1.883-7.379-3.967-10.934-6.186-.705-.403-1.409-.824-2.113-1.244h-.001c-.704-.42-1.408-.84-2.112-1.244a1534.29 1534.29 0 00-4.293-2.386 1061.714 1061.714 0 01-13.215-7.43h-.001a105.533 105.533 0 00-2.854-1.54c-.633-.333-1.271-.669-1.908-1.015l-.752-.39c-1.544-.798-3.046-1.575-4.548-2.501-.604-.404-.604-.404-.268-1.009.536-.941 1.073-1.882 1.341-2.891.269-.807.403-1.614.202-2.42-.336-1.614-1.409-2.555-2.885-3.026-1.878-.538-3.488 0-4.897 1.277-1.476 1.412-1.61 3.093-.402 4.64.536.74 1.207 1.344 1.945 1.882.335.224.671.456 1.006.688.671.463 1.342.926 2.013 1.33a.688.688 0 01.335.403c.037.26.095.5.15.731h.001c.044.186.088.366.117.546.12.522.169 1.067.217 1.608.032.366.065.73.119 1.082.335 2.42.201 4.84-.067 7.194-.134 1.345-.403 2.622-1.006 3.832-.671 1.345-1.677 2.354-3.153 2.757a8.252 8.252 0 01-4.428 0c-1.61-.403-3.153-1.076-4.628-1.815-.939-.47-1.811-1.009-2.683-1.547h-.001c-1.274-.74-2.482-1.613-3.488-2.756l.805-.605c.805-.707 1.61-1.396 2.415-2.085.805-.689 1.61-1.378 2.415-2.084 1.409-1.278 2.818-2.555 4.159-3.9.537-.47 1.006-1.008 1.476-1.546.106-.142.214-.282.322-.42.505-.653 1-1.292 1.221-2.068.268-.941-.134-1.68-1.141-1.95-.67-.134-1.408-.067-2.079.135-.343.114-.691.223-1.041.333-.885.277-1.784.559-2.649.944-.228.102-.459.204-.692.306-.994.438-2.006.885-2.93 1.375-1.409.74-2.75 1.68-3.891 2.824-.738.74-1.341 1.614-1.677 2.555-.469 1.21-.536 2.42-.067 3.63.268.807.604 1.547 1.141 2.22.134.134.134.201 0 .336a.922.922 0 01-.135.1.973.973 0 00-.134.101c-.805.538-1.55 1.136-2.295 1.733a67.11 67.11 0 01-1.126.89c-.335.268-.688.504-1.04.74-.352.235-.704.47-1.04.739-1.274 1.008-2.549 2.017-3.957 2.824a2.715 2.715 0 01-.131.08c-.155.093-.301.18-.406.39-.201.471 0 .874.537.874.268 0 .469-.134.67-.268h.001c.872-.606 1.744-1.21 2.616-1.749a65.373 65.373 0 003.488-2.487c.271-.2.541-.394.811-.587.732-.525 1.454-1.043 2.141-1.632.335-.336.67-.605 1.073-.807.287.236.554.471.817.703.411.363.812.717 1.262 1.045 2.214 1.614 4.495 2.959 6.977 3.967 2.012.807 4.092 1.21 6.305 1.076 1.409-.067 2.617-.673 3.757-1.48.087-.043.145-.114.212-.196.037-.044.076-.092.123-.14a9.012 9.012 0 002.214-4.706c.336-2.152.604-4.37.47-6.59-.067-1.747-.134-3.428-.47-5.11zm-21.198 9.211c-.067.067-.134.135-.268.202-.939-1.076-1.342-2.286-1.409-3.698.067-1.143.604-2.017 1.342-2.757 1.409-1.412 3.019-2.488 4.763-3.362 1.744-.806 3.488-1.546 5.299-2.151.604-.202 1.208-.336 1.811-.336.47 0 .604.134.336.605-.336.672-.805 1.277-1.342 1.882a30.691 30.691 0 01-2.951 2.959 100.491 100.491 0 01-3.958 3.563c-.604.538-1.208 1.042-1.811 1.547h-.001c-.603.504-1.207 1.008-1.811 1.546zm66.076 98.434c1.811-.471 3.555-.471 5.433-.135-.402 1.076-.872 2.085-1.408 2.959-.671.941-1.409 1.882-2.281 2.555-1.946 1.479-4.025 2.286-6.507 1.21-.939-.403-1.342-1.21-1.073-2.219.268-1.21 1.14-2.017 2.079-2.756 1.141-.875 2.415-1.278 3.757-1.614zM156.567 5.87c1.14.47 1.677 1.48 1.744 2.69 0 .403-.134.874-.268 1.277-.268.941-.738 1.748-1.208 2.555-.134.269-.335.336-.603.135-1.141-.673-2.214-1.412-3.153-2.354-.403-.403-.671-.807-.939-1.21-.269-.403-.269-.874-.067-1.345.335-.74.872-1.345 1.677-1.613.939-.337 1.811-.538 2.817-.135zm56.374 35.745a1.809 1.809 0 01-.227.025c-.738 0-.805 0-.67-.605.067-1.009.201-2.085.67-3.026.269-.538.537-1.009 1.141-1.278.268-.134.536-.134.872 0 1.207.471 1.744 1.95 1.073 3.16-.537.942-1.274 1.547-2.415 1.681-.157 0-.314.024-.444.043zm-81.114 83.549h-.001a80.58 80.58 0 00-1.42.143c.805-1.614 1.207-3.16 1.409-4.975.201-2.354-.068-4.707-1.074-6.926-1.476-3.16-3.891-5.043-7.379-5.446-1.945-.202-3.891-.067-5.836.202-4.427.739-8.519 2.353-12.209 4.975a2.875 2.875 0 01-1.14.404c-2.952.269-5.77 2.286-6.239 5.916-.2 1.547-.067 3.093.269 4.64.335 1.613 1.073 3.16 1.811 4.639.805 1.681 1.207 3.429 1.274 5.312.067 1.277.135 2.555.336 3.832a62.546 62.546 0 002.012 8.674c.224.739.462 1.471.701 2.203.477 1.465.954 2.929 1.312 4.453.469 2.152.469 4.236-.269 6.32-.211.679-.476 1.331-.744 1.99-.157.386-.315.773-.463 1.17-.294.747-.594 1.487-.892 2.225v.001c-.724 1.789-1.442 3.563-2.06 5.372-.268.807-.469 1.614-.469 2.42 0 .74.134 1.345.872 1.681.738.337 1.274 0 1.744-.47.46-.404.822-.957 1.17-1.487l.001-.002.171-.259a39.846 39.846 0 002.012-3.698c.503-.975.989-1.967 1.476-2.959.486-.991.972-1.983 1.476-2.958l.097-.201c.095-.198.142-.295.213-.32.068-.025.158.014.334.09l.228.095c3.22 1.21 6.507 2.151 9.861 2.958 2.683.672 5.366 1.111 8.05 1.55l1.609.265c2.281.404 4.629.74 6.977.807 1.274 0 2.616.067 3.958.135 3.153.134 6.238 0 9.391-.538l.341-.062c1.353-.248 2.658-.486 4.019-.611.537-.067.537-.067.604.471.268 2.757.537 5.513.738 8.337.027.31.051.619.075.928.097 1.237.193 2.475.462 3.712.067.47.201.941.469 1.344.671 1.009 1.811.942 2.348-.201.268-.471.403-1.076.47-1.614.402-2.622.603-5.244.603-7.934v-3.025c0-1.48-.737-2.488-2.079-3.026a8.206 8.206 0 00-1.744-.404c-.403-.067-.47-.134-.336-.537a4.007 4.007 0 01.94-1.412 8.008 8.008 0 011.408-1.143c2.214-1.547 3.757-3.564 4.763-6.052a32.556 32.556 0 001.476-4.034c.354-1.179.711-2.361 1.068-3.545v-.001c1.537-5.092 3.085-10.22 4.5-15.347.134-.471.335-.673.805-.807 1.14-.269 2.28-.605 3.421-1.076 3.153-1.21 6.171-2.622 8.854-4.639.068-.067.135-.135.336-.067-.067.269-.134.47-.201.672l-2.818 8.27c-1.945 5.513-3.555 11.027-4.561 16.809-.336 2.084-.403 4.236 0 6.32a101.21 101.21 0 011.006 6.253l.013.126c.13 1.231.253 2.404.188 3.64 0 .268-.067.605-.201.874-.067.201-.268.269-.47.134-.201-.067-.335-.269-.469-.471-.269-.403-.403-.806-.537-1.277-.469-1.479-.738-2.958-1.006-4.438-.039-.181-.075-.362-.111-.542-.152-.758-.302-1.508-.627-2.214-.537-1.211-1.476-1.614-2.75-1.345a5.697 5.697 0 00-1.61.605c-2.818 1.547-5.635 3.026-8.52 4.303-.031.016-.067.032-.104.049-.121.054-.263.117-.365.22-.201.202-.269.404-.134.672.067.202.268.337.536.337.134 0 .269-.06.403-.12.067-.03.134-.06.201-.082 2.817-1.143 5.635-2.488 8.251-4.034.47-.269.939-.538 1.476-.673.738-.201 1.073 0 1.341.74.202.672.336 1.278.47 1.95l.044.23c.321 1.677.653 3.41 1.231 5.082.201.537.402 1.075.805 1.546.536.605 1.207 1.009 2.012.807.805-.202 1.14-.874 1.342-1.614.201-.739.201-1.412.134-2.084-.134-2.622-.537-5.245-1.074-7.8-.469-2.42-.603-4.908-.134-7.396.47-2.353 1.007-4.773 1.61-7.127.869-3.319 1.957-6.55 3.052-9.8.258-.766.516-1.533.772-2.302l2.817-8.27c.135-.336.269-.605.47-.874 1.006-1.143 1.878-2.421 2.415-3.833 1.543-3.899-.47-7.53-2.818-9.077-.226-.123-.446-.254-.664-.382-.492-.291-.971-.574-1.482-.761-.336-.134-.47-.336-.403-.672.091-.543.12-1.056.15-1.579.015-.254.03-.511.052-.774.268-3.228.805-6.388 2.146-9.346.172-.393.334-.777.494-1.155h.001c.278-.658.549-1.298.847-1.938.805-1.748 1.409-3.563 1.543-5.513.268-2.959-.336-5.782-1.946-8.27-1.677-2.623-3.89-4.64-6.708-5.984a30.67 30.67 0 00-8.72-2.757c-5.233-.74-10.532-1.48-15.832-1.614-5.702-.201-11.404-.269-17.105.202-2.952.202-5.837.807-8.52 2.084-2.415 1.076-4.36 2.757-5.836 4.976-2.281 3.563-2.817 7.396-2.147 11.497.47 2.891 1.342 5.648 2.281 8.405a39.84 39.84 0 011.878 7.261c.034.269.068.555.101.841.034.286.067.571.101.84.067.404.335.605.671.538.335 0 .536-.202.536-.538v-.739c-.067-1.48-.335-2.959-.671-4.371-.321-1.612-.857-3.18-1.402-4.776-.137-.4-.274-.803-.409-1.208-.939-3.025-1.744-6.051-1.811-9.211-.067-4.102 1.409-7.53 4.427-10.287 1.677-1.48 3.757-2.354 5.904-2.959 2.817-.874 5.769-1.075 8.653-1.143 4.293-.134 8.519-.134 12.813 0 1.878.068 3.756.135 5.635.337 1.599.137 3.23.337 4.85.535h.002c.757.093 1.511.186 2.258.271 2.482.27 5.031.673 7.446 1.412 2.952.942 5.769 2.085 8.05 4.236 1.409 1.345 2.683 2.824 3.421 4.64 1.208 3.025 1.275 6.118.134 9.21-.335.942-.738 1.816-1.14 2.69-1.677 3.631-2.817 7.463-3.086 11.498-.032.447-.079.894-.126 1.348-.053.502-.107 1.013-.142 1.543-.805-.202-1.543-.269-2.348-.336-4.159-.269-8.117.269-11.941 2.017-5.903 2.689-9.995 6.992-12.007 13.178-.268.74-.537 1.479-.738 2.219-.134.336-.268.403-.537.336-.067 0-.117-.017-.167-.034-.051-.016-.101-.033-.168-.033-3.958-.874-7.983-1.547-12.075-1.816-2.884-.201-5.769-.201-8.653.135-.587.078-1.173.134-1.799.193zm39.968 5.858c-.134.067-.268.135-.537.067 0-.187.029-.36.054-.505.028-.167.049-.297.014-.369.536-2.219 1.006-4.437.939-6.791 0-.739-.067-1.479-.202-2.151-.536-2.488-2.414-4.774-6.238-4.572-2.75.201-4.629 1.681-5.769 4.101-1.073 2.219-1.342 4.639-1.006 7.06.335 2.824 2.079 4.639 5.232 5.446 1.275.336 2.616.202 3.891.067.112 0 .216-.015.32-.03.209-.029.418-.059.686.03-.101.404-.218.807-.335 1.211h-.001c-.117.403-.234.807-.335 1.21-1.543 5.446-3.22 10.892-4.897 16.338-.469 1.479-1.006 2.959-1.677 4.371-.872 1.815-2.079 3.429-3.756 4.639-.123.092-.25.184-.377.278-.429.313-.871.636-1.233.999-.805.74-1.409 1.614-1.61 2.757-.067.269-.135.336-.403.403-.837.124-1.665.256-2.487.388-1.418.227-2.82.451-4.221.621-2.739.335-5.412.269-8.15.203l-.034-.001c-6.842-.202-13.483-1.412-20.124-2.959-2.684-.605-5.367-1.412-7.983-2.286a9.44 9.44 0 00-.738-.269 9.44 9.44 0 01-.738-.269c-.738-.336-1.073-.201-1.476.471-.167.336-.352.688-.536 1.041v.001c-.185.353-.369.706-.537 1.042-.23.474-.456.948-.683 1.42l-.001.003c-.897 1.874-1.787 3.731-2.804 5.503-.403.739-.805 1.479-1.342 2.151-.134.202-.268.404-.604.538-.134-.336-.067-.672 0-1.008.202-.807.403-1.614.738-2.354 1.074-2.622 2.147-5.244 3.153-7.866.604-1.48 1.14-2.959 1.275-4.505.134-1.345 0-2.622-.269-3.9-.357-1.569-.834-3.078-1.311-4.587h-.001c-.238-.755-.477-1.509-.7-2.271-.805-2.757-1.543-5.581-1.945-8.404-.197-1.246-.265-2.556-.331-3.804l-.005-.096c-.067-2.152-.537-4.169-1.476-6.119-.738-1.412-1.408-2.891-1.744-4.504-.335-1.614-.402-3.295.067-4.909.47-1.613 1.543-2.622 3.086-3.294.047.188-.037.277-.115.36a.463.463 0 00-.086.11c-2.55 3.631-2.147 9.75 2.146 12.91 1.208.874 2.549 1.277 4.092 1.076a5.49 5.49 0 001.61-.673c.134-.134.269-.269.47-.269.163.109.15.262.139.388a.836.836 0 00-.005.083c0 2.379.114 4.721.228 7.053.037.765.074 1.529.107 2.293.068 1.882.403 3.698.94 5.513.872 2.958 2.817 4.976 5.5 6.455 2.08 1.143 4.294 1.815 6.574 2.286 4.428.941 8.922 1.344 13.484 1.277l.049-.002c1.461-.067 2.986-.136 4.445-.468 3.891-.807 6.708-3.026 8.52-6.59a25.857 25.857 0 001.945-4.908c1.207-4.034 2.079-8.135 2.951-12.236v-.001c.537-2.622 1.275-5.244 2.348-7.732 1.812-4.236 4.83-7.329 8.855-9.48 2.281-1.21 4.696-2.152 7.245-2.488 2.415-.336 4.763-.403 7.111-.067 1.475.202 2.817.874 4.092 1.681 2.549 1.748 3.555 4.908 2.347 7.732-.67 1.546-1.61 2.824-2.75 4.034-2.683 2.757-6.037 4.438-9.593 5.917-1.14.47-2.28.874-3.488 1.21zm-17.776-3.16c.201 0 .469.067.737.134l-.33 1.495c-.955 4.331-1.901 8.619-3.225 12.961a24.253 24.253 0 01-1.61 4.169c-1.878 3.832-5.031 5.984-9.257 6.387-3.153.336-6.306.202-9.392-.067-2.951-.269-5.836-.74-8.72-1.479-1.543-.471-3.019-1.076-4.428-1.883-2.482-1.479-4.092-3.563-4.695-6.454-.336-1.883-.604-3.766-.671-5.648-.134-2.824-.268-5.715-.268-8.539 0-.874.067-1.816.402-2.69 1.073-3.093.671-5.984-1.073-8.74-.939-1.547-2.281-2.623-3.958-3.228a3.757 3.757 0 00-.235-.101 3.26 3.26 0 01-.235-.1l-.067-.068c.067-.134.202-.201.336-.269 3.756-2.353 7.781-3.698 12.209-4.101 1.408-.134 2.75-.135 4.159.067 2.75.471 4.628 2.017 5.769 4.505.67 1.412 1.006 2.824 1.006 4.37 0 2.152-.201 4.303-1.275 6.321-.268.537-.67.874-1.341 1.075-3.623 1.009-7.044 2.488-10.13 4.707-.67.538-1.341 1.076-1.878 1.815a3.77 3.77 0 00-.604 1.143c-.335 1.211.336 2.219 1.61 2.286.604 0 1.208-.067 1.812-.269 2.079-.739 3.823-1.815 5.567-3.025a24.914 24.914 0 005.501-5.446c.201-.269.402-.404.738-.471 5.501-.874 11.001-.941 16.502-.067.783.134 1.565.261 2.348.388h.001c1.565.254 3.13.508 4.695.822zm16.904-6.186c.134.605.201 1.278.201 1.95-.067 1.95-.469 3.9-.939 5.917a63.853 63.853 0 01-.402 1.681c-.067.201-.202.403-.47.47l-.462.068c-1.255.186-2.517.374-3.831.134-3.153-.605-4.562-2.353-4.696-5.043-.067-1.748.134-3.496.738-5.11a7.755 7.755 0 011.409-2.218c1.61-1.883 4.36-1.883 5.903-1.278 1.476.605 2.281 1.883 2.549 3.429zm-60.172-2.958a9.08 9.08 0 011.073 4.303c-.067 1.277-.335 2.555-1.073 3.765-.671 1.21-1.61 1.95-3.086 1.816-.805-.068-1.61-.337-2.281-.875a7.287 7.287 0 01-2.884-4.639c-.537-2.891.067-5.446 2.281-7.53.335-.336.738-.404 1.207-.336 2.147.403 3.69 1.613 4.763 3.496zm7.513 13.111c2.75-2.017 5.836-3.362 9.056-4.37a.202.202 0 01.268 0c0 .134-.067.201-.201.336-2.281 2.622-4.964 4.706-8.184 6.118l-.278.107c-.463.18-.964.375-1.466.431h-.537c-.402 0-.536-.202-.402-.605.067-.269.201-.538.402-.74.403-.47.872-.874 1.342-1.277zm40.283 47.63c-.043.42-.084.813-.302 1.251-.205-.206-.254-.49-.295-.732-.013-.075-.025-.146-.041-.21-.268-1.076-.335-2.151-.402-3.294-.201-3.026-.47-6.052-.805-9.077-.067-.538 0-.538.469-.471.671.135 1.208.471 1.677.874.336.336.336.673.336 1.076 0 1.143 0 2.219-.067 3.362-.028.471-.053.945-.078 1.421-.096 1.832-.193 3.689-.459 5.504l-.033.296zM136.441 42.244c0-.336.067-.538.202-.74a131.268 131.268 0 014.092-8.135l.201-.403c.201-.27.469-.337.738-.202.268.134.469.47.335.74-.201.47-.402.941-.604 1.344a210.248 210.248 0 00-3.287 6.724c-.134.336-.268.672-.536.941-.201.202-.47.336-.805.202-.201-.135-.336-.336-.336-.47zm12.079-5.983c-.537 2.555-.738 5.177-.939 7.934 0 0-.067.134 0 .336 0 .336.268.538.603.538.269 0 .604-.135.671-.47.067-.135.067-.27.067-.404.038-1.225.164-2.428.289-3.635.095-.912.19-1.826.248-2.753.033-.269.084-.538.134-.807s.101-.538.134-.806c.067-.471-.067-.74-.402-.807-.336-.068-.604.134-.738.538 0 .028-.012.067-.025.113a.81.81 0 00-.042.223z" fill="#FFAE00"/><path d="M255.546 61.953h8.134v-1.316h-6.888v-3.402h6.888v-1.33h-8.134v6.048zm7.112-11.983c0 1.19-.476 1.736-1.96 1.736h-2.338c-1.484 0-1.778-.63-1.778-1.736 0-1.106.294-1.736 1.778-1.736h2.338c1.484 0 1.96.504 1.96 1.736zm1.162 0c0-2.17-.896-3.066-3.122-3.066h-2.338c-2.17 0-2.968 1.176-2.968 3.066s.798 3.066 2.968 3.066h2.338c2.226 0 3.122-.854 3.122-3.066zm-5.586-10.36l2.044.797-2.044.784-2.688 1.106v1.68h8.134v-1.316h-2.954l-2.828.014 4.34-1.82v-.896l-4.34-1.82 2.828.014h2.954v-1.316h-8.134v1.68l2.688 1.092zm3.192-7.085h-5.88v1.33h8.134v-1.428l-5.922-3.402h5.922v-1.316h-8.134v1.442l5.88 3.374zm2.296-7.347c-.056-2.744-2.8-2.898-5.18-2.954l-1.75-.042V19.9h6.888v-1.344h-8.134v4.956l2.982.042c1.274.014 3.794-.098 3.892 1.624h1.302zm-.042-15.83l-4.144 3.01c-.896-1.344-3.038-.994-2.8-2.492l-1.218-.028c-.28 2.954 3.318 2.044 3.318 3.99v.448h-3.29v1.33h8.134v-1.33h-3.64v-.714l3.64-2.632V9.348zm-5.53-7.921c-1.988 0-2.744 1.064-2.744 2.856 0 1.736.77 2.688 2.59 2.632V5.613c-1.106.014-1.372-.518-1.372-1.288 0-1.232.602-1.554 1.526-1.554h.798c.014.644.028 1.33.126 1.974.238 1.68 1.274 2.66 2.716 2.52.966-.098 1.96-.56 1.96-2.436 0-.994-.574-1.792-1.176-2.086l1.106-.112V1.427h-5.53zm1.904 1.316c1.344.042 2.422.476 2.422 1.946 0 .602-.21 1.176-.854 1.232-.798.098-1.232-.378-1.428-1.288-.154-.7-.14-1.512-.14-1.89z" fill="#3C3C3B"/></svg>