<svg width="20" height="20" viewBox="0 0 20 20" fill="none" xmlns="http://www.w3.org/2000/svg">
<path d="M9.99941 3.67611C12.0592 3.67611 12.3032 3.68396 13.1166 3.72107C13.8688 3.75541 14.2773 3.88107 14.5491 3.98668C14.9092 4.12663 15.1662 4.29381 15.4361 4.56376C15.706 4.83368 15.8732 5.0907 16.0131 5.45074C16.1188 5.72261 16.2444 6.13109 16.2788 6.88318C16.3159 7.69667 16.3237 7.94062 16.3237 10.0004C16.3237 12.0602 16.3159 12.3042 16.2788 13.1177C16.2444 13.8698 16.1188 14.2783 16.0131 14.5501C15.8732 14.9102 15.706 15.1672 15.4361 15.4371C15.1662 15.707 14.9092 15.8742 14.5491 16.0142C14.2773 16.1198 13.8688 16.2455 13.1166 16.2798C12.3033 16.3169 12.0594 16.3247 9.99941 16.3247C7.93949 16.3247 7.69553 16.3169 6.8822 16.2798C6.13006 16.2455 5.7216 16.1198 5.44977 16.0142C5.0897 15.8742 4.83268 15.707 4.56276 15.4371C4.29281 15.1672 4.12562 14.9102 3.9857 14.5501C3.88007 14.2783 3.75441 13.8698 3.72007 13.1177C3.68296 12.3042 3.67511 12.0602 3.67511 10.0004C3.67511 7.94062 3.68296 7.69667 3.72007 6.88321C3.75441 6.13109 3.88007 5.72261 3.9857 5.45074C4.12562 5.0907 4.29281 4.83368 4.56276 4.56376C4.83268 4.29381 5.0897 4.12663 5.44977 3.98668C5.7216 3.88107 6.13006 3.75541 6.88218 3.72107C7.69564 3.68396 7.93962 3.67611 9.99941 3.67611ZM9.99941 2.28613C7.90435 2.28613 7.64166 2.29502 6.81884 2.33255C5.99772 2.37003 5.43697 2.50043 4.94626 2.69113C4.43898 2.88827 4.00877 3.15205 3.57991 3.58091C3.15104 4.00977 2.88727 4.43999 2.69013 4.94727C2.49943 5.43798 2.36903 5.99872 2.33155 6.81987C2.29401 7.64264 2.28516 7.90535 2.28516 10.0004C2.28516 12.0955 2.29401 12.3582 2.33155 13.181C2.36903 14.0021 2.49943 14.5629 2.69013 15.0536C2.88727 15.5608 3.15104 15.9911 3.57991 16.42C4.00877 16.8488 4.43898 17.1126 4.94626 17.3097C5.43697 17.5004 5.99772 17.6308 6.81884 17.6683C7.64166 17.7058 7.90435 17.7147 9.99941 17.7147C12.0945 17.7147 12.3572 17.7058 13.18 17.6683C14.0011 17.6308 14.5619 17.5004 15.0526 17.3097C15.5599 17.1126 15.9901 16.8488 16.4189 16.42C16.8478 15.9911 17.1116 15.5609 17.3087 15.0536C17.4994 14.5629 17.6298 14.0021 17.6673 13.181C17.7048 12.3582 17.7137 12.0955 17.7137 10.0004C17.7137 7.90535 17.7048 7.64264 17.6673 6.81987C17.6298 5.99872 17.4994 5.43798 17.3087 4.94727C17.1116 4.43999 16.8478 4.00977 16.4189 3.58091C15.9901 3.15205 15.5599 2.88827 15.0526 2.69113C14.5619 2.50043 14.0011 2.37003 13.18 2.33255C12.3572 2.29502 12.0945 2.28613 9.99941 2.28613ZM9.99941 6.03903C7.81162 6.03903 6.03802 7.81262 6.03802 10.0004C6.03802 12.1882 7.81162 13.9618 9.99941 13.9618C12.1872 13.9618 13.9608 12.1882 13.9608 10.0004C13.9608 7.81262 12.1872 6.03903 9.99941 6.03903ZM9.99941 12.5719C8.57927 12.5719 7.42798 11.4206 7.42798 10.0004C7.42798 8.58027 8.57927 7.42898 9.99941 7.42898C11.4196 7.42898 12.5709 8.58027 12.5709 10.0004C12.5709 11.4206 11.4196 12.5719 9.99941 12.5719ZM15.043 5.88253C15.043 6.39378 14.6286 6.80825 14.1173 6.80825C13.6061 6.80825 13.1916 6.39378 13.1916 5.88253C13.1916 5.37126 13.6061 4.95682 14.1173 4.95682C14.6286 4.95682 15.043 5.37126 15.043 5.88253Z" fill="#3C3C3B"/>
</svg>
