<svg width="41" height="48" fill="none" xmlns="http://www.w3.org/2000/svg"><path opacity=".3" fill-rule="evenodd" clip-rule="evenodd" d="M13.789 18.4h8v3.2h-8v-3.2zm0 4.8h14.4v1.6h-14.4v-1.6zm11.2 3.2h-11.2v4.8h11.2v-4.8zm-11.2 6.4h14.4v1.6h-14.4v-1.6zm12.8 3.2h-12.8v2.4h12.8V36z" fill="#FFAE00"/><path d="M39.043 15.038L25.923 1.946l-.028-.028-.028-.028A6.824 6.824 0 0021.197 0H7.66C3.99 0 .989 3.002.989 6.671v34.635c0 3.67 3.002 6.672 6.67 6.672h26.658c3.67 0 6.672-2.974 6.672-6.644V19.791a6.684 6.684 0 00-1.946-4.753zm-2.363 2.363c.083.083.167.167.222.25h-8.144a5.427 5.427 0 01-5.42-5.42V4.086c.083.056.166.14.25.223L36.68 17.4zm.973 23.933c0 1.807-1.501 3.308-3.336 3.308H7.66a3.345 3.345 0 01-3.336-3.336V6.672A3.345 3.345 0 017.66 3.336h13.537c.25 0 .5.027.723.083v8.812c0 3.752 3.057 6.81 6.81 6.81h8.812c.055.222.083.473.083.723v21.57h.028z" fill="#FFAE00"/></svg>