<svg width="68" height="23" viewBox="0 0 68 23" fill="none" xmlns="http://www.w3.org/2000/svg">
<g clip-path="url(#clip0_3473_26875)">
<path fill-rule="evenodd" clip-rule="evenodd" d="M8.8824 0.125L0.682617 8.32479V22.4428L18.3854 22.427L26.6073 14.2795L26.6152 0.42612V0.125H8.8824Z" fill="#FCB614"/>
<path fill-rule="evenodd" clip-rule="evenodd" d="M49.662 10.633L47.0737 15.4854V10.3506H43.6545V20.4437H46.8412C47.0372 20.4437 47.2182 20.3387 47.3147 20.1688L50.0046 15.3125V20.4437H53.4204V10.3506H50.1398C49.9406 10.3506 49.7574 10.4588 49.662 10.633ZM48.4781 9.40075C46.7475 9.40075 45.3394 8.09227 45.3394 6.4082H47.4535C47.4535 7.02207 47.7469 7.56607 48.4781 7.56607C49.2355 7.56607 49.5026 7.02207 49.5026 6.4082H51.6167C51.6167 8.09227 50.2086 9.40075 48.4781 9.40075ZM32.7235 10.3505H30.0606H26.5744H23.8693V13.3669H26.5488V20.4437H30.044V13.3669H32.7235V10.3505ZM39.6786 20.4438H42.9996L39.3633 10.6385C39.2992 10.4654 39.1334 10.3506 38.9481 10.3506H35.6576C35.4721 10.3506 35.3066 10.4654 35.2423 10.6385L31.606 20.4438H34.927C35.0256 20.4438 35.1128 20.3807 35.1435 20.2876L35.5126 19.1675H39.093L39.4621 20.2876C39.4927 20.3808 39.58 20.4438 39.6786 20.4438ZM36.3153 16.6399L37.3027 13.6427L38.2903 16.6399H36.3153ZM63.4612 10.6017L61.0379 14.6945L58.6146 10.6017C58.5224 10.4461 58.3545 10.3505 58.1729 10.3505H54.9798V20.4437H58.4749V15.6778L60.0302 18.2254C60.0795 18.3061 60.1675 18.3556 60.2623 18.3556H61.8145C61.9095 18.3556 61.9975 18.3061 62.0468 18.2254L63.601 15.6778V20.4437H67.096V10.3505H63.9029C63.7214 10.3505 63.5534 10.4461 63.4612 10.6017ZM7.75495 10.3462H11.135V13.9442H13.9323V10.3462H17.3124V20.4439H13.9323V16.8459H11.135V20.4439H7.75495V10.3462ZM2.74316 20.4438H6.35631V10.3461H2.74316V20.4438Z" fill="#221F20"/>
</g>
<defs>
<clipPath id="clip0_3473_26875">
<rect width="66.7561" height="23" fill="white" transform="translate(0.5)"/>
</clipPath>
</defs>
</svg>
