<svg width="82" height="17" fill="none" xmlns="http://www.w3.org/2000/svg"><path fill-rule="evenodd" clip-rule="evenodd" d="M66.578 1.406l5.66 6.385-5.66 6.386 1.57 1.319 6.829-7.705-6.83-7.706-1.57 1.32z" fill="#fff"/><path fill-rule="evenodd" clip-rule="evenodd" d="M73.46 1.406l5.66 6.385-5.66 6.386 1.57 1.319 6.83-7.705L75.03.085l-1.57 1.32zM7.107 13.7c0 .137-.007.252-.02.344a.828.828 0 01-.069.235.352.352 0 01-.116.143.284.284 0 01-.163.047H.717a.76.76 0 01-.458-.159c-.144-.106-.216-.292-.216-.558V1.488c0-.055.014-.103.042-.143a.282.282 0 01.147-.098c.07-.023.165-.044.284-.061.12-.017.264-.026.432-.026.176 0 .321.01.437.026.116.017.209.038.28.061.07.024.119.057.147.098a.248.248 0 01.042.143v11.455h4.885c.063 0 .117.016.163.047.046.03.084.075.116.132a.694.694 0 01.068.23c.014.096.021.212.021.349zm3.809.503a.247.247 0 01-.042.143.283.283 0 01-.147.098c-.07.024-.163.044-.28.061a3.14 3.14 0 01-.436.026 3.27 3.27 0 01-.432-.026 1.66 1.66 0 01-.284-.061.281.281 0 01-.148-.098.246.246 0 01-.042-.143V1.488c0-.054.016-.102.048-.143a.318.318 0 01.158-.097c.073-.024.168-.044.284-.062.116-.016.254-.025.416-.025.175 0 .32.009.437.025.115.018.208.038.279.062.07.024.12.056.147.097a.248.248 0 01.042.143v12.715zm16.709 1.433c0 .157-.009.288-.026.394a.714.714 0 01-.08.246.295.295 0 01-.115.117.289.289 0 01-.127.031c-.14 0-.367-.056-.679-.168a8.678 8.678 0 01-1.079-.492 15.439 15.439 0 01-1.305-.783 10.152 10.152 0 01-1.348-1.075c-.344.205-.78.382-1.306.532-.526.15-1.137.226-1.832.226-1.025 0-1.91-.147-2.658-.44a4.629 4.629 0 01-1.853-1.29c-.488-.567-.851-1.271-1.09-2.114-.239-.843-.358-1.81-.358-2.903 0-1.05.13-2 .39-2.85.26-.85.65-1.574 1.169-2.17a5.17 5.17 0 011.947-1.383c.78-.324 1.688-.486 2.727-.486.976 0 1.834.147 2.574.44a4.85 4.85 0 011.864 1.285c.502.563.879 1.257 1.132 2.083.252.826.379 1.775.379 2.846 0 .553-.034 1.082-.1 1.587a8.276 8.276 0 01-.316 1.433c-.144.45-.325.867-.542 1.249a5.209 5.209 0 01-.769 1.034c.512.41.962.729 1.348.957.386.229.705.401.958.517.252.116.449.2.59.25a.95.95 0 01.315.175.53.53 0 01.148.276c.027.12.042.278.042.476zm-3.58-7.831c0-.751-.068-1.447-.205-2.089a4.733 4.733 0 00-.685-1.673 3.273 3.273 0 00-1.279-1.111c-.533-.266-1.193-.4-1.98-.4-.785 0-1.445.142-1.979.426a3.621 3.621 0 00-1.3 1.146 4.746 4.746 0 00-.716 1.674 9.107 9.107 0 00-.216 2.017c0 .778.067 1.493.2 2.144.133.652.358 1.217.674 1.695.316.478.738.848 1.268 1.11.53.263 1.195.395 1.996.395.793 0 1.46-.144 2-.43a3.56 3.56 0 001.305-1.162c.33-.488.565-1.055.706-1.7.14-.645.211-1.326.211-2.042zm13.372-2.703c0 .662-.113 1.26-.337 1.792a3.782 3.782 0 01-.963 1.361 4.32 4.32 0 01-1.538.87c-.607.205-1.331.308-2.174.308h-1.547v4.77a.226.226 0 01-.048.143.314.314 0 01-.147.098 1.489 1.489 0 01-.274.061 3.126 3.126 0 01-.437.026c-.175 0-.32-.01-.437-.026a1.654 1.654 0 01-.279-.061.281.281 0 01-.147-.098.246.246 0 01-.042-.143V1.98c0-.273.073-.468.22-.584a.78.78 0 01.495-.174h2.917c.295 0 .577.012.847.036.27.024.59.075.958.154a4 4 0 011.127.44c.382.215.707.48.974.793.267.314.472.678.616 1.09.144.414.216.87.216 1.367zm-1.906.144c0-.54-.104-.99-.31-1.352-.208-.362-.464-.631-.77-.809a2.632 2.632 0 00-.947-.337 6.605 6.605 0 00-.953-.072h-1.674v5.313h1.632c.548 0 1.002-.068 1.364-.205.361-.136.665-.325.91-.568.246-.242.432-.532.559-.87.126-.338.19-.705.19-1.1zm14.879 8.598c.055.15.085.272.089.364.003.092-.023.162-.08.21-.056.048-.148.078-.278.092a5.16 5.16 0 01-.522.02 6.99 6.99 0 01-.52-.015 1.207 1.207 0 01-.295-.051.312.312 0 01-.148-.097.786.786 0 01-.09-.154l-1.168-3.224h-5.664l-1.116 3.183a.527.527 0 01-.085.159.406.406 0 01-.152.113.966.966 0 01-.284.066 4.52 4.52 0 01-.48.02c-.203 0-.37-.008-.5-.025s-.22-.05-.273-.097c-.053-.048-.078-.118-.074-.21.004-.092.033-.213.09-.363l4.569-12.306a.535.535 0 01.11-.184.457.457 0 01.2-.112c.088-.028.2-.047.337-.057.137-.01.31-.015.521-.015.225 0 .41.005.559.015.147.01.266.03.357.057a.475.475 0 01.21.117.55.55 0 01.117.19l4.57 12.304zM44.524 2.983h-.01l-2.349 6.602h4.738l-2.38-6.602zM57 9.32v4.883a.247.247 0 01-.041.143.281.281 0 01-.147.097 1.69 1.69 0 01-.283.062 3.13 3.13 0 01-.429.025 3.11 3.11 0 01-.434-.025 1.812 1.812 0 01-.283-.062c-.074-.024-.124-.056-.152-.097a.247.247 0 01-.042-.143V9.32l-3.853-7.474a1.604 1.604 0 01-.142-.368c-.018-.089 0-.157.053-.205.052-.048.147-.078.284-.092.137-.014.32-.02.553-.02.21 0 .38.006.51.02s.233.033.31.056a.368.368 0 01.174.103c.04.044.076.1.111.169l1.885 3.808c.174.362.35.74.523 1.136.175.396.353.795.534 1.198h.021a54.547 54.547 0 011.017-2.303l1.895-3.829a.52.52 0 01.09-.174.348.348 0 01.157-.108c.067-.023.16-.042.28-.056.118-.014.27-.02.452-.02.253 0 .451.008.595.025.144.017.244.05.3.097.056.048.075.116.058.205a1.474 1.474 0 01-.142.358L57 9.32z" fill="#fff"/></svg>