<svg width="730" height="249" fill="none" xmlns="http://www.w3.org/2000/svg"><path fill-rule="evenodd" clip-rule="evenodd" d="M150.639 33.818c9.908 3.497 18.651 9.326 25.645 16.32 5.829 5.828 10.491 12.24 13.989 19.817 12.239 25.645 11.656 96.17 3.497 125.895-2.915 11.074-9.326 20.982-17.486 29.142-14.571 14.571-34.971 21.566-61.782 21.566-14.57 0-27.394-1.166-37.885-2.915-11.074-2.331-19.817-5.245-26.228-9.908-6.411-4.663-11.657-11.657-15.154-19.817-2.914-8.16-4.663-17.485-4.663-28.559v-40.217c0-9.326 0-9.326 7.577-2.331 6.702 6.223 16.155 15.296 25.172 23.95 12.942 12.421 24.984 23.978 26.702 25.009 7.577 4.08 29.142 4.08 37.885.583 3.497-1.749 6.994-4.08 9.325-6.994 2.915-2.915 4.663-9.909 5.246-13.989 2.914-19.234 2.914-49.542 0-68.776 0-3.497-.583-5.828-1.749-8.16-2.331-5.828-7.577-10.491-12.822-12.822-4.08-1.749-8.743-2.332-13.989-2.332H86.525v68.193l-71.69-65.279C.598 66.376.672 55.327.815 33.944c.016-2.253.032-4.62.032-7.12V.596l30.308 27.976h86.261c12.24 0 23.314 1.749 33.223 5.246zm67.022 151.54V40.229c0-11.882 1.832-11.859 14.019-11.7 1.562.02 3.295.043 5.215.043H366.87v51.29h-93.839v31.475h66.445c-3.625 51.782-25.192 51.578-54.892 51.297h-.001c-3.729-.035-7.586-.072-11.552-.007v19.817c0 2.914 0 8.743 2.332 10.491 2.914 1.749 11.074 2.332 14.571 2.332h76.936v51.29h-79.267c-12.24 0-22.149-.583-30.891-2.914-9.326-2.331-16.32-5.828-22.149-10.491-5.828-4.663-9.908-11.657-12.822-19.817-2.914-8.16-4.08-17.485-4.08-27.977zm496.586-51.874c-10.491-11.074-25.645-18.068-45.462-20.983l-32.639-3.497c-8.743-1.165-17.486-5.245-17.486-15.154 0-8.16 8.743-13.405 15.737-15.154 8.743-2.331 23.314-2.331 30.891 2.914 4.08 2.915 6.411 7.578 7.577 13.406l1.166 6.994 49.542-2.331c0-12.823 0-22.148-5.829-33.805-8.159-16.903-23.896-29.143-41.965-34.388-19.234-5.829-43.13-5.829-62.364 0-28.56 9.325-49.543 32.056-49.543 63.53 0 9.326 1.166 18.068 4.08 25.645 5.829 15.737 17.486 26.228 32.057 32.64 6.994 3.497 15.154 5.245 24.48 6.994l32.639 3.497c11.657 1.749 17.486 6.994 17.486 16.32 0 5.828-1.749 9.325-5.246 12.24-11.657 8.159-34.388 5.245-46.628-2.332-6.411-4.08-9.325-9.908-9.325-16.902v-8.16l-51.874 2.331v7.577c0 6.411.583 12.24 2.331 18.068 6.995 27.977 28.56 44.297 55.371 51.874 19.234 5.246 40.799 5.246 59.451-.583 9.908-2.914 18.651-7.577 26.228-13.405 8.16-6.412 13.988-13.406 18.068-22.149 11.657-23.314 8.743-56.536-8.743-75.187zM560.993 28.568c2.223.003 4.54.006 6.96.006l-69.942 103.164 74.604 114.821h-65.279l-43.713-69.942-18.651 25.063v44.879h-55.371V28.574h55.371v94.421l37.302-55.37c26.827-39.123 26.858-39.123 78.719-39.057z" fill="#F0F1F4"/></svg>