<svg width="127" height="31" fill="none" xmlns="http://www.w3.org/2000/svg"><path d="M31.481 11.748c0 2.116.786 2.842 2.89 2.612v-1.45c-1.112.133-1.233-.4-1.233-1.185V8.713h1.21V7.2h-1.21V5.81l-1.657.18v5.757zm8.042-.23c-.072.714-.338 1.415-1.306 1.415-.568 0-.98-.157-.98-.629 0-.568.593-.955 2.286-.786zM37.467 9.68c-.012-.762.254-1.016.98-1.016.87 0 1.076.532 1.076 1.596-2.455-.169-3.858.496-3.858 2.177 0 1.343.883 2.02 2.056 2.02.799 0 1.476-.363 1.875-.92l.157.823h1.355V9.97c0-1.85-.81-2.781-2.673-2.781-1.705 0-2.66.713-2.552 2.491h1.584zm5.769 4.68h1.656V9.91c0-.92.508-1.234 1.15-1.234.688 0 1.075.375 1.075 1.294v4.39h1.645V9.958c0-2.177-1.149-2.793-2.322-2.781a2.18 2.18 0 00-1.68.774l-.085-.726h-1.44v7.135zm11.215-2.612c0 2.044.569 2.612 2.492 2.612v-1.596c-.69 0-.835-.254-.835-1.04V5.036h-1.657v6.712zm7.881.423c0 .496-.326.774-1.112.774-.678 0-1.125-.218-1.125-1.366v-.182h3.87V9.982c0-1.923-.895-2.781-2.77-2.781-1.874 0-2.769.991-2.769 2.781v1.62c0 1.924.895 2.782 2.77 2.782 1.874 0 2.769-.713 2.769-2.213h-1.633zM61.244 8.64c.943 0 1.112.496 1.112 1.39h-2.261c0-.858.17-1.39 1.149-1.39zm8.144 2.878c-.073.714-.339 1.415-1.306 1.415-.568 0-.98-.157-.98-.629 0-.568.593-.955 2.286-.786zM67.332 9.68c-.012-.762.254-1.016.98-1.016.87 0 1.076.532 1.076 1.596-2.455-.169-3.858.496-3.858 2.177 0 1.343.883 2.02 2.056 2.02.798 0 1.476-.363 1.875-.92l.157.823h1.354V9.97c0-1.85-.81-2.781-2.672-2.781-1.706 0-2.66.713-2.552 2.491h1.584zm5.587 2.068c0 2.116.786 2.842 2.89 2.612v-1.45c-1.112.133-1.233-.4-1.233-1.185V8.713h1.21V7.2h-1.21V5.81l-1.657.18v5.757zm9.831 2.612V9.68c0-1.536-.713-2.515-2.26-2.515-.57 0-1.138.181-1.5.628V5.048h-1.657v9.312h1.657V9.861c0-.798.35-1.185 1.064-1.185.69.012 1.04.327 1.04 1.197v4.487h1.657zm5.692-2.189c0 .496-.327.774-1.113.774-.677 0-1.124-.218-1.124-1.366v-.182h3.87V9.982c0-1.923-.895-2.781-2.77-2.781-1.874 0-2.77.991-2.77 2.781v1.62c0 1.924.896 2.782 2.77 2.782 1.875 0 2.77-.713 2.77-2.213h-1.633zM87.354 8.64c.943 0 1.112.496 1.112 1.39h-2.261c0-.858.169-1.39 1.148-1.39zm8.156-1.451c-.883-.145-1.693.29-1.983.786l-.073-.75H91.93v7.147h1.657v-4.087c0-1.065.847-1.488 1.923-1.343V7.19zM36.548 21.556c0-1.282-.834-2.274-2.587-2.274-1.548 0-2.697.714-2.697 2.322 0 1.403 1.003 1.85 2.043 1.983.86.11 1.645.121 1.645.726 0 .35-.338.726-1.003.726-.799 0-1.065-.29-1.101-.787h-1.681c0 1.379 1.016 2.238 2.709 2.238 1.536 0 2.757-.678 2.757-2.238 0-1.27-.955-1.838-1.91-1.947-.956-.108-1.778 0-1.778-.786 0-.495.387-.75 1.028-.75.532 0 .955.242.955.787h1.62zm5.037-2.238c-.254.895-.508 1.657-.653 2.262-.35 1.5-.375 2.225-.471 2.878-.121-.907-.279-2.032-.52-3l-.63-2.14h-1.717l2.093 7.147h1.572l.423-1.535.496-2.54.496 2.515.423 1.56h1.584l2.068-7.147h-1.705l-.617 2.14c-.242.968-.411 2.093-.532 3a30.974 30.974 0 00-.532-2.854l-.544-2.286h-1.234zm8.277.158h-1.657v6.99h1.657v-6.99zm-1.754-1.597c0 1.222 1.875 1.21 1.875 0 0-1.221-1.874-1.233-1.874 0zm7.26 1.439l-.63 2.14c-.24.98-.422 2.08-.555 3a28.744 28.744 0 00-.557-3l-.64-2.14h-1.73l2.189 7.147h1.463l2.19-7.147h-1.73zm6.788 4.947c0 .495-.327.773-1.113.773-.677 0-1.125-.217-1.125-1.366v-.181h3.87v-1.415c0-1.923-.895-2.782-2.77-2.782-1.874 0-2.769.992-2.769 2.782v1.62c0 1.923.895 2.782 2.77 2.782 1.874 0 2.77-.714 2.77-2.213h-1.633zm-1.089-3.532c.943 0 1.113.496 1.113 1.391h-2.262c0-.859.17-1.39 1.15-1.39zm4.698 3.108c0 2.044.568 2.612 2.491 2.612v-1.596c-.69 0-.834-.254-.834-1.04v-6.688h-1.657v6.712zm11.145-.23c-.072.714-.338 1.415-1.306 1.415-.568 0-.98-.157-.98-.628 0-.569.593-.956 2.287-.787zm-2.055-1.838c-.013-.762.254-1.016.98-1.016.87 0 1.076.532 1.076 1.597-2.456-.17-3.858.496-3.858 2.177 0 1.342.883 2.02 2.056 2.02.798 0 1.475-.364 1.874-.92l.157.822h1.355v-4.39c0-1.85-.81-2.78-2.673-2.78-1.705 0-2.66.713-2.552 2.49h1.585zm9.118-2.491c-.883-.145-1.694.29-1.984.786l-.072-.75h-1.524v7.147h1.657v-4.087c0-1.064.846-1.488 1.923-1.342v-1.754zm1.727 7.171h1.656v-4.45c0-.919.508-1.233 1.149-1.233.69 0 1.064.374 1.064 1.294v4.39h1.657V22.05c.024-1.015.496-1.281 1.124-1.281.69 0 1.065.374 1.065 1.294v4.39h1.656v-4.39c0-1.935-.882-2.794-2.358-2.794-.907 0-1.657.363-2.031.92-.34-.678-1.053-.908-1.754-.908-.64-.024-1.282.242-1.68.762l-.11-.726H85.7v7.135zm16.892-4.474c0-1.923-.847-2.685-2.721-2.685-1.875 0-2.818.943-2.818 2.866v1.597c0 1.959.895 2.817 2.77 2.817 1.874 0 2.769-.774 2.769-2.697h-1.572c-.013.847-.327 1.222-1.198 1.222-.87 0-1.1-.508-1.1-1.39V22.16c0-.883.266-1.39 1.185-1.39.822 0 1.113.399 1.113 1.209h1.572zm7.107 4.474v-4.68c0-1.536-.713-2.515-2.261-2.515-.569 0-1.137.181-1.5.629v-2.745h-1.656v9.311h1.656v-4.498c0-.798.351-1.185 1.065-1.185.689.012 1.04.326 1.04 1.197v4.486h1.656zm5.438-2.842c-.073.714-.339 1.415-1.306 1.415-.569 0-.98-.157-.98-.628 0-.569.593-.956 2.286-.787zm-2.056-1.838c-.012-.762.254-1.016.979-1.016.871 0 1.077.532 1.077 1.597-2.455-.17-3.858.496-3.858 2.177 0 1.342.883 2.02 2.056 2.02.798 0 1.475-.364 1.874-.92l.157.822h1.355v-4.39c0-1.85-.81-2.78-2.673-2.78-1.705 0-2.66.713-2.551 2.49h1.584zm7.328-2.297h-1.657v6.99h1.657v-6.99zm-1.754-1.597c0 1.222 1.875 1.21 1.875 0 0-1.221-1.875-1.233-1.875 0zm7.417 1.403c-.883-.145-1.693.29-1.983.786l-.073-.75h-1.524v7.147h1.657v-4.087c0-1.064.847-1.488 1.923-1.342v-1.754z" fill="#9FA4B0"/><path fill-rule="evenodd" clip-rule="evenodd" d="M25.171 1.967a3.027 3.027 0 11-5.67 2.12 3.027 3.027 0 015.67-2.12zM4.154 12.861c1.76 1.19 4.165 1.526 6.208 1.526 2.845 0 5.018-.595 6.519-1.81 1.474-1.216 2.224-2.794 2.224-4.734 0-2.25-1.19-4.372-3.233-5.406a9.989 9.989 0 00-2.07-.776c-1.034-.259-2.198-.388-3.44-.388-2.845 0-5.018.595-6.518 1.81C2.369 4.3 1.619 5.877 1.619 7.817c0 1.164.207 2.173.647 3a5.773 5.773 0 001.888 2.044zm4.19-9.493C8.837 2.514 9.51 2.1 10.389 2.1c.88 0 1.552.414 2.043 1.268.492.854.725 2.328.725 4.475s-.233 3.647-.725 4.475c-.491.854-1.163 1.267-2.043 1.267-.88 0-1.552-.414-2.043-1.267-.492-.854-.725-2.328-.725-4.475-.026-2.147.233-3.647.725-4.475zm10.657 14.538c-1.112-1.139-2.69-1.733-4.656-1.733H6.818c-1.19 0-2.018-.13-2.483-.362-.362-.182-.647-.492-.699-.932-.024-.316.134-.563.304-.828L3.973 14c-1.268-.104-2.639.646-3.053 1.862-.569 1.682-.077 3.544 1.32 4.63 1.06.828 2.586 1.242 4.552 1.242h7.527c3.182 0 4.76.854 4.76 2.587 0 1.345-.75 2.483-2.25 3.388-1.656 1.009-3.622 1.5-5.562 1.604-2.07.13-3.984-.207-5.898-.957a3.16 3.16 0 001.268-2.51c0-.956-.518-1.913-1.32-2.456a2.931 2.931 0 00-2.767-.26c-.595.26-1.087.725-1.449 1.294-.336.543-.517 1.164-.465 1.81.077.725.491 1.372 1.034 1.863 1.578 1.397 4.087 1.81 6.105 2.018 2.276.259 4.5.078 6.751-.388 1.837-.388 3.7-1.242 4.863-2.768.905-1.164 1.242-2.768 1.242-4.242.052-2.07-.492-3.673-1.63-4.811z" fill="#9FA4B0"/></svg>