<svg width="152" height="77" fill="none" xmlns="http://www.w3.org/2000/svg"><path d="M25.679 35.21h-1.622V18.981h13.101v1.504h-11.48v5.839h10.307v1.532H25.679v7.352zm13.035 0h-1.737l7.834-16.228h1.928l7.834 16.227h-1.737l-1.908-3.939H40.594l-1.88 3.94zm7.061-14.63l-4.428 9.176 8.846-.018-4.418-9.158zM57.56 35.21V18.981h1.622v16.227H57.56zm7.91 0h-1.62V18.981h8.35c3.835 0 5.486 1.363 5.486 4.541 0 2.228-.868 3.62-2.615 4.193 1.699.536 2.539 1.758 2.539 3.714v3.78h-1.622v-3.733c0-2.06-1.107-2.971-3.722-2.971h-6.804v6.703h.01zm0-8.208h6.633c2.796 0 3.979-.978 3.979-3.272 0-2.247-1.174-3.244-3.98-3.244h-6.631v6.516zm31.319-6.516h-7.415V35.21h-1.622V20.486h-7.414v-1.504h16.45v1.504zm16.422 14.724h-13.34V18.981h13.34v1.504h-11.718v5.886h10.544v1.438h-10.544v5.886h11.718v1.513zm11.069-16.388c4.733 0 7.29 1.646 8.073 5.265h-1.67c-.773-2.576-2.825-3.732-6.403-3.732-4.733 0-6.775 2.021-6.775 6.75 0 4.73 2.051 6.75 6.775 6.75 3.578 0 5.62-1.184 6.403-3.779h1.698c-.82 3.685-3.368 5.312-8.092 5.312-5.859 0-8.397-2.5-8.397-8.273-.019-5.839 2.529-8.293 8.388-8.293zm11.976 16.388V18.981h1.622v7.343h12.357v-7.352h1.623V35.2h-1.623v-7.352h-12.357V35.2h-1.622v.01z" fill="#000"/><path d="M145.97 41.104h-8.703v16.858h3.445v-5.566h5.258c4.227 0 6.04-1.711 6.04-5.66-.009-3.949-1.813-5.632-6.04-5.632zm-.201 8.114h-5.057v-4.936h5.057c1.957 0 2.815.743 2.815 2.454 0 1.74-.858 2.482-2.815 2.482zm-50.546-3.074c0-3.545-1.813-5.03-6.012-5.03h-9.16V57.97h3.445v-5.848h5.496c1.832 0 2.615.583 2.615 1.927v3.92h3.416V53.9c0-1.655-.611-2.82-1.861-3.413 1.374-.808 2.061-2.256 2.061-4.343zm-6.231 2.81h-5.496v-4.672h5.496c1.985 0 2.815.677 2.815 2.313 0 1.636-.83 2.36-2.815 2.36zm17.233-8.066c-6.164 0-8.779 2.576-8.779 8.65 0 6.045 2.615 8.65 8.779 8.65 6.136 0 8.779-2.605 8.779-8.65 0-6.074-2.643-8.65-8.779-8.65zm4.084 12.815c-.858.864-2.194 1.297-4.084 1.297-1.88 0-3.225-.432-4.084-1.297-.859-.865-1.269-2.266-1.269-4.165 0-1.9.42-3.3 1.269-4.194.849-.864 2.195-1.297 4.084-1.297 1.88 0 3.226.433 4.084 1.297.859.894 1.269 2.285 1.269 4.194 0 1.899-.419 3.3-1.269 4.165zm20.354-3.347c0 3.252-1.441 4.644-4.79 4.644-3.35 0-4.819-1.4-4.819-4.644v-9.252h-3.445v9.515c0 5.302 2.49 7.559 8.264 7.559 5.773 0 8.235-2.266 8.235-7.56v-9.514h-3.445v9.252zM49.534 2.021c-3.712-.47-6.832-.695-9.466-.742a41.873 41.873 0 00-1.536-.029c-5.65 0-11.012 1.194-15.84 3.357A39.036 39.036 0 0019.37 6.28c-.267.15-.534.31-.792.47C7.433 13.36 0 25.394 0 39.15a37.293 37.293 0 007.138 21.98 37.864 37.864 0 001.631 2.098C15.821 71.632 26.49 77 38.417 77c10.783 0 20.44-4.456 27.501-11.414 5.754-5.669 6.861-11.545 7.53-14.3.763-3.159.63-5.33.238-6.863-.267-1.467-.687-2.614-1.126-3.45-.134-.273-.277-.499-.41-.715-.554-.874-1.03-1.25-1.03-1.25s.38-1.288-.554-2.21c-.936-.921.496-2.632.496-2.632-.697 0-1.183.244-1.537.61-.925.979-.83 2.756-.83 2.756-2.671 2.077.058 5.377.058 5.377 0-.95.62-1.344 1.26-1.335.667.01 1.354.461 1.354 1.147 0 .884-.42 1.552-1.555 1.665-.601.065-1.412-.029-2.462-.339-3.035-.865-5.735-5.641-25.965-3.074-19.962 2.547-26.394-1.909-26.547-2.012 1.25 1.87 6.585 5.406 13.913 6.637 7.329 1.223 10.62 1.223 18.388-.61 7.768-1.844 11.804-.433 11.804-.433-5.029 0-9.323.432-14.037 1.899-4.637 1.438-10.601.583-10.802.545 6.146 3.545 10.182 3.733 14.963 3.733 4.141 0 9.752-2.51 11.202-3.197-1.154.583-4.866 2.416-6.479 3.14-1.927.856-8.206 1.1-8.206 1.1 1.431.733 9.141 3.723 13.044 1.044 2.214-1.533 3.913-2.21 4.972-2.51-2.3.92-3.655 4.099-3.655 4.099.811-.809 5.63-2.36 7.205-.47-3.856 8.508-11.28 15.108-20.402 17.947a33.948 33.948 0 01-10.086 1.533c-18.427 0-33.37-14.723-33.37-32.878 0-8.894 3.588-16.97 9.428-22.893a22.918 22.918 0 013.416-3.13 28.687 28.687 0 012.806-1.834c5.324-3.018 11.221-3.902 16.68-3.15 1.727.235 7.824.978 13.588.536 3.101-.244 6.288-.648 8.464-1.833-.2.028-6.708.282-11.785-1.053-3.063-.8-5.668-1.768-8.645-2.078 1.756.057 3.94.301 6.546.921 7.758 1.834 11.06 1.834 18.388.612C69.506 5.415 74.85 1.87 76.09 0c-.153.113-6.585 4.56-26.557 2.021z" fill="#FFD710"/></svg>