<svg width="117" height="33" fill="none" xmlns="http://www.w3.org/2000/svg"><path d="M34.943 31.262h8.763l10.2-28.91h-8.802l-10.161 28.91zm35.062-.004h8.694l4.535-12.73c1.816-3.07 5.444-2.376 4.772.31l-4.354 12.42h9.071l4.303-12.146c1.144-3.051 5.898-3.234 4.863.366l-4.046 11.78h8.767l4.898-13.973c1.634-4.75-4.136-11.104-14.064-4.11-1.18-3.198-6.08-5.208-12.612-.549l.436-1.9h-8.15l-7.113 20.532zM111.663 2.72a2.155 2.155 0 012.089-1.571c1.198 0 2.178.987 2.178 2.192a2.18 2.18 0 01-2.178 2.193 2.184 2.184 0 01-2.197-2.193c0-.219.036-.42.108-.62l-.254-.11a2.476 2.476 0 00-.109.73 2.45 2.45 0 002.452 2.467 2.46 2.46 0 002.451-2.467c0-1.352-1.108-2.466-2.451-2.466a2.45 2.45 0 00-2.343 1.736l.254.11z" fill="#9FA4B0"/><path d="M113.315 3.287h-.091v-.731h1.017c.454.128.254.73-.091.73h-.835v.256h.599c.763.11.381.804.563 1.024h.254c-.2-.274.145-.823-.345-1.078.654-.293.381-1.224-.236-1.206h-1.18v2.265h.236V3.542h.109v-.255zm-52.21 7.424h-8.221l-4.845 13.663c-2.415 7.706 5.298 10.264 12.648 4.933l-.49 1.955h7.84L75.26 10.73h-8.385l-4.281 11.726c-.999 2.868-6.57 4.472-5.716.09l4.227-11.835zm-46.637 5.105L9.079 31.251h8.258l.944-2.284c.508 3.471 11.886 6.39 17.965-5.938 4.771-8.894-.672-17.718-11.523-11.232L27.991 2.3H19.19l-4.721 13.516 8.857 1.553c1.543-1.461 3.301-1.937 4.717-1.005 1.67 1.096 1.398 4.294-.327 6.446-1.634 2.028-4.245 3.051-5.752 2.046-1.634-1.096-1.543-3.599.091-5.974.4-.585.817-1.096 1.271-1.517l-8.857-1.549zM6.3 19.558s.621-1.557 1.754-.745l1.61 1.355s.82.632.627-.573l-.962-8.32s-.174-1.312-1.075-.428l-5.752 5.857s-.792.756-.21.88l2.323-.017s1.635-.015.963 2.071l-4.02 11.63-.763.008 4.107-11.835s.28-1.191-.519-1.125l-2.233.036c-1.126-.007-1.173-1.231-.418-1.951l6.206-6.3c.774-.81 1.976-.365 2.092.731.232 1.878 1.06 9.142 1.06 9.142.156 1.17-1.02 1.652-1.826.855L8.022 19.8s-.788-.851-1.122.248L3.01 31.255l-.744.008L6.3 19.558z" fill="#9FA4B0"/></svg>