<svg width="232" height="63" fill="none" xmlns="http://www.w3.org/2000/svg"><path d="M68.644 60.452H86.26l20.506-57.514H89.07L68.645 60.452zm70.481-.009h17.477l9.117-25.326c3.65-6.106 10.943-4.725 9.592.618l-8.752 24.708h18.235l8.651-24.162c2.299-6.07 11.855-6.434 9.774.726l-8.132 23.436h17.622l9.848-27.797c3.285-9.45-8.315-22.091-28.273-8.178-2.372-6.36-12.22-10.359-25.353-1.09l.876-3.78h-16.381l-14.301 40.845zm83.751-56.772c.511-1.817 2.189-3.126 4.197-3.126 2.409 0 4.38 1.963 4.38 4.362a4.36 4.36 0 01-4.38 4.361c-2.446 0-4.416-1.926-4.416-4.361 0-.436.073-.836.219-1.236l-.511-.218a4.838 4.838 0 00-.219 1.454 4.896 4.896 0 004.927 4.906c2.701 0 4.927-2.18 4.927-4.906C232 2.217 229.774 0 227.073 0a4.914 4.914 0 00-4.708 3.453l.511.218z" fill="#3C3C3B"/><path d="M226.186 4.798h-.183V3.345h2.044c.913.254.511 1.453-.182 1.453h-1.679v.51h1.204c1.533.217.767 1.598 1.132 2.035h.511c-.402-.546.292-1.636-.694-2.145 1.314-.581.767-2.435-.474-2.399h-2.373v4.507h.475V5.307h.219v-.509zm-104.953 14.77h-16.527l-9.738 27.18c-4.855 15.33 10.65 20.42 25.425 9.814l-.985 3.889h15.761l14.519-40.846h-16.855l-8.607 23.327c-2.008 5.706-13.206 8.897-11.49.181l8.497-23.545zM27.484 29.725L16.651 60.43h16.6l1.898-4.543c1.022 6.906 23.893 12.714 36.113-11.813 9.592-17.693-1.35-35.248-23.163-22.345l6.57-18.893H36.974l-9.49 26.889 17.805 3.09c3.102-2.908 6.635-3.853 9.482-2 3.358 2.181 2.81 8.542-.657 12.823-3.285 4.035-8.533 6.07-11.563 4.07-3.285-2.18-3.102-7.16.183-11.884.803-1.163 1.642-2.181 2.555-3.017l-17.805-3.082zm-16.417 7.442s1.248-3.096 3.526-1.483l3.233 2.697s1.65 1.258 1.263-1.14l-1.934-16.553s-.35-2.61-2.16-.85L3.43 31.49s-1.591 1.505-.423 1.752l4.672-.036s3.284-.03 1.934 4.121l-8.08 23.138L0 60.48l8.256-23.545s.562-2.37-1.044-2.24l-4.49.074c-2.262-.015-2.357-2.45-.839-3.882L14.36 18.355c1.555-1.614 3.971-.727 4.205 1.453.467 3.737 2.131 18.188 2.131 18.188.314 2.326-2.05 3.286-3.672 1.701l-2.496-2.05s-1.584-1.694-2.256.494L4.453 60.436l-1.497.015 8.11-23.284z" fill="#3C3C3B"/></svg>