<svg width="42" height="25" fill="none" xmlns="http://www.w3.org/2000/svg"><path d="M41.946 12.255c0 6.724-5.615 12.254-12.584 12.254-6.905 0-12.584-5.53-12.584-12.254C16.778 5.53 22.392 0 29.297 0c7.034 0 12.649 5.53 12.649 12.255z" fill="#fff"/><path opacity=".5" d="M25.104 12.318c0-.88-.13-1.76-.258-2.577h-7.744c.064-.44.193-.817.322-1.32h6.905c-.129-.44-.322-.88-.516-1.32h-5.872c.193-.44.451-.817.71-1.32h4.452c-.258-.44-.58-.88-.968-1.319h-2.452c.387-.44.774-.817 1.29-1.257C18.78 1.194 15.812 0 12.52 0 5.68.189 0 5.53 0 12.255c0 6.724 5.615 12.254 12.584 12.254 3.291 0 6.195-1.256 8.454-3.205.452-.377.839-.817 1.29-1.32h-2.58a8.976 8.976 0 01-.904-1.256h4.388c.258-.377.517-.817.71-1.32H18.07a6.324 6.324 0 01-.517-1.32h6.905c.388-1.131.646-2.388.646-3.77z" fill="#fff"/><path d="M17.038 15.4l.193-1.132c-.064 0-.193.063-.322.063-.452 0-.517-.252-.452-.377l.387-2.263h.71l.194-1.256h-.646l.13-.755h-1.356s-.774 4.274-.774 4.777c0 .754.451 1.13 1.097 1.13.387 0 .71-.125.839-.188zm.45-2.079c0 1.823 1.291 2.263 2.324 2.263.968 0 1.42-.189 1.42-.189l.258-1.257s-.71.314-1.42.314c-1.484 0-1.226-1.068-1.226-1.068h2.71s.194-.817.194-1.194c0-.817-.452-1.885-1.936-1.885-1.29-.063-2.324 1.382-2.324 3.016zm2.324-1.885c.71 0 .58.817.58.88h-1.484c.065-.063.194-.88.904-.88zm8.453 3.96l.258-1.446s-.646.315-1.162.315c-.903 0-1.355-.692-1.355-1.509 0-1.57.774-2.388 1.742-2.388.646 0 1.226.377 1.226.377l.194-1.382s-.774-.314-1.549-.314c-1.549 0-3.033 1.32-3.033 3.77 0 1.634.775 2.703 2.388 2.703.58.062 1.29-.126 1.29-.126zM9.744 10.243c-.904 0-1.614.251-1.614.251l-.193 1.132s.58-.252 1.484-.252c.452 0 .839.063.839.44 0 .251-.065.314-.065.314h-.58c-1.162 0-2.388.44-2.388 1.948 0 1.194.774 1.446 1.29 1.446.904 0 1.356-.566 1.42-.566l-.064.503h1.097l.516-3.582c0-1.571-1.29-1.634-1.742-1.634zm.258 2.89c0 .19-.13 1.258-.904 1.258-.387 0-.516-.315-.516-.503 0-.314.194-.754 1.226-.754h.194zm2.776 2.39c.322 0 2 .063 2-1.697 0-1.634-1.613-1.32-1.613-1.948 0-.315.258-.44.71-.44.193 0 .903.063.903.063l.194-1.194s-.452-.126-1.29-.126c-.969 0-2.001.377-2.001 1.697 0 1.508 1.677 1.382 1.677 1.948 0 .377-.451.44-.774.44-.58 0-1.226-.189-1.226-.189l-.194 1.194c.13.126.517.252 1.614.252zm26.588-6.284l-.258 1.76s-.516-.629-1.29-.629c-1.227 0-2.26 1.445-2.26 3.142 0 1.069.517 2.137 1.679 2.137a2 2 0 001.29-.503l-.064.44h1.355l.968-6.222-1.42-.125zm-.645 3.393c0 .692-.323 1.634-1.097 1.634-.452 0-.71-.377-.71-1.068 0-1.068.452-1.697 1.097-1.697.452.063.71.377.71 1.131zM2.455 15.46l.774-4.65.13 4.65h.903l1.742-4.65-.71 4.65h1.42l1.097-6.22H5.617l-1.355 3.833-.065-3.833H2.261l-1.097 6.22h1.291z" fill="#3C3C3B"/><path d="M23.102 15.462c.387-2.136.451-3.896 1.42-3.582.129-.817.322-1.194.451-1.508h-.258c-.58 0-1.097.754-1.097.754l.129-.691h-1.29l-.84 5.027h1.485zm8.263-5.219a5.35 5.35 0 00-1.614.251l-.193 1.132s.58-.252 1.484-.252c.452 0 .839.063.839.44 0 .251-.065.314-.065.314h-.58c-1.162 0-2.388.44-2.388 1.948 0 1.194.774 1.446 1.29 1.446.904 0 1.356-.566 1.42-.566l-.064.503h1.226l.516-3.582c0-1.571-1.42-1.634-1.871-1.634zm.322 2.89c0 .19-.129 1.258-.903 1.258-.387 0-.516-.315-.516-.503 0-.314.193-.754 1.226-.754h.193zm2.579 2.329c.387-2.136.452-3.896 1.42-3.582.129-.817.322-1.194.451-1.508h-.258c-.58 0-1.097.754-1.097.754l.13-.691H33.62l-.838 5.027h1.484z" fill="#3C3C3B"/></svg>