<svg width="64" height="21" viewBox="0 0 64 21" fill="none" xmlns="http://www.w3.org/2000/svg">
<g clip-path="url(#clip0_3473_26721)">
<path d="M48.3105 8.47895C46.8263 7.96316 46.3632 7.65789 46.3632 7.1C46.3632 6.47895 46.8789 6.11053 47.7947 6.11053C48.5421 6.11053 49.2895 6.32105 49.8474 6.54211L50.0895 3.84737C49.4053 3.65789 48.5737 3.51053 47.6684 3.51053C44.6684 3.51053 42.7421 5.21579 42.7421 7.46842C42.7211 8.9 43.6789 10.2579 46.1842 11.1105C47.5947 11.5842 47.9632 11.8789 47.9632 12.4895C47.9632 13.1105 47.4895 13.5 46.3526 13.5C45.2474 13.5 43.8158 13.0053 43.1105 12.5842L42.4474 15.2789C43.3632 15.7737 44.7632 16.1211 46.3632 16.1211C49.8368 16.1211 51.6053 14.4684 51.6053 12.2053C51.5842 10.4263 50.6263 9.26842 48.3105 8.47895ZM57.4158 13.0579C56.2789 13.0579 55.9316 12.3947 55.9316 10.9316V0.5L52.2474 1.34211V3.77368H50.8474L50.5947 6.54211H52.2579V11.4789C52.2579 13.1842 52.6053 14.3421 53.3 15.0684C53.8895 15.6895 54.9 16.1105 56.1105 16.1105C57.1737 16.1105 58.0579 15.9842 58.5526 15.7842L58.5316 12.9421C58.2579 12.9947 57.8895 13.0474 57.4158 13.0579ZM56.2263 6.55263H58.5316V3.77368H56.2263V6.55263ZM14.4474 10.0368C14.3737 8.18421 14.3105 5.9421 14.3105 3.7H14.2368C13.7421 5.66842 13.0684 7.86842 12.4474 9.66842L10.4895 15.6895H7.65789L5.9421 9.71053C5.41579 7.9 4.86842 5.7 4.48947 3.68947H4.44737C4.35263 5.76316 4.27895 8.15263 4.16316 10.0789L3.87895 15.9316H0.5L1.52105 0.510526H6.36316L7.93158 5.65789C8.42632 7.43684 8.93158 9.37368 9.28947 11.1737H9.36316C9.81579 9.39474 10.3632 7.3421 10.8895 5.63684L12.6053 0.510526H17.3526L18.2368 15.9316H14.6789L14.4474 10.0368ZM34.3737 11.0263C34.5 12.5842 36.0263 13.3211 37.7947 13.3211C39.0789 13.3211 40.1105 13.1526 41.1421 12.8263L41.6368 15.3737C40.4053 15.8684 38.9 16.1105 37.2579 16.1105C33.1526 16.1105 30.8053 13.7421 30.8053 9.95263C30.8053 6.88947 32.7105 3.5 36.9105 3.5C40.8263 3.5 42.3 6.53158 42.3 9.53158C42.3 10.1737 42.2263 10.7421 42.1737 11.0158L34.3737 11.0263ZM38.8053 8.44737C38.8053 7.53158 38.4053 6.00526 36.6789 6.00526C35.1 6.00526 34.4579 7.43684 34.3632 8.44737H38.8053Z" fill="#0862AF"/>
<path d="M61.1107 0.521567L63.6581 5.16367L61.1107 9.82683H58.5318L61.0791 5.16367L58.5212 0.521567H61.1107C61.1107 0.51104 61.1107 0.51104 61.1107 0.521567ZM29.5844 20.5005H19.2265V17.9321H29.5844V20.5005ZM22.2686 11.0163C22.3949 12.5742 23.9212 13.311 25.6897 13.311C26.9739 13.311 28.0055 13.1426 29.037 12.8163L29.5318 15.3637C28.3002 15.8584 26.7949 16.1005 25.1528 16.1005C21.0476 16.1005 18.7002 13.7321 18.7002 9.94262C18.7002 6.87946 20.6055 3.48999 24.8055 3.48999C28.7212 3.48999 30.1949 6.52157 30.1949 9.52157C30.1949 10.1637 30.1212 10.7321 30.0686 11.0058H22.2686V11.0163ZM26.7002 8.43736C26.7002 7.52157 26.3002 5.99525 24.5739 5.99525C22.9949 5.99525 22.3528 7.42683 22.2476 8.43736H26.7002Z" fill="#ED1C24"/>
</g>
<defs>
<clipPath id="clip0_3473_26721">
<rect width="63.1579" height="20" fill="white" transform="translate(0.5 0.5)"/>
</clipPath>
</defs>
</svg>
