<svg width="71" height="25" viewBox="0 0 71 25" fill="none" xmlns="http://www.w3.org/2000/svg">
<path fill-rule="evenodd" clip-rule="evenodd" d="M13.3943 0H13.0652L12.7615 0.126008L8.0408 4.77572C7.83831 5.04033 7.90159 5.22935 8.2433 5.22935H10.3315C10.6732 5.22935 10.939 5.50656 10.939 5.83419V9.28681C10.939 9.61444 11.2048 9.87905 11.5465 9.87905H14.9763C15.3812 9.87905 15.647 9.61444 15.647 9.28681V5.83419C15.647 5.50656 15.9254 5.22935 16.2545 5.22935H18.2162C18.5452 5.22935 18.6212 5.04033 18.4187 4.77572L13.698 0.126008L13.3943 0ZM43.0346 4.10742H42.9966C40.8451 4.10742 39.0859 5.77073 39.0859 7.88767C39.0859 10.0802 40.8451 11.8065 42.9966 11.8065L43.0346 11.7939V10.2692L42.9966 10.2818C41.7817 10.2818 40.8451 9.21076 40.8451 7.88767C40.8451 6.62759 41.7817 5.63212 42.9966 5.63212L43.0346 5.64472V4.10742ZM32.7581 4.2334H31.2773V5.63209H31.8848C31.9481 5.63209 31.9481 5.6951 31.9481 5.6951V11.6679H33.5681V8.68149H36.4663V11.6679H38.0862V5.6951L38.1495 5.63209H38.757V4.2334H37.3395C36.7321 4.2334 36.4663 4.49802 36.4663 5.10286V7.2198H33.5681V5.10286C33.5681 4.49802 33.3023 4.2334 32.7581 4.2334ZM43.0352 4.10742L43.7819 4.18303C45.5663 4.52325 46.9079 6.03535 46.9079 7.88767C46.9079 9.803 45.5663 11.3655 43.7819 11.7183L43.0352 11.7939V10.2692L43.8578 10.0928C44.6551 9.72739 45.2246 8.88314 45.2246 7.88767C45.2246 6.94261 44.6551 6.14876 43.8578 5.80853L43.0352 5.64472V4.10742ZM49.4998 4.2334H47.2344V5.63209H47.9178V10.811C47.9178 11.4033 48.1836 11.6679 48.7278 11.6679H50.4363H50.5755V10.2062H50.082H49.601C49.5607 10.2062 49.5418 10.2062 49.5329 10.1968C49.5251 10.1884 49.5251 10.1727 49.5251 10.1432V8.47988H50.2338H50.5755V7.15679H49.9807H49.5251V5.63209H50.4743H50.5755V4.2334H49.4998ZM50.5781 4.2334H50.6034C52.0968 4.2334 52.9701 5.03985 52.9701 6.23693C52.9701 6.95518 52.6284 7.42141 52.2993 7.76163C52.9068 8.02625 53.2991 8.68149 53.2991 9.41234C53.2991 10.811 52.2234 11.6679 50.6794 11.6679H50.6541H50.5781V10.2062H50.7427C51.2869 10.2062 51.6159 9.87857 51.6159 9.34934C51.6159 8.8201 51.2869 8.47988 50.7427 8.47988H50.5908H50.5781V7.15679H50.6034C51.0844 7.15679 51.3501 6.82917 51.3501 6.36294C51.3501 5.89671 51.0844 5.63209 50.6034 5.63209H50.5908H50.5781V4.2334ZM57.0823 4.2334H56.3988L54.2473 10.1432C54.2218 10.1687 54.2065 10.1838 54.1882 10.1929C54.1613 10.2062 54.1278 10.2062 54.0448 10.2062H53.7031V11.6679H54.7156C55.2598 11.6679 55.5256 11.4663 55.6648 11.0126L56.1331 9.81557H56.8418H57.207H57.2088H57.3716H58.2828L58.7511 10.937C58.8903 11.4663 59.156 11.6679 59.7002 11.6679H60.6368V10.2062H60.371C60.2881 10.2062 60.2545 10.2062 60.2276 10.1929C60.2093 10.1838 60.1941 10.1687 60.1685 10.1432L58.017 4.2334H57.2088H57.207H57.0823ZM57.8778 8.41688H57.2088H57.207H57.1076H56.5381L57.0696 6.89217C57.0696 6.69151 57.1448 6.50333 57.2079 6.3649C57.271 6.50333 57.3462 6.69151 57.3462 6.89217L57.8778 8.41688ZM37.137 13.7852H31.2773V15.1838H31.9481V21.2196H33.5681V15.1838H36.2638C36.3271 15.1838 36.3271 15.2595 36.3271 15.2595V20.3628C36.3271 20.955 36.6055 21.2196 37.213 21.2196H38.6178V19.758H38.0862C38.0459 19.758 38.027 19.758 38.0181 19.7485C38.0103 19.7402 38.0103 19.7245 38.0103 19.6949V14.6546C38.0103 14.0624 37.6812 13.7852 37.137 13.7852ZM42.8669 13.6602H42.8922V15.1975L42.8669 15.1849C41.6393 15.1849 40.7028 16.1803 40.7028 17.4404C40.7028 18.7635 41.6393 19.8346 42.8669 19.8346L42.8922 19.822V21.3467L42.8669 21.3593C40.7028 21.3593 39.0195 19.6329 39.0195 17.4404C39.0195 15.3235 40.7028 13.6602 42.8669 13.6602ZM43.6665 13.7358L42.8945 13.6602V15.1975L43.7551 15.3613C44.5525 15.7015 45.084 16.4953 45.084 17.4404C45.084 18.4359 44.5525 19.2801 43.7551 19.6456L42.8945 19.822V21.3467L43.6665 21.2711C45.4763 20.9182 46.7672 19.3557 46.7672 17.4404C46.7672 15.5881 45.4763 14.076 43.6665 13.7358ZM47.1094 13.7852H48.5901C49.1343 13.7852 49.4001 14.0624 49.4001 14.6546V19.6949C49.4001 19.7264 49.4001 19.7422 49.408 19.75C49.4159 19.758 49.4317 19.758 49.4634 19.758H51.4124V13.7852H53.0324V19.758H54.994C55.0257 19.758 55.0415 19.758 55.0494 19.75C55.0573 19.7422 55.0573 19.7264 55.0573 19.6949V14.6546C55.0573 14.0624 55.3231 13.7852 55.8673 13.7852H57.348V15.1838H56.7405C56.6646 15.1838 56.6646 15.2595 56.6646 15.2595V20.3628C56.6646 20.955 56.3988 21.2196 55.8673 21.2196H48.6534C48.0459 21.2196 47.7801 20.955 47.7801 20.3628V15.2595C47.7801 15.2595 47.7801 15.1838 47.7169 15.1838H47.1094V13.7852ZM63.6792 13.7852H58.6295C58.0853 13.7852 57.8828 14.0624 57.8828 14.5916V15.8517H59.3636V15.2595C59.3636 15.2217 59.3636 15.2028 59.373 15.1933C59.3825 15.1838 59.4015 15.1838 59.4395 15.1838H60.376V21.2196H61.996V15.1838H62.9325C62.9706 15.1838 62.9895 15.1838 62.999 15.1933C63.0085 15.2028 63.0085 15.2217 63.0085 15.2595V15.8517H64.4892V14.5916C64.4892 14.0624 64.2867 13.7852 63.6792 13.7852ZM66.5746 13.7852H67.258H67.3828H67.3846H68.1801L70.3443 19.6949C70.3699 19.7204 70.3851 19.7356 70.4034 19.7446C70.4303 19.758 70.4639 19.758 70.5468 19.758H70.8126V21.2196H69.876C69.3318 21.2196 69.0661 21.018 68.9268 20.4888L68.4586 19.3673H67.5473H67.3846H67.3828H67.0176H66.2962L65.8279 20.4888C65.7014 21.018 65.4229 21.2196 64.8914 21.2196H63.8789V19.758H64.2206C64.2909 19.758 64.3222 19.758 64.3491 19.7471C64.3706 19.7385 64.3894 19.7229 64.4231 19.6949L66.5746 13.7978V13.7852ZM67.3828 17.9686H67.3846H68.0536L67.5094 16.4439C67.5094 16.2432 67.4466 16.0549 67.3836 15.9165C67.3081 16.0549 67.2454 16.2432 67.2454 16.4439L66.7012 17.9686H67.2707H67.3828ZM20.9 7.39687C20.9759 7.37167 21.0772 7.42207 21.1784 7.56068L25.7599 11.9962C26.0257 12.2608 26.0257 12.664 25.7599 12.8656L21.1784 17.3767C21.0772 17.5027 20.9759 17.5405 20.9 17.5027C20.8241 17.4649 20.7734 17.3389 20.7734 17.1751V7.68669C20.7734 7.52288 20.8241 7.42207 20.9 7.39687ZM5.68577 7.29524C5.7617 7.34564 5.81233 7.45905 5.81233 7.62286V17.3003C5.81233 17.4767 5.7617 17.5775 5.68577 17.6027C5.59718 17.6405 5.48327 17.6027 5.34406 17.5019L0.699331 12.8648C0.433556 12.6632 0.433556 12.26 0.699331 11.9953L5.34406 7.42124C5.48327 7.29524 5.59718 7.25743 5.68577 7.29524ZM14.9726 14.9189H11.5429C11.2012 14.9189 10.9354 15.1836 10.9354 15.5238V19.1654C10.9354 19.5687 10.6696 19.8333 10.3279 19.8333H8.36625C8.0372 19.8333 7.89798 20.0223 8.17641 20.2239L12.7579 24.798C12.8844 24.9366 13.0616 24.9996 13.2261 24.9996C13.3907 24.9996 13.5552 24.9366 13.6944 24.798L18.2758 20.2239C18.5416 20.0223 18.4151 19.8333 18.0734 19.8333H16.2509C15.9218 19.8333 15.6561 19.5687 15.6561 19.1654V15.5238C15.6561 15.1836 15.3776 14.9189 14.9726 14.9189Z" fill="#ED1C24"/>
</svg>
