<svg width="82" height="20" fill="none" xmlns="http://www.w3.org/2000/svg"><path d="M31.114 8.573c-.211 1.587-1.481 1.587-2.645 1.587h-.635l.529-3.069c0-.211.212-.317.423-.317h.318c.846 0 1.587 0 2.01.423v1.376zm-.529-4.233h-4.55c-.318 0-.53.211-.635.529l-1.8 11.64c0 .212.107.424.424.424h2.117c.317 0 .529-.212.635-.53l.529-3.174c0-.317.317-.529.635-.529h1.481c2.963 0 4.657-1.481 5.186-4.339.211-1.27 0-2.222-.53-2.963-.846-.635-2.01-1.058-3.492-1.058zm10.477 8.468c-.212 1.27-1.164 2.116-2.434 2.116-.635 0-1.164-.211-1.481-.634a1.837 1.837 0 01-.318-1.482c.212-1.27 1.164-2.117 2.434-2.117.635 0 1.164.212 1.482.635.211.318.423.847.317 1.482zm2.963-4.233H41.91c-.212 0-.318.106-.424.317l-.105.635-.106-.211c-.424-.635-1.482-.953-2.54-.953-2.434 0-4.445 1.8-4.868 4.34-.212 1.269.106 2.433.846 3.28.635.74 1.588 1.058 2.752 1.058 1.905 0 2.963-1.27 2.963-1.27l-.106.635c0 .212.106.423.424.423h1.904c.318 0 .53-.211.635-.529l1.164-7.408c0-.105-.105-.317-.423-.317zM55.56 8.57h-2.22a.582.582 0 00-.53.318l-2.963 4.444-1.27-4.233c-.105-.317-.317-.423-.635-.423h-2.116c-.212 0-.423.212-.318.53l2.434 6.984-2.222 3.174c-.212.212 0 .635.317.635h2.223a.582.582 0 00.529-.317l7.196-10.477c.106-.317-.106-.635-.423-.635z" fill="#263577"/><path d="M63.286 8.573c-.212 1.587-1.482 1.587-2.646 1.587h-.635l.53-3.069c0-.211.21-.317.422-.317h.318c.846 0 1.587 0 2.01.423.106.423.106.847 0 1.376zm-.53-4.233h-4.55c-.318 0-.53.211-.635.529l-1.799 11.64c0 .212.106.424.423.424h2.328c.212 0 .424-.106.424-.423l.529-3.28c0-.318.317-.53.635-.53h1.481c2.963 0 4.657-1.481 5.186-4.339.212-1.27 0-2.222-.53-2.963-.74-.635-1.904-1.058-3.492-1.058zm10.584 8.468c-.212 1.27-1.165 2.116-2.434 2.116-.635 0-1.165-.211-1.482-.634a1.84 1.84 0 01-.317-1.482c.211-1.27 1.164-2.117 2.434-2.117.635 0 1.164.212 1.481.635.212.318.423.847.318 1.482zm2.963-4.233h-2.117c-.212 0-.317.106-.423.317l-.106.635-.106-.211c-.423-.635-1.481-.953-2.54-.953-2.433 0-4.444 1.8-4.867 4.34-.212 1.269.105 2.433.846 3.28.635.74 1.587 1.058 2.752 1.058 1.904 0 2.963-1.27 2.963-1.27l-.106.635c0 .212.106.423.423.423h1.905c.317 0 .53-.211.635-.529l1.164-7.408c0-.105-.212-.317-.423-.317zm2.54-3.918L76.938 16.51c0 .211.106.423.423.423h1.905c.317 0 .529-.212.635-.53L81.7 4.764c0-.212-.106-.423-.423-.423H79.16c-.106 0-.212.211-.317.317z" fill="#2199D6"/><path d="M4.764 19.156l.318-2.222H.637L3.177.743s0-.106.106-.106h6.349c2.011 0 3.493.423 4.233 1.27.318.423.53.846.635 1.27.106.529.106 1.058 0 1.799v.423l.318.212c.317.105.529.317.74.529.318.317.53.74.53 1.27.105.529.105 1.164-.106 1.904-.212.847-.423 1.482-.74 2.117-.318.529-.742.952-1.165 1.376-.423.317-1.058.529-1.587.74-.635.106-1.27.212-2.011.212h-.53c-.317 0-.634.106-.952.317-.211.212-.423.53-.529.847v.212l-.635 3.915v.212H4.764v-.106z" fill="#263577"/><path d="M15.24 4.973c0 .105 0 .211-.105.317-.847 4.233-3.598 5.609-7.196 5.609h-1.8c-.422 0-.846.317-.846.74l-.952 5.927-.212 1.693c0 .317.212.53.423.53h3.281c.423 0 .74-.318.74-.636v-.211l.636-3.81v-.212c.106-.423.423-.635.74-.635h.53c3.174 0 5.608-1.27 6.243-4.974.318-1.587.106-2.857-.635-3.703-.211-.212-.529-.424-.846-.635z" fill="#2199D6"/><path d="M14.394 4.657c-.106 0-.212-.106-.423-.106-.106 0-.318-.105-.423-.105-.53-.106-1.059-.106-1.588-.106H7.092c-.106 0-.211 0-.317.106-.212.105-.424.317-.424.529l-1.058 6.561v.212c.106-.424.423-.741.847-.741h1.799c3.598 0 6.35-1.482 7.196-5.609 0-.106 0-.212.106-.317l-.635-.318c-.106-.106-.212-.106-.212-.106z" fill="#252C5E"/><path d="M6.351 4.974c0-.212.212-.424.424-.53.106 0 .211-.105.317-.105h4.868c.53 0 1.164 0 1.588.106.105 0 .317 0 .423.105.106 0 .211.106.423.106.106 0 .106 0 .212.106l.635.318c.211-1.588 0-2.646-.847-3.598C13.442.423 11.748 0 9.632 0H3.388c-.423 0-.846.317-.846.74L.002 17.039c0 .317.212.635.53.635H4.34l.952-6.138L6.35 4.975z" fill="#263577"/></svg>