<svg width="31" height="31" fill="none" xmlns="http://www.w3.org/2000/svg"><g clip-path="url(#clip0_944_22059)"><path d="M8 .5a1.88 1.88 0 00-1.875 1.875v26.25A1.88 1.88 0 008 30.5h18.75a1.88 1.88 0 001.875-1.875V8l-7.5-7.5H8z" fill="#F0F1F4"/><path d="M23 8h5.625l-7.5-7.5v5.625A1.88 1.88 0 0023 8z" fill="#C3C8D5"/><path d="M28.625 13.625L23 8h5.625v5.625z" fill="#E1E3EA"/><path d="M24.875 24.875a.94.94 0 01-.938.938H3.313a.94.94 0 01-.937-.938V15.5a.94.94 0 01.938-.938h20.625a.94.94 0 01.937.938v9.375z" fill="#3C3C3B"/><path d="M6.462 18.264c0-.248.195-.518.509-.518h1.732c.975 0 1.852.653 1.852 1.903 0 1.185-.877 1.845-1.852 1.845H7.45v.99c0 .33-.21.517-.48.517a.505.505 0 01-.51-.517v-4.22zm.989.426v1.868h1.252c.502 0 .9-.444.9-.909 0-.524-.398-.959-.9-.959H7.45zm4.572 4.312c-.247 0-.517-.135-.517-.464v-4.259c0-.269.27-.465.517-.465h1.717c3.426 0 3.35 5.188.067 5.188h-1.784zm.473-4.272v3.358h1.244c2.024 0 2.114-3.358 0-3.358h-1.244zm5.811.058v1.192h1.911c.27 0 .54.27.54.532 0 .247-.27.45-.54.45h-1.911v1.574c0 .262-.187.464-.45.464-.33 0-.53-.202-.53-.464v-4.259c0-.269.202-.465.53-.465h2.632c.33 0 .525.196.525.465 0 .24-.195.51-.525.51h-2.182v.001z" fill="#fff"/><path d="M23.938 25.813H6.125v.937h17.813a.94.94 0 00.937-.938v-.937a.94.94 0 01-.938.938z" fill="#E1E3EA"/></g><defs><clipPath id="clip0_944_22059"><path fill="#fff" transform="translate(.5 .5)" d="M0 0h30v30H0z"/></clipPath></defs></svg>