<svg width="85" height="85" fill="none" xmlns="http://www.w3.org/2000/svg"><path d="M85 0H0v85h85V0z" fill="#fff"/><path fill-rule="evenodd" clip-rule="evenodd" d="M17.002 30.6h-10.2V6.8h23.8v23.8h-13.6zm-6.8-10.2v6.8h17v-17h-17v10.2zm61.2-13.6h6.8v23.8h-23.8V6.8h17zm3.4 10.2v-6.8h-17v17h17V17zm-40.801-6.8h3.4v3.4H34v-3.4zm6.8 3.4v6.8H34V17h3.4v-3.4h3.4zm0 0V6.8h3.4v6.8h-3.4zm34 40.8h-3.4V51H68v-3.4h3.4v-3.4h3.4v-3.4h3.4v-3.4h-3.4V34h-3.4v3.4H68V34h-3.4v3.4h-3.4V34h-3.4v3.4h-3.4V34H51V23.8h-6.8v-3.4h-3.4v3.4H34v6.8h3.4v-3.4h3.4V34H27.2v3.4h3.4v3.4h-3.4v3.4h3.4v3.4h-6.8V34h-17v3.4h3.4v3.4H6.8V51h3.4V40.8h3.4v6.8H17V51h17v6.8h3.4v3.4H34v17h10.2v-3.4h3.4v-3.4H51v3.4h3.4V64.6h6.8V68h-3.4v3.4h3.398v3.4h3.4v3.4H68v-3.4h3.4V68h3.4v-3.4h-6.798v-3.4h3.4v-3.4h3.4v-3.4zm0 0v-6.8h3.4v6.8h-3.4zM61.2 68h3.4v-3.4h3.398v6.8H61.2V68zM51 64.6h3.4v-3.4h3.4V51h3.4v-6.8H68v-3.4h-6.8v3.4h-6.8v3.4H51v-3.4h-6.8v-3.4h-3.4v3.4h-3.4v-6.8H34V51h3.4v-3.4h10.2V51h-6.8v3.4h3.4v3.4h3.398v3.4h-3.4v-3.4H40.8v3.4h3.4v3.4h-3.4v6.8h3.4v-6.8h3.4V68H51v-3.4zm0-3.4h3.4v-3.4H51v-3.4h3.4V51H51v3.4h-3.4v3.4H51v3.4zm0 0h-3.4v3.4H51v-3.4zM13.6 40.8v-3.4H17v3.4h-3.4zM40.8 34h3.4v3.4h-3.4V34zm6.798-17v3.4H51V10.2h-3.4v3.4h-3.4V17h3.4zm13.6-3.4h10.2v10.2H61.2V13.6zM20.401 23.8h3.4V13.6H13.6v10.2h6.8zm23.8 3.4h3.4v3.4h-3.4v-3.4zm3.4 13.6v-3.4H51v3.4h-3.4zm20.4 17h-6.8v-3.4H68v3.4zM57.802 47.6h-3.4V51h3.4v-3.4zm-37.401 6.8h10.2v23.8H6.8V54.4h13.6zm6.8 10.2v-6.8h-17v17h17V64.6zm-13.6-3.4h10.2v10.2H13.6V61.2zm40.801 13.6v3.4h6.8v-3.4h-6.8zm17 0h3.4v3.4h-3.4v-3.4z" fill="#3C3C3B"/></svg>