<svg width="32" height="31" viewBox="0 0 32 31" fill="none" xmlns="http://www.w3.org/2000/svg">
<g clip-path="url(#clip0_3473_26559)">
<path d="M25.4482 30.4996C26.4744 29.1986 31.994 22.0898 31.994 19.1419C31.994 15.4908 29.0545 12.5254 25.4482 12.5254C21.8419 12.5254 18.9023 15.4967 18.9023 19.1419C18.9023 22.0898 24.4219 29.1986 25.4482 30.4996ZM25.4482 16.3992C26.944 16.3992 28.1616 17.6299 28.1616 19.1419C28.1616 20.6539 26.944 21.8846 25.4482 21.8846C23.9523 21.8846 22.7348 20.6539 22.7348 19.1419C22.7348 17.6299 23.9523 16.3992 25.4482 16.3992Z" fill="#FFAE00"/>
<path d="M22.9205 27.1009C22.5668 26.5969 22.2015 26.0636 21.8421 25.5186L15.4702 28.1617V13.0415L26.7297 8.36482V12.6547C27.3907 12.7895 28.0168 13.0181 28.585 13.3404V6.88211C28.585 6.50117 28.3589 6.16126 28.011 6.01475L14.8962 0.570326C14.6701 0.476558 14.415 0.476558 14.1888 0.570326L1.07399 6.01475C0.726118 6.16126 0.5 6.50117 0.5 6.88211V24.112C0.5 24.493 0.726118 24.8329 1.07399 24.9794L14.1888 30.4238C14.415 30.5176 14.6643 30.5176 14.8962 30.4238C14.902 30.4238 14.5425 30.5762 22.9205 27.1009ZM14.5425 2.45155L17.7604 3.78775L7.31833 8.39412L3.77581 6.92313L14.5425 2.45155ZM13.6149 28.1617L2.35533 23.485V8.36482L6.52402 10.0937V14.9755C6.52402 15.4912 6.94147 15.9132 7.45168 15.9132C7.9619 15.9132 8.37935 15.4912 8.37935 14.9755V10.8614L13.6091 13.0357V28.1617H13.6149ZM14.5425 11.3947L9.71287 9.39041L20.1549 4.78404L25.3092 6.92313L14.5425 11.3947Z" fill="#FFAE00"/>
</g>
<defs>
<clipPath id="clip0_3473_26559">
<rect width="31.5" height="30" fill="white" transform="translate(0.5 0.5)"/>
</clipPath>
</defs>
</svg>
