<svg width="44" height="19" viewBox="0 0 44 19" fill="none" xmlns="http://www.w3.org/2000/svg">
<path fill-rule="evenodd" clip-rule="evenodd" d="M23.607 0.5C23.9599 0.5 24.1112 0.752101 24.2624 1.10504C25.7246 4.93697 27.1868 8.76891 28.649 12.5504C29.4053 14.5168 30.1616 16.4832 30.9683 18.5H27.9431L26.5817 15.021H22.8507H19.1196L17.7582 18.5H14.733C15.5397 16.4832 16.296 14.5168 17.0523 12.5504C17.7834 10.6345 18.5145 8.73111 19.2456 6.82776C19.9767 4.92439 20.7078 3.02102 21.4389 1.10504C21.5901 0.752101 21.7414 0.5 22.0944 0.5H23.607ZM20.1784 12.2479H22.8507H25.5229C24.6658 9.97899 23.8086 7.7605 22.8507 5.34034C22.3698 6.62274 21.8888 7.84852 21.4154 9.05517C20.9954 10.1257 20.5813 11.1812 20.1784 12.2479ZM30.1112 0.550977V3.27367H35.3045V18.3493H38.0776V3.27367H43.2709V0.550977H30.1112ZM8.48094 8.16322H5.75825C4.34649 8.1128 3.28767 7.05398 3.28767 5.74305C3.28767 4.38171 4.34649 3.3733 5.80867 3.3733H11.6574H12.3129V0.600195H5.60699C2.93472 0.600195 0.716237 2.66742 0.514556 5.33969C0.312876 8.01196 2.22884 10.4321 4.90111 10.7851C5.7897 10.9062 6.71065 10.898 7.61212 10.8899H7.61221C7.83603 10.8879 8.05864 10.8859 8.27926 10.8859C9.79187 10.9363 10.9011 11.9447 10.9011 13.3061C10.9011 14.6674 9.74145 15.6758 8.27926 15.6758H1.72464H1.1196V18.4489H8.128H8.78346C11.607 18.2977 13.8255 15.9279 13.7246 13.1548C13.5734 10.4321 11.3045 8.16322 8.48094 8.16322Z" fill="#1E3F6A"/>
</svg>
