<svg width="25" height="25" fill="none" xmlns="http://www.w3.org/2000/svg"><mask id="a" maskUnits="userSpaceOnUse" x="1.5" y="1.289" width="22" height="22" fill="#000"><path fill="#fff" d="M1.5 1.289h22v22h-22z"/><path d="M12.5 2.29a10 10 0 11-7.071 2.928l2.828 2.828A6 6 0 1012.5 6.29v-4z"/></mask><path d="M12.5 2.29a10 10 0 11-7.071 2.928l2.828 2.828A6 6 0 1012.5 6.29v-4z" fill="#FFAE00"/><path d="M12.5 2.29v-1h-1v1h1zm6.344 2.269l.634-.773-.634.773zm3.464 5.78l.98-.196-.98.195zm-5.981 11.189l.382.924-.382-.924zm-6.73.33l.29-.957-.29.957zm-5.412-4.013l-.831.555.831-.555zm-1.637-6.536l.995.098-.995-.098zM5.43 5.218l.707-.707-.707-.707-.707.707.707.707zm2.828 2.828l.707.708.708-.708-.708-.707-.707.707zM6.53 11.701l.995.098-.995-.098zm.982 3.921l.832-.555-.832.556zm3.247 2.409l-.29.957.29-.957zm4.038-.199l.383.924-.383-.924zm2.995-2.715l-.881-.471.881.471zm.594-3.999l.98-.195-.98.195zm-2.079-3.467l.635-.773-.635.773zM12.5 6.289h-1v1h1v-1zm0-3a9 9 0 015.71 2.043l1.268-1.546A11 11 0 0012.5 1.289v2zm5.71 2.043a9 9 0 013.117 5.201l1.962-.39a11 11 0 00-3.81-6.357l-1.27 1.546zm3.117 5.201a9 9 0 01-.89 5.999l1.764.942a11 11 0 001.088-7.33l-1.962.39zm-.89 5.999a9 9 0 01-4.493 4.072l.765 1.848a11 11 0 005.492-4.978l-1.764-.942zm-4.493 4.072a9 9 0 01-6.057.297l-.58 1.914a11 11 0 007.402-.363l-.765-1.848zm-6.057.297a9 9 0 01-4.87-3.612L3.354 18.4a11 11 0 005.953 4.415l.58-1.914zm-4.87-3.612a9 9 0 01-1.474-5.882l-1.99-.196a11 11 0 001.8 7.19l1.664-1.112zm-1.474-5.882a9 9 0 012.593-5.482L4.722 4.511a11 11 0 00-3.169 6.7l1.99.196zm1.179-5.482L7.55 8.754l1.414-1.415-2.828-2.828-1.414 1.414zM7.55 7.34a7 7 0 00-2.016 4.264l1.99.196a5 5 0 011.44-3.045L7.55 7.339zm-2.016 4.264a7 7 0 001.146 4.575l1.663-1.111a5 5 0 01-.819-3.268l-1.99-.196zm1.146 4.575a7 7 0 003.788 2.81l.58-1.914a5 5 0 01-2.705-2.007l-1.663 1.11zm3.788 2.81a7 7 0 004.71-.232l-.765-1.848a5 5 0 01-3.364.166l-.581 1.914zm4.71-.232a7 7 0 003.495-3.167l-1.763-.943a5 5 0 01-2.497 2.262l.766 1.848zm3.495-3.167a7 7 0 00.693-4.666l-1.962.39a5 5 0 01-.494 3.333l1.764.943zm.693-4.666a7 7 0 00-2.425-4.045l-1.269 1.546a5 5 0 011.732 2.89l1.962-.39zM16.94 6.878a7 7 0 00-4.44-1.589v2a5 5 0 013.172 1.135l1.269-1.546zm-3.44-.589v-4h-2v4h2z" fill="#FFAE00" mask="url(#a)"/><path d="M12.5 12.29l-7-7" stroke="#FFAE00" stroke-width="2" stroke-linecap="round"/></svg>