<svg width="45" height="46" fill="none" xmlns="http://www.w3.org/2000/svg"><circle cx="22.5" cy="23.157" r="22.5" fill="#F8F9FA"/><mask id="a" style="mask-type:alpha" maskUnits="userSpaceOnUse" x="0" y="0" width="45" height="46"><circle cx="22.5" cy="23.157" r="22.5" fill="#F9F9F9"/></mask><g mask="url(#a)"><path d="M33.278 20.148c-.608-1.456-1.85-.739-1.85-.739.72-6.611-2.643-10.974-8.943-10.974-6.304 0-9.664 4.363-8.947 10.974 0 0-1.242-.713-1.85.739-.609 1.452.503 4.863 1.19 5.949.689 1.082 1.905 1.904 1.905 1.904s.442 1.217.757 2.064c.134.358.8 1.271 1.597 2.245v7.748h10.692V32.31c.8-.974 1.463-1.887 1.597-2.245.318-.847.756-2.064.756-2.064s1.217-.818 1.905-1.904c.691-1.087 1.8-4.494 1.191-5.95z" fill="#E1E3EA"/><path d="M22.488 8.435c-6.304 0-9.664 4.363-8.947 10.974.832.543 1.024 2.017.894 3.476 0 0-.279 4.645.637 6.84.913 2.19 2.506 5.616 7.416 5.576 4.91.036 6.499-3.386 7.415-5.58.912-2.19.637-6.84.637-6.84-.13-1.393-.134-2.925.895-3.476.713-6.607-2.647-10.97-8.947-10.97zM29.38 18.59s-.123 6.065-1.057 7.393c-.938 1.33-.644-1.618-5.836-1.669-5.193-.05-4.903 2.998-5.84 1.67-.935-1.326-1.058-7.369-1.058-7.394.062-1.34.192-2.622.768-3.194.745-.742 1.835-.623 2.766-.383 1.086.278 2.209.651 3.356.68 1.213.033 2.368-.413 3.53-.695.906-.217 1.887-.315 2.604.398.576.576.706 1.854.767 3.197v-.003z" fill="#3C3C3B"/><path d="M40.774 39.244c-5.065-1.228-12.321-1.557-12.321-1.557v-2.39c0-.134-.228-.264-.623-.377v.674c-2.466.916-8.396.844-10.692.076v-.786c-.474.123-.75.265-.75.413v2.39s-6.995.456-12.013 1.626h-.138l-.014 14.063h36.555l-.004-14.132z" fill="#C3C8D5"/><path d="M19.547 29.446a3.234 3.234 0 005.94 0h-5.94z" fill="#E1E3EA"/></g></svg>