<svg width="50" height="50" fill="none" xmlns="http://www.w3.org/2000/svg"><g clip-path="url(#clip0_645_9262)"><path d="M24.992 49.984c13.803 0 24.992-11.19 24.992-24.992C49.984 11.189 38.794 0 24.992 0 11.189 0 0 11.19 0 24.992c0 13.803 11.19 24.992 24.992 24.992z" fill="#F8F9FA"/><path d="M42.195 40.075c-.988-.86-2.119-1.48-3.313-2.038-1.769-.829-3.616-1.418-5.48-1.944a1.596 1.596 0 01-.908-.62 10.83 10.83 0 00-2.963-2.756c-.095-.016-.111.063-.127.127-.016.096-.016.191-.016.287-.016.78.032 1.545-.032 2.325-.032.191-.16.335-.287.462-.493.526-1.114.892-1.736 1.243-.94.557-1.736 1.258-2.23 2.261-.223.43-.414.877-.382 1.339 0-.096.016-.208-.016-.335a4.437 4.437 0 00-.733-1.689c-.398-.557-.908-.971-1.481-1.322-.59-.366-1.21-.716-1.768-1.13-.43-.303-.701-.685-.67-1.259.049-.669.017-1.338.017-2.007 0-.08 0-.16-.016-.223-.016-.095-.064-.143-.16-.08a10.54 10.54 0 00-.987.733c-.765.637-1.434 1.386-2.055 2.183a.987.987 0 01-.59.382c-2.277.541-4.475 1.322-6.562 2.437-.908.478-1.768 1.051-2.469 1.816-.398.43-.7.923-.812 1.513v.016c4.572 5.05 11.182 8.219 18.525 8.219a24.917 24.917 0 0018.445-8.124c-.175-.716-.605-1.306-1.194-1.816z" fill="#FFAE00"/><path d="M29.468 35.553c-.127.334-.398.541-.653.764-.494.43-1.083.749-1.64 1.083-1.355.844-2.23 2.023-2.438 3.648-.08-.462-.175-.908-.35-1.338a4.315 4.315 0 00-1.689-2.039c-.669-.43-1.37-.812-2.007-1.274-.127-.096-.254-.191-.366-.303a1.073 1.073 0 01-.35-.828c.016-.765 0-1.53 0-2.294 0-.08.031-.191-.08-.239a.417.417 0 00.08-.27c0-.351-.016-.718 0-1.068 0-.223-.144-.366-.24-.526a8.923 8.923 0 01-1.337-3.122 4.389 4.389 0 01-.096-.637c-.016-.095-.048-.127-.143-.111-.35.095-.59-.064-.78-.335-.415-.59-.638-1.258-.781-1.959a7.446 7.446 0 01-.16-1.784 3.8 3.8 0 01.176-1.035.68.68 0 01.334-.446c.048-.032.096-.064.112-.128.159 0 .143.128.159.207l.43 1.72c.112.447.239.909.366 1.339.032.08.032.19.144.19.111 0 .16-.095.19-.19a3 3 0 00.176-.988c0-.414-.016-.828 0-1.242.048-1.18.144-2.342.414-3.473.303-1.242.988-2.214 2.055-2.899.573-.366 1.21-.557 1.88-.653.51-.08 1.003-.096 1.513-.127.86-.032 1.704 0 2.564-.032.78-.032 1.37-.414 1.768-1.1.016-.031.032-.079.064-.11.064-.08.064-.272.223-.224.144.048.08.207.064.303-.048.398-.08.78-.064 1.179.064 1.72.542 3.297 1.705 4.619.27.303.302.7.318 1.083.016.828-.016 1.672-.032 2.5 0 .288.032.574.08.861a.75.75 0 00.08.27c.031.08.063.176.159.176.095 0 .111-.111.143-.175.35-.94.621-1.896.829-2.883.015-.112.047-.207.08-.319.015-.064.047-.127.127-.111 0 .111.047.207.127.286.287.335.334.749.382 1.163.096.956-.063 1.896-.35 2.804-.16.493-.35.987-.749 1.354-.16.159-.35.238-.573.127-.096-.048-.112 0-.128.08-.095.462-.159.907-.27 1.37-.112.445-.287.875-.478 1.306-.255.541-.606 1.019-.924 1.513-.128.35-.398.59-.67.844-.397.366-.827.7-1.305.972a5.995 5.995 0 01-1.561.605 5.76 5.76 0 01-2.756-.064c-.924-.239-1.72-.717-2.405-1.338-.207-.19-.414-.382-.558-.621.383.557.78 1.131 1.29 1.609 1.084 1.051 2.326 1.784 3.791 2.166a8.066 8.066 0 001.514.223c.796.048 1.593-.048 2.373-.207.048-.016.096-.016.143-.016.096-.032.128.016.08.144z" fill="#E1E3EA"/><path d="M32.495 21.248c-.144.574-.287 1.163-.43 1.737-.16.605-.35 1.194-.59 1.784-.032.08-.032.19-.127.19-.096 0-.143-.095-.191-.158-.16-.24-.191-.526-.223-.797-.064-.621 0-1.242 0-1.864 0-.51.032-1.019-.032-1.529-.048-.302-.143-.557-.35-.78-.892-1.035-1.386-2.23-1.561-3.568-.096-.733-.128-1.466-.017-2.214a.451.451 0 000-.207c-.143.318-.318.605-.573.844a2.117 2.117 0 01-1.465.621c-.462.016-.924 0-1.402 0-.94.016-1.88.016-2.803.175-1.912.35-3.154 1.45-3.68 3.345-.27.972-.382 1.96-.43 2.963-.032.653-.032 1.306-.032 1.96 0 .27-.048.54-.127.812a.855.855 0 01-.16.318c-.063.08-.143.144-.239.128-.095-.016-.095-.128-.111-.207a74.06 74.06 0 01-.828-3.234c-.016-.08-.048-.16-.064-.239-.143-.653-.303-1.322-.366-1.99-.144-1.37-.064-2.725.525-3.999.446-.972 1.115-1.752 2.055-2.294.08-.047.143-.095.16-.175.27-.924.907-1.53 1.704-2.007a13.255 13.255 0 011.927-.908c.032-.016.064-.016.127-.032-.095.144-.175.255-.254.367-.112.175-.207.366-.223.573-.016.143.031.207.19.16.813-.287 1.466-.75 1.88-1.53.048-.08.08-.143.207-.127 1.147.239 2.246.59 3.17 1.354a3.832 3.832 0 011.195 1.72c.032.112.08.191.207.239 1.609.605 2.564 1.8 3.026 3.425.303 1.067.335 2.166.207 3.265-.08.605-.207 1.242-.302 1.88z" fill="#30393E"/><path d="M29.468 35.551c-.016-.111-.096-.08-.16-.064a10.78 10.78 0 01-1.895.255 7.385 7.385 0 01-1.561-.127c-.94-.16-1.8-.494-2.628-.956a8.466 8.466 0 01-2.931-2.787c-.096-.144-.16-.32-.255-.51.112.048.143.111.175.16.892 1.05 1.991 1.783 3.345 2.054.94.191 1.864.16 2.788-.144.94-.302 1.736-.828 2.453-1.497.239-.223.414-.494.669-.7v1.21c0 .096 0 .191.032.287-.048.08-.032.175-.032.255v2.31c.048.079.048.159 0 .254z" fill="#C3C8D5"/></g><defs><clipPath id="clip0_645_9262"><path fill="#fff" d="M0 0h50v50H0z"/></clipPath></defs></svg>