<svg width="52" height="16" fill="none" xmlns="http://www.w3.org/2000/svg"><path d="M47.674.979h-3.15c-.952 0-1.684.285-2.123 1.212l-6.006 13.337h4.248s.732-1.783.879-2.21h5.2c.146.499.512 2.14.512 2.14h3.809L47.673.977zm-4.98 9.343c.366-.856 1.61-4.066 1.61-4.066 0 .072.367-.855.513-1.355l.293 1.284s.806 3.495.953 4.208h-3.37v-.071zm-6.01.428c0 2.996-2.783 4.994-7.104 4.994-1.83 0-3.589-.357-4.54-.785l.585-3.28.513.213c1.318.57 2.197.785 3.808.785 1.172 0 2.417-.428 2.417-1.427 0-.642-.512-1.07-2.124-1.783-1.538-.713-3.588-1.854-3.588-3.923 0-2.853 2.856-4.778 6.884-4.778 1.538 0 2.857.285 3.662.642l-.586 3.138-.293-.286c-.732-.285-1.684-.57-3.076-.57-1.538.071-2.27.713-2.27 1.284 0 .642.879 1.14 2.27 1.783 2.344 1.07 3.443 2.282 3.443 3.994z" fill="#fff"/><path opacity=".5" d="M.946 1.125L1.019.84h6.298c.88 0 1.538.285 1.758 1.213l1.392 6.419C9.075 5.048 5.853 2.267.946 1.125z" fill="#fff"/><path d="M19.328.98l-6.372 14.48H8.635L4.973 3.333c2.637 1.64 4.834 4.208 5.64 5.991l.439 1.498L15.007.91h4.321v.072zm1.685-.07h4.028l-2.563 14.55h-4.029L21.014.91z" fill="#fff"/></svg>