<svg width="46" height="46" fill="none" xmlns="http://www.w3.org/2000/svg"><rect x=".5" y=".25" width="45" height="45" rx="22.5" fill="#FF7549"/><g clip-path="url(#clip0_645_8393)"><path d="M23 12.75c-5.527 0-10 4.473-10 10 0 1.754.457 3.467 1.326 4.978l-1.288 4.001a.781.781 0 00.983.983l4.001-1.288A9.978 9.978 0 0023 32.75c5.527 0 10-4.473 10-10s-4.473-10-10-10zm0 18.438a8.412 8.412 0 01-4.466-1.279.782.782 0 00-.654-.081l-2.888.93.93-2.888a.782.782 0 00-.081-.654 8.414 8.414 0 01-1.278-4.466c0-4.652 3.785-8.438 8.437-8.438 4.652 0 8.438 3.786 8.438 8.438 0 4.652-3.786 8.438-8.438 8.438zm.977-8.438a.977.977 0 11-1.954 0 .977.977 0 011.954 0zm3.906 0a.977.977 0 11-1.954 0 .977.977 0 011.954 0zm-7.813 0a.977.977 0 11-1.953 0 .977.977 0 011.953 0z" fill="#fff"/></g><defs><clipPath id="clip0_645_8393"><path fill="#fff" d="M13 12.75h20v20H13z"/></clipPath></defs></svg>