<svg width="157" height="86" fill="none" xmlns="http://www.w3.org/2000/svg"><path fill-rule="evenodd" clip-rule="evenodd" d="M11.001.064h2v80h-2v-80zm22 0h2v80h-2v-80zm24 0h-2v80h2v-80zm20 0h2v80h-2v-80zm24 0h-2v80h2v-80zm20 0h2v80h-2v-80zm24 0h-2v80h2v-80z" fill="#F0F1F4" fill-opacity=".4"/><path d="M37.001 48.565c-23.624-23.624-26 8-26 31.5h133.5v-45s-10.5-27.5-26-3-35-37-50.5-12-15.5 44-31 28.5z" fill="url(#paint0_linear_645_8097)" fill-opacity=".2"/><g filter="url(#filter0_d_645_8097)"><path d="M12.001 67.565c0-5.5 1.376-37.624 25-14 15.5 15.5 15.5-3.5 31-28.5s35 36.5 50.5 12 26 3 26 3" stroke="url(#paint1_linear_645_8097)" stroke-width="4" stroke-linecap="round"/></g><g filter="url(#filter1_d_645_8097)"><path d="M11.501 47.852a.5.5 0 101 0h-1zm38.665-12.784l-.354.354.354-.354zm93.868-14.538a.5.5 0 10.934-.357l-.934.357zM12.501 47.852c0-.605.206-1.628.645-2.939.435-1.298 1.084-2.84 1.939-4.469 1.712-3.263 4.23-6.844 7.459-9.52 3.224-2.673 7.133-4.426 11.656-4.1 4.528.328 9.76 2.746 15.612 8.598l.707-.707c-5.96-5.96-11.404-8.538-16.247-8.888-4.847-.35-9.002 1.538-12.367 4.326-3.36 2.785-5.953 6.486-7.706 9.826-.877 1.673-1.548 3.264-2.001 4.617-.449 1.339-.697 2.486-.697 3.256h1zm37.311-12.43c3.843 3.843 6.718 7.795 9.121 11.194 1.199 1.694 2.287 3.263 3.314 4.599 1.026 1.334 2.012 2.466 3.016 3.282 1.007.818 2.062 1.343 3.22 1.411 1.162.069 2.35-.327 3.616-1.2 2.5-1.726 5.443-5.423 9.316-11.67l-.85-.527c-3.876 6.253-6.724 9.78-9.034 11.374-1.141.788-2.113 1.077-2.989 1.025-.88-.051-1.74-.45-2.649-1.19-.912-.74-1.841-1.798-2.853-3.115-1.011-1.315-2.083-2.86-3.29-4.567-2.408-3.405-5.324-7.416-9.23-11.323l-.708.707zm31.603 7.616c3.852-6.212 7.108-9.314 10.034-10.898 2.918-1.58 5.561-1.68 8.312-1.765 2.746-.084 5.605-.15 8.75-1.787 3.141-1.636 6.513-4.805 10.413-10.97l-.846-.534c-3.85 6.086-7.104 9.094-10.028 10.617-2.92 1.52-5.563 1.59-8.32 1.675-2.751.084-5.611.182-8.757 1.885-3.14 1.699-6.509 4.962-10.408 11.25l.85.527zm37.509-25.42c3.849-6.084 7.324-8.833 10.311-9.651 2.953-.81 5.553.238 7.758 2.08 2.213 1.85 3.974 4.46 5.189 6.634a36.18 36.18 0 011.382 2.742c.156.347.274.626.353.817.04.095.069.169.089.218l.021.055.005.013.002.003.467-.177.467-.18h-.001l-.001-.005-.007-.017a27.783 27.783 0 00-.484-1.138 37.291 37.291 0 00-1.42-2.818c-1.239-2.217-3.071-4.95-5.421-6.914-2.358-1.97-5.288-3.203-8.664-2.278-3.341.916-6.991 3.917-10.892 10.082l.846.535z" fill="#3C3C3B"/></g><defs><linearGradient id="paint0_linear_645_8097" x1="77.751" y1="13.963" x2="77.751" y2="80.065" gradientUnits="userSpaceOnUse"><stop stop-color="#FFAE00" stop-opacity="0"/><stop offset="1" stop-color="#FFAE00" stop-opacity=".18"/></linearGradient><linearGradient id="paint1_linear_645_8097" x1="78.251" y1="18.963" x2="78.251" y2="67.565" gradientUnits="userSpaceOnUse"><stop stop-color="#FFAE00"/><stop offset="1" stop-color="#FF7549"/></linearGradient><filter id="filter0_d_645_8097" x=".001" y="12.963" width="156.501" height="72.602" filterUnits="userSpaceOnUse" color-interpolation-filters="sRGB"><feFlood flood-opacity="0" result="BackgroundImageFix"/><feColorMatrix in="SourceAlpha" values="0 0 0 0 0 0 0 0 0 0 0 0 0 0 0 0 0 0 127 0" result="hardAlpha"/><feOffset dy="6"/><feGaussianBlur stdDeviation="5"/><feColorMatrix values="0 0 0 0 1 0 0 0 0 0.682353 0 0 0 0 0 0 0 0 0.4 0"/><feBlend in2="BackgroundImageFix" result="effect1_dropShadow_645_8097"/><feBlend in="SourceGraphic" in2="effect1_dropShadow_645_8097" result="shape"/></filter><filter id="filter1_d_645_8097" x="1.501" y="2.689" width="153.5" height="69.227" filterUnits="userSpaceOnUse" color-interpolation-filters="sRGB"><feFlood flood-opacity="0" result="BackgroundImageFix"/><feColorMatrix in="SourceAlpha" values="0 0 0 0 0 0 0 0 0 0 0 0 0 0 0 0 0 0 127 0" result="hardAlpha"/><feOffset dy="6"/><feGaussianBlur stdDeviation="5"/><feColorMatrix values="0 0 0 0 1 0 0 0 0 0.682353 0 0 0 0 0 0 0 0 0.4 0"/><feBlend in2="BackgroundImageFix" result="effect1_dropShadow_645_8097"/><feBlend in="SourceGraphic" in2="effect1_dropShadow_645_8097" result="shape"/></filter></defs></svg>