<svg width="33" height="33" fill="none" xmlns="http://www.w3.org/2000/svg"><rect x=".25" y=".25" width="32" height="32" rx="16" fill="#FFAE00"/><path d="M17.938 10.25h-3.375c-2.387 0-3.58 0-4.322.753-.741.753-.741 1.966-.741 4.39v1.714c0 2.425 0 3.637.741 4.39.742.753 1.935.753 4.322.753h3.374c2.387 0 3.58 0 4.322-.753.741-.753.741-1.965.741-4.39v-1.714c0-2.425 0-3.637-.741-4.39-.742-.753-1.935-.753-4.322-.753z" stroke="#fff" stroke-width="2"/><path d="M12.499 13.252h2.25" stroke="#fff" stroke-width="2" stroke-linecap="round"/><path d="M21.499 19.252h-1.5c-.466 0-.699 0-.883-.076a1 1 0 01-.54-.541c-.077-.184-.077-.417-.077-.883s0-.699.076-.883a1 1 0 01.541-.54c.184-.077.417-.077.883-.077h1.5c.466 0 .699 0 .883.076a1 1 0 01.54.541c.077.184.077.417.077.883s0 .699-.076.883a1 1 0 01-.541.54c-.184.077-.417.077-.883.077z" stroke="#fff" stroke-width="2"/></svg>