<svg width="33" height="33" fill="none" xmlns="http://www.w3.org/2000/svg"><rect x=".25" y=".25" width="32" height="32" rx="16" fill="#FFAE00"/><path fill-rule="evenodd" clip-rule="evenodd" d="M11.396 20.178a6.588 6.588 0 004.054 2.494 6.6 6.6 0 102.033-13.037l.582 2.17a4.6 4.6 0 11-4.498 7.791l-2.17.582z" fill="#fff"/><path d="M11.78 9.835a8.001 8.001 0 011.852-1.062c.41-.167.615-.25.817-.15.202.1.264.332.389.797l1.553 5.796c.122.455.183.683.08.862-.105.18-.332.24-.787.363l-5.796 1.552c-.465.125-.697.187-.885.062-.188-.124-.218-.344-.279-.782a8 8 0 013.055-7.438z" stroke="#fff" stroke-width="2"/></svg>