<svg width="20" height="20" viewBox="0 0 20 20" fill="none" xmlns="http://www.w3.org/2000/svg">
<path d="M18.3638 6.35914C18.3638 6.35914 18.1975 5.10366 17.6862 4.55147C17.0367 3.82736 16.3092 3.82273 15.9768 3.78074C13.5862 3.59766 10.0038 3.59766 10.0038 3.59766H9.996C9.996 3.59766 6.41141 3.59766 4.02337 3.78163C3.68972 3.82273 2.96314 3.82736 2.31255 4.55197C1.80192 5.10429 1.63508 6.35977 1.63508 6.35977C1.63508 6.35977 1.46387 7.83225 1.46387 9.30602V9.48345V10.6863C1.46387 12.1607 1.63508 13.6338 1.63508 13.6338C1.63508 13.6338 1.80192 14.8885 2.31255 15.4405C2.96314 16.1658 3.81686 16.1427 4.19561 16.218C5.56159 16.3574 9.99963 16.4013 9.99963 16.4013C9.99963 16.4013 13.5862 16.3946 15.9768 16.2115C16.3092 16.1689 17.0367 16.1658 17.6862 15.4399C18.1975 14.8879 18.3638 13.6334 18.3638 13.6334C18.3638 13.6334 18.5354 12.1607 18.5354 10.6863V9.56015V9.30603C18.5354 7.83225 18.3638 6.35914 18.3638 6.35914ZM12.8483 9.81324L8.23769 12.3611L8.23656 8.43867L8.23643 7.24628L10.3158 8.40373L12.8483 9.81324Z" fill="#3C3C3B"/>
</svg>
