<svg width="234" height="25" fill="none" xmlns="http://www.w3.org/2000/svg"><path fill="#628EFF" fill-opacity=".5" d="M234 8.513h-30v7h30zm-35 0h-30v7h30zm-35 0h-30v7h30zm-35 0H99v7h30zm-35 0H64v7h30zm-35 0H29v7h30z"/><path d="M19 12.013v-8m-14 16v-2m14 2v-4m-14-4v-8m7 3v-3m0 16v-8" stroke="#628EFF" stroke-width="2" stroke-linecap="round"/><circle r="2" transform="matrix(-1 0 0 1 19 14.013)" stroke="#628EFF" stroke-width="2" stroke-linecap="round"/><circle r="2" transform="matrix(-1 0 0 1 12 9.013)" stroke="#628EFF" stroke-width="2" stroke-linecap="round"/><circle r="2" transform="matrix(-1 0 0 1 5 15.013)" stroke="#628EFF" stroke-width="2" stroke-linecap="round"/></svg>