<svg width="226" height="790" fill="none" xmlns="http://www.w3.org/2000/svg"><g opacity=".3"><path d="M32.212 414.597v-97.115l94.741-57.787V6.643M72.864 752.347V578.126l-40.652-36.397v-90.043M46.68 673.861V601.24m0 187.158v-69.171" stroke="#FFDE3F" stroke-width=".5" stroke-miterlimit="10"/><path d="M52.538 271.943L8.957 297.817V191.904m102.493-44.847v89.87L72.864 259.87M111.449 6.643v101.083m-89.056 661.87V571.743l-19.292-15.87v113.848m102.147-349.824l21.704-13.799M69.075 539.14l-8.785-7.762V348.531l19.293-12.42M96.98 736.132V563.29l-8.44-7.417m63.562-363.967V46.836m0 290.31v-100.22" stroke="#FFDE3F" stroke-width=".5" stroke-miterlimit="10"/><path d="M60.29 230.716V28.206h33.245v173.531M3.1 508.265V346.463m123.852 111.432v81.246m-43.58-23.632v-144.38l43.581-28.807v85.041m-21.705 88.145v-100.91m14.986 167.323v170.427l31.868-26.91V401.145m22.393 82.625V365.954l34.796-23.632V90.305m-34.796 557.164V521.201m8.613-364.831V28.205m0 285.137V191.904m39.791 339.647v104.015" stroke="#FFDE3F" stroke-width=".5" stroke-miterlimit="10"/><path d="M195.683 694.216V388.724l27.216-19.837v129.545" stroke="#FFDE3F" stroke-width=".5" stroke-miterlimit="10"/><path d="M3.1 504.986c1.723 0 3.101 1.553 3.101 3.278 0 1.897-1.378 3.277-3.1 3.277-1.723 0-3.101-1.552-3.101-3.277 0-1.898 1.378-3.278 3.1-3.278zm0 161.285c1.723 0 3.101 1.553 3.101 3.278 0 1.897-1.378 3.277-3.1 3.277-1.723 0-3.101-1.552-3.101-3.277s1.378-3.278 3.1-3.278zm19.294 100.047c1.722 0 3.1 1.553 3.1 3.278s-1.378 3.277-3.1 3.277c-1.723 0-3.101-1.552-3.101-3.277s1.378-3.278 3.1-3.278zm24.288-50.369c1.722 0 3.1 1.553 3.1 3.278 0 1.897-1.378 3.277-3.1 3.277-1.723 0-3.1-1.552-3.1-3.277 0-1.898 1.377-3.278 3.1-3.278zm26.182 33.121c1.723 0 3.1 1.553 3.1 3.278 0 1.897-1.377 3.277-3.1 3.277-1.722 0-3.1-1.552-3.1-3.277s1.378-3.278 3.1-3.278zm24.116-17.595c1.723 0 3.101 1.552 3.101 3.277s-1.378 3.277-3.1 3.277c-1.723 0-3.101-1.552-3.101-3.277s1.378-3.277 3.1-3.277zm-8.44-178.879c1.723 0 3.1 1.552 3.1 3.277 0 1.898-1.377 3.278-3.1 3.278s-3.1-1.553-3.1-3.278 1.377-3.277 3.1-3.277zm-18.604-16.905c1.722 0 3.1 1.553 3.1 3.278 0 1.897-1.378 3.277-3.1 3.277-1.723 0-3.101-1.552-3.101-3.277s1.378-3.278 3.1-3.278zm13.436-23.459c1.723 0 3.1 1.553 3.1 3.278 0 1.897-1.377 3.277-3.1 3.277-1.722 0-3.1-1.552-3.1-3.277s1.377-3.278 3.1-3.278zm21.876 0c1.723 0 3.101 1.553 3.101 3.278 0 1.897-1.378 3.277-3.101 3.277-1.722 0-3.101-1.552-3.101-3.277s1.379-3.278 3.101-3.278zm0-100.912c1.723 0 3.101 1.553 3.101 3.278 0 1.897-1.378 3.277-3.101 3.277-1.722 0-3.101-1.552-3.101-3.277 0-1.898 1.379-3.278 3.101-3.278zm21.705 125.924c1.723 0 3.101 1.553 3.101 3.278 0 1.897-1.378 3.277-3.101 3.277-1.722 0-3.1-1.552-3.1-3.277s1.378-3.278 3.1-3.278zm47.887-21.219c1.722 0 3.1 1.553 3.1 3.278s-1.378 3.277-3.1 3.277c-1.723 0-3.101-1.552-3.101-3.277s1.378-3.278 3.101-3.278zm-.345-35.533c1.723 0 3.101 1.553 3.101 3.278 0 1.897-1.378 3.277-3.101 3.277-1.722 0-3.1-1.552-3.1-3.277 0-1.898 1.378-3.278 3.1-3.278zm0 163.528c1.723 0 3.101 1.552 3.101 3.277 0 1.897-1.378 3.277-3.101 3.277-1.722 0-3.1-1.552-3.1-3.277s1.378-3.277 3.1-3.277zm24.288 50.195c0 1.81-1.388 3.277-3.1 3.277-1.713 0-3.101-1.467-3.101-3.277s1.388-3.277 3.101-3.277c1.712 0 3.1 1.467 3.1 3.277zm24.116-61.926c1.723 0 3.101 1.553 3.101 3.277 0 1.725-1.378 3.278-3.101 3.278-1.722 0-3.1-1.553-3.1-3.278 0-1.724 1.378-3.277 3.1-3.277zm0-104.187c1.723 0 3.101 1.552 3.101 3.277s-1.378 3.277-3.101 3.277c-1.722 0-3.1-1.552-3.1-3.277s1.378-3.277 3.1-3.277zm0-32.602c1.723 0 3.101 1.552 3.101 3.277s-1.378 3.278-3.101 3.278c-1.722 0-3.1-1.553-3.1-3.278s1.378-3.277 3.1-3.277zm-39.791-185.434c1.723 0 3.101 1.553 3.101 3.278 0 1.897-1.378 3.277-3.101 3.277-1.722 0-3.1-1.552-3.1-3.277 0-1.898 1.378-3.278 3.1-3.278zm-56.155 115.573c1.723 0 3.101 1.552 3.101 3.277s-1.378 3.278-3.101 3.278c-1.722 0-3.1-1.553-3.1-3.278s1.378-3.277 3.1-3.277zm-6.719 151.968c1.723 0 3.101 1.553 3.101 3.278 0 1.897-1.378 3.277-3.101 3.277-1.722 0-3.1-1.552-3.1-3.277s1.378-3.278 3.1-3.278zm31.869-180.775c1.722 0 3.1 1.552 3.1 3.277 0 1.898-1.378 3.278-3.1 3.278-1.723 0-3.101-1.553-3.101-3.278s1.378-3.277 3.101-3.277zm0-63.135c1.722 0 3.1 1.553 3.1 3.278s-1.378 3.277-3.1 3.277c-1.723 0-3.101-1.552-3.101-3.277s1.378-3.278 3.101-3.278zm0-102.98c1.722 0 3.1 1.552 3.1 3.277 0 1.898-1.378 3.278-3.1 3.278-1.723 0-3.101-1.553-3.101-3.278s1.378-3.277 3.101-3.277zm0-42.09c1.722 0 3.1 1.552 3.1 3.277 0 1.898-1.378 3.278-3.1 3.278-1.723 0-3.101-1.553-3.101-3.278s1.378-3.277 3.101-3.277zm-40.654-44.848c1.723 0 3.101 1.553 3.101 3.278 0 1.897-1.378 3.277-3.101 3.277-1.722 0-3.1-1.552-3.1-3.277 0-1.898 1.378-3.278 3.1-3.278zm0-39.33c1.723 0 3.101 1.553 3.101 3.278s-1.378 3.277-3.101 3.277c-1.722 0-3.1-1.552-3.1-3.277s1.378-3.278 3.1-3.278zM126.953.951c1.723 0 3.101 1.553 3.101 3.278s-1.378 3.277-3.101 3.277c-1.722 0-3.1-1.552-3.1-3.277s1.378-3.278 3.1-3.278zm25.15 42.608c1.722 0 3.1 1.552 3.1 3.277 0 1.898-1.378 3.278-3.1 3.278-1.723 0-3.101-1.553-3.101-3.278s1.378-3.277 3.101-3.277zm31.005 109.535c1.723 0 3.101 1.552 3.101 3.277 0 1.898-1.378 3.278-3.101 3.278-1.722 0-3.1-1.553-3.1-3.278 0-1.897 1.378-3.277 3.1-3.277zm0 35.533c1.723 0 3.101 1.552 3.101 3.277 0 1.898-1.378 3.278-3.101 3.278-1.722 0-3.1-1.553-3.1-3.278s1.378-3.277 3.1-3.277zm26.183-102.98c1.723 0 3.101 1.552 3.101 3.277s-1.378 3.277-3.101 3.277-3.101-1.552-3.101-3.277 1.378-3.278 3.101-3.278zm-26.183-60.719c1.723 0 3.101 1.552 3.101 3.277 0 1.898-1.378 3.278-3.101 3.278-1.722 0-3.1-1.553-3.1-3.278s1.378-3.277 3.1-3.277zM111.449 3.367c1.723 0 3.101 1.553 3.101 3.278 0 1.897-1.378 3.277-3.101 3.277-1.722 0-3.1-1.552-3.1-3.277 0-1.898 1.378-3.278 3.1-3.278zM32.212 448.408c1.722 0 3.1 1.553 3.1 3.278 0 1.897-1.377 3.277-3.1 3.277s-3.1-1.552-3.1-3.277 1.377-3.278 3.1-3.278zm0-37.088c1.722 0 3.1 1.553 3.1 3.278 0 1.897-1.377 3.277-3.1 3.277s-3.1-1.552-3.1-3.277c0-1.898 1.377-3.278 3.1-3.278zM3.1 343.012c1.723 0 3.101 1.552 3.101 3.277 0 1.898-1.378 3.278-3.1 3.278-1.723 0-3.101-1.553-3.101-3.278s1.378-3.277 3.1-3.277zm49.438-74.346c1.723 0 3.1 1.553 3.1 3.277 0 1.898-1.377 3.278-3.1 3.278-1.722 0-3.1-1.553-3.1-3.278 0-1.724 1.377-3.277 3.1-3.277zm27.044 65.031c1.723 0 3.1 1.553 3.1 3.278s-1.377 3.277-3.1 3.277c-1.722 0-3.1-1.552-3.1-3.277s1.377-3.278 3.1-3.278zm25.666-17.076c1.723 0 3.101 1.553 3.101 3.278 0 1.897-1.378 3.277-3.101 3.277-1.722 0-3.101-1.553-3.101-3.277 0-1.725 1.379-3.278 3.101-3.278zm21.705-13.801c1.723 0 3.101 1.553 3.101 3.278 0 1.897-1.378 3.277-3.101 3.277-1.722 0-3.1-1.552-3.1-3.277 0-1.898 1.378-3.278 3.1-3.278zm-50.988-42.951c0 1.81-1.388 3.278-3.1 3.278-1.713 0-3.101-1.468-3.101-3.278s1.388-3.277 3.1-3.277c1.713 0 3.1 1.467 3.1 3.277zm17.57-62.963c1.723 0 3.1 1.553 3.1 3.278 0 1.897-1.377 3.277-3.1 3.277-1.722 0-3.1-1.552-3.1-3.277 0-1.898 1.378-3.278 3.1-3.278zm-84.578-8.279c1.723 0 3.1 1.552 3.1 3.277 0 1.898-1.377 3.278-3.1 3.278s-3.1-1.553-3.1-3.278 1.377-3.277 3.1-3.277zm23.255 38.812c1.722 0 3.1 1.553 3.1 3.278 0 1.897-1.377 3.277-3.1 3.277s-3.1-1.552-3.1-3.277c0-1.898 1.377-3.278 3.1-3.278zm28.078 0c1.723 0 3.1 1.553 3.1 3.278 0 1.897-1.377 3.277-3.1 3.277-1.722 0-3.1-1.552-3.1-3.277 0-1.898 1.378-3.278 3.1-3.278zM46.682 670.41c1.722 0 3.1 1.553 3.1 3.278 0 1.897-1.378 3.277-3.1 3.277-1.723 0-3.1-1.552-3.1-3.277s1.377-3.278 3.1-3.278zm0-72.447c1.722 0 3.1 1.552 3.1 3.277s-1.378 3.278-3.1 3.278c-1.723 0-3.1-1.553-3.1-3.278s1.377-3.277 3.1-3.277zm0 185.433c1.722 0 3.1 1.553 3.1 3.278 0 1.897-1.378 3.277-3.1 3.277-1.723 0-3.1-1.552-3.1-3.277s1.377-3.278 3.1-3.278z" fill="#FFDE3F"/></g></svg>