<svg width="215" height="216" fill="none" xmlns="http://www.w3.org/2000/svg"><path opacity=".2" fill-rule="evenodd" clip-rule="evenodd" d="M24.752 25.137L.17.554v44.085c4.097 4.097 8.193 8.173 12.29 12.249l.002.002c4.097 4.077 8.194 8.153 12.291 12.25V25.138zm165.281 165.28h-43.594c4.097 4.097 8.215 8.195 12.332 12.292 4.118 4.097 8.236 8.194 12.333 12.291h43.512l-24.583-24.583zM12.461 68.365c4.097 4.077 8.194 8.153 12.291 12.25v55.804L.17 111.836V56.114a6900.67 6900.67 0 0012.292 12.25zm66.292 122.052L103.336 215h56.214a7159.204 7159.204 0 00-12.334-12.292c-4.117-4.097-8.235-8.194-12.331-12.291H78.753zm-54-42.525v42.529H67.28l24.583 24.583H.17v-91.695l24.583 24.583z" fill="#FFDE3F"/></svg>