<svg width="26" height="16" fill="none" xmlns="http://www.w3.org/2000/svg"><path d="M25.666 0H.777v16h24.89V0z" fill="#fff"/><path d="M25.666 14.223H.777V16h24.89v-1.777zm0-7.112H.777V8.89h24.89V7.111zm0 3.555H.777v1.778h24.89v-1.778zm0-7.111H.777v1.777h24.89V3.555zm0-3.555H.777v1.778h24.89V0z" fill="#D8001E"/><path d="M11.444 0H.777v8.889h10.667V0z" fill="#323E95"/><path d="M6.111 1.777l.552 2.074h2.115L7.122 5.135l.552 1.976-1.563-1.284L4.456 7.11 5.1 5.135 3.444 3.851h2.023l.644-2.074z" fill="#fff"/></svg>