<svg width="30" height="34" fill="none" xmlns="http://www.w3.org/2000/svg"><path fill-rule="evenodd" clip-rule="evenodd" d="M23.333 8.554c2.667.167 4.167.333 5.167 1.5 1.5 1.5 1.5 3.833 1.5 8.5v1.667c0 6.333 0 9.5-2 11.333-1.833 2-5 2-11.333 2h-3.334c-6.333 0-9.5 0-11.333-2-2-1.833-2-5-2-11.333v-1.667c0-4.667 0-7 1.5-8.5 1-1.167 2.5-1.5 5.167-1.5C6.667 3.887 10.333.221 15 .221s8.333 3.666 8.333 8.333zm-6.666 20v-3.667c2-.666 3.333-2.5 3.333-4.666 0-2.834-2.167-5-5-5s-5 2.166-5 5c0 2.166 1.333 4 3.333 4.666v3.667h3.334zM15 3.554c-2.833 0-5 2.167-5 5h10c0-2.833-2.167-5-5-5zm1.667 16.667a1.667 1.667 0 11-3.334 0 1.667 1.667 0 013.334 0z" fill="#FFDE3F"/></svg>