<svg width="100" height="101" fill="none" xmlns="http://www.w3.org/2000/svg"><path opacity=".4" d="M64.915 3.033c-4.82-.61-8.87-.903-12.29-.964a54.323 54.323 0 00-1.993-.037c-7.334 0-14.296 1.55-20.564 4.36a50.682 50.682 0 00-4.31 2.172 28.41 28.41 0 00-1.029.611C10.26 17.759.61 33.387.61 51.251c0 10.647 3.432 20.5 9.266 28.547a48.84 48.84 0 002.119 2.722c9.154 10.916 23.003 17.888 38.488 17.888 13.998 0 26.534-5.787 35.701-14.823 7.47-7.362 8.907-14.994 9.774-18.571.99-4.103.817-6.923.31-8.913-.347-1.905-.892-3.395-1.462-4.482-.174-.354-.36-.647-.533-.928-.718-1.135-1.338-1.623-1.338-1.623s.496-1.673-.718-2.87c-1.214-1.196.644-3.419.644-3.419-.904 0-1.536.318-1.995.794-1.201 1.27-1.077 3.578-1.077 3.578-3.469 2.698.074 6.984.074 6.984 0-1.233.805-1.746 1.635-1.734.867.012 1.76.598 1.76 1.49 0 1.147-.546 2.014-2.02 2.16-.78.086-1.833-.036-3.196-.439-3.94-1.123-7.445-7.326-33.707-3.993-25.915 3.31-34.264-2.478-34.462-2.612 1.623 2.43 8.547 7.02 18.061 8.62 9.514 1.587 13.788 1.587 23.871-.794 10.084-2.393 15.324-.561 15.324-.561-6.529 0-12.103.561-18.223 2.466-6.02 1.868-13.762.757-14.022.708 7.977 4.603 13.217 4.847 19.424 4.847 5.376 0 12.66-3.26 14.542-4.151-1.498.757-6.317 3.138-8.41 4.078-2.503 1.111-10.654 1.429-10.654 1.429 1.858.952 11.867 4.835 16.934 1.355 2.874-1.99 5.079-2.87 6.454-3.26-2.986 1.197-4.745 5.323-4.745 5.323 1.053-1.05 7.309-3.064 9.353-.61-5.005 11.05-14.642 19.622-26.485 23.309a44.056 44.056 0 01-13.093 1.99c-23.92 0-43.32-19.12-43.32-42.698 0-11.55 4.658-22.04 12.239-29.732a29.75 29.75 0 014.435-4.066 37.232 37.232 0 013.53-2.32.499.499 0 01.112-.06c6.912-3.92 14.568-5.068 21.653-4.09 2.242.304 10.158 1.269 17.64.695 4.026-.317 8.164-.842 10.988-2.38-.26.036-8.708.365-15.299-1.368-3.976-1.038-7.358-2.296-11.223-2.699 2.28.074 5.116.391 8.498 1.197 10.071 2.38 14.357 2.38 23.871.793 9.514-1.587 16.45-6.19 18.061-8.62-.198.147-8.547 5.922-34.474 2.625z" stroke="#FFDE3F" stroke-width=".5"/></svg>