<svg width="240" height="31" fill="none" xmlns="http://www.w3.org/2000/svg"><path fill-rule="evenodd" clip-rule="evenodd" d="M18.044 19.389l8.17.49c-.384 3.573-1.707 6.303-3.957 8.212-2.25 1.91-5.023 2.858-8.308 2.858-3.957 0-7.145-1.312-9.577-3.924C1.952 24.412.735 20.796.735 16.189c0-4.564 1.152-8.244 3.456-11.049C6.494 2.346 9.704.95 13.83.95c3.85 0 6.816 1.066 8.884 3.199 2.07 2.133 3.242 4.959 3.51 8.489l-8.34.448c0-1.952-.374-3.36-1.12-4.224-.758-.874-1.632-1.3-2.635-1.3-2.815 0-4.223 2.825-4.223 8.488 0 3.168.363 5.322 1.098 6.463.736 1.141 1.76 1.707 3.083 1.707 2.357-.01 3.679-1.61 3.956-4.831zm24.017 11.56c-4.095 0-7.433-1.354-10.014-4.074-2.58-2.72-3.871-6.345-3.871-10.9 0-4.35 1.237-7.944 3.7-10.781C34.34 2.368 37.764.949 42.147.949c4.053 0 7.349 1.333 9.908 4.01 2.55 2.677 3.829 6.24 3.829 10.708 0 4.617-1.29 8.318-3.86 11.112-2.582 2.773-5.898 4.17-9.962 4.17zm-.042-6.612c1.503 0 2.591-.661 3.252-1.973.662-1.312.992-3.722.992-7.22 0-5.066-1.354-7.593-4.074-7.593-2.932 0-4.394 2.89-4.394 8.66 0 5.417 1.408 8.126 4.224 8.126zm35.236 6.166h7.284V1.398h-7.273v8.618c0 2.602.224 5.15.682 7.636-.693-1.61-1.717-3.467-3.071-5.589L68.094 1.398h-8.446v29.094H66.9V16.404c0-1.312-.235-2.901-.704-4.778 1.034 2.367 2.069 4.362 3.092 6.015l7.967 12.862z" fill="#fff"/><path d="M86.587 22.076l8.297-1.493c.693 2.346 2.485 3.52 5.375 3.52 2.25 0 3.37-.598 3.37-1.792 0-.63-.256-1.11-.778-1.461-.523-.352-1.451-.662-2.784-.928-5.108-.981-8.382-2.261-9.833-3.84-1.45-1.578-2.175-3.434-2.175-5.567 0-2.74 1.045-5.023 3.124-6.846 2.08-1.813 5.077-2.72 8.98-2.72 5.93 0 9.844 2.378 11.753 7.146l-7.402 2.24c-.767-1.952-2.325-2.923-4.67-2.923-1.952 0-2.923.608-2.923 1.813 0 .544.224.96.661 1.258.438.3 1.29.587 2.56.854 3.487.736 5.961 1.386 7.423 1.951 1.461.566 2.687 1.536 3.668 2.912.981 1.376 1.472 2.986 1.472 4.852 0 2.944-1.195 5.333-3.583 7.156-2.389 1.824-5.525 2.741-9.407 2.741-7.092 0-11.464-2.954-13.128-8.873z" fill="#fff"/><path d="M86.587 22.076l8.297-1.493c.693 2.346 2.485 3.52 5.375 3.52 2.25 0 3.37-.598 3.37-1.792 0-.63-.256-1.11-.778-1.461-.523-.352-1.451-.662-2.784-.928-5.108-.981-8.382-2.261-9.833-3.84-1.45-1.578-2.175-3.434-2.175-5.567 0-2.74 1.045-5.023 3.124-6.846 2.08-1.813 5.077-2.72 8.98-2.72 5.93 0 9.844 2.378 11.753 7.146l-7.402 2.24c-.767-1.952-2.325-2.923-4.67-2.923-1.952 0-2.923.608-2.923 1.813 0 .544.224.96.661 1.258.438.3 1.29.587 2.56.854 3.487.736 5.961 1.386 7.423 1.951 1.461.566 2.687 1.536 3.668 2.912.981 1.376 1.472 2.986 1.472 4.852 0 2.944-1.195 5.333-3.583 7.156-2.389 1.824-5.525 2.741-9.407 2.741-7.092 0-11.464-2.954-13.128-8.873z" fill="#fff"/><path fill-rule="evenodd" clip-rule="evenodd" d="M131.881 30.503l-1.643-5.738h-7.796l-1.749 5.738h-7.252l8.98-29.105h9.449l9.129 29.105h-9.118zm-3.21-12.094l-2.357-8.447-2.357 8.447h4.714zm33.188 1.194h-9.481v10.9h-8.702V1.398h21.041v6.933h-12.349v4.735h9.491v6.537zm27.601 10.9V23.56h-13.139v-4.757h10.622V12.34h-10.622V8.117h13.139V1.398h-21.895v29.105h21.895zm15.495-22.13v22.13h-8.468V8.373h-6.036V1.398h20.53v6.975h-6.026zm25.202 9.801l9.108-16.776h-7.807l-4.895 9.599-5.098-9.599h-9.779l9.79 16.776v12.329h8.681V18.174z" fill="#fff"/></svg>