<svg width="74" height="19" fill="none" xmlns="http://www.w3.org/2000/svg"><path d="M28 8.302c-.19 1.428-1.333 1.428-2.38 1.428h-.572l.476-2.762c0-.19.19-.285.381-.285h.286c.762 0 1.428 0 1.81.38v1.239zm-.476-3.81H23.43c-.286 0-.476.19-.572.476l-1.619 10.477c0 .19.096.38.381.38h1.905c.286 0 .476-.19.572-.476l.476-2.857c0-.285.285-.476.571-.476h1.333c2.667 0 4.19-1.333 4.667-3.905.19-1.143 0-2-.476-2.666-.762-.572-1.81-.953-3.143-.953zm9.429 7.625c-.19 1.143-1.047 1.905-2.19 1.905-.572 0-1.048-.19-1.334-.571a1.653 1.653 0 01-.285-1.334c.19-1.143 1.047-1.905 2.19-1.905.572 0 1.048.19 1.333.572.19.286.381.762.286 1.333zm2.667-3.81h-1.905c-.19 0-.286.096-.38.286l-.096.572-.095-.19c-.381-.572-1.334-.858-2.286-.858-2.19 0-4 1.62-4.381 3.905-.19 1.143.095 2.19.762 2.952.571.667 1.428.953 2.476.953 1.714 0 2.667-1.143 2.667-1.143l-.096.571c0 .19.096.381.381.381h1.715c.285 0 .476-.19.571-.476l1.048-6.667c0-.095-.095-.285-.381-.285zm10.382-.002h-2a.526.526 0 00-.477.285l-2.666 4-1.143-3.81c-.095-.285-.286-.38-.572-.38H41.24c-.19 0-.381.19-.286.476l2.19 6.286-2 2.857c-.19.19 0 .572.286.572h2c.19 0 .381-.096.477-.286l6.476-9.429c.095-.286-.096-.571-.381-.571z" fill="#263577"/><path d="M56.952 8.302c-.19 1.428-1.333 1.428-2.38 1.428H54l.476-2.762c0-.19.19-.285.381-.285h.286c.762 0 1.428 0 1.81.38.095.382.095.763 0 1.239zm-.476-3.81h-4.095c-.286 0-.476.19-.572.476L50.19 15.445c0 .19.096.38.381.38h2.096c.19 0 .38-.095.38-.38l.477-2.953c0-.285.285-.476.571-.476h1.334c2.666 0 4.19-1.333 4.666-3.905.19-1.143 0-2-.476-2.666-.666-.572-1.714-.953-3.143-.953zm9.525 7.625c-.19 1.143-1.048 1.905-2.19 1.905-.572 0-1.048-.19-1.334-.571a1.653 1.653 0 01-.286-1.334c.19-1.143 1.048-1.905 2.19-1.905.572 0 1.049.19 1.334.572.19.286.381.762.286 1.333zm2.667-3.81h-1.905c-.19 0-.286.096-.381.286l-.095.572-.096-.19c-.38-.572-1.333-.858-2.285-.858-2.19 0-4 1.62-4.381 3.905-.19 1.143.095 2.19.762 2.952.571.667 1.428.953 2.476.953 1.714 0 2.667-1.143 2.667-1.143l-.096.571c0 .19.096.381.381.381h1.715c.285 0 .476-.19.571-.476l1.048-6.667c0-.095-.19-.285-.381-.285zm2.286-3.529l-1.715 10.667c0 .19.096.38.381.38h1.715c.285 0 .476-.19.571-.476l1.619-10.476c0-.19-.095-.38-.38-.38h-1.906c-.095 0-.19.19-.285.285z" fill="#2199D6"/><path d="M4.286 17.83l.285-2h-4L2.857 1.26s0-.096.095-.096h5.715c1.81 0 3.143.381 3.81 1.143.285.38.475.762.57 1.143.096.476.096.952 0 1.619v.38l.286.191c.286.096.476.286.667.477.286.285.476.666.476 1.142.095.477.095 1.048-.095 1.715-.19.762-.381 1.333-.667 1.904-.285.477-.666.858-1.047 1.239-.381.285-.953.476-1.429.666-.571.096-1.143.19-1.81.19h-.476c-.285 0-.571.096-.857.286-.19.19-.38.477-.476.762v.19l-.571 3.525v.19H4.286v-.095z" fill="#263577"/><path d="M13.714 5.07c0 .096 0 .19-.095.286-.762 3.81-3.238 5.048-6.477 5.048H5.523c-.38 0-.761.285-.761.666l-.858 5.334-.19 1.524c0 .285.19.476.38.476h2.953c.381 0 .667-.286.667-.572v-.19l.571-3.429v-.19c.096-.381.381-.572.667-.572h.476c2.857 0 5.048-1.143 5.62-4.476.285-1.428.095-2.571-.572-3.333-.19-.19-.476-.381-.762-.572z" fill="#2199D6"/><path d="M12.952 4.778c-.095 0-.19-.095-.38-.095-.096 0-.286-.096-.382-.096-.476-.095-.952-.095-1.428-.095H6.38c-.095 0-.19 0-.286.095-.19.096-.38.286-.38.477l-.953 5.904v.19c.095-.38.38-.666.762-.666h1.619c3.238 0 5.714-1.333 6.476-5.047 0-.096 0-.19.095-.286l-.571-.286c-.096-.095-.19-.095-.19-.095z" fill="#252C5E"/><path d="M5.714 5.07c0-.19.19-.381.381-.476.096 0 .19-.095.286-.095h4.381c.476 0 1.048 0 1.429.095.095 0 .285 0 .38.095.096 0 .191.095.382.095.095 0 .095 0 .19.096l.571.285c.19-1.428 0-2.38-.761-3.238C12.095.975 10.572.594 8.667.594h-5.62c-.38 0-.761.285-.761.666L0 15.927c0 .286.19.572.476.572h3.429l.857-5.524.952-5.905z" fill="#263577"/></svg>