<svg width="37" height="45" fill="none" xmlns="http://www.w3.org/2000/svg"><g clip-path="url(#clip0_2474_42430)" fill="#FF5F72"><path d="M32.67 45H3.63C1.62 45 0 43.38 0 41.37V3.63C0 1.62 1.62 0 3.63 0h14.76c.96 0 1.89.39 2.58 1.05l14.28 14.28c.69.69 1.05 1.59 1.05 2.58V41.4c0 1.98-1.65 3.6-3.63 3.6zM3.63 1.44c-1.2 0-2.19.99-2.19 2.19v37.74c0 1.2.99 2.19 2.19 2.19h29.04c1.2 0 2.19-.99 2.19-2.19V17.91c0-.57-.24-1.14-.63-1.53L19.92 2.1c-.42-.42-.96-.63-1.53-.63H3.63v-.03z"/><path d="M29.46 28.412c-.03-.18-.18-.42-.33-.57-.45-.45-1.47-.69-3-.72-1.05 0-2.28.09-3.6.27-.6-.33-1.2-.72-1.68-1.14-1.29-1.2-2.34-2.85-3.03-4.68.03-.18.09-.33.12-.48 0 0 .72-4.08.54-5.49-.03-.18-.03-.24-.09-.39l-.06-.15c-.21-.45-.57-.93-1.17-.9h-.36c-.66 0-1.23.33-1.35.87-.45 1.62 0 4.02.84 7.14l-.21.51c-.57 1.44-1.32 2.88-1.95 4.14l-.09.15c-.69 1.32-1.29 2.46-1.86 3.42l-.57.3c-.03.03-1.02.54-1.26.69-1.98 1.17-3.27 2.52-3.48 3.57-.06.33-.03.78.33.96l.57.27c.24.12.51.18.75.18 1.41 0 3.03-1.74 5.28-5.67 2.58-.84 5.55-1.56 8.13-1.92 1.98 1.11 4.38 1.89 5.94 1.89.27 0 .51-.03.69-.09.3-.09.54-.24.69-.48.24-.42.3-1.05.21-1.68zm-21.3 6.9c.24-.69 1.26-2.1 2.76-3.3.09-.09.33-.3.54-.51-1.56 2.52-2.61 3.51-3.3 3.81zm8.88-20.43c.45 0 .72 1.14.72 2.19.03 1.08-.24 1.8-.54 2.37-.27-.81-.39-2.1-.39-2.97.03.03 0-1.59.21-1.59zm-2.64 14.58c.33-.57.63-1.17.99-1.8a35.32 35.32 0 001.71-3.75c.75 1.38 1.71 2.58 2.82 3.51l.45.36c-2.28.45-4.26.99-5.97 1.68zm14.31-.15c-.15.09-.54.12-.78.12-.81 0-1.83-.36-3.27-.99.54-.03 1.05-.06 1.5-.06.81 0 1.08 0 1.89.21.78.21.78.63.66.72z"/></g><defs><clipPath id="clip0_2474_42430"><path fill="#fff" d="M0 0h36.3v45H0z"/></clipPath></defs></svg>