<svg width="116" height="117" fill="none" xmlns="http://www.w3.org/2000/svg"><path opacity=".2" d="M108 58.32a49.999 49.999 0 10-23.808 42.591" stroke="#FFDE3F" stroke-width="16" stroke-linecap="round"/><path opacity=".8" d="M108 58.32a50 50 0 10-23.808 42.591" stroke="#FFDE3F" stroke-width="4" stroke-linecap="round"/><path d="M80.067 33.32h1.99v1.99h-1.99c-.397.397 0 1.59-.397 1.989-1.99 0-2.388.398-4.377.398v3.978h-1.989v1.99c-.796.397-1.194 0-1.99.397v1.99h1.99c.398-.398.398-1.194.398-1.99h1.99c.397-.398 0-1.591.397-1.99h1.99v-1.988h1.988v1.989h-1.989c-.398.398 0 1.591-.398 1.99-1.193 0-1.193.397-1.989 0-.398 1.193 0 3.182-.398 4.375h-1.989c0 .398.398 1.592.398 1.99h-1.99c-.397.398 0 1.591-.397 1.989h-1.99v1.989h-1.989c-.397.398 0 1.591-.397 1.99h-1.99v1.989H62.96c-.398 1.193 0 1.989 0 2.784h-1.99c-.397.398 0 1.194-.397 1.99-3.58 3.978-6.365 7.16-7.957 13.526-.795 2.785-1.591 9.15-6.365 5.57-1.194-.796-2.387-3.978-2.785-5.57-1.592-4.376-3.58-7.16-6.366-10.742-.795-.795-5.57-5.967-1.591-6.763 2.387-.398 7.161 4.377 8.752 5.968 1.194 1.591 1.99 3.58 2.785 5.172 2.387-5.968 5.57-10.742 9.15-15.516h1.99c.398-.398 0-1.592.398-1.99 1.193 0 1.193-.397 1.99 0v-2.386h1.988c.398-.398 0-1.194.398-1.99.398-.398 1.592 0 1.99-.398 0-.795 0-1.59.397-1.989h1.99c.397-.398 0-1.591.397-1.989h3.979c.398-.398 0-1.193.398-1.99-.398-.397-1.592 0-1.99-.397v-1.99h1.99v1.99H74.1v-4.376h1.989c.398-.398 0-1.592.398-1.99h3.978s-.398-1.193-.398-1.989zM64.95 50.428c.398 0 1.194-.398 1.99-.398v-1.99h-1.99v2.388zm0 4.376h1.99v-1.99h-1.99v1.99z" fill="#FFDE3F"/></svg>