<svg width="120" height="121" fill="none" xmlns="http://www.w3.org/2000/svg"><path stroke="#30393E" d="M.5.688h119v119H.5z"/><path d="M45.993 10.203h-4v4.001h4v-4zm11.977 0h-4.001v4.001h4.001v-4zm4.004 0h-4.001v4.001h4v-4zm4.027 0H62v4.001h4.001v-4zm4.004 0h-4.001v4.001h4.001v-4zm-20.008 4.063h-4v4h4v-4zm20.008 0h-4.001v4h4.001v-4zm-24.012 3.992h-4v4.001h4v-4.001z" fill="#30393E"/><path d="M49.997 18.258h-4v4.001h4v-4.001z" fill="#30393E"/><path d="M53.986 18.258h-4.002v4.001h4.002v-4.001z" fill="#30393E"/><path d="M57.97 18.258h-4.001v4.001h4.001v-4.001zm4.004 0h-4.001v4.001h4v-4.001zm4.027 0H62v4.001h4.001v-4.001zm7.989 0h-4.002v4.001h4.002v-4.001zm-23.993 3.906h-4v4.001h4v-4z" fill="#30393E"/><path d="M57.97 22.164h-4.001v4.001h4.001v-4zm8.031 0H62v4.001h4.001v-4zm4.004 0h-4.001v4.001h4.001v-4zm7.973 0h-4.001v4.001h4v-4zM49.997 26.14h-4v4.002h4V26.14z" fill="#30393E"/><path d="M53.986 26.14h-4.002v4.002h4.002V26.14zm12.015 0H62v4.002h4.001V26.14zm4.004 0h-4.001v4.002h4.001V26.14zm-24.012 4.063h-4v4.001h4v-4zm11.977 0h-4.001v4.001h4.001v-4zm4.004 0h-4.001v4.001h4v-4zm4.027 0H62v4.001h4.001v-4zm-20.008 4.07h-4v4.002h4v-4.002zm7.993 0h-4.002v4.002h4.002v-4.002zm7.988 0h-4.001v4.002h4v-4.002zm8.031 0h-4.001v4.002h4.001v-4.002zm7.973 0h-4.001v4.002h4v-4.002z" fill="#30393E"/><path d="M49.997 38.258h-4v4.001h4v-4.001z" fill="#30393E"/><path d="M53.986 38.258h-4.002v4.001h4.002v-4.001zm7.988 0h-4.001v4.001h4v-4.001zm8.031 0h-4.001v4.001h4.001v-4.001z" fill="#30393E"/><path d="M73.99 38.258h-4.002v4.001h4.002v-4.001zm-60.018 3.914H9.97v4.001h4v-4.001zm7.992 0h-4.001v4.001h4.001v-4.001zm16 0h-4.001v4.001h4.001v-4.001zm4.006 0h-4.001v4.001h4.001v-4.001zm12.016 0h-4.002v4.001h4.002v-4.001z" fill="#30393E"/><path d="M57.97 42.172h-4.001v4.001h4.001v-4.001zm4.004 0h-4.001v4.001h4v-4.001zm12.016 0h-4.002v4.001h4.002v-4.001zm16.023 0h-4.001v4.001h4.001v-4.001zm11.975 0h-4.002v4.001h4.002v-4.001zm8.031 0h-4.001v4.001h4.001v-4.001zm-96.047 3.984H9.97v4.002h4v-4.002zm12.016 0h-4.002v4.002h4.002v-4.002zm4.003 0h-4v4.002h4v-4.002zm11.979 0h-4.001v4.002h4.001v-4.002zm4.023 0h-4v4.002h4v-4.002zm4.004 0h-4v4.002h4v-4.002z" fill="#30393E"/><path d="M57.97 46.156h-4.001v4.002h4.001v-4.002zm8.031 0H62v4.002h4.001v-4.002zm7.989 0h-4.002v4.002h4.002v-4.002z" fill="#30393E"/><path d="M77.978 46.156h-4.001v4.002h4v-4.002zm4.004 0H77.98v4.002h4v-4.002zm4.023 0h-4.001v4.002h4.001v-4.002zm4.008 0h-4.001v4.002h4.001v-4.002zm7.971 0h-4.002v4.002h4.002v-4.002zm8.027 0h-4.001v4.002h4.001v-4.002zm4.008 0h-4.001v4.002h4.001v-4.002zM13.972 50.21H9.97v4.002h4v-4.001z" fill="#30393E"/><path d="M17.956 50.21h-4v4.002h4v-4.001zm8.032 0h-4.002v4.002h4.002v-4.001zm4.003 0h-4v4.002h4v-4.001z" fill="#30393E"/><path d="M33.98 50.21h-4.001v4.002h4v-4.001z" fill="#30393E"/><path d="M37.964 50.21h-4.001v4.002h4.001v-4.001zm4.006 0h-4.001v4.002h4.001v-4.001zm20.004 0h-4.001v4.002h4v-4.001zm4.027 0H62v4.002h4.001v-4.001zm4.004 0h-4.001v4.002h4.001v-4.001z" fill="#30393E"/><path d="M73.99 50.21h-4.002v4.002h4.002v-4.001zm12.015 0h-4.001v4.002h4.001v-4.001zm11.979 0h-4.002v4.002h4.002v-4.001zm4.004 0h-4.002v4.002h4.002v-4.001zm8.031 0h-4.001v4.002h4.001v-4.001zm-96.047 4.063H9.97v4.002h4v-4.002zm16.019 0h-4v4.002h4v-4.002zm16.002 0h-4v4.002h4v-4.002zm4.004 0h-4v4.002h4v-4.002z" fill="#30393E"/><path d="M53.986 54.273h-4.002v4.002h4.002v-4.002z" fill="#30393E"/><path d="M57.97 54.273h-4.001v4.002h4.001v-4.002zm24.012 0H77.98v4.002h4v-4.002zm4.023 0h-4.001v4.002h4.001v-4.002zm4.008 0h-4.001v4.002h4.001v-4.002zm7.971 0h-4.002v4.002h4.002v-4.002zm-84.012 3.993H9.97v4h4v-4zm7.992 0h-4.001v4h4.001v-4zm4.024 0h-4.002v4h4.002v-4zm4.003 0h-4v4h4v-4zm7.973 0h-4.001v4h4.001v-4zm8.029 0h-4v4h4v-4z" fill="#30393E"/><path d="M53.986 58.266h-4.002v4h4.002v-4zm7.988 0h-4.001v4h4v-4zm8.031 0h-4.001v4h4.001v-4zm7.973 0h-4.001v4h4v-4zm8.027 0h-4.001v4h4.001v-4zm24.014 0h-4.001v4h4.001v-4zm-88.055 3.906h-4.001v4.001h4.001v-4.001zm12.016 0h-4.001v4.001h4v-4.001zm12.013 0h-4v4.001h4v-4.001z" fill="#30393E"/><path d="M53.986 62.172h-4.002v4.001h4.002v-4.001zm12.015 0H62v4.001h4.001v-4.001zm7.989 0h-4.002v4.001h4.002v-4.001z" fill="#30393E"/><path d="M77.978 62.172h-4.001v4.001h4v-4.001zm4.004 0H77.98v4.001h4v-4.001zm4.023 0h-4.001v4.001h4.001v-4.001zm4.008 0h-4.001v4.001h4.001v-4.001zm15.998 0h-4.001v4.001h4.001v-4.001zm4.008 0h-4.001v4.001h4.001v-4.001zm-96.047 3.992H9.97v4.001h4v-4z" fill="#30393E"/><path d="M17.956 66.164h-4v4.001h4v-4zm4.008 0h-4.001v4.001h4.001v-4zm4.024 0h-4.002v4.001h4.002v-4zm7.992 0h-4.001v4.001h4v-4z" fill="#30393E"/><path d="M37.964 66.164h-4.001v4.001h4.001v-4zm8.029 0h-4v4.001h4v-4zm7.993 0h-4.002v4.001h4.002v-4z" fill="#30393E"/><path d="M57.97 66.164h-4.001v4.001h4.001v-4zm4.004 0h-4.001v4.001h4v-4zm12.016 0h-4.002v4.001h4.002v-4zm12.015 0h-4.001v4.001h4.001v-4zm11.979 0h-4.002v4.001h4.002v-4zm4.004 0h-4.002v4.001h4.002v-4zm8.031 0h-4.001v4.001h4.001v-4zm-80.028 4.063h-4v4h4v-4z" fill="#30393E"/><path d="M33.98 70.227h-4.001v4h4v-4zm7.99 0h-4.001v4h4.001v-4zm12.016 0h-4.002v4h4.002v-4zm27.996 0H77.98v4h4v-4zm4.023 0h-4.001v4h4.001v-4zm4.008 0h-4.001v4h4.001v-4z" fill="#30393E"/><path d="M93.995 70.227h-4v4h4v-4z" fill="#30393E"/><path d="M97.984 70.227h-4.002v4h4.002v-4zm-84.012 4.054H9.97v4.001h4v-4z" fill="#30393E"/><path d="M17.956 74.281h-4v4.001h4v-4zm20.008 0h-4.001v4.001h4.001v-4zm4.006 0h-4.001v4.001h4.001v-4zm4.023 0h-4v4.001h4v-4zm11.977 0h-4.001v4.001h4.001v-4zm16.02 0h-4.002v4.001h4.002v-4z" fill="#30393E"/><path d="M77.978 74.281h-4.001v4.001h4v-4zm4.004 0H77.98v4.001h4v-4zm4.023 0h-4.001v4.001h4.001v-4zm4.008 0h-4.001v4.001h4.001v-4z" fill="#30393E"/><path d="M93.995 74.281h-4v4.001h4v-4zm12.016 0h-4.001v4.001h4.001v-4zm-60.018 3.985h-4v4h4v-4zm4.004 0h-4v4h4v-4zm7.973 0h-4.001v4h4.001v-4zm4.004 0h-4.001v4h4v-4zm16.004 0h-4.001v4h4v-4z" fill="#30393E"/><path d="M93.995 78.266h-4v4h4v-4zm16.024 0h-4.001v4h4.001v-4zM45.993 82.18h-4v4h4v-4zm4.004 0h-4v4h4v-4zm7.973 0h-4.001v4h4.001v-4zm20.008 0h-4.001v4h4v-4zm8.027 0h-4.001v4h4.001v-4z" fill="#30393E"/><path d="M93.995 82.18h-4v4h4v-4zm16.024 0h-4.001v4h4.001v-4zm-60.022 3.984h-4v4.001h4v-4zm11.977 0h-4.001v4.001h4v-4zm8.031 0h-4.001v4.001h4.001v-4z" fill="#30393E"/><path d="M73.99 86.164h-4.002v4.001h4.002v-4z" fill="#30393E"/><path d="M77.978 86.164h-4.001v4.001h4v-4zm16.017 0h-4v4.001h4v-4zm16.024 0h-4.001v4.001h4.001v-4zm-60.022 4.07h-4v4.002h4v-4.002zm7.973 0h-4.001v4.002h4.001v-4.002zm16.02 0h-4.002v4.002h4.002v-4.002z" fill="#30393E"/><path d="M77.978 90.234h-4.001v4.002h4v-4.002zm4.004 0H77.98v4.002h4v-4.002zm4.023 0h-4.001v4.002h4.001v-4.002zm4.008 0h-4.001v4.002h4.001v-4.002z" fill="#30393E"/><path d="M93.995 90.234h-4v4.002h4v-4.002zm12.016 0h-4.001v4.002h4.001v-4.002zm-56.014 4.063h-4v4.001h4v-4.001zm7.973 0h-4.001v4.001h4.001v-4.001zm4.004 0h-4.001v4.001h4v-4.001zm8.031 0h-4.001v4.001h4.001v-4.001zm7.973 0h-4.001v4.001h4v-4.001zm16.017 0h-4v4.001h4v-4.001zm7.993 0h-4.002v4.001h4.002v-4.001zm4.023 0h-4.001v4.001h4.001v-4.001zm-60.018 3.976h-4v4.002h4v-4.002z" fill="#30393E"/><path d="M49.997 98.273h-4v4.002h4v-4.002z" fill="#30393E"/><path d="M53.986 98.273h-4.002v4.002h4.002v-4.002z" fill="#30393E"/><path d="M57.97 98.273h-4.001v4.002h4.001v-4.002zm12.035 0h-4.001v4.002h4.001v-4.002zm7.973 0h-4.001v4.002h4v-4.002zm4.004 0H77.98v4.002h4v-4.002zm8.031 0h-4.001v4.002h4.001v-4.002z" fill="#30393E"/><path d="M93.995 98.273h-4v4.002h4v-4.002z" fill="#30393E"/><path d="M97.984 98.273h-4.002v4.002h4.002v-4.002zm8.027 0h-4.001v4.002h4.001v-4.002zm4.008 0h-4.001v4.002h4.001v-4.002zm-56.033 3.907h-4.002v4.001h4.002v-4.001z" fill="#30393E"/><path d="M57.97 102.18h-4.001v4.001h4.001v-4.001zm4.004 0h-4.001v4.001h4v-4.001zm16.004 0h-4.001v4.001h4v-4.001zm4.004 0H77.98v4.001h4v-4.001zm4.023 0h-4.001v4.001h4.001v-4.001zm4.008 0h-4.001v4.001h4.001v-4.001z" fill="#30393E"/><path d="M93.995 102.18h-4v4.001h4v-4.001zm-48.002 3.992h-4v4.001h4v-4.001zm7.993 0h-4.002v4.001h4.002v-4.001zm7.988 0h-4.001v4.001h4v-4.001zm16.004 0h-4.001v4.001h4v-4.001zm4.004 0H77.98v4.001h4v-4.001z" fill="#30393E"/><path d="M97.984 106.172h-4.002v4.001h4.002v-4.001zm12.035 0h-4.001v4.001h4.001v-4.001zM33.778 10.203H9.971v28.009h28.008V10.204h-4.201zm0 23.808H14.172V14.404h19.606v19.607zm72.051-23.808H82.022v28.009h28.008V10.204h-4.201zm0 23.808H86.223V14.404h19.606v19.607zM33.778 82.102H9.971v28.008h28.008V82.102h-4.2zm0 23.807H14.172V86.303h19.606v19.606z" fill="#30393E"/><path d="M29.967 18.258H17.963v12.004h12.004V18.258zm72.031 0H89.994v12.004h12.004V18.258zM29.967 90.234H17.963v12.004h12.004V90.234z" fill="#30393E"/></svg>