<svg width="58" height="52" fill="none" xmlns="http://www.w3.org/2000/svg"><path d="M38.704 9.55l1.46.744.931-2.701c.28-.777.528-1.584.808-2.36.497-1.305 1.863-1.895 3.012-1.336V2.872l-2.577-.683A46.068 46.068 0 0032.493.667C27.897.481 23.363.916 18.89 1.91c-5.217 1.15-10.186 2.95-15 5.218-.993.466-1.987.962-2.98 1.46 0 .03.03.03.03.061.062-.03.124-.03.218-.062 4.72-1.304 9.503-2.298 14.41-2.67 3.757-.311 7.515-.28 11.273.186 3.602.435 7.05 1.335 10.372 2.764.497.217.963.435 1.491.683z" fill="#FFEB86"/><path d="M53.58 28.617c-.341-.062-.714-.062-1.056-.093-.062-1.242-.497-2.329-1.46-3.105-.993-.808-2.111-.932-3.353-.652.093-1.367-.28-2.485-1.274-3.386-.993-.87-2.173-1.118-3.509-.807a1416.91 1416.91 0 001.988-5.745c.9-2.64 1.832-5.249 2.702-7.889.465-1.428.155-2.764-.932-3.85-.808-.777-1.708-1.15-2.733-1.118h-.218c-.279.03-.527.093-.776.155-1.118.341-1.956 1.18-2.391 2.36-.186.497-.342.963-.528 1.46l-1.304 3.509a2619.914 2619.914 0 00-5.715 16.646c-.093-.186-.155-.28-.186-.404-.497-1.118-.994-2.236-1.522-3.354-.87-1.863-2.888-2.888-4.751-2.422-2.64.652-3.976 3.385-2.858 5.9.529 1.212 1.119 2.423 1.491 3.665.963 3.23 1.336 6.615 1.74 9.969.496 4.192 2.732 7.05 6.645 8.54 2.112.808 4.255 1.46 6.398 2.205 1.677.59 3.354.56 5.03-.062 3.262-1.242 5.529-3.54 6.957-6.708 1.46-3.23 2.888-6.46 4.348-9.658.963-2.143-.342-4.659-2.733-5.156zm1.18 4.566c-1.49 3.291-2.919 6.552-4.44 9.844-1.336 2.92-3.51 4.97-6.615 5.9-.435.125-.901.187-1.43.28-.59-.124-1.21-.217-1.831-.434-2.174-.715-4.348-1.429-6.46-2.236-3.26-1.243-5.093-3.665-5.497-7.143-.435-3.572-.807-7.143-1.863-10.56-.404-1.273-.994-2.453-1.522-3.664-.59-1.335 0-2.826 1.335-3.416 1.243-.559 2.702.031 3.354 1.398l1.584 3.447c.31.652.59 1.335.9 1.987.218.466.467.652.87.622.435-.032.653-.311.777-.684 2.391-6.987 4.814-13.975 7.205-20.962.28-.777.528-1.584.807-2.36.497-1.367 1.988-1.957 3.137-1.274.9.528 1.273 1.584.9 2.67-.776 2.299-1.583 4.597-2.36 6.895-1.087 3.137-2.142 6.274-3.23 9.38-.03.123-.093.247-.124.403-.062.404.156.807.528.931.373.125.777-.03.994-.403.062-.155.124-.31.186-.435.56-1.087 1.74-1.553 2.795-1.118 1.056.466 1.553 1.615 1.15 2.764-.249.683-.466 1.366-.715 2.08-.155.498 0 .932.466 1.119.435.155.87-.062 1.087-.528.497-1.18 1.646-1.708 2.764-1.274 1.025.373 1.615 1.677 1.242 2.826-.217.746-.497 1.46-.745 2.174-.187.56 0 1.025.466 1.15.465.155.838-.094 1.087-.622.186-.466.403-.9.683-1.335.248-.404.652-.528 1.149-.404a2.148 2.148 0 011.366 2.982z" fill="#878C98" stroke="#878C98"/></svg>