<svg width="21" height="21" xmlns="http://www.w3.org/2000/svg"><path d="M8.173 20.154c-2.976-.017-5.439-6.093-5.439-9.188 0-5.055 3.792-6.161 5.254-6.161.658 0 1.362.258 1.982.487.434.16.882.325 1.132.325.15 0 .501-.14.812-.264.662-.263 1.487-.591 2.447-.591h.006c.717 0 2.89.157 4.197 2.12l.306.46-.44.332c-.63.475-1.778 1.341-1.778 3.058 0 2.032 1.3 2.814 1.925 3.19.276.165.562.337.562.71 0 .245-1.95 5.492-4.782 5.492-.693 0-1.183-.209-1.615-.392-.437-.186-.814-.346-1.437-.346-.316 0-.716.149-1.138.307-.578.216-1.232.461-1.974.461h-.02zm6.489-20c.073 2.659-1.828 4.504-3.728 4.388-.313-2.122 1.9-4.388 3.728-4.388z"/></svg>