<svg xmlns="http://www.w3.org/2000/svg" viewBox="0 0 20 20"><path d="M10 0C4.5 0 0 4.5 0 10s4.5 10 10 10 10-4.5 10-10S15.5 0 10 0zm2.9 8.3h-1.7v-.8c0-.4-.3-.9-.7-1-.3-.1-.6-.1-1 0-.3.1-.5.3-.6.6-.3.6 0 1.4.7 1.6l1.6.7c.7.3 1.3.9 1.6 1.6.3.7.3 1.5 0 2.2-.4.8-1 1.4-1.8 1.6v1.8H9.2v-1.8c-.1 0-.2-.1-.3-.1-1.1-.5-1.8-1.5-1.8-2.7v-.8h1.7v.8c0 .5.3 1 .7 1.1.6.3 1.4 0 1.6-.7.1-.3.1-.6 0-1-.1-.3-.4-.6-.7-.7L8.8 10c-1.4-.4-2.1-2.1-1.5-3.6.3-.7.9-1.3 1.6-1.6.1 0 .2-.1.2-.1V3.3h1.7v1.5c.1 0 .2.1.3.1 1.1.5 1.8 1.5 1.8 2.6v.8z"/></svg>