<svg version="1.1" id="Шар_1" xmlns="http://www.w3.org/2000/svg" x="0" y="0" viewBox="0 0 24 25" xml:space="preserve"><style>.st0{fill:#ff5f72}</style><path class="st0" d="M18.1 18.9H5.9c-1.2 0-1.9 0-2.5-.5-.4-.3-.6-.7-.7-1.2-.1-.7.2-1.3.9-2.3l.6-1c.6-.9.9-1.9 1-2.9l.3-2.3c.3-3.3 3.1-5.8 6.5-5.8s6.2 2.5 6.5 5.9l.3 2.3c.1 1 .4 2 .9 2.8l.6 1c.6 1 1 1.6.9 2.3-.1.5-.3.9-.7 1.2-.5.5-1.2.5-2.4.5zM4.8 16.8h14.3c-.1-.2-.3-.6-.6-1l-.6-1c-.7-1.2-1.1-2.4-1.2-3.6l-.3-2.3c-.3-2.3-2.2-4.1-4.6-4.1-2.3 0-4.3 1.8-4.6 4.1l-.3 2.3c.1 1.3-.3 2.5-.9 3.6l-.6 1c-.3.4-.5.8-.6 1z"/><path class="st0" d="M12 22.9c-1 0-1.9-.5-2.6-1.3-.6-.7-1.1-1.7-1.3-2.9-.1-.5.3-1.1.8-1.2.6-.1 1.1.3 1.2.8.1.8.4 1.5.8 1.9.2.3.6.6 1.1.6.4 0 .7-.2 1.1-.6.4-.5.7-1.1.8-1.9.1-.5.6-.9 1.2-.8.5.1.9.6.8 1.2-.2 1.1-.7 2.1-1.3 2.9-.7.8-1.6 1.3-2.6 1.3z"/></svg>