<svg xmlns="http://www.w3.org/2000/svg" width="40" height="40" viewBox="0 0 30 30"><defs><style>.b{fill:#b4baca;fill-rule:evenodd}</style></defs><path class="b" d="M22.19 17.306v-2.494a6.599 6.599 0 00-4.668-6.281l.001-.094a2.438 2.438 0 00-4.875 0q0 .047.002.093a6.593 6.593 0 00-4.673 6.283v2.481A1.32 1.32 0 007 18.562v.75c0 1.253 0 2.813 2.813 2.813h10.5c2.812 0 2.812-1.56 2.812-2.813v-.75a1.32 1.32 0 00-.936-1.256zM15.085 7.125a1.31 1.31 0 011.305 1.17l-1.852-.045a6.44 6.44 0 00-.758.045 1.315 1.315 0 011.305-1.17zm-5.984 7.688a5.463 5.463 0 014.297-5.318 5.204 5.204 0 011.14-.12h1.087a5.223 5.223 0 011.147.12l.017.003a5.469 5.469 0 014.274 5.314v2.438H9.102zM22 19.313C22 20.543 22 21 20.312 21h-10.5c-1.687 0-1.687-.458-1.687-1.688v-.75a.186.186 0 01.188-.187h13.5a.186.186 0 01.187.188z"/><path class="b" d="M17.336 12.75h-4.5a.563.563 0 000 1.125h4.5a.563.563 0 000-1.125z"/></svg>