<svg id="Слой_1" data-name="Слой 1" xmlns="http://www.w3.org/2000/svg" width="66.945" height="33.333" viewBox="0 0 50.209 25"><defs><style>.cls-1{fill:#c3c8d5;fill-rule:evenodd}</style></defs><path class="cls-1" d="M63.015 28.699a6.196 6.196 0 00-1.637-3.767 6.196 6.196 0 00-3.766-1.636 45.676 45.676 0 00-5.562-.194h-2.683a45.675 45.675 0 00-5.56.194 6.196 6.196 0 00-3.767 1.636 6.196 6.196 0 00-1.637 3.767 45.7 45.7 0 00-.194 5.561v2.683a45.699 45.699 0 00.194 5.562 5.598 5.598 0 005.403 5.402 45.714 45.714 0 005.562.195h2.682a45.714 45.714 0 005.562-.195 5.598 5.598 0 005.403-5.402 45.73 45.73 0 00.194-5.562V34.26a45.73 45.73 0 00-.194-5.561zm-6.681-.597a1.875 1.875 0 11-1.876 1.875 1.875 1.875 0 011.876-1.875zm3.055 12.948l-1.688-1.688c-.533-.533-.877-.876-1.161-1.115a1.418 1.418 0 00-.47-.306 1.249 1.249 0 00-.722 0 1.42 1.42 0 00-.47.306c-.284.239-.628.582-1.161 1.115l-.037.036c-.334.335-.644.645-.922.875a2.576 2.576 0 01-1.195.602 2.5 2.5 0 01-1.748-.337 2.578 2.578 0 01-.886-1.003c-.173-.316-.346-.72-.532-1.154l-.02-.048-.067-.156c-.48-1.12-.801-1.865-1.097-2.39-.292-.519-.46-.635-.537-.674a1.25 1.25 0 00-.665-.128c-.087.007-.286.053-.75.426-.469.378-1.044.95-1.906 1.812l-1.392 1.393c-.004-.533-.004-1.118-.004-1.764v-1.768c.66-.657 1.228-1.213 1.735-1.62a3.893 3.893 0 012.106-.97 3.75 3.75 0 011.996.384 3.894 3.894 0 011.596 1.683c.37.657.743 1.529 1.188 2.567l.028.065.067.155c.213.499.34.79.449.99l.015.029.026-.02c.175-.146.4-.37.784-.753l.036-.036c.487-.487.907-.907 1.282-1.223a3.815 3.815 0 011.359-.788 3.75 3.75 0 012.166 0 3.814 3.814 0 011.359.788c.375.316.795.736 1.282 1.223l.026.026c-.002 1.453-.012 2.568-.07 3.466zM32.488 28.741H33v-.64h-.64a2.605 2.605 0 00.128.64zm-1.344.321a.48.48 0 01-.064.32h-.64v1.408h.384v-1.28a3.774 3.774 0 00.704-.064 3.779 3.779 0 01.704-.064.48.48 0 00.064-.32.48.48 0 01.064-.32h-1.152a.48.48 0 00-.064.32zm-.961 2.368v-.64H29.8v-.64h-.64v.64a.48.48 0 00.32.064.48.48 0 01.32.064.781.781 0 00-.064.368.548.548 0 01-.026.217.908.908 0 01.154-.009.634.634 0 00.32-.064zm-.474.073a.572.572 0 00-.166.055h.128a.183.183 0 00.038-.055zm.474.696h-.64v-.64h-1.152a.48.48 0 00-.064.32.48.48 0 01-.064.32h-.64a.96.96 0 00-.129.64h.64v.64a1.537 1.537 0 00-.424.08.914.914 0 01-.216.048v-.768a.48.48 0 01-.32.064.479.479 0 00-.32.064.779.779 0 00-.064.368.367.367 0 01-.064.272h-.64v.769a.378.378 0 00-.32-.038 1.283 1.283 0 01-.32.038.48.48 0 00-.064.32.48.48 0 01-.064.32h-.64a21.394 21.394 0 00-2.946 4.994 21.325 21.325 0 01-.188-.392 7.305 7.305 0 00-.708-1.273c-.512-.512-2.049-2.049-2.817-1.92-1.28.255.256 1.92.512 2.176a11.76 11.76 0 012.049 3.457 3.956 3.956 0 00.896 1.793c1.35 1.013 1.712-.448 1.954-1.425.033-.134.064-.26.095-.368a9.187 9.187 0 012.56-4.353.782.782 0 00.065-.368.367.367 0 01.064-.273h.64a1.607 1.607 0 00-.026-.247 1.25 1.25 0 01.026-.649h.64v-.64h.64a.48.48 0 00.065-.32.48.48 0 01.064-.32h.64v-.64h.64a.48.48 0 00.064-.32.48.48 0 01.064-.32h.64a1.845 1.845 0 00-.064-.32v-.001a1.838 1.838 0 01-.064-.32h.64a2.4 2.4 0 00.064-.704 2.398 2.398 0 01.065-.705h-.64a.96.96 0 01-.129.64z" transform="translate(-13 -23.102)"/><path class="cls-1" d="M31.016 31.238a.48.48 0 01-.064.32.378.378 0 00.319.038 1.29 1.29 0 01.32-.038.48.48 0 00.065-.32.48.48 0 01.064-.32h-.64a.48.48 0 00-.064.32z" transform="translate(-13 -23.102)"/><path fill="#c3c8d5" d="M18.72 7.176h.64v.64h-.64z"/><path class="cls-1" d="M17.857 14.285h-2V23H2V9.142h8.714v-2H0V25h17.857V14.285z"/></svg>