<svg data-name="Слой 1" xmlns="http://www.w3.org/2000/svg" width="33.333" height="33.333" viewBox="0 0 25 25"><path d="M24.806 5.597a6.195 6.195 0 00-1.637-3.766A6.196 6.196 0 0019.403.194 45.675 45.675 0 0013.84 0h-2.683a45.675 45.675 0 00-5.56.194A6.196 6.196 0 001.83 1.831 6.196 6.196 0 00.194 5.597 45.73 45.73 0 000 11.159v2.682a45.729 45.729 0 00.194 5.562 6.196 6.196 0 001.637 3.766 6.196 6.196 0 003.766 1.637A45.714 45.714 0 0011.16 25h2.682a45.714 45.714 0 005.562-.194 5.598 5.598 0 005.403-5.403A45.689 45.689 0 0025 13.84v-2.68a45.688 45.688 0 00-.194-5.562zM18.125 5a1.875 1.875 0 11-1.875 1.875A1.875 1.875 0 0118.125 5zm3.055 12.948l-1.688-1.688c-.533-.533-.877-.876-1.161-1.115a1.42 1.42 0 00-.47-.306 1.249 1.249 0 00-.722 0 1.418 1.418 0 00-.47.306c-.284.239-.628.582-1.161 1.115l-.037.037c-.334.334-.644.644-.922.874a2.577 2.577 0 01-1.195.602 2.5 2.5 0 01-1.748-.337 2.58 2.58 0 01-.886-1.002c-.173-.317-.346-.72-.532-1.155l-.02-.047-.067-.156c-.48-1.12-.801-1.866-1.097-2.39-.292-.52-.46-.636-.537-.675a1.25 1.25 0 00-.665-.128c-.087.008-.286.053-.75.427-.469.377-1.044.95-1.906 1.812l-1.392 1.392a273.01 273.01 0 01-.004-1.764v-1.767c.66-.658 1.228-1.213 1.735-1.621a3.894 3.894 0 012.106-.97 3.75 3.75 0 011.996.384 3.894 3.894 0 011.596 1.683c.37.657.743 1.53 1.188 2.568l.028.064.067.156c.213.498.34.79.449.99l.016.028.025-.02c.175-.145.4-.37.784-.753l.036-.035c.487-.487.907-.908 1.282-1.224a3.814 3.814 0 011.359-.788 3.75 3.75 0 012.166 0 3.813 3.813 0 011.359.788c.375.316.795.736 1.282 1.224l.026.025c-.002 1.453-.012 2.569-.07 3.466z" fill="#c3c8d5" fill-rule="evenodd"/></svg>