<svg id="Слой_1" data-name="Слой 1" xmlns="http://www.w3.org/2000/svg" width="65.612" height="33.334" viewBox="0 0 49.209 25"><defs><style>.cls-1{fill:#c3c8d5;fill-rule:evenodd}</style></defs><path class="cls-1" d="M58.69 26.519A12 12 0 0038.21 35v12a1 1 0 001.633.774l3.034-2.482 3.033 2.482a1 1 0 001.267 0l3.033-2.482 3.033 2.482a1 1 0 001.267 0l3.033-2.482 3.034 2.482A1 1 0 0062.209 47V35a12.014 12.014 0 00-3.519-8.481zM47.77 35.56a1.5 1.5 0 11.439-1.061 1.5 1.5 0 01-.44 1.06zm7 0a1.5 1.5 0 11.439-1.061 1.5 1.5 0 01-.44 1.06zm-22.282-6.92H33V28h-.64a2.605 2.605 0 00.128.64zm-1.344.32a.48.48 0 01-.064.32h-.64v1.409h.384v-1.28a3.773 3.773 0 00.704-.064 3.78 3.78 0 01.704-.064.48.48 0 00.064-.32.48.48 0 01.064-.32h-1.152a.48.48 0 00-.064.32zm-1.435 2.442a.572.572 0 00-.166.055h.128a.182.182 0 00.038-.055zm1.307-.265a.48.48 0 01-.064.32.378.378 0 00.319.038 1.29 1.29 0 01.32-.038.48.48 0 00.065-.32.48.48 0 01.064-.32h-.64a.48.48 0 00-.064.32z" transform="translate(-13 -23)"/><path fill="#c3c8d5" d="M18.72 7.177h.64v.64h-.64z"/><path class="cls-1" d="M30.183 31.33v-.641H29.8v-.64h-.64v.64a.48.48 0 00.32.064.48.48 0 01.32.064.781.781 0 00-.064.368.548.548 0 01-.026.217.909.909 0 01.154-.009.634.634 0 00.32-.064zm0 .767h-.64v-.64h-1.152a.48.48 0 00-.064.32.48.48 0 01-.064.32h-.64a.96.96 0 00-.129.64.48.48 0 01-.32.065.48.48 0 00-.32.064.779.779 0 00-.064.368.367.367 0 01-.064.272h-.64v.768a.378.378 0 00-.32-.037 1.283 1.283 0 01-.32.037.48.48 0 00-.064.32.48.48 0 01-.064.32h-.64a21.394 21.394 0 00-2.946 4.994c-.062-.124-.124-.256-.188-.391a7.306 7.306 0 00-.708-1.273c-.512-.512-2.049-2.049-2.817-1.921-1.28.256.256 1.92.512 2.177a11.76 11.76 0 012.049 3.457 3.955 3.955 0 00.896 1.793c1.35 1.013 1.712-.448 1.954-1.425.033-.134.064-.26.095-.368a9.187 9.187 0 012.56-4.353.782.782 0 00.065-.369.367.367 0 01.064-.272h.64a1.607 1.607 0 00-.026-.247 1.25 1.25 0 01.026-.65h.64v-.64h.64a.48.48 0 00.065-.32.48.48 0 01.064-.32h.64v-.64h.64a.48.48 0 00.064-.32.48.48 0 01.064-.32h.64a1.845 1.845 0 00-.064-.32 1.838 1.838 0 01-.064-.32h.64a2.4 2.4 0 00.064-.704 2.398 2.398 0 01.065-.705h-.64a.96.96 0 01-.129.64z" transform="translate(-13 -23)"/><path class="cls-1" d="M17.857 14.286h-2V23H2V9.143h8.714v-2H0V25h17.857V14.286z"/></svg>