<svg xmlns="http://www.w3.org/2000/svg" width="25" height="25" fill="currentColor"><path fill-rule="evenodd" d="M9 5.26h-.066c-.886 0-1.65 0-2.262.082-.655.088-1.284.287-1.793.796-.51.51-.709 1.138-.797 1.794C4 8.544 4 9.307 4 10.194v4.132c0 .886 0 1.65.082 2.262.088.655.287 1.283.797 1.793s1.138.709 1.793.797c.612.082 1.376.082 2.262.082h8.132c.886 0 1.65 0 2.262-.082.655-.088 1.284-.287 1.793-.797.51-.51.709-1.138.797-1.793.082-.612.082-1.376.082-2.262v-4.132c0-.887 0-1.65-.082-2.262-.088-.656-.287-1.284-.797-1.794s-1.138-.708-1.793-.796c-.612-.082-1.376-.082-2.262-.082H9zM6.293 7.553c.076-.076.212-.17.646-.229C7.4 7.262 8.029 7.26 9 7.26h8c.971 0 1.599.002 2.061.064.434.058.57.153.646.229.076.076.17.212.229.645.018.136.031.286.04.455l-6.529 3.265a1 1 0 01-.894 0l-6.53-3.265c.01-.168.023-.319.041-.455.059-.433.153-.57.229-.645zM6 10.878v3.382c0 .97.002 1.599.064 2.061.059.434.153.57.229.646.076.076.212.17.646.229.462.062 1.09.064 2.061.064h8c.971 0 1.599-.002 2.061-.065.434-.058.57-.152.646-.228.076-.076.17-.212.229-.646.062-.462.064-1.09.064-2.061v-3.382l-5.658 2.829a3 3 0 01-2.684 0L6 10.877z" clip-rule="evenodd"/></svg>