<svg xmlns="http://www.w3.org/2000/svg" width="25" height="25" fill="currentColor"><path fill-rule="evenodd" d="M12.459 2.158c-5.66 0-10.25 4.59-10.25 10.25 0 5.661 4.59 10.25 10.25 10.25s10.25-4.589 10.25-10.25c0-5.66-4.59-10.25-10.25-10.25zM.209 12.408c0-6.765 5.485-12.25 12.25-12.25s12.25 5.485 12.25 12.25c0 6.766-5.485 12.25-12.25 12.25S.209 19.174.209 12.408z" clip-rule="evenodd"/><path fill-rule="evenodd" d="M16.916 9.365l-7.5 7.5-1.414-1.414 7.5-7.5 1.414 1.414z" clip-rule="evenodd"/><path fill-rule="evenodd" d="M8.002 9.365l7.5 7.5 1.414-1.414-7.5-7.5-1.414 1.414z" clip-rule="evenodd"/></svg>