<svg width="25" height="24" fill="none" xmlns="http://www.w3.org/2000/svg"><path fill-rule="evenodd" clip-rule="evenodd" d="M4.793 2.707l16 16 1.414-1.414-2.1-2.1c.544-.545 1-1.064 1.353-1.492l.073-.088c.314-.375.737-.883.737-1.613s-.423-1.238-.737-1.613l-.073-.088c-.74-.899-1.94-2.203-3.451-3.29C16.506 5.927 14.609 5 12.499 5c-.78 0-1.53.127-2.243.341L6.207 1.293 4.793 2.707zm7.15 4.322l.995.995a4.002 4.002 0 013.538 3.538l2.217 2.216a19.02 19.02 0 001.459-1.64c.049-.063.08-.107.1-.138a2.034 2.034 0 00-.1-.139c-.062-.08-.136-.17-.236-.291-.68-.826-1.756-1.989-3.075-2.938C15.514 7.678 14.026 7 12.5 7c-.186 0-.372.01-.556.03zM17.02 17.64l-1.47-1.469c-.972.51-2.002.829-3.05.829-1.525 0-3.013-.678-4.34-1.632-1.32-.95-2.395-2.112-3.075-2.938-.1-.121-.175-.212-.236-.291a2.048 2.048 0 01-.1-.139c.02-.031.05-.075.1-.139.061-.08.136-.17.236-.291.665-.808 1.71-1.938 2.99-2.875l-1.43-1.43C5.296 8.297 4.222 9.47 3.54 10.3l-.074.088c-.313.375-.737.883-.737 1.613s.424 1.238.737 1.613l.074.088c.74.899 1.94 2.203 3.45 3.29C8.495 18.073 10.39 19 12.5 19c1.67 0 3.206-.581 4.519-1.36zM9.167 9.788a4 4 0 005.545 5.545l-1.474-1.474a2 2 0 01-2.598-2.598L9.168 9.789z" fill="#FF5F72"/></svg>