<svg width="24" height="25" fill="none" xmlns="http://www.w3.org/2000/svg"><path fill-rule="evenodd" clip-rule="evenodd" d="M4.584 12.07c.68-.826 1.756-1.989 3.075-2.938 1.327-.954 2.815-1.632 4.34-1.632 1.527 0 3.015.678 4.342 1.632 1.319.95 2.395 2.112 3.075 2.938.1.121.174.212.236.291.049.064.08.107.1.139-.02.031-.051.075-.1.139-.062.08-.136.17-.236.291-.68.826-1.756 1.989-3.075 2.938-1.327.954-2.815 1.632-4.341 1.632-1.526 0-3.014-.678-4.341-1.632-1.32-.95-2.395-2.112-3.075-2.938-.1-.121-.175-.212-.236-.291a2.048 2.048 0 01-.1-.139c.02-.031.05-.075.1-.139.061-.08.136-.17.236-.291zM12 5.5c-2.11 0-4.006.927-5.51 2.009-1.51 1.087-2.71 2.391-3.45 3.29l-.074.088c-.313.375-.737.883-.737 1.613s.424 1.238.737 1.613l.074.088c.74.899 1.94 2.203 3.45 3.29C7.995 18.573 9.89 19.5 12 19.5s4.006-.927 5.509-2.009c1.51-1.087 2.71-2.391 3.45-3.29l.074-.088c.314-.375.737-.883.737-1.613s-.423-1.238-.737-1.613l-.073-.088c-.74-.899-1.94-2.203-3.451-3.29-1.503-1.082-3.4-2.009-5.51-2.009zm2 7a2 2 0 11-4 0 2 2 0 014 0zm2 0a4 4 0 11-8 0 4 4 0 018 0z" fill="#57CA70"/></svg>