<svg width="24" height="25" fill="none" xmlns="http://www.w3.org/2000/svg"><path d="M4 4.406v-1H3v1h1zm7.293 8.707a1 1 0 001.414-1.414l-1.414 1.414zM5 10.406v-6H3v6h2zm-1-5h6v-2H4v2zm-.707-.293l8 8 1.414-1.414-8-8-1.414 1.414z" fill="#628EFF"/><path d="M4 20.406v1H3v-1h1zm7.293-8.707a1 1 0 011.414 1.414L11.293 11.7zM5 14.406v6H3v-6h2zm-1 5h6v2H4v-2zm-.707.293l8-8 1.414 1.414-8 8L3.293 19.7z" fill="#628EFF"/><path d="M20 4.406v-1h1v1h-1zm-7.293 8.707a1 1 0 01-1.414-1.414l1.414 1.414zM19 10.406v-6h2v6h-2zm1-5h-6v-2h6v2zm.707-.293l-8 8-1.414-1.414 8-8 1.414 1.414z" fill="#628EFF"/><path d="M20 20.406v1h1v-1h-1zM12.707 11.7a1 1 0 00-1.414 1.414l1.414-1.414zM19 14.406v6h2v-6h-2zm1 5h-6v2h6v-2zm.707.293l-8-8-1.414 1.414 8 8 1.414-1.414z" fill="#628EFF"/></svg>