<svg width="21" height="21" xmlns="http://www.w3.org/2000/svg"><path d="M4.755 10.153c0-.65.11-1.272.3-1.854L1.691 5.726a9.942 9.942 0 00-1.027 4.427c0 1.596.368 3.096 1.027 4.432l3.364-2.573a6.013 6.013 0 01-.3-1.859zM1.691 5.721l3.364 2.573a5.897 5.897 0 015.61-4.05c1.408 0 2.681.5 3.681 1.318l2.909-2.909c-1.773-1.545-4.045-2.5-6.59-2.5A9.967 9.967 0 001.69 5.722zm8.973 2.614v3.864h5.364c-.268 1.318-1 2.331-2.041 2.99l3.195 2.473c1.832-1.709 3.027-4.25 3.027-7.509 0-.59-.09-1.227-.227-1.818h-9.318z"/><path d="M10.664 12.167v.032h.032l-.032-.032zm3.324 3.023c-.905.568-2.037.873-3.323.873a5.897 5.897 0 01-5.614-4.06l-3.364 2.578a9.97 9.97 0 008.978 5.572c2.44 0 4.768-.868 6.513-2.49l-3.19-2.473z"/></svg>