<svg xmlns="http://www.w3.org/2000/svg" width="24" height="24" fill="currentColor"><path fill-rule="evenodd" d="M7.673 5.525c1.265-1.084 2.12-1.815 2.839-2.29.687-.453 1.109-.576 1.487-.576.379 0 .801.123 1.488.577.718.474 1.574 1.205 2.84 2.289l1.329 1.14c1.463 1.254 1.864 1.635 2.079 2.102.214.467.243 1.019.243 2.946v5.638c0 1.292-.003 2.126-.086 2.741-.077.577-.203.758-.304.859-.1.101-.282.226-.858.304-.503.068-1.152.082-2.077.085v-5.318a2.66 2.66 0 00-2.66-2.66h-3.989a2.66 2.66 0 00-2.66 2.66v5.318c-.924-.003-1.572-.017-2.075-.085-.576-.078-.757-.203-.858-.304-.102-.101-.227-.282-.304-.859-.083-.615-.086-1.45-.086-2.74v-5.64c0-1.926.029-2.478.243-2.945.215-.467.616-.848 2.079-2.102l1.33-1.14zM8.652 24h7.424c1.179 0 2.195 0 3.008-.11.872-.117 1.707-.38 2.385-1.059.677-.677.942-1.513 1.059-2.384.11-.814.11-1.83.11-3.008v-5.977c0-1.559.002-2.743-.487-3.807-.49-1.063-1.39-1.833-2.573-2.846l-.191-.163-1.395-1.196c-1.183-1.014-2.166-1.856-3.04-2.433C14.033.408 13.098 0 12 0c-1.097 0-2.032.408-2.953 1.017-.874.577-1.856 1.419-3.04 2.433l-.064.056-1.33 1.14-.19.163C3.236 5.822 2.336 6.592 1.847 7.655c-.489 1.064-.488 2.248-.487 3.807v5.977c0 1.179 0 2.194.11 3.008.117.871.381 1.707 1.059 2.384.678.678 1.513.942 2.385 1.06.814.109 1.83.109 3.009.109h.729zm5.342-2.66h-3.99v-5.318h3.99v5.319z" clip-rule="evenodd"/></svg>