<svg xmlns="http://www.w3.org/2000/svg" width="25" height="26" fill="currentColor"><path fill-rule="evenodd" d="M11.312 7.522c-.566.373-1.239.948-2.229 1.796l-1.041.893c-1.144.98-1.466 1.285-1.64 1.661-.172.376-.194.82-.194 2.325v4.417c0 1.01.002 1.668.068 2.153.06.456.161.608.25.697.088.088.24.188.696.25.485.065 1.143.067 2.153.067h6.25c1.01 0 1.667-.002 2.153-.067.456-.062.608-.162.696-.25.089-.089.189-.24.25-.697.065-.485.067-1.142.067-2.153v-4.417c0-1.506-.02-1.949-.194-2.325-.173-.376-.495-.68-1.639-1.66l-1.041-.894c-.99-.848-1.664-1.423-2.229-1.796-.542-.358-.88-.459-1.188-.459-.308 0-.647.1-1.188.459zm-1.103-1.67c.718-.473 1.443-.789 2.29-.789.85 0 1.574.316 2.291.79.683.45 1.45 1.109 2.38 1.905l1.09.935.146.125c.931.796 1.629 1.394 2.008 2.218.38.825.379 1.743.378 2.969v4.676c0 .925 0 1.718-.086 2.352-.09.679-.296 1.323-.817 1.845-.522.522-1.167.727-1.845.818-.634.085-1.427.085-2.353.085H9.308c-.925 0-1.718 0-2.352-.085-.679-.091-1.323-.296-1.845-.818s-.726-1.166-.818-1.845c-.085-.634-.085-1.427-.085-2.352v-4.676c0-1.226-.002-2.144.378-2.969.379-.824 1.077-1.422 2.008-2.218l.146-.125L7.782 7.8l.049-.042c.928-.796 1.696-1.454 2.378-1.905z" clip-rule="evenodd"/><path fill-rule="evenodd" d="M8.896 17.531a2 2 0 012-2h3.208a2 2 0 012 2v5.25a1 1 0 11-2 0v-5.25h-3.208v5.25a1 1 0 11-2 0v-5.25z" clip-rule="evenodd"/></svg>