<svg version="1.1" id="Шар_1" xmlns="http://www.w3.org/2000/svg" x="0" y="0" viewBox="0 0 24 24" xml:space="preserve"><style>.st0{fill:#628eff}</style><path class="st0" d="M6 15c0 1.1-.9 2-2 2s-2-.9-2-2 .9-2 2-2 2 .9 2 2z"/><path class="st0" d="M4 18c-1.7 0-3-1.3-3-3s1.3-3 3-3 3 1.3 3 3-1.3 3-3 3zm0-4c-.6 0-1 .4-1 1s.4 1 1 1 1-.4 1-1-.4-1-1-1zm13-4c0-1.1.9-2 2-2s2 .9 2 2-.9 2-2 2-2-.9-2-2z"/><path class="st0" d="M19 13c-1.7 0-3-1.3-3-3s1.3-3 3-3 3 1.3 3 3-1.3 3-3 3zm0-4c-.6 0-1 .4-1 1s.4 1 1 1 1-.4 1-1-.4-1-1-1z"/><path class="st0" d="M14 15.2c-.2 0-.4 0-.5-.1-.9-.2-1.5-.8-2.7-1.9-.8-.8-1.3-1.3-1.6-1.4h-.4c-.3.1-.8.6-1.6 1.4l-1.5 1.5-1.4-1.4 1.5-1.5c1.1-1.1 1.7-1.7 2.7-1.9.4-.1.7-.1 1.1 0 .9.2 1.5.8 2.7 1.9.8.8 1.3 1.3 1.6 1.4h.4c.3-.1.8-.6 1.6-1.4l1.5-1.5 1.4 1.4-1.5 1.5c-1.1 1.1-1.7 1.7-2.7 1.9-.2.1-.4.1-.6.1z"/></svg>