<svg xmlns="http://www.w3.org/2000/svg" width="16" height="20"><path d="M15.89 5.309a4 4 0 00-.48-1.156 6.755 6.755 0 00-1.037-1.194l-1.332-1.332A6.754 6.754 0 0011.847.589a4 4 0 00-1.156-.478A6.753 6.753 0 009.114 0H5.759c-.805 0-1.47 0-2.01.044a4.09 4.09 0 00-1.565.392A4 4 0 00.436 2.184a4.089 4.089 0 00-.392 1.564C0 4.29 0 4.954 0 5.758v8.483c0 .805 0 1.47.044 2.01a4.088 4.088 0 00.392 1.565 4 4 0 001.748 1.748 4.09 4.09 0 001.564.392C4.29 20 4.954 20 5.758 20h4.483c.805 0 1.47 0 2.01-.044a4.09 4.09 0 001.565-.392 4 4 0 001.748-1.748 4.088 4.088 0 00.392-1.564c.044-.541.044-1.206.044-2.01V6.885a6.747 6.747 0 00-.11-1.577zM11 2.44c.142.12.338.312.699.673l1.188 1.188c.36.361.553.557.673.7H12a1 1 0 01-1-1zm3 11.76c0 .857 0 1.439-.038 1.889a2.16 2.16 0 01-.18.819 2 2 0 01-.874.874 2.157 2.157 0 01-.819.18C11.639 18 11.057 18 10.2 18H5.8c-.857 0-1.439 0-1.889-.038a2.158 2.158 0 01-.819-.18 2 2 0 01-.874-.874 2.16 2.16 0 01-.18-.819C2 15.639 2 15.057 2 14.2V5.8c0-.856 0-1.439.037-1.889a2.16 2.16 0 01.18-.819 2 2 0 01.875-.874 2.158 2.158 0 01.819-.18C4.361 2 4.943 2 5.8 2H9v2a3 3 0 003 3h2z" fill="#5a5d65" fill-rule="evenodd"/></svg>