<svg width="15" height="17" fill="none" xmlns="http://www.w3.org/2000/svg"><path fill-rule="evenodd" clip-rule="evenodd" d="M2.148.594H12.51c.215 0 .472 0 .68.029.185.026.78.13 1.033.742.254.612-.093 1.107-.205 1.256a5.16 5.16 0 01-.46.501l-.033.032-3.439 3.44 3.44 3.44.031.031c.153.152.335.334.461.502.112.149.459.644.205 1.255-.253.612-.848.717-1.032.743-.209.03-.466.029-.68.029h-9.84v3a1 1 0 11-2 0V2.07c0-.093 0-.246.018-.384.024-.179.095-.473.348-.726s.547-.324.726-.348a2.95 2.95 0 01.384-.018zm.524 10h8.586l-3.01-3.01a10.169 10.169 0 00-.014-.013c-.051-.052-.148-.148-.224-.248a1.194 1.194 0 01-.255-.73c0-.347.154-.596.255-.728a2.55 2.55 0 01.238-.261l3.01-3.01H2.672v8z" fill="#5A5D65"/></svg>