<svg data-name="Icon/options" xmlns="http://www.w3.org/2000/svg" width="24" height="24"><g data-name="Group 88"><path data-name="๐จ Icon ะกolor" d="M18 22a1 1 0 01-1-1v-5.185a2.981 2.981 0 010-5.63V3a1 1 0 012 0v7.185a2.981 2.981 0 010 5.63V21a1 1 0 01-1 1zm0-10a1 1 0 101 1 1 1 0 00-1-1zm-6 10a1 1 0 01-1-1V7.815a3 3 0 112 0V21a1 1 0 01-1 1zm0-18a1 1 0 101 1 1 1 0 00-1-1zM6 22a1 1 0 01-1-1v-1.185a2.981 2.981 0 010-5.63V3a1 1 0 112 0v11.185a2.98 2.98 0 010 5.63V21a1 1 0 01-1 1zm0-6a1 1 0 101 1 1 1 0 00-1-1z"/></g></svg>