<svg width="25" height="24" fill="none" xmlns="http://www.w3.org/2000/svg"><path d="M16.672 16c-1.3 0-2.4.8-2.8 2h-4.2c-1.5 0-2.4 0-2.7-.3-.3-.3-.3-1.2-.3-2.7v-3.2c.7.2 1.7.2 3 .2h4.2c.4 1.2 1.5 2 2.8 2 1.7 0 3-1.3 3-3s-1.3-3-3-3c-1.3 0-2.4.8-2.8 2h-4.2c-1.5 0-2.4 0-2.7-.3-.2-.2-.3-.9-.3-1.9 1.2-.4 2-1.5 2-2.8 0-1.7-1.3-3-3-3s-3 1.3-3 3c0 1.3.8 2.4 2 2.8V15c0 2.1 0 3.2.9 4.1.9.9 2 .9 4.1.9h4.2c.4 1.2 1.5 2 2.8 2 1.7 0 3-1.3 3-3s-1.3-3-3-3zm0-6c.6 0 1 .4 1 1s-.4 1-1 1-1-.4-1-1 .4-1 1-1zm-11-6c.6 0 1 .4 1 1s-.4 1-1 1-1-.4-1-1 .4-1 1-1zm11 16c-.6 0-1-.4-1-1s.4-1 1-1 1 .4 1 1-.4 1-1 1z" fill="#FFDE3F"/></svg>