<svg xmlns="http://www.w3.org/2000/svg" width="20.07" height="20.069"><defs><style>.a,.b{fill:#5a5d65}.a{fill-rule:evenodd}</style></defs><path class="a" d="M18.882 7.644l-1.04-.788a.1.1 0 01-.039-.094l.178-1.293a3 3 0 00-3.38-3.38l-1.294.177a.1.1 0 01-.093-.038l-.789-1.04a3 3 0 00-4.78 0l-.79 1.04a.1.1 0 01-.093.038L5.47 2.088A3 3 0 002.09 5.47l.177 1.293a.1.1 0 01-.038.094l-1.04.788a3 3 0 000 4.781l1.04.789a.1.1 0 01.038.093L2.088 14.6a3 3 0 003.381 3.381l1.293-.178a.1.1 0 01.094.039l.788 1.04a3 3 0 004.781 0l.789-1.04a.1.1 0 01.093-.039l1.293.178a3 3 0 003.381-3.38l-.178-1.294a.1.1 0 01.039-.093l1.04-.789a3 3 0 000-4.78zm-1.208 3.188l-1.04.788a2.1 2.1 0 00-.812 1.96L16 14.873A1 1 0 0114.873 16l-1.293-.178a2.1 2.1 0 00-1.96.812l-.788 1.04a1 1 0 01-1.594 0l-.789-1.04a2.1 2.1 0 00-1.96-.812L5.198 16a1 1 0 01-1.127-1.127l.178-1.293a2.1 2.1 0 00-.812-1.96l-1.04-.788a1 1 0 010-1.594l1.04-.789a2.1 2.1 0 00.812-1.96L4.07 5.198A1 1 0 015.197 4.07l1.293.178a2.1 2.1 0 001.96-.812l.788-1.04a1 1 0 011.594 0l.788 1.04a2.1 2.1 0 001.96.812l1.293-.178A1 1 0 0116 5.197l-.178 1.293a2.1 2.1 0 00.812 1.96l1.04.788a1 1 0 010 1.594z"/><circle class="b" cx="8.035" cy="8.035" r="1"/><path class="a" d="M11.328 7.328l-4 4a1 1 0 101.414 1.414l4-4a1 1 0 00-1.414-1.414z"/><circle class="b" cx="12.035" cy="12.035" r="1"/></svg>