<svg width="21" height="16" fill="none" xmlns="http://www.w3.org/2000/svg"><path fill-rule="evenodd" clip-rule="evenodd" d="M5.606.594h10.132c.886 0 1.65 0 2.262.082.655.088 1.284.287 1.793.796.51.51.709 1.138.797 1.794.082.612.082 1.375.082 2.262v5.132c0 .886 0 1.65-.082 2.261-.088.656-.287 1.284-.797 1.794s-1.138.709-1.793.797c-.612.082-1.376.082-2.262.082H5.606c-.886 0-1.65 0-2.262-.082-.655-.088-1.284-.287-1.793-.797-.51-.51-.709-1.138-.797-1.793-.082-.612-.082-1.376-.082-2.262V5.528c0-.887 0-1.65.082-2.262.088-.656.287-1.284.797-1.794S2.689.764 3.344.676C3.956.594 4.72.594 5.606.594zM3.611 2.658c-.434.058-.57.153-.646.229-.076.076-.17.212-.229.645-.062.463-.064 1.09-.064 2.062h16c0-.971-.002-1.599-.064-2.062-.059-.433-.153-.57-.229-.645-.076-.076-.212-.17-.646-.229-.462-.062-1.09-.064-2.061-.064h-10c-.971 0-1.599.002-2.061.064zm15.06 4.936h-16v3c0 .97.003 1.599.065 2.061.058.434.153.57.229.646.076.076.212.17.646.228.462.063 1.09.065 2.06.065h10c.972 0 1.6-.002 2.062-.065.434-.058.57-.152.646-.228.076-.076.17-.212.229-.646.062-.462.064-1.09.064-2.061v-3zm-14 3a1 1 0 011-1h.01a1 1 0 010 2h-.01a1 1 0 01-1-1z" fill="#FFDE3F"/></svg>