<svg width="25" height="24" fill="none" xmlns="http://www.w3.org/2000/svg"><path fill-rule="evenodd" clip-rule="evenodd" d="M7.672 2h-.066c-.886 0-1.65 0-2.262.082-.655.088-1.284.287-1.793.797-.51.51-.709 1.138-.797 1.793-.082.612-.082 1.376-.082 2.262v10.132c0 .886 0 1.65.082 2.262.088.655.287 1.284.797 1.793.51.51 1.138.709 1.793.797C5.956 22 6.72 22 7.606 22h10.132c.886 0 1.65 0 2.262-.082.655-.088 1.284-.287 1.793-.797.51-.51.709-1.138.797-1.793.082-.612.082-1.376.082-2.262V6.934c0-.886 0-1.65-.082-2.262-.088-.655-.287-1.284-.797-1.793-.51-.51-1.138-.709-1.793-.797C19.388 2 18.624 2 17.738 2H7.672zM4.965 4.293c.076-.076.212-.17.646-.229C6.073 4.002 6.7 4 7.67 4h10c.972 0 1.6.002 2.062.064.434.059.57.153.646.229.076.076.17.212.229.646.062.462.064 1.09.064 2.061v10c0 .971-.002 1.599-.064 2.061-.059.434-.153.57-.229.646-.076.076-.212.17-.646.229-.462.062-1.09.064-2.061.064h-10c-.971 0-1.599-.002-2.061-.064-.434-.059-.57-.153-.646-.229-.076-.076-.17-.212-.229-.646-.062-.462-.064-1.09-.064-2.061V7c0-.971.002-1.599.064-2.061.059-.434.153-.57.229-.646zm13.539 5.262a1 1 0 10-1.664-1.11l-3.044 4.567-.46-.918c-.686-1.373-2.6-1.493-3.452-.215L6.84 16.445a1 1 0 001.664 1.11l3.044-4.566.459.917c.687 1.374 2.6 1.493 3.453.215l3.044-4.566z" fill="#FFDE3F"/></svg>