<svg xmlns="http://www.w3.org/2000/svg" width="19.437" height="20"><path d="M19.39 7.592a10.57 10.57 0 00-.114-.485l-1.22-4.879a8.48 8.48 0 00-.263-.914 1.98 1.98 0 00-.625-.89 1.978 1.978 0 00-1.015-.39 8.465 8.465 0 00-.95-.034H4.234a8.464 8.464 0 00-.951.034 1.978 1.978 0 00-1.016.39 1.979 1.979 0 00-.624.89 8.46 8.46 0 00-.263.914l-.011.044L.16 7.107c-.043.176-.085.343-.113.485a2.068 2.068 0 00-.043.544 2 2 0 001.38 1.767 1.815 1.815 0 00.334.072v5.09a18.393 18.393 0 00.082 2.263 2.971 2.971 0 00.797 1.793 2.972 2.972 0 001.793.797A18.405 18.405 0 006.652 20h6.132a18.406 18.406 0 002.262-.082 2.732 2.732 0 002.59-2.59 18.382 18.382 0 00.082-2.262v-5.09a1.812 1.812 0 00.335-.073 2 2 0 001.38-1.767 2.07 2.07 0 00-.043-.544zM11.218 18h-3v-4h3zm4.5-3a17.572 17.572 0 01-.064 2.061c-.058.434-.153.57-.229.646s-.212.17-.645.229a12.933 12.933 0 01-1.562.063V14a2 2 0 00-2-2h-3a2 2 0 00-2 2v4a12.932 12.932 0 01-1.561-.064c-.434-.059-.57-.153-.646-.229s-.17-.212-.228-.646A17.569 17.569 0 013.718 15V9.919a2.999 2.999 0 001.5-.873 2.997 2.997 0 002.125.953L7.46 10h.134a2.997 2.997 0 002.125-.954 2.997 2.997 0 002.125.953l.116.001h.134a2.997 2.997 0 002.125-.954 3 3 0 001.5.873zm1.693-7.005C17.32 8 17.197 8 16.982 8a4.567 4.567 0 01-.796-.026 1 1 0 01-.697-.59 4.379 4.379 0 01-.154-.764l-.001-.012a5.859 5.859 0 00-.033-.184 1.577 1.577 0 00-.032-.13V6.29a1.077 1.077 0 00-.157-.324 1.1 1.1 0 00-1.787 0 1.08 1.08 0 00-.157.324v.003a1.583 1.583 0 00-.032.13 6.18 6.18 0 00-.033.184l-.083.501-.014.078a1 1 0 01-.959.813h-.158a1 1 0 01-.959-.813l-.013-.078-.083-.5a5.859 5.859 0 00-.033-.185 1.577 1.577 0 00-.032-.13V6.29a1.077 1.077 0 00-.157-.324 1.1 1.1 0 00-1.787 0 1.079 1.079 0 00-.157.324v.003a1.555 1.555 0 00-.032.13 6.023 6.023 0 00-.033.185l-.083.5-.014.078A1 1 0 017.547 8H7.39a1 1 0 01-.959-.813l-.013-.078-.083-.5a6.047 6.047 0 00-.033-.185 1.563 1.563 0 00-.032-.13V6.29a1.078 1.078 0 00-.157-.324 1.1 1.1 0 00-1.787 0 1.079 1.079 0 00-.157.324v.003a1.555 1.555 0 00-.032.13 6.05 6.05 0 00-.033.184l-.002.012a4.378 4.378 0 01-.154.764 1 1 0 01-.696.59A4.568 4.568 0 012.454 8c-.214 0-.338 0-.428-.005h-.02l.004-.017a9.36 9.36 0 01.096-.406L3.31 2.758a7.486 7.486 0 01.203-.732l.002-.006h.006A7.464 7.464 0 014.28 2h10.877a7.465 7.465 0 01.759.02h.006l.002.006a7.486 7.486 0 01.203.732l1.204 4.814c.05.204.08.32.096.406l.003.016z" fill="#ffde3f" fill-rule="evenodd"/></svg>