<svg width="25" height="24" fill="none" xmlns="http://www.w3.org/2000/svg"><path fill-rule="evenodd" clip-rule="evenodd" d="M22.84 6.6c-.1-.9-.4-1.7-1.1-2.4-.7-.7-1.5-.9-2.4-1.1-.9-.1-2-.1-3.3-.1h-7.1c-.9 0-1.8 0-2.4.1-1 .1-1.8.4-2.4 1.1-.7.6-1 1.4-1.1 2.4-.1.9-.1 2-.1 3.3V14c0 1.4 0 2.5.1 3.4.1.9.4 1.7 1.1 2.4.7.7 1.5.9 2.4 1.1.9.1 2 .1 3.3.1h6.1c1.4 0 2.5 0 3.4-.1.9-.1 1.7-.4 2.4-1.1.7-.7.9-1.5 1.1-2.4 0-.4.1-.9.1-1.4V9.9c0-1.3 0-2.4-.1-3.3zM15.94 5c1.4 0 2.4 0 3.2.1.7.1 1 .3 1.3.5.2.2.4.5.5 1.3v2.3c-.2-.1-.4-.1-.7-.1-.6-.1-1.3-.1-2.2-.1h-2.9c-.3 0-.4-.1-.5-.1-.1 0-.2-.1-.3-.4-.2-.3-.3-.6-.6-1.2l-1-2-.1-.1c0-.1-.1-.2-.1-.2h3.4zm5 9.1c0 1.4 0 2.4-.1 3.1-.1.7-.3 1-.5 1.3-.2.2-.5.4-1.3.5h-9.1c-1.4 0-2.4 0-3.2-.1-.7-.1-1-.3-1.3-.5-.2-.2-.4-.5-.5-1.3V10c0-1.4 0-2.4.1-3.2.1-.7.3-1 .5-1.3.2-.2.5-.4 1.3-.5h2.4c.6 0 .7 0 .8.1.1 0 .3.1.4.2.1.1.2.2.5 1l1 2c.3.5.5.9.7 1.3.2.4.5.7.9 1 .5.2.9.3 1.4.4h3c1 0 1.6 0 2.1.1.4.1.6.2.6.2.1.1.2.2.2.6.1.5.1 1.1.1 2.2z" fill="#E1E3EA"/></svg>