<svg width="25" height="24" fill="none" xmlns="http://www.w3.org/2000/svg"><path fill-rule="evenodd" clip-rule="evenodd" d="M6.94 3h-.055c-.424 0-.836 0-1.176.046-.383.051-.82.177-1.184.54-.363.363-.488.8-.54 1.183-.046.34-.046.753-.046 1.177v2.108c0 .424 0 .837.046 1.177.052.383.177.82.54 1.183.363.363.8.489 1.184.54.34.046.752.046 1.176.046h2.109c.424 0 .836 0 1.176-.046.383-.051.82-.177 1.184-.54.363-.363.488-.8.54-1.183.046-.34.046-.752.046-1.177V5.946c0-.425 0-.837-.046-1.177-.052-.383-.177-.82-.54-1.183-.363-.363-.8-.489-1.184-.54C9.83 3 9.418 3 8.994 3H6.939zm-.973 2.036l.001-.007.007-.001C6.165 5.002 6.44 5 6.94 5h2c.5 0 .774.002.964.028h.008v.008c.026.19.028.464.028.964v2c0 .5-.002.774-.027.964l-.001.007-.008.001C9.713 8.998 9.44 9 8.94 9h-2c-.5 0-.773-.002-.964-.028h-.007v-.008C5.943 8.774 5.94 8.5 5.94 8V6c0-.5.003-.774.028-.964zM6.94 13h-.054c-.424 0-.836 0-1.176.046-.383.051-.82.177-1.184.54-.363.363-.488.8-.54 1.184-.046.34-.046.752-.046 1.176v2.108c0 .425 0 .837.046 1.177.052.383.177.82.54 1.183.363.363.8.489 1.184.54.34.046.752.046 1.176.046h2.109c.424 0 .836 0 1.176-.046.383-.051.82-.177 1.184-.54.363-.363.488-.8.54-1.184.046-.34.046-.752.046-1.175v-2.109c0-.425 0-.837-.046-1.176-.052-.384-.177-.821-.54-1.184-.363-.363-.8-.489-1.184-.54C9.83 13 9.418 13 8.994 13H6.939zm-.972 2.036l.001-.007.007-.001c.19-.026.465-.028.964-.028h2c.5 0 .774.002.964.028h.008v.008c.026.19.028.464.028.964v2c0 .5-.002.774-.027.964l-.001.007-.008.001c-.19.026-.464.028-.964.028h-2c-.5 0-.773-.002-.964-.028h-.007v-.008c-.026-.19-.029-.464-.029-.964v-2c0-.5.003-.774.028-.964zM16.885 13h2.109c.424 0 .836 0 1.176.046.383.051.82.177 1.184.54.363.363.488.8.54 1.184.046.34.046.752.046 1.176v2.108c0 .425 0 .837-.046 1.177-.052.383-.177.82-.54 1.183-.363.363-.8.489-1.184.54-.34.046-.752.046-1.176.046h-2.109c-.424 0-.836 0-1.176-.046-.383-.051-.82-.177-1.184-.54-.363-.363-.489-.8-.54-1.184-.046-.34-.046-.752-.045-1.176v-2.108c0-.425 0-.837.045-1.176.052-.384.177-.821.54-1.184.364-.363.8-.489 1.184-.54.34-.046.752-.046 1.176-.046zm-.917 2.029v.007c-.026.19-.028.464-.028.964v2c0 .5.002.774.027.964l.001.007.007.001c.19.026.465.028.964.028h2c.5 0 .774-.002.965-.028h.007v-.008c.026-.19.028-.464.028-.964v-2c0-.5-.002-.774-.027-.964l-.001-.007-.008-.001c-.19-.026-.464-.028-.963-.028h-2c-.5 0-.774.002-.965.028h-.007zM16.94 3h-.054c-.424 0-.836 0-1.176.046-.383.051-.82.177-1.184.54-.363.363-.489.8-.54 1.183-.046.34-.046.753-.045 1.177v2.108c0 .425 0 .837.045 1.177.052.383.177.82.54 1.183.364.363.8.489 1.184.54.34.046.752.046 1.176.046h2.109c.424 0 .836 0 1.176-.046.383-.051.82-.177 1.184-.54.363-.363.488-.8.54-1.183.046-.34.046-.753.046-1.177V5.946c0-.424 0-.837-.046-1.177-.052-.383-.177-.82-.54-1.183-.363-.363-.8-.489-1.184-.54C19.83 3 19.418 3 18.994 3h-2.055zm-.972 2.036l.001-.007.007-.001c.19-.026.465-.028.964-.028h2c.5 0 .774.002.965.028h.007v.008c.026.19.028.464.028.964v2c0 .5-.002.774-.027.964l-.001.007-.008.001c-.19.026-.464.028-.963.028h-2c-.5 0-.774-.002-.965-.028h-.007v-.008c-.026-.19-.028-.464-.028-.964V6c0-.5.002-.774.027-.964z" fill="#E1E3EA"/></svg>