<?xml version="1.0" encoding="utf-8"?>
<!-- Generator: Adobe Illustrator 23.0.5, SVG Export Plug-In . SVG Version: 6.00 Build 0)  -->
<svg version="1.1" id="Шар_1" xmlns="http://www.w3.org/2000/svg" xmlns:xlink="http://www.w3.org/1999/xlink" x="0px" y="0px"
	 viewBox="0 0 20 20" style="enable-background:new 0 0 20 20;" xml:space="preserve">
<style type="text/css">
	.st0{fill-rule:evenodd;clip-rule:evenodd;fill:#5A5D65;}
</style>
<g>
	<path class="st0" d="M19.9,2.7c-0.1-0.7-0.3-1.3-0.8-1.8c-0.5-0.5-1.1-0.7-1.8-0.8C16.6,0,15.8,0,15.1,0H4.9C4.2,0,3.4,0,2.7,0.1
		C2,0.1,1.4,0.4,0.9,0.9C0.4,1.4,0.1,2,0.1,2.7C0,3.4,0,4.2,0,4.9v10.1c0,0.8,0,1.5,0.1,2.3c0.1,0.7,0.3,1.3,0.8,1.8
		c0.5,0.5,1.1,0.7,1.8,0.8C3.4,20,4.2,20,4.9,20h10.1c0.8,0,1.5,0,2.3-0.1c1.4-0.1,2.5-1.2,2.6-2.6c0.1-0.8,0.1-1.5,0.1-2.3V4.9
		C20,4.2,20,3.4,19.9,2.7z M18,15c0,0.7,0,1.4-0.1,2.1c-0.1,0.4-0.2,0.6-0.2,0.6s-0.2,0.2-0.6,0.2C16.4,18,15.7,18,15,18H5
		c-0.7,0-1.4,0-2.1-0.1c-0.4-0.1-0.6-0.2-0.6-0.2s-0.2-0.2-0.2-0.6C2,16.4,2,15.7,2,15V6h2c1.1,0,1.3,0,1.4,0.1s0.3,0.2,1,1.1L7,8
		l0.1,0.1C7.5,8.8,8,9.3,8.7,9.7c0.7,0.3,1.4,0.4,2.2,0.3l0.2,0h5c0.4,0,0.8,0,1.1,0c0.3,0,0.6-0.1,0.8-0.2V15z M18,6
		c0,0.5,0,0.8,0,1c0,0.1,0,0.2-0.1,0.4c-0.1,0.2-0.3,0.4-0.5,0.5C17.3,8,17.1,8,17,8c-0.2,0-0.5,0-1,0h-5C9.9,8,9.7,8,9.6,7.9
		c-0.2-0.1-0.3-0.2-1-1.1L8,6L7.9,5.9C7.5,5.2,7,4.7,6.3,4.3C5.7,4,4.9,3.9,4.2,4L4,4H2c0-0.4,0-0.7,0.1-1.1
		c0.1-0.4,0.2-0.6,0.2-0.6c0.1-0.1,0.2-0.2,0.6-0.2C3.6,2,4.3,2,5,2h10c0.7,0,1.4,0,2.1,0.1c0.4,0.1,0.6,0.2,0.6,0.2
		c0.1,0.1,0.2,0.2,0.2,0.6C18,3.6,18,4.3,18,5V6z"/>
	<path class="st0" d="M13,13H5c-0.6,0-1,0.4-1,1c0,0.6,0.4,1,1,1h8c0.6,0,1-0.4,1-1C14,13.4,13.6,13,13,13z"/>
</g>
</svg>
