<svg width="25" height="24" fill="none" xmlns="http://www.w3.org/2000/svg"><path fill-rule="evenodd" clip-rule="evenodd" d="M21.772 5.9c.5.5.7 1.1.8 1.8.1.6.1 1.3.1 2.2v7.2c0 .9 0 1.6-.1 2.2-.1.7-.3 1.3-.8 1.8s-1.1.7-1.8.8c-.6.1-1.4.1-2.3.1h-12.3c-.7-.1-1.3-.3-1.8-.8s-.7-1.1-.8-1.8c-.1-.6-.1-1.4-.1-2.3V9.9c0-.9 0-1.6.1-2.2.1-.7.3-1.3.8-1.8s1.1-.7 1.8-.8c.6-.1 1.3-.1 2.2-.1h.1V3c0-.6.4-1 1-1s1 .4 1 1v2h6V3c0-.6.4-1 1-1s1 .4 1 1v2h.1c.9 0 1.6 0 2.2.1.7.1 1.3.3 1.8.8zm-16.8 1.4s-.1.2-.2.6c-.1.5-.1 1.1-.1 2.1h16c0-1 0-1.6-.1-2.1 0-.4-.2-.6-.2-.6s-.2-.1-.6-.2c-.5-.1-1.1-.1-2.1-.1 0 .6-.4 1-1 1s-1-.4-1-1h-6c0 .6-.4 1-1 1s-1-.4-1-1c-1 0-1.6 0-2.1.1-.4 0-.6.2-.6.2zm15.6 11.8c.1-.5.1-1.1.1-2.1v-5h-16v5c0 1 0 1.6.1 2.1 0 .4.2.6.2.6s.2.1.6.2c.5.1 1.1.1 2.1.1h10c1 0 1.6 0 2.1-.1.4 0 .6-.2.6-.2s.1-.2.2-.6zm-4.9-2.1h-6c-.6 0-1-.4-1-1s.4-1 1-1h6c.6 0 1 .4 1 1s-.4 1-1 1z" fill="#FFDE3F"/></svg>