<svg width="25" height="24" fill="none" xmlns="http://www.w3.org/2000/svg"><path fill-rule="evenodd" clip-rule="evenodd" d="M11.866 2h2.147c1.823 0 3.293 0 4.449.155 1.2.162 2.21.507 3.013 1.31.802.802 1.148 1.813 1.31 3.013.154 1.156.154 2.625.154 4.449v2.146c0 1.824 0 3.293-.155 4.45-.161 1.2-.506 2.21-1.309 3.012-.803.803-1.813 1.148-3.013 1.31-1.156.155-2.626.155-4.45.155h-2.146c-1.823 0-3.293 0-4.449-.155-1.2-.162-2.21-.507-3.013-1.31-.803-.802-1.148-1.813-1.31-3.013-.155-1.156-.155-2.625-.155-4.449v-2.146c0-1.824 0-3.293.156-4.45.161-1.2.506-2.21 1.309-3.013.802-.802 1.813-1.147 3.013-1.309C8.573 2 10.043 2 11.867 2zM7.684 4.138c-.979.131-1.497.372-1.866.74-.369.37-.61.888-.741 1.866-.135 1.007-.138 2.342-.138 4.256v2c0 1.914.003 3.249.138 4.256.132.978.372 1.496.741 1.865.37.37.887.61 1.866.742 1.007.135 2.342.137 4.256.137h2c1.913 0 3.248-.002 4.255-.137.979-.132 1.497-.373 1.866-.742s.61-.887.74-1.865c.136-1.007.139-2.342.139-4.256v-2c0-1.914-.003-3.249-.138-4.256-.132-.978-.372-1.496-.741-1.865-.37-.37-.887-.61-1.866-.741C17.188 4.002 15.853 4 13.94 4h-2c-1.914 0-3.25.002-4.256.138zm12.255 9.447l-.02-.02c-.39-.39-.726-.726-1.026-.979-.317-.267-.662-.502-1.087-.63a3 3 0 00-1.733 0c-.425.129-.77.363-1.087.63-.3.253-.636.59-1.026.98l-.029.028c-.306.306-.487.486-.627.601l-.02.017-.013-.023c-.087-.16-.188-.393-.359-.792l-.053-.124-.023-.052c-.356-.83-.654-1.528-.95-2.054-.305-.541-.685-1.05-1.277-1.346a3 3 0 00-1.596-.307c-.66.055-1.202.386-1.686.775-.405.327-.86.77-1.388 1.297V13c0 .517 0 .985.004 1.411l1.113-1.114c.69-.69 1.15-1.147 1.525-1.45.371-.298.53-.335.6-.34a1 1 0 01.532.102c.062.031.196.124.43.54.236.42.493 1.016.877 1.912l.054.124.016.038c.149.348.287.67.425.924.145.265.355.583.71.802a2 2 0 001.398.27c.41-.073.723-.29.956-.482.222-.184.47-.432.737-.7l.03-.03c.426-.425.702-.7.929-.891.217-.184.32-.228.376-.245a1 1 0 01.577 0c.056.017.159.061.376.245.227.191.503.466.93.892l1.35 1.35c.046-.718.054-1.61.055-2.773zM17.44 9a1.5 1.5 0 100-3 1.5 1.5 0 000 3z" fill="#E1E3EA"/></svg>