<svg width="25" height="24" fill="none" xmlns="http://www.w3.org/2000/svg"><path fill-rule="evenodd" clip-rule="evenodd" d="M22.265 10.7l-1.3-.8 1.4-.8c1.1-.6 1.1-1.9 0-2.5l-8.1-4.5c-.7-.4-1.6-.4-2.3 0l-8.1 4.6c-1.1.6-1.1 1.9 0 2.5l1.3.7-1.3.8c-1.1.6-1.1 1.9 0 2.5l1.3.7-1.4.8c-1.1.6-1.1 1.9 0 2.5l8.1 4.5c.7.4 1.6.4 2.3 0l8.1-4.5c1.1-.6 1.1-1.9 0-2.5l-1.3-.8 1.4-.8c1-.5 1-1.9-.1-2.4zm-9 9.2h-.4l-7.1-4 1.5-.9 4.6 2.6c.7.4 1.6.4 2.3 0l4.6-2.6 1.5.9-7 4zm5.6-7.1l-2.1 1.1-3.5 2h-.4l-3.5-2-2.1-1.1-1.5-.9 1.5-.9 4.6 2.6c.7.4 1.6.4 2.3 0l4.6-2.6 1.5.9-1.4.9zm-5.6-.9h-.4l-7.1-4 7.1-4h.4l7.1 4-7.1 4z" fill="#E1E3EA"/></svg>