<svg width="24" height="24" fill="none" xmlns="http://www.w3.org/2000/svg"><path fill-rule="evenodd" clip-rule="evenodd" d="M11 5a1 1 0 102 0V3a1 1 0 10-2 0v2zM9.013 16.164a1 1 0 001.973-.329l-.5-3a1 1 0 10-1.973.329l.5 3zm4.823.822a1 1 0 001.15-.822l.5-3a1 1 0 00-1.972-.329l-.5 3a1 1 0 00.822 1.15zM2 10c.653 0 1.07.001 1.387.033.297.03.408.078.47.117a1 1 0 01.216.18c.05.054.117.155.2.442.087.306.163.716.28 1.358l.876 4.822c.134.736.25 1.376.41 1.887.172.55.427 1.063.908 1.464.481.402 1.031.56 1.603.631.53.066 1.182.066 1.93.066h3.44c.748 0 1.4 0 1.93-.066.572-.07 1.122-.23 1.603-.63.481-.402.736-.915.908-1.465.16-.51.276-1.151.41-1.887l.876-4.822c.117-.642.193-1.052.28-1.358.083-.287.15-.388.2-.442.063-.07.136-.13.216-.18.062-.039.173-.088.47-.117C20.93 10 21.347 10 22 10V8H2v2zm4.127 0h11.747a4.85 4.85 0 00-.07.222c-.117.412-.21.921-.316 1.505l-.875 4.81c-.147.81-.243 1.327-.361 1.705-.11.351-.205.463-.28.526-.076.063-.203.136-.568.181-.393.05-.919.051-1.742.051h-3.324c-.823 0-1.349-.002-1.742-.05-.365-.046-.492-.12-.568-.182-.075-.063-.17-.175-.28-.526-.118-.378-.214-.895-.361-1.705l-.875-4.81c-.106-.584-.198-1.093-.317-1.505A4.876 4.876 0 006.127 10z" fill="#E1E3EA"/></svg>