<svg width="17" height="22" fill="none" xmlns="http://www.w3.org/2000/svg"><path fill-rule="evenodd" clip-rule="evenodd" d="M16.068 5.348a2.84 2.84 0 00-1.285-2.25 3.027 3.027 0 00-1.422-.458c-.398-.04-.886-.044-1.427-.045A2.99 2.99 0 009.118.594h-2a2.99 2.99 0 00-2.816 2c-.541.002-1.03.006-1.427.046a2.84 2.84 0 00-2.25 1.286 3.042 3.042 0 00-.457 1.422C.12 5.813.12 6.381.12 7.041v9.614c-.019.755.008 1.51.082 2.261A2.97 2.97 0 001 20.71a2.97 2.97 0 001.793.797c.751.074 1.506.101 2.261.082h6.13c.755.019 1.51-.009 2.261-.082a2.73 2.73 0 002.59-2.59c.073-.751.1-1.506.082-2.26v-9.62c0-.658 0-1.226-.048-1.69zm-8.95-2.755h2a1 1 0 010 2h-2a1 1 0 010-2zm6.998 13.996c.02.688-.002 1.376-.064 2.061-.058.434-.152.57-.229.646-.076.076-.212.17-.645.228a17.49 17.49 0 01-2.06.064h-6a17.542 17.542 0 01-2.06-.064c-.434-.058-.57-.152-.646-.228-.076-.076-.17-.212-.228-.646a17.565 17.565 0 01-.064-2.06V7.091c0-.723 0-1.19.037-1.542.001-.179.046-.355.131-.513a1 1 0 01.276-.276c.158-.085.334-.13.513-.131.296-.03.684-.036 1.226-.037a2.99 2.99 0 002.815 2h2a2.99 2.99 0 002.815-2c.542.001.93.007 1.225.037.18.001.356.046.514.131.11.073.203.167.276.276.085.158.13.334.131.513.036.352.037.819.037 1.542v9.497zm-2.999-6.998H5.12a1 1 0 100 2h5.998a1 1 0 000-2zm-5.998 4h3.999a1 1 0 110 1.998h-4a1 1 0 110-1.999z" fill="#FFDE3F"/></svg>