<svg width="25" height="24" fill="none" xmlns="http://www.w3.org/2000/svg"><path fill-rule="evenodd" clip-rule="evenodd" d="M12.672 5a6 6 0 00-6 6c0 2.146 1.092 3.916 2.455 5.29 1.323 1.335 2.821 2.213 3.545 2.594.723-.38 2.222-1.26 3.545-2.593 1.363-1.375 2.455-3.145 2.455-5.291a6 6 0 00-6-6zm-8 6a8 8 0 0116 0c0 2.87-1.468 5.118-3.035 6.699-1.568 1.581-3.32 2.585-4.107 2.993a1.86 1.86 0 01-1.717 0c-.786-.408-2.538-1.412-4.106-2.993S4.672 13.87 4.672 11zm8-2a2 2 0 100 4 2 2 0 000-4zm-4 2a4 4 0 118 0 4 4 0 01-8 0z" fill="#5A5D65"/></svg>