<svg xmlns="http://www.w3.org/2000/svg" width="17" height="19" fill="currentColor"><path fill-rule="evenodd" d="M5.672 0h-.066c-.886 0-1.65 0-2.262.082C2.69.17 2.06.37 1.551.88c-.51.51-.709 1.138-.797 1.793-.082.612-.082 1.376-.082 2.262v9.131c0 .886 0 1.65.082 2.262.088.655.287 1.284.797 1.793.51.51 1.138.709 1.793.797C3.956 19 4.72 19 5.606 19h6.132c.886 0 1.65 0 2.262-.082.655-.088 1.284-.287 1.793-.797.51-.51.709-1.138.797-1.793.082-.612.082-1.376.082-2.262V4.934c0-.886 0-1.65-.082-2.262-.088-.655-.287-1.284-.797-1.793C15.283.369 14.655.17 14 .082 13.388 0 12.624 0 11.738 0H5.672zM2.965 2.293c.076-.076.212-.17.646-.229C4.073 2.002 4.7 2 5.67 2h6c.972 0 1.6.002 2.062.064.434.059.57.153.646.229.076.076.17.212.229.646.062.462.064 1.09.064 2.061v9c0 .971-.002 1.599-.064 2.061-.059.434-.153.57-.229.646-.076.076-.212.17-.646.229-.462.062-1.09.064-2.061.064h-6c-.971 0-1.599-.002-2.061-.064-.434-.059-.57-.153-.646-.229-.076-.076-.17-.212-.229-.646-.062-.462-.064-1.09-.064-2.061V5c0-.971.002-1.599.064-2.061.058-.434.153-.57.229-.646zM5.672 5a1 1 0 100 2h6a1 1 0 100-2h-6zm-1 5a1 1 0 011-1h6a1 1 0 110 2h-6a1 1 0 01-1-1zm1 3a1 1 0 100 2h4a1 1 0 100-2h-4z" clip-rule="evenodd"/></svg>