<svg xmlns="http://www.w3.org/2000/svg" width="24" height="24" viewBox="0 0 18 18"><defs><style>.a{fill:#ffde3f;fill-rule:evenodd}</style></defs><path class="a" d="M9 0a9 9 0 000 18h5.12c.398 0 .742 0 1.028-.018a3.073 3.073 0 00.9-.171 3 3 0 001.763-1.763 3.073 3.073 0 00.171-.9c.018-.286.018-.63.018-1.028V9a9 9 0 00-9-9zm7 14.09c0 .437 0 .718-.014.934a1.163 1.163 0 01-.05.325 1 1 0 01-.587.588 1.163 1.163 0 01-.325.05c-.216.013-.497.013-.933.013H9a7 7 0 117-7z"/><path class="a" d="M12 7H6a1 1 0 000 2h6a1 1 0 000-2zm0 4H9a1 1 0 000 2h3a1 1 0 000-2z"/></svg>