<svg width="21" height="18" fill="none" xmlns="http://www.w3.org/2000/svg"><path fill-rule="evenodd" clip-rule="evenodd" d="M5.308 0h-.053c-.722 0-1.344 0-1.85.056-.537.06-1.063.192-1.53.542a3 3 0 00-.605.604c-.35.468-.483.994-.542 1.531-.056.506-.056 1.128-.056 1.85v.069c0 .06 0 .17.011.274a1.198 1.198 0 00.47.835c.228.17.46.213.593.228C1.85 6 1.961 6 2.02 6h.652v7.066c0 .886 0 1.65.082 2.262.088.655.287 1.284.797 1.793.51.51 1.138.709 1.793.797C5.956 18 6.72 18 7.606 18h6.132c.886 0 1.65 0 2.262-.082.655-.088 1.284-.287 1.793-.797.51-.51.709-1.138.797-1.793.082-.612.082-1.376.082-2.262V6h.651c.06 0 .171 0 .275-.011a1.198 1.198 0 00.835-.47c.17-.228.213-.46.228-.593.011-.104.011-.215.01-.274v-.069c.001-.722.001-1.344-.055-1.85-.06-.537-.192-1.063-.543-1.53a2.999 2.999 0 00-.603-.605c-.468-.35-.994-.483-1.531-.542C17.433 0 16.81 0 16.089 0H5.309zm-.636 13V6h12v7c0 .971-.002 1.599-.064 2.061-.059.434-.153.57-.229.646-.076.076-.212.17-.646.229-.462.062-1.09.064-2.061.064h-6c-.971 0-1.599-.002-2.061-.064-.434-.059-.57-.153-.646-.229-.076-.076-.17-.212-.229-.646-.062-.462-.064-1.09-.064-2.061zm-1.6-10.8c.066-.05.19-.116.553-.156C4.008 2 4.518 2 5.308 2h10.728c.79 0 1.3.001 1.683.044.363.04.487.107.552.155.076.058.144.125.201.202.05.065.116.19.156.552.03.269.04.6.043 1.047H2.673c.003-.447.013-.778.043-1.047.04-.363.107-.487.155-.552a1 1 0 01.202-.202zm5.6 9.8a1 1 0 100 2h4a1 1 0 100-2h-4z" fill="#FFDE3F"/></svg>