<svg width="25" height="24" fill="none" xmlns="http://www.w3.org/2000/svg"><path fill-rule="evenodd" clip-rule="evenodd" d="M4.895 13.458c-.273-.491-.443-.8-.552-1.048-.1-.229-.114-.336-.114-.41 0-.074.014-.181.114-.41.109-.248.279-.557.552-1.049L6.237 8.13l1.418-2.368c.289-.482.47-.784.631-1.002.149-.201.234-.267.298-.304.064-.037.164-.078.413-.106.269-.03.621-.037 1.184-.046l2.759-.044 2.76.044c.562.009.914.016 1.183.046.248.028.349.069.413.106.064.037.15.103.297.304.161.218.343.52.632 1.002l1.418 2.368 1.341 2.411c.274.492.444.8.553 1.049.1.229.114.336.114.41 0 .074-.014.181-.114.41-.109.248-.28.557-.553 1.048l-1.341 2.412-1.418 2.367c-.289.483-.47.785-.632 1.003-.148.201-.233.267-.297.304-.064.037-.165.078-.413.106-.27.03-.621.037-1.184.046l-2.76.044-2.758-.044c-.563-.01-.915-.016-1.184-.046-.249-.028-.349-.069-.413-.106-.064-.037-.15-.103-.298-.304-.16-.218-.342-.52-.631-1.003L6.237 15.87l-1.342-2.412zM2.23 12c0 .445.117.835.281 1.21.152.348.37.74.617 1.183l1.378 2.477 1.434 2.395.022.036c.26.436.491.821.716 1.126.243.33.522.627.907.85.386.222.782.315 1.19.36.376.043.825.05 1.332.058l2.834.045 2.834-.045c.507-.008.956-.015 1.332-.058.408-.045.804-.138 1.19-.36.385-.223.664-.52.907-.85.225-.305.456-.69.716-1.126l1.456-2.431 1.378-2.477c.247-.443.465-.835.616-1.182.165-.376.282-.766.282-1.211 0-.445-.117-.835-.282-1.21-.151-.348-.37-.74-.616-1.184L21.375 7.13 19.92 4.698a14.65 14.65 0 00-.716-1.125c-.243-.33-.522-.627-.907-.85-.386-.222-.782-.315-1.19-.36-.376-.043-.825-.05-1.333-.058L12.94 2.26l-2.834.045c-.507.008-.956.015-1.332.057-.408.046-.804.14-1.19.362-.385.222-.664.519-.907.85-.225.304-.456.69-.716 1.124L4.505 7.13 3.127 9.606c-.247.444-.465.836-.617 1.183-.164.376-.281.766-.281 1.21zm8.71 0a2 2 0 114 0 2 2 0 01-4 0zm2-4a4 4 0 100 8 4 4 0 000-8z" fill="#E1E3EA"/></svg>