<svg xmlns="http://www.w3.org/2000/svg" width="18" height="14"><path d="M17.918 2.672A2.972 2.972 0 0017.12.88a2.971 2.971 0 00-1.793-.797A18.379 18.379 0 0013.066 0H4.934a18.378 18.378 0 00-2.262.082A2.971 2.971 0 00.88.88a2.972 2.972 0 00-.797 1.793A18.391 18.391 0 000 4.934v4.132a18.392 18.392 0 00.082 2.262A2.971 2.971 0 00.88 13.12a2.972 2.972 0 001.793.797A18.39 18.39 0 004.934 14h8.132a18.392 18.392 0 002.262-.082 2.732 2.732 0 002.59-2.59A18.381 18.381 0 0018 9.066V4.934a18.38 18.38 0 00-.082-2.262zM2.064 2.94c.059-.434.153-.57.229-.646s.212-.17.646-.229A17.57 17.57 0 015 2h8a17.568 17.568 0 012.061.064c.434.059.57.153.646.229s.17.212.229.646c.018.136.031.286.04.455L9.447 6.658a1 1 0 01-.894 0l-6.53-3.264c.01-.17.023-.32.041-.455zM16 9a17.574 17.574 0 01-.064 2.061c-.059.434-.153.57-.229.646-.076.076-.212.17-.646.229A17.58 17.58 0 0113 12H5a17.58 17.58 0 01-2.061-.064c-.434-.059-.57-.153-.646-.229-.076-.076-.17-.212-.229-.646A17.57 17.57 0 012 9.001V5.617l5.658 2.83a3 3 0 002.684 0L16 5.617z" fill="#b4baca" fill-rule="evenodd"/></svg>