<svg width="25" height="25" fill="none" xmlns="http://www.w3.org/2000/svg"><path d="M17.225 13.264c-.27-.54-.63-.9-1.08-1.26-.45-.36-.9-.63-1.53-.81-.45-.27-.9-.45-1.44-.63v-4.32c.72 0 1.08.18 1.35.54.36.36.54.9.54 1.62h2.25c0-.63-.09-1.26-.36-1.71-.27-.54-.54-.9-.9-1.26s-.9-.63-1.44-.72c-.54-.18-.9-.27-1.53-.27v-1.35h-1.17v1.35c-.54 0-.99.09-1.53.27-.54.18-.99.45-1.44.72-.36.36-.72.81-.99 1.26-.18.54-.36 1.08-.36 1.71 0 .72.09 1.35.36 1.89.27.54.63.9 1.08 1.26.45.36.9.63 1.44.81.54.18.9.36 1.44.54v4.95c-.9 0-1.44-.27-1.8-.81-.36-.54-.63-1.26-.54-2.16h-2.25c0 .72.09 1.44.36 1.98.18.63.54 1.17.99 1.53.45.36.9.72 1.53.9.63.18 1.08.36 1.8.36v1.44h1.17v-1.35c.63 0 1.08-.18 1.71-.36.54-.18 1.08-.45 1.44-.9.45-.36.72-.81.99-1.44.27-.54.36-1.26.36-1.98s-.18-1.35-.45-1.8zm-5.31-2.88c-.27-.09-.36-.18-.63-.27a1.96 1.96 0 01-.72-.45c-.18-.09-.36-.36-.45-.54a1.52 1.52 0 01-.27-.9c0-.72.18-1.26.54-1.53.36-.27.81-.45 1.44-.45v4.14h.09zm2.79 6.84c-.45.36-.9.63-1.62.63v-4.77c.27.09.45.18.72.27.27.09.54.27.81.45s.45.36.54.63c.18.27.27.63.27.99 0 .81-.27 1.44-.72 1.8z" fill="#628EFF"/></svg>