<svg width="322" height="11" fill="none" xmlns="http://www.w3.org/2000/svg"><path d="M0 2.185C0 1.181.895.367 2 .367h3c1.105 0 2 .814 2 1.818V8.55c0 1.004-.895 1.818-2 1.818H2c-1.105 0-2-.814-2-1.818V2.185zm9 0c0-1.004.895-1.818 2-1.818h3c1.105 0 2 .814 2 1.818V8.55c0 1.004-.895 1.818-2 1.818h-3c-1.105 0-2-.814-2-1.818V2.185zm9 0c0-1.004.895-1.818 2-1.818h3c1.105 0 2 .814 2 1.818V8.55c0 1.004-.895 1.818-2 1.818h-3c-1.105 0-2-.814-2-1.818V2.185zm9 0c0-1.004.895-1.818 2-1.818h3c1.105 0 2 .814 2 1.818V8.55c0 1.004-.895 1.818-2 1.818h-3c-1.105 0-2-.814-2-1.818V2.185zm9 0c0-1.004.895-1.818 2-1.818h3c1.105 0 2 .814 2 1.818V8.55c0 1.004-.895 1.818-2 1.818h-3c-1.105 0-2-.814-2-1.818V2.185zm9 0c0-1.004.895-1.818 2-1.818h3c1.105 0 2 .814 2 1.818V8.55c0 1.004-.895 1.818-2 1.818h-3c-1.105 0-2-.814-2-1.818V2.185zm9 0c0-1.004.895-1.818 2-1.818h3c1.105 0 2 .814 2 1.818V8.55c0 1.004-.895 1.818-2 1.818h-3c-1.105 0-2-.814-2-1.818V2.185zm9 0c0-1.004.895-1.818 2-1.818h3c1.105 0 2 .814 2 1.818V8.55c0 1.004-.895 1.818-2 1.818h-3c-1.105 0-2-.814-2-1.818V2.185zm9 0c0-1.004.895-1.818 2-1.818h3c1.105 0 2 .814 2 1.818V8.55c0 1.004-.895 1.818-2 1.818h-3c-1.105 0-2-.814-2-1.818V2.185zm9 0c0-1.004.895-1.818 2-1.818h3c1.105 0 2 .814 2 1.818V8.55c0 1.004-.895 1.818-2 1.818h-3c-1.105 0-2-.814-2-1.818V2.185zm9 0c0-1.004.895-1.818 2-1.818h3c1.105 0 2 .814 2 1.818V8.55c0 1.004-.895 1.818-2 1.818h-3c-1.105 0-2-.814-2-1.818V2.185zm9 0c0-1.004.895-1.818 2-1.818h3c1.105 0 2 .814 2 1.818V8.55c0 1.004-.895 1.818-2 1.818h-3c-1.105 0-2-.814-2-1.818V2.185zm9 0c0-1.004.895-1.818 2-1.818h3c1.105 0 2 .814 2 1.818V8.55c0 1.004-.895 1.818-2 1.818h-3c-1.105 0-2-.814-2-1.818V2.185zm9 0c0-1.004.895-1.818 2-1.818h3c1.105 0 2 .814 2 1.818V8.55c0 1.004-.895 1.818-2 1.818h-3c-1.105 0-2-.814-2-1.818V2.185zm9 0c0-1.004.895-1.818 2-1.818h3c1.105 0 2 .814 2 1.818V8.55c0 1.004-.895 1.818-2 1.818h-3c-1.105 0-2-.814-2-1.818V2.185zm9 0c0-1.004.895-1.818 2-1.818h3c1.105 0 2 .814 2 1.818V8.55c0 1.004-.895 1.818-2 1.818h-3c-1.105 0-2-.814-2-1.818V2.185zm9 0c0-1.004.895-1.818 2-1.818h3c1.105 0 2 .814 2 1.818V8.55c0 1.004-.895 1.818-2 1.818h-3c-1.105 0-2-.814-2-1.818V2.185zm9 0c0-1.004.895-1.818 2-1.818h3c1.105 0 2 .814 2 1.818V8.55c0 1.004-.895 1.818-2 1.818h-3c-1.105 0-2-.814-2-1.818V2.185zm9 0c0-1.004.895-1.818 2-1.818h3c1.105 0 2 .814 2 1.818V8.55c0 1.004-.895 1.818-2 1.818h-3c-1.105 0-2-.814-2-1.818V2.185zm9 0c0-1.004.895-1.818 2-1.818h3c1.105 0 2 .814 2 1.818V8.55c0 1.004-.895 1.818-2 1.818h-3c-1.105 0-2-.814-2-1.818V2.185zm9 0c0-1.004.895-1.818 2-1.818h3c1.105 0 2 .814 2 1.818V8.55c0 1.004-.895 1.818-2 1.818h-3c-1.105 0-2-.814-2-1.818V2.185zm9 0c0-1.004.895-1.818 2-1.818h3c1.105 0 2 .814 2 1.818V8.55c0 1.004-.895 1.818-2 1.818h-3c-1.105 0-2-.814-2-1.818V2.185zm9 0c0-1.004.895-1.818 2-1.818h3c1.105 0 2 .814 2 1.818V8.55c0 1.004-.895 1.818-2 1.818h-3c-1.105 0-2-.814-2-1.818V2.185zm9 0c0-1.004.895-1.818 2-1.818h3c1.105 0 2 .814 2 1.818V8.55c0 1.004-.895 1.818-2 1.818h-3c-1.105 0-2-.814-2-1.818V2.185zm9 0c0-1.004.895-1.818 2-1.818h3c1.105 0 2 .814 2 1.818V8.55c0 1.004-.895 1.818-2 1.818h-3c-1.105 0-2-.814-2-1.818V2.185zm9 0c0-1.004.895-1.818 2-1.818h3c1.105 0 2 .814 2 1.818V8.55c0 1.004-.895 1.818-2 1.818h-3c-1.105 0-2-.814-2-1.818V2.185zm9 0c0-1.004.895-1.818 2-1.818h3c1.105 0 2 .814 2 1.818V8.55c0 1.004-.895 1.818-2 1.818h-3c-1.105 0-2-.814-2-1.818V2.185zm9 0c0-1.004.895-1.818 2-1.818h3c1.105 0 2 .814 2 1.818V8.55c0 1.004-.895 1.818-2 1.818h-3c-1.105 0-2-.814-2-1.818V2.185zm9 0c0-1.004.895-1.818 2-1.818h3c1.105 0 2 .814 2 1.818V8.55c0 1.004-.895 1.818-2 1.818h-3c-1.105 0-2-.814-2-1.818V2.185zm9 0c0-1.004.895-1.818 2-1.818h3c1.105 0 2 .814 2 1.818V8.55c0 1.004-.895 1.818-2 1.818h-3c-1.105 0-2-.814-2-1.818V2.185zm9 0c0-1.004.895-1.818 2-1.818h3c1.105 0 2 .814 2 1.818V8.55c0 1.004-.895 1.818-2 1.818h-3c-1.105 0-2-.814-2-1.818V2.185zm9 0c0-1.004.895-1.818 2-1.818h3c1.105 0 2 .814 2 1.818V8.55c0 1.004-.895 1.818-2 1.818h-3c-1.105 0-2-.814-2-1.818V2.185zm9 0c0-1.004.895-1.818 2-1.818h3c1.105 0 2 .814 2 1.818V8.55c0 1.004-.895 1.818-2 1.818h-3c-1.105 0-2-.814-2-1.818V2.185zm9 0c0-1.004.895-1.818 2-1.818h3c1.105 0 2 .814 2 1.818V8.55c0 1.004-.895 1.818-2 1.818h-3c-1.105 0-2-.814-2-1.818V2.185zm9 0c0-1.004.895-1.818 2-1.818h3c1.105 0 2 .814 2 1.818V8.55c0 1.004-.895 1.818-2 1.818h-3c-1.105 0-2-.814-2-1.818V2.185zm9 0c0-1.004.895-1.818 2-1.818h3c1.105 0 2 .814 2 1.818V8.55c0 1.004-.895 1.818-2 1.818h-3c-1.105 0-2-.814-2-1.818V2.185z" fill="#68CE67"/></svg>