<svg width="24" height="24" fill="none" xmlns="http://www.w3.org/2000/svg"><path fill-rule="evenodd" clip-rule="evenodd" d="M6.248 5.037a4.471 4.471 0 00-.354 5.781l1.182 1.576a22 22 0 004.4 4.4l1.575 1.181a4.471 4.471 0 005.781-.353l-2.585-2.585-1.02 1.02a1.533 1.533 0 01-1.77.288 13.264 13.264 0 01-5.932-5.932 1.533 1.533 0 01.287-1.77l1.021-1.02-2.585-2.586zM4.895 3.56a1.912 1.912 0 012.704 0l2.648 2.648a2 2 0 010 2.829l-.78.779a11.263 11.263 0 004.586 4.586l.78-.78a2 2 0 012.829 0l2.648 2.648a1.912 1.912 0 010 2.704 6.471 6.471 0 01-8.459.601l-1.575-1.181a23.999 23.999 0 01-4.8-4.8l-1.182-1.576a6.471 6.471 0 01.601-8.458z" fill="#B4BACA"/></svg>