<svg version="1.1" id="Шар_1" xmlns="http://www.w3.org/2000/svg" x="0" y="0" viewBox="0 0 24 25" xml:space="preserve"><style>.st0{fill:#b4baca}</style><path class="st0" d="M9.3 10.6H5v-2h5v-5h2v4.3c0 .9 0 1.6-.5 2.1-.6.6-1.2.6-2.2.6zm9.7 12H5c-1.7 0-3-1.3-3-3v-4c0-1.7 1.3-3 3-3h14c1.7 0 3 1.3 3 3v4c0 1.6-1.3 3-3 3zm-14-8c-.6 0-1 .4-1 1v4c0 .6.4 1 1 1h14c.6 0 1-.4 1-1v-4c0-.6-.4-1-1-1H5z"/><path class="st0" d="M19 14.6H5c-.6 0-1-.4-1-1v-6c0-.3.1-.5.3-.7l4-4c.2-.2.4-.3.7-.3h8c1.7 0 3 1.3 3 3v8c0 .5-.4 1-1 1zm-13-2h12v-7c0-.6-.4-1-1-1H9.4L6 8v4.6z"/><circle class="st0" cx="17" cy="17.6" r="1"/></svg>