<svg width="25" height="27" fill="none" xmlns="http://www.w3.org/2000/svg"><path fill-rule="evenodd" clip-rule="evenodd" d="M19.158 3.423c3.37.914 5.343 3.514 5.776 7.51.385 3.513-.914 8.038-4.091 9.53-2.792 1.348-7.028 2.31-9.772.77-.337 1.492-1.203 2.744-2.551 3.755l-.048.048-.124.09c-.565.416-1.58 1.161-2.427 1.161-.29 0-.578-.096-.77-.337-.819-.866.529-2.743.673-2.936.53-.722 1.252-1.348 2.263-1.925-1.155-.145-2.263-.482-3.08-1.06-.53-.384-.867-.866-.915-1.347 0-.337.096-.674.385-.963.77-.818 2.455-.674 3.37-.433 1.25.337 2.261 1.252 3.032 2.696 3.85.385 6.113-.819 6.739-3.61.337-1.445.289-3.996-.77-5.151-.79-.837-2.163-1-3.34-1.14l-.126-.015c-.072 0-.145-.012-.217-.024a1.319 1.319 0 00-.216-.024c-.097 0-.193-.013-.29-.025a2.339 2.339 0 00-.288-.024l-.28-.036c-1.74-.226-3.503-.456-4.919-1.552a6.1 6.1 0 01-2.31-3.9c-.048.049-.145.049-.193.049l-.059.008c-1.012.145-2.554.366-3.262-.2-.193-.145-.337-.386-.337-.626-.048-.674.577-1.011 1.059-1.204l.096-.048c0-.048.048-.048.048-.048H.434c-.29 0-.434-.24-.434-.481s.144-.434.433-.482h.385c1.252-.048 2.503-.048 2.792.434.145.192.096.433-.048.673-.144.29-.433.434-.626.53a.242.242 0 01-.096.048c-.036.012-.072.024-.096.048a4.03 4.03 0 01-.139.065c-.198.09-.449.206-.487.32-.048.048 0 .097.048.145.08.08.363.06.874.023l.33-.023c.096-.048.192-.048.24-.048l.385-.049c-.337-.433-.192-.962.337-1.395.337-.29.819-.482 1.204-.626l.096-.048a.365.365 0 01.192-.097c.193-.048.626-.192.674-.337v-.048c0-.048-.288-.144-1.396-.048H4.91c-.578 0-1.06 0-1.589-.048-.144 0-.288-.096-.385-.24-.048-.193-.048-.386.048-.53A.547.547 0 013.37.053c.122.03.283.023.482.013.115-.006.244-.013.385-.013 1.348-.096 3.321-.192 3.418.963.048.626-.626.915-1.06 1.06l-.336.144c-.434.192-.867.385-1.252.673-.144.145-.192.241-.192.29.048.095.433.24.818.288h.048c4.765-.674 9.435-1.155 13.478-.048zm4.14 12.948c-1.444.819-3.081 1.156-5.006 1.011a7.24 7.24 0 01-.434.867 3.692 3.692 0 002.31 1.348.17.17 0 01.073.023.17.17 0 00.072.025l.29-.145c1.154-.577 2.069-1.636 2.695-3.129zm.481-6.883c-.818-3.37-3.273-5.247-7.317-5.584.578 1.878.145 4.284-.625 5.825.914.289 1.54.77 1.973 1.396 1.06-.722 1.926-1.781 2.6-3.225.144-.241.337-.29.577-.193.24.096.385.337.24.626-.721 1.588-1.78 2.84-2.984 3.61a.68.68 0 01.049.144.666.666 0 00.048.145c.192.626.288 1.251.337 1.877 2.214-.481 4.476-2.551 5.102-4.621zm.24 1.588c-1.155 1.974-3.32 3.61-5.342 3.948 0 .48-.049 1.01-.145 1.444 2.022.144 3.707-.337 5.199-1.444.289-1.252.385-2.648.289-3.947zm-9.56-1.722c.158.032.31.064.463.086.818-1.444 1.252-3.947.53-5.584-2.937-.144-6.114 0-9.724.481.53 3.9 4.38 4.429 7.798 4.862l.337.048c.21.027.407.067.597.107zm-1.125 11.59c1.636.241 3.658-.048 5.631-.722a3.92 3.92 0 01-1.636-1.155l-.289.289c-.915.914-2.118 1.444-3.706 1.588zM6.21 18.056c-.434 0-.674.048-.77.145-.049.096-.049.288.144.673.236.662.426.72 1.025.905l.034.01.192.048c.819.24 1.974.53 3.081.337-.867-1.444-2.118-2.214-3.562-2.118H6.21zm2.503 5.488a5.27 5.27 0 001.396-2.455 106.3 106.3 0 01-.23.107c-.654.302-1.334.617-1.937 1.048l-.023.018c-.432.336-1.043.811-1.469 1.426-.53.818-.626 1.155-.577 1.203.048.145.144.241.288.241.722.096 2.263-1.3 2.552-1.588zM9.049 4.82c0-.096.049-.193.097-.289.192-.192.53-.192.674-.048a.516.516 0 01.096.289c0 .24-.144.481-.433.481-.29 0-.434-.192-.434-.433z" fill="#878C98"/></svg>