<svg width="23" height="25" fill="none" xmlns="http://www.w3.org/2000/svg"><path fill-rule="evenodd" clip-rule="evenodd" d="M16.904 2.285c1.634.769 3.321 1.561 4.718 2.643 1.38 1 1.38 1.722 1.378 3.193v.792a.473.473 0 01-.345.443 1.437 1.437 0 00-1.18 1.377c.049.492.393.886 1.033.984.197 0 .344.246.344.443a69.37 69.37 0 00-.049 5.51c0 .049 0 .147-.05.196-.29 1.355-1.96 1.758-3.373 2.099l-.07.017c-.149.042-.288.075-.423.108-.176.042-.344.082-.511.138-1.432.45-2.93.831-4.385 1.202h-.002l-.877.224-1.771.443-.787.197c-1.083.295-2.165.59-3.247.836-.585.138-1.147.324-1.7.507-.238.079-.474.157-.71.23-.837.296-1.772.591-2.657.788-.197.05-.394.05-.541.05-.345 0-.59-.1-.787-.247-.59-.492-.64-1.476-.64-2.361-.05-.197-.05-.443-.05-.64 0-.196.1-.393.247-.442.541-.246.984-.935.885-1.575 0-.295-.147-.787-.787-.934a.473.473 0 01-.344-.443c0-.402-.04-.764-.085-1.158l-.013-.121c-.148-1.28-.246-2.656.196-3.837.296-.812.674-1.624 1.052-2.435.126-.27.252-.541.375-.812.123-.295.258-.578.394-.86.135-.284.27-.567.393-.862l.344-.787c.64-1.426 1.28-2.804 2.017-4.181.087-.145.157-.307.23-.476.05-.118.103-.24.164-.36.246-.69.59-1.427 1.082-1.82.793-.56 2.736-.324 3.984-.172l.198.024c.08 0 .162.014.235.028.06.01.114.02.158.02 1.87.198 3.493.886 4.87 1.526l.64.295.442.208.004.002zm4.333 9.768a1.38 1.38 0 01-.402-.336c-.59-.689-.59-1.771-.098-2.46.116-.193.263-.295.416-.402.041-.029.083-.058.125-.09a1.03 1.03 0 00.295-.196l.099-.099v.05c.024 0 .061-.013.098-.025a.38.38 0 01.098-.025.693.693 0 00.05-.147.642.642 0 01.049-.148c.098-.344.147-.689.049-1.033-.443.197-.898.406-1.353.615-.455.209-.91.418-1.353.615-1.131.54-2.263 1.082-3.443 1.574-.246 1.082-1.083 2.017-2.116 2.361-1.131.394-2.164.099-3.148-.885-2.657 1.131-5.756 2.164-9.642 3.247l-.008.07c-.046.414-.088.787-.041 1.16v.639c0 .089-.002.18-.004.27-.008.362-.016.724.102.96v.049c.025.025.062.037.098.05a.247.247 0 01.099.048c.098 0 .197.05.246.099.492.295.738.738.787 1.18.05.69-.295 1.476-1.082 2.46l-.099.099c0 .147.05.344.05.344a.443.443 0 01.049.246c.098.689.196 1.23 1.033 1.279.435.048 1.06-.236 1.595-.48l.028-.012c.295-.148.59-.295.836-.344.296-.074.578-.148.861-.222.283-.073.566-.147.861-.221l.59-.148c1.524-.404 3.107-.808 4.836-1.25h.003c1.005-.257 2.06-.527 3.18-.816a50.047 50.047 0 002.903-.836l.147-.05c.148-.048.394-.098.64-.147l.38-.105c1.072-.294 2.632-.721 2.719-1.42 0-.29.012-.59.024-.897.012-.32.025-.646.025-.972.05-.984.099-2.017 0-2.952v-.295c-.05 0-.098-.05-.147-.098-.099-.099-.197-.197-.345-.246a3.913 3.913 0 00-.09-.058zm-7.978-.631c.738-.148 1.624-.837 1.771-1.771-.344-.541-1.033-.787-1.82-.64-.787.197-1.722.787-1.87 1.624.64.688 1.23.934 1.92.787zm3.504-2.952c.732-.328 1.465-.656 2.154-.984.137-.06.276-.123.415-.186.76-.341 1.55-.696 2.34-.945-.534-.68-1.546-1.215-2.376-1.654l-.035-.019a1.68 1.68 0 01-.292-.141 2.369 2.369 0 00-.102-.056l-.639-.344c-1.525-.836-3.148-1.722-4.821-2.312-1.28-.443-2.755-.689-4.477-.689H7.75c-.345 0-.64 0-.886.148-.154.115-.277.38-.394.632-.033.07-.066.14-.098.204l-.147.295c-.83 1.617-1.588 3.268-2.337 4.896l-.418.91-1.033 2.213v.197c-.492 1.033-.935 1.967-1.181 2.951a86.803 86.803 0 006.002-1.967 6.966 6.966 0 011.082-.345l.23-.07c.58-.175 1.206-.364 1.64-.668.024 0 .048-.012.073-.024a.171.171 0 01.074-.025l.05-.05c.067-.067.088-.158.11-.257.011-.044.022-.09.037-.136 0-.147.049-.295.098-.393.394-.836 1.476-1.476 2.657-1.574.983-.099 1.869.246 2.36.885.362-.164.728-.328 1.094-.492zM6.717 3.796c.394-1.18 1.82-1.525 3.05-1.475.443.049 1.476.196 1.968.836.197.295.246.59.148.935-.099.54-.689.836-1.132 1.033l-.098.049c-.492.246-1.23.59-2.017.64h-.197c-.59 0-1.18-.247-1.525-.69-.197-.245-.393-.688-.197-1.327zm2.165.984c.541-.147 1.23-.344 1.673-.688.245-.148.344-.345.295-.443-.05-.197-.541-.344-1.132-.443h-.246c-.64 0-1.131.099-1.476.345-.246.196-.393.442-.393.688a.54.54 0 00.295.492c.252.168.54.121.833.073l.15-.024zM6.52 7.93c-.886-.05-1.919.245-2.214 1.082-.098.393-.05.738.148 1.033.246.295.688.492 1.131.492h.148c.506-.046 1.012-.265 1.357-.413l.07-.03h.048c.345-.148.788-.394.886-.836.05-.296 0-.541-.148-.738-.344-.492-1.082-.59-1.426-.59zm.59 1.082s0 .049-.098.147c-.197.197-.59.345-1.083.443-.196.05-.393.098-.54 0-.1-.05-.1-.098-.1-.197 0-.098.1-.246.198-.295.246-.197.59-.197.885-.197h.197c.492-.049.541.099.541.099zm6.986-3.345c.345-1.033 1.525-1.328 2.558-1.28l.026.004c.405.05 1.262.157 1.647.735.147.196.197.492.147.787-.196.934-1.918 1.426-2.705 1.476h-.148a1.773 1.773 0 01-1.328-.59c-.295-.296-.344-.69-.197-1.132zm3.149.197c.147-.148.196-.246.196-.296-.049-.098-.295-.196-.787-.246-.393 0-.984 0-1.377.296a.526.526 0 00-.295.442c0 .099.049.197.197.295.196.148.491.099.737.05.443-.099.984-.246 1.329-.541zm-.493 8.362c-1.23.098-2.509.984-2.509 2.263-.049 1.328 1.23 2.263 2.41 2.312h.149c1.033 0 1.967-.836 2.115-1.968.098-.64-.099-1.23-.541-1.918-.443-.542-1.083-.64-1.624-.69zm.935 3.197c-.148.246-.492.492-1.082.443-.738-.098-1.476-.64-1.427-1.377.05-.787.935-1.28 1.574-1.329.492.05.837.296 1.033.69a1.629 1.629 0 01-.098 1.574zm-10.726-2.95h.099c.984-.05 1.77.59 1.918 1.476.148.885-.492 2.164-1.476 2.46-.147.049-.245.049-.393.049-.246 0-.541-.099-.787-.246-.541-.296-.984-.837-1.132-1.427-.147-.443-.049-.836.148-1.23.344-.492.935-.885 1.623-1.082zm.05 3.05c.196 0 .344-.05.491-.148.345-.295.738-.885.542-1.476-.099-.344-.542-.491-.837-.491h-.049c-.344.098-.836.344-.984.737-.098.197-.049.394.05.64.098.295.442.64.787.738z" fill="#878C98"/></svg>