<svg width="27" height="21" fill="none" xmlns="http://www.w3.org/2000/svg"><path fill-rule="evenodd" clip-rule="evenodd" d="M26.905 4.958l-.046-.365c0-.046 0-.092-.045-.183-.274-1.782-1.782-3.016-3.153-3.564-2.787-1.142-6.031-.914-8.59-.548-3.335.457-5.94 1.05-8.179 1.965C2.872 3.862-.738 7.7.13 11.949v.091c.137 3.016.731 6.306 3.793 7.585a9.778 9.778 0 003.929.823c1.828 0 3.747-.503 5.894-1.463 1.828-.822 3.335-1.782 4.34-2.832.589-.588 1.076-1.244 1.549-1.88l.234-.314c.594-.822 1.233-1.69 1.964-2.375.777-.732 1.554-1.097 2.468-1.508.137-.069.285-.137.434-.206.148-.068.297-.137.434-.206.365-.182.685-.365 1.005-.685 1.005-1.142.868-2.741.731-4.02zm-1.28 1.097c-.534 1.069-1.763 1.66-2.968 2.24l-.093.044c-.73.32-1.462.686-2.01 1.097-1.097.822-2.01 1.873-2.924 2.924-.64.731-1.325 1.508-2.056 2.193-2.742 2.513-6.397 3.701-9.321 3.016-2.148-.548-3.793-2.056-4.66-4.34v-.092c-1.143-2.33-.549-5.209 1.553-7.402C5.065 3.77 7.852 2.857 10.09 2.308c3.472-.868 6.26-1.28 8.772-1.233 1.234 0 2.879.091 4.295.64 1.188.456 2.56 1.553 2.742 2.923a2.55 2.55 0 01-.274 1.417zM4.746 18.163c2.01.822 4.478.822 6.716.046 2.742-.96 4.707-2.97 6.58-4.89 1.6-1.644 3.244-3.335 5.392-4.386.868-.41 1.736-.913 2.375-1.553-.182.64-.593 1.096-1.279 1.462-.137.069-.285.137-.434.206-.148.068-.297.137-.434.205-.868.411-1.736.823-2.513 1.6-.914.867-1.69 1.918-2.422 2.924l-.137.182a13.254 13.254 0 01-3.838 3.427c-1.827 1.097-5.391 2.787-8.818 1.92-2.148-.55-3.381-1.463-4.112-3.108a8.153 8.153 0 00-.067-.159c-.081-.192-.172-.405-.207-.618.868 1.326 1.873 2.194 3.198 2.742zM22.427 2.537c-1.233-.66-3.017-.6-4.372-.554l-.151.005h-.046c-2.193.092-4.295.549-6.077 1.005-3.93.96-10.417 2.56-9.823 8.499v.137c.685 3.564 3.564 4.752 6.396 4.752.64 0 1.325-.046 1.965-.183 2.193-.411 3.884-1.919 5.117-3.198l.137-.137.017-.018c1.776-1.82 3.463-3.55 5.558-4.963a3.78 3.78 0 01.4-.252c.062-.035.126-.072.194-.113l.14-.09c.973-.615 2.053-1.299 2.053-2.606 0-.914-.777-1.919-1.508-2.284zm-1.096 4.02c-.183.092-.32.183-.503.32-.436.269-.848.587-1.254.9a31.73 31.73 0 01-.437.334l-.548.411c-.977.733-1.81 1.612-2.627 2.474l-.297.313c-.411.457-.868.96-1.325 1.417-1.828 1.782-3.655 2.65-5.986 2.741-2.832.091-4.889-1.416-5.391-3.975-.502-5.387 5.427-6.76 9.766-7.765l.012-.002.776-.183.053-.011c1.57-.334 6.55-1.39 8.492-.08.41.274.685.685.73 1.142.183 1.05-.639 1.507-1.461 1.964zM9.314 7.654l.183.046c.457.045.96.137 1.325.548.365.457.457 1.188.137 1.782-.548 1.097-1.828 1.645-2.924 1.645h-.366c-.777-.091-1.462-.503-1.782-1.005a1.567 1.567 0 01-.137-1.28c.457-1.279 2.376-1.827 3.564-1.736zm-1.416 3.061c.64 0 1.325-.228 1.736-.594.274-.228.548-.685.457-.96a.581.581 0 00-.32-.41 1.091 1.091 0 00-.411-.092h-.092c-.64-.091-1.37.092-1.873.411-.548.32-.777.64-.685.96.091.366.594.64 1.188.685zm7.585-6.625a.494.494 0 00-.137.32c0 .228.182.502.502.502s.503-.274.503-.502a.415.415 0 00-.137-.32.476.476 0 00-.731 0zm1.279-.594c1.325-.365 2.741-.594 3.975.183a.649.649 0 01.183.731.48.48 0 01-.411.228c-.092 0-.183-.045-.274-.09-.96-.64-2.057-.412-3.199-.092-.32.045-.548-.137-.594-.366-.091-.228 0-.502.32-.594z" fill="#878C98"/></svg>