<svg width="21" height="25" fill="none" xmlns="http://www.w3.org/2000/svg"><path d="M20.297 14.52c.282-4.573-1.792-6.6-3.583-7.543-1.744-.895-4.384-.424-5.846-.047l-.518.142v-.66c.047-.99.424-2.687 2.734-3.347.142-.047.283-.142.33-.236a.458.458 0 00.047-.424c-.047-.142-.141-.283-.236-.33-.094-.047-.282-.094-.424-.047-1.131.33-1.98.848-2.592 1.602l-.378.472-.282-.519a6.65 6.65 0 00-2.122-2.31C5.777.048 3.75-.282 1.817.236c-.047 0-.047 0-.094.047-.047 0-.047.048-.094.048s-.047.047-.047.047l-.095.094v.377c.095 2.122 1.132 3.96 2.829 5.186l.66.471-.802.236a2.04 2.04 0 00-.565.235C1.817 7.92-.257 9.994.026 14.52c.236 3.818 2.263 8.438 5.751 9.947.802.33 1.556.518 2.263.518.943 0 1.556-.33 1.933-.565l.236-.189.235.189c.613.424 1.933 1.037 4.196.047 3.394-1.509 5.42-6.129 5.657-9.947zM2.619 1.603l-.094-.424.47-.047a5.808 5.808 0 013.82.943c.99.66 1.744 1.65 2.12 2.734l.472 1.226-3.441-2.499c-.094-.047-.189-.047-.236.047-.047.095-.047.189.047.236L9.171 6.27l-1.65-.141a5.58 5.58 0 01-2.545-.943 5.663 5.663 0 01-2.357-3.583zM14.12 23.43c-.754.33-1.367.424-1.838.424-1.085 0-1.556-.613-1.65-.754l-.047-.048c-.095-.188-.236-.282-.472-.282-.188 0-.377.141-.471.33 0 0-.802 1.508-3.489.377-3.064-1.32-4.902-5.657-5.09-9.004-.19-3.206.8-5.374 3.016-6.506 1.933-.99 5.846.283 5.893.33a.403.403 0 00.33 0c.047 0 4.007-1.32 5.892-.33 2.169 1.132 3.206 3.347 3.017 6.506-.188 3.347-2.074 7.684-5.09 8.957z" fill="#878C98"/></svg>