<svg width="24" height="27" fill="none" xmlns="http://www.w3.org/2000/svg"><path d="M23.608 7.59c-.501-.937-1.917-1.266-3.698-.79.969-1.746.996-3.343.139-4.073-.857-.731-2.473-.312-3.962.943.09-1.83-.51-3.144-1.527-3.467-1.403-.376-3.077 1.381-3.838 4.034-.2.748-.307 1.522-.342 2.214-1.282.108-2.418.605-3.382 1.4C3.268 11.11 1.335 20.566.68 24.501c-.057.587.146 1.142.563 1.454.162.144.337.24.57.304a1.6 1.6 0 00.964-.043 62.256 62.256 0 007.267-3.366c.06-.034.106-.021.119-.068 0 0 .013-.047.06-.034 3.875-2.12 6.388-4.203 7.513-6.157.594-1.094.873-2.322.719-3.616a7.718 7.718 0 002.068-.8c2.394-1.263 3.79-3.294 3.084-4.586zM10.36 10.455c-.094-.025-.234-.062-.315-.134a443.81 443.81 0 01-.328-.088 4.19 4.19 0 00-.714-.141c-.14-.038-.271.078-.296.171-.025.094-.038.14-.003.2.034.059.068.118.162.143.723.294 1.42.682 2.234 1.2.686.435 1.359.916 1.994 1.537l.486.431.243.216.081.072c.034.059.081.071.162.143l.854.93c.46.525.943 1.156 1.379 1.774-.6.741-1.352 1.492-2.364 2.273-.308-.533-.722-1.045-1.136-1.557l-.06.034a4.454 4.454 0 00-.31-.334c-.116-.131-.278-.275-.393-.406-.312-.334-.601-.562-.844-.777-.29-.228-.627-.469-.916-.697-.337-.24-.686-.434-.941-.603a7.98 7.98 0 01-.477-.278c-.047-.013-.081-.072-.175-.097l-.093-.025c-.094-.025-.175-.097-.268-.122-.409-.16-.77-.307-1.098-.394-.14-.038-.259.03-.343.158-.025.094-.038.14-.016.247a.673.673 0 00.15.19 19.45 19.45 0 011.86 1.1 17.803 17.803 0 011.704 1.309c.243.215.52.49.764.706.277.274.507.537.738.799.38.452.76.905 1.115 1.451-.927.654-1.96 1.33-3.134 1.968l-.482-.631a1.014 1.014 0 00-.231-.262l-.115-.131c-.081-.072-.115-.131-.196-.203l-.312-.334c-.047-.013-.08-.072-.128-.085l-.324-.287c-.034-.06-.08-.072-.162-.144l-.324-.287c-.08-.072-.127-.084-.208-.156l-.128-.085c-.081-.071-.162-.143-.256-.168l-.174-.097c-.047-.013-.081-.072-.128-.085l-.174-.096c-.558-.35-1-.57-1.456-.741-.14-.038-.306.018-.343.158-.025.094-.038.14-.004.2.035.06.069.119.162.144.175.096.396.206.652.375l.08.072c.082.071.129.084.21.156l.293.028c.046.013.046.013.08.072l.035.06c.37.299.788.611 1.193.97.047.013.081.072.115.132l.278.274c.046.013.034.06.08.072l.312.334c.034.06.115.131.15.19l.068.12c.115.13.23.261.299.38.034.06.115.131.15.19l.136.238c-2.571 1.366-5.114 2.439-6.852 3.126a.515.515 0 01-.574-.104c-.162-.144-.252-.368-.202-.555.629-3.842 2.545-13.052 6.026-16.129.918-.806 1.982-1.223 3.239-1.237.2.003.352-.006.552-.003l1.007.17.093.025.14.038.328.087.77.307c.128.084.268.122.396.206.302.182.651.375.894.59.047.013.034.06.081.073l.047.012c.29.228.567.503.797.765l.034.06c.081.071.15.19.218.308.253.369.505.737.663 1.08l.035.06c.17.296.283.627.335.992.056.165.065.318.121.483l-.012.047c.226 1.213.066 2.373-.516 3.42l-.012.047c-.355-.546-.77-1.058-1.184-1.57a19.256 19.256 0 00-1.893-1.91c-.695-.588-1.402-1.128-2.181-1.588a10.45 10.45 0 00-1.2-.572zm8.084-3.046c-.072.08-.085.128-.157.209l-.765.797-.406.392-.38.3-.06.034-.034-.06c-.196-.203-.38-.452-.635-.621.156-.209.3-.37.456-.58.228-.29.468-.626.696-.916l.228-.29.469-.626c.228-.29.468-.626.696-.916.085-.127.076-.28-.052-.365a.147.147 0 00-.187-.05c-.094-.025-.153.01-.178.103-.275.277-.503.567-.778.844-.156.209-.346.358-.503.567l-.274.277a9.67 9.67 0 00-.731.857c-.144.162-.3.37-.444.533a5.85 5.85 0 00-.779-.46l-.093-.025.11-.22.218-.443.375-.652.169-.255.384-.499c1.305-1.505 2.987-2.357 3.648-1.83.673.482.23 2.318-.994 3.895zm-3.625-2.375l-.565.801-.266.43-.206.396-.122.268-.514-.138.2-.748.163-.608.163-.608c.125-.468.179-.854.279-1.228.066-.434.132-.867.185-1.254-.021-.106-.136-.237-.23-.262a.312.312 0 00-.356.205l-.4 1.497-.239.888a1051.831 1051.831 0 00-.325 1.216l-.26.783-.608-.163-.4-.007c.01-.599.093-1.278.315-1.92.539-2.011 1.822-3.622 2.71-3.384l.05-.187-.037.14c.748.2 1.062 1.838.726 3.653l-.263.23zm3.382 7.021l-.065-.318-.19-.602.712-.41.534-.309.533-.308c.284-.125.534-.308.818-.433l1.338-.693a.298.298 0 00.135-.315c-.056-.166-.184-.25-.35-.194-.377.1-.767.245-1.216.426-.343.158-.733.304-1.195.532-.178.102-.343.158-.521.26a4.356 4.356 0 01-.58.297c-.238.136-.462.227-.7.364l-.205-.356-.115-.131.368-.252c.06-.035.072-.082.131-.116l.262-.23.538-.508.574-.648c1.691-.7 3.36-.754 3.724-.055.386.805-.886 2.37-2.758 3.371a7.297 7.297 0 01-1.772.628z" fill="#333"/></svg>