<svg version="1.1" id="Шар_1" xmlns="http://www.w3.org/2000/svg" x="0" y="0" viewBox="0 0 25 24" xml:space="preserve"><style>.st0{fill:#b4baca}</style><path class="st0" d="M12.6 21h-6c-1.1 0-1.8 0-2.4-.6s-.6-1.3-.6-2.4v-6c0-3.9 0-6.1 1.5-7.5C6.5 3 8.6 3 12.6 3c3.9 0 6.1 0 7.5 1.5 1.5 1.5 1.5 3.6 1.5 7.5s0 6.1-1.5 7.5C18.6 21 16.5 21 12.6 21zm-7-2h7c3.5 0 5.2 0 6.1-.9.9-.9.9-2.6.9-6.1 0-3.5 0-5.2-.9-6.1C17.8 5 16 5 12.6 5c-3.5 0-5.3 0-6.2.9-.8.9-.8 2.6-.8 6.1v7z"/><path class="st0" d="M15.6 11h-6c-.6 0-1-.4-1-1s.4-1 1-1h6c.6 0 1 .4 1 1s-.5 1-1 1zm-3 4h-3c-.6 0-1-.4-1-1s.4-1 1-1h3c.6 0 1 .4 1 1s-.5 1-1 1z"/></svg>