<svg xmlns="http://www.w3.org/2000/svg" viewBox="0 0 14 14"><path d="M7.3 13.4c-.8 0-1.6-.9-2.7-2.3L3.7 10l-1.2-.2c-.5-.1-1-.4-1.3-.9a3.7 3.7 0 010-3.8c.3-.5.8-.8 1.3-.9L3.7 4l.9-1.1C6 1.3 6.7.3 7.8.7c1.1.4 1.1 1.6 1.1 3.7v5.2c0 2.1 0 3.3-1.1 3.7-.2.1-.4.1-.5.1zm-.2-11c-.3.3-.8.9-1.3 1.5l-1 1.2c-.2.2-.4.3-.7.4l-1.3.2c-.1 0-.2.1-.2.2-.4.7-.4 1.5 0 2.2.1.1.1.2.2.2l1.3.3c.3.1.5.2.7.4l1 1.2c.5.6 1 1.2 1.4 1.5.1-.4.1-1.2.1-2V4.4c-.1-.8-.1-1.6-.2-2zm4.4 8.1c-.2 0-.4-.1-.6-.2-.3-.3-.3-.8 0-1.1.6-.6.9-1.4.9-2.2 0-.8-.3-1.6-.9-2.2-.3-.3-.3-.8 0-1.1.3-.3.8-.3 1.1 0 1 .9 1.5 2 1.5 3.3 0 1.2-.5 2.4-1.3 3.3-.2.1-.4.2-.7.2z" fill="#628eff"/></svg>