<svg xmlns="http://www.w3.org/2000/svg" width="18" height="19" fill="currentColor"><path fill-rule="evenodd" d="M8.94 3.15c-.201.376-.432.946-.774 1.798l-.05.125c-.19.472-.359.894-.536 1.232-.194.37-.435.713-.805.988-.37.276-.769.407-1.178.486-.375.073-.828.114-1.334.159l-.242.022c-.845.075-1.403.127-1.785.205.258.292.671.67 1.298 1.241l.47.427c.312.284.59.538.808.772.235.255.445.537.585.894.045.115.082.233.112.353.092.373.082.723.037 1.067-.042.317-.124.686-.215 1.097l-.07.312c-.169.762-.283 1.284-.335 1.662.314-.216.729-.553 1.334-1.046l.033-.027c.396-.323.745-.607 1.058-.816.336-.225.701-.413 1.142-.484a2.83 2.83 0 01.893 0c.441.07.807.259 1.143.484.312.209.662.493 1.057.816l.033.027c.606.493 1.02.83 1.335 1.045-.052-.377-.167-.899-.336-1.661l-.07-.312c-.09-.411-.172-.78-.214-1.097a2.81 2.81 0 01.036-1.067 2.9 2.9 0 01.113-.353c.14-.357.349-.639.585-.894.217-.234.496-.488.807-.771l.47-.428c.627-.57 1.04-.95 1.298-1.242-.382-.077-.94-.129-1.784-.204l-.242-.022c-.507-.045-.96-.086-1.335-.159-.409-.08-.808-.21-1.178-.486-.37-.275-.61-.619-.804-.988-.178-.338-.347-.76-.537-1.232l-.05-.125c-.342-.852-.572-1.422-.773-1.799zm.222-.341l-.009.008a.04.04 0 01.009-.008zm-.436.008a.047.047 0 01-.009-.008s.003.001.01.008zm7.268 5.45l-.01-.005.01.005zm-.137-.387a.038.038 0 01.004-.01l-.004.01zM2.019 7.87l.004.01a.038.038 0 01-.004-.01zm-.125.392a.043.043 0 01-.008.005l.008-.005zM7.26 2.055C7.538 1.57 8.04.88 8.94.88c.901 0 1.403.691 1.681 1.176.293.511.585 1.239.92 2.077l.03.071.033.084c.211.526.343.851.467 1.088.114.216.182.28.228.313.045.034.126.081.366.128.262.05.61.083 1.176.134l.273.024c.827.074 1.555.14 2.095.267.53.125 1.281.399 1.554 1.21.273.813-.16 1.485-.506 1.905-.354.428-.895.92-1.509 1.478l-.498.454c-.348.316-.562.512-.713.675-.138.15-.174.221-.19.264a.825.825 0 00-.034.104c-.01.044-.022.123.004.326.03.22.092.503.193.962l.074.333c.17.764.315 1.417.372 1.92.05.45.09 1.163-.39 1.698a1.916 1.916 0 01-.922.568c-.693.19-1.314-.166-1.692-.413-.424-.277-.943-.699-1.55-1.194l-.045-.037c-.439-.357-.715-.58-.94-.73-.209-.141-.299-.164-.345-.172a.833.833 0 00-.263 0c-.046.008-.136.031-.346.171-.224.15-.5.374-.939.731l-.045.037c-.607.495-1.125.917-1.55 1.194-.378.247-.998.602-1.692.413a1.916 1.916 0 01-.921-.568c-.48-.535-.44-1.249-.39-1.697.057-.504.201-1.157.371-1.921l.074-.333c.102-.459.164-.742.193-.962.027-.203.015-.282.004-.326a.835.835 0 00-.033-.104c-.017-.043-.053-.114-.191-.264a12.754 12.754 0 00-.713-.675l-.442-.403a21.879 21.879 0 01-.056-.05c-.614-.56-1.155-1.051-1.508-1.48-.346-.419-.78-1.091-.507-1.903S1.142 6.366 1.671 6.24c.54-.127 1.269-.193 2.096-.267l.075-.006.197-.018c.566-.05.915-.083 1.177-.134.24-.047.32-.094.366-.128.045-.033.114-.097.227-.313.125-.237.256-.562.467-1.088l.034-.084.029-.071c.336-.838.627-1.566.92-2.077z" clip-rule="evenodd"/></svg>