<svg version="1.1" id="Шар_1" xmlns="http://www.w3.org/2000/svg" x="0" y="0" viewBox="0 0 17 17" xml:space="preserve"><style>.st0{fill:#ffde3f}</style><path class="st0" d="M8.5 16.3c-3.4 0-6.1-2.8-6.1-6.1s2.8-6.1 6.1-6.1c3.4 0 6.1 2.8 6.1 6.1s-2.7 6.1-6.1 6.1zm0-10.6C6 5.7 4 7.7 4 10.2s2 4.5 4.5 4.5 4.5-2 4.5-4.5-2-4.5-4.5-4.5z"/><path class="st0" d="M8.5 11c-.4 0-.8-.4-.8-.8v-2c0-.4.4-.8.8-.8s.8.4.8.8v2c0 .4-.4.8-.8.8zm3.7-4.3c-.2 0-.4-.1-.6-.2-.3-.3-.3-.8 0-1.1l1-1c.3-.3.8-.3 1.1 0 .3.3.3.8 0 1.1l-1 1c-.1.1-.3.2-.5.2zm-5-3.5c-.2 0-.4-.1-.6-.2-.3-.3-.3-.8 0-1.1.2-.2.5-.3.9-.4.6-.1 1.4-.1 1.9 0 .4.1.7.2.9.4.3.3.3.8 0 1.1-.3.3-.7.3-1.1.1H9C8.8 3 8.2 3 7.8 3h-.2c-.1.2-.2.2-.4.2zm2.1-.1zM7.8 3zm1.4 0z"/></svg>