<svg xmlns="http://www.w3.org/2000/svg" width="25" height="24" fill="currentColor"><path fill-rule="evenodd" d="M10.5 16a1 1 0 01-1-1v-3a1 1 0 112 0v3a1 1 0 01-1 1zm4 0a1 1 0 01-1-1v-3a1 1 0 112 0v3a1 1 0 01-1 1z" clip-rule="evenodd"/><path fill-rule="evenodd" d="M4.526 8.017A16.911 16.911 0 003.5 8V6h18v2c-.48 0-.79 0-1.026.017-.228.015-.315.042-.357.06a1 1 0 00-.54.54c-.018.042-.045.129-.06.357C19.5 9.21 19.5 9.52 19.5 10v6.066c0 .886 0 1.65-.082 2.262-.088.655-.287 1.284-.797 1.793-.51.51-1.138.709-1.793.797-.612.082-1.376.082-2.262.082h-4.132c-.886 0-1.65 0-2.262-.082-.655-.088-1.284-.287-1.793-.797-.51-.51-.709-1.138-.797-1.793-.082-.612-.082-1.376-.082-2.262V10c0-.48 0-.79-.017-1.026-.015-.228-.042-.315-.06-.357a1 1 0 00-.54-.54c-.042-.018-.129-.045-.357-.06zM17.673 8H7.327c.094.278.133.558.152.838.021.313.021.691.021 1.13V16c0 .971.002 1.599.064 2.061.059.434.153.57.229.646.076.076.212.17.646.229.462.062 1.09.064 2.061.064h4c.971 0 1.599-.002 2.061-.064.434-.059.57-.153.646-.229.076-.076.17-.212.229-.646.062-.462.064-1.09.064-2.061V9.968c0-.439 0-.817.021-1.13.02-.28.058-.56.152-.838zm-3.767-5.879A7.67 7.67 0 0012.5 2c-.49 0-.982.04-1.406.121a3.66 3.66 0 00-.608.165 1.82 1.82 0 00-.6.353 1 1 0 001.294 1.523l.007-.003c.054-.02.146-.047.284-.074A5.693 5.693 0 0112.5 4c.391 0 .754.033 1.029.085a1.836 1.836 0 01.29.077 1 1 0 001.295-1.523 1.802 1.802 0 00-.6-.353 3.787 3.787 0 00-.608-.165z" clip-rule="evenodd"/></svg>