<svg width="25" height="25" fill="none" xmlns="http://www.w3.org/2000/svg"><path fill-rule="evenodd" clip-rule="evenodd" d="M12.5 2.5c.489 0 .982.04 1.406.121.212.04.42.094.607.165.17.064.404.17.6.353a1 1 0 01-1.293 1.523l-.008-.003a1.836 1.836 0 00-.283-.074 5.693 5.693 0 00-1.03-.085c-.39 0-.754.033-1.028.085-.138.027-.23.054-.284.074l-.007.003a1 1 0 01-1.294-1.523c.197-.183.43-.29.6-.353.188-.07.396-.124.608-.165A7.67 7.67 0 0112.5 2.5zM4.526 8.517A16.911 16.911 0 003.5 8.5v-2h18v2c-.48 0-.79 0-1.026.017-.228.015-.315.042-.357.06a1 1 0 00-.54.54c-.018.042-.045.129-.06.357-.017.237-.017.546-.017 1.026v6.066c0 .886 0 1.65-.082 2.262-.088.655-.287 1.284-.797 1.793-.51.51-1.138.709-1.793.797-.612.082-1.376.082-2.262.082h-4.132c-.886 0-1.65 0-2.262-.082-.655-.088-1.284-.287-1.793-.797-.51-.51-.709-1.138-.797-1.793-.082-.612-.082-1.376-.082-2.262V10.5c0-.48 0-.79-.017-1.026-.015-.228-.042-.315-.06-.357a1 1 0 00-.54-.54c-.042-.018-.129-.045-.357-.06zM17.673 8.5H7.327c.094.278.133.558.152.838.021.313.021.691.021 1.13V16.5c0 .971.002 1.599.064 2.061.059.434.153.57.229.646.076.076.212.17.646.229.462.062 1.09.064 2.061.064h4c.971 0 1.599-.002 2.061-.064.434-.059.57-.153.646-.229.076-.076.17-.212.229-.646.062-.462.064-1.09.064-2.061v-6.032c0-.439 0-.817.021-1.13.02-.28.058-.56.152-.838zm-8.173 7a1 1 0 102 0v-3a1 1 0 10-2 0v3zm4 0a1 1 0 102 0v-3a1 1 0 10-2 0v3z" fill="#B4BACA"/></svg>