<svg width="32" height="33" fill="none" xmlns="http://www.w3.org/2000/svg"><path d="M28.797 4.096C26.293 1.29 21.794.443 17.297.443c-4.498 0-8.072.224-10.13.99C3.21 2.962.386 6.073.386 11.641c0 3.27.017 8.088.846 10.592 1.149 3.51 5.025 5.87 7.769 5.87h.383l.765 4.34 4.802-4.116c4.802 0 10.736-.527 13.4-3.127 2.664-2.6 3.43-6.317 3.43-10.816 0-4.498-.463-7.465-2.983-10.289zM23.12 20.463c-.415.894-1.037 1.643-1.915 2.122-.255.128-.542.175-.83.271-.318-.096-.637-.16-.924-.287-2.968-1.228-5.711-2.823-7.88-5.264-1.23-1.388-2.202-2.951-3.016-4.61a32.183 32.183 0 01-1.037-2.41c-.303-.733.144-1.499.607-2.057A4.68 4.68 0 019.75 7.016c.478-.224.957-.096 1.308.303.75.877 1.451 1.802 2.01 2.823.35.622.255 1.388-.383 1.819-.16.095-.287.223-.43.335-.129.096-.24.207-.336.35-.16.256-.16.56-.064.83.782 2.122 2.074 3.78 4.212 4.674.335.144.686.303 1.084.256.654-.08.878-.798 1.34-1.181.447-.367 1.037-.367 1.516-.064.494.303.957.638 1.436.973.462.335.925.654 1.34 1.021.43.335.574.814.335 1.308zm-3.829-6.939h-.016c-.303 0-.479-.175-.51-.462a4.205 4.205 0 00-.096-.623c-.096-.398-.303-.765-.638-1.005a2.011 2.011 0 00-.527-.255c-.239-.064-.494-.048-.718-.111-.255-.064-.398-.272-.366-.511a.471.471 0 01.494-.383c1.516.112 2.584.894 2.744 2.664.016.128.016.255 0 .383a.42.42 0 01-.367.303c.032 0 .032 0 0 0zm-.941-4.052a5.213 5.213 0 00-1.468-.446l-.67-.096c-.27-.032-.414-.207-.399-.479.016-.255.192-.43.463-.414.893.047 1.755.239 2.552.67 1.612.861 2.537 2.201 2.808 4.004.016.08.032.16.032.239.016.207.032.399.048.67 0 .048-.016.16-.032.271-.096.383-.702.447-.83.048-.048-.112-.048-.255-.048-.383 0-.83-.175-1.643-.59-2.36-.446-.735-1.1-1.357-1.866-1.724zm4.977 5.568c-.32 0-.447-.256-.479-.543-.048-.558-.064-1.117-.143-1.659-.399-2.903-2.712-5.296-5.6-5.806-.43-.08-.877-.096-1.323-.144-.272-.032-.639-.048-.702-.399-.048-.287.191-.526.462-.542h.224c3.892.112-.08 0 0 0 3.892.112 7.082 2.696 7.768 6.54.112.654.16 1.324.208 1.994.047.287-.112.543-.415.559z" fill="#B4BACA"/></svg>