<svg width="49" height="21" fill="none" xmlns="http://www.w3.org/2000/svg"><path fill-rule="evenodd" clip-rule="evenodd" d="M10.048.594c.12.967-.283 1.935-.847 2.66-.604.726-1.532 1.25-2.499 1.129-.12-.927.363-1.935.887-2.54C8.193 1.158 9.2.634 10.048.593zm-2.21 4.515c.612-.238 1.373-.534 2.21-.485.523.04 2.055.202 2.982 1.653-.08.04-1.814 1.048-1.773 3.144 0 2.289 1.825 3.158 2.163 3.319.031.014.05.023.053.027 0 .04-.322 1.169-1.128 2.338-.685 1.047-1.411 2.015-2.54 2.055-.56.02-.933-.14-1.318-.304-.39-.168-.794-.34-1.423-.34-.666 0-1.092.183-1.503.36-.36.155-.708.306-1.197.325-1.088.04-1.935-1.089-2.62-2.097C.293 13.05-.756 9.3.696 6.761 1.42 5.47 2.71 4.705 4.122 4.665c.615 0 1.204.231 1.717.433.394.155.743.292 1.024.292.251 0 .583-.128.974-.28zm13.319 5.265v5.869h-1.852V1.758h4.932c1.249 0 2.31.416 3.184 1.249.895.832 1.332 1.852 1.332 3.059 0 1.228-.437 2.248-1.332 3.08-.853.832-1.935 1.228-3.184 1.228h-3.08zm0-6.826v5.057h3.122c.728 0 1.352-.25 1.852-.75.5-.499.75-1.102.75-1.768 0-.666-.25-1.27-.75-1.749-.479-.52-1.103-.77-1.852-.77l-3.122-.02zm12.466 2.455c1.374 0 2.456.375 3.268 1.103.79.729 1.186 1.748 1.186 3.018v6.119h-1.77v-1.374h-.083c-.77 1.145-1.79 1.707-3.08 1.707-1.103 0-1.998-.313-2.747-.979-.728-.645-1.103-1.456-1.103-2.414 0-1.02.396-1.852 1.166-2.435.77-.603 1.81-.915 3.1-.915 1.104 0 2.02.208 2.727.603v-.416c0-.645-.25-1.186-.77-1.644a2.657 2.657 0 00-1.81-.687c-1.041 0-1.853.437-2.457 1.311l-1.644-1.02c.916-1.332 2.269-1.977 4.017-1.977zm-2.393 7.201c0 .479.208.895.624 1.207a2.34 2.34 0 001.436.479c.79 0 1.478-.292 2.102-.874.604-.583.916-1.27.916-2.04-.583-.458-1.395-.687-2.414-.687-.75 0-1.395.188-1.894.542-.52.374-.77.832-.77 1.373zm10.78 7.389l6.202-14.277h-2.04l-2.851 7.117h-.042l-2.955-7.117h-2.019l4.1 9.282-2.31 4.995h1.915z" fill="#3A424C"/></svg>