<svg width="51" height="21" fill="none" xmlns="http://www.w3.org/2000/svg"><path fill-rule="evenodd" clip-rule="evenodd" d="M23.66 9.874v5.869h-1.85V1.258h4.932c1.249 0 2.31.416 3.184 1.249.895.832 1.332 1.852 1.332 3.059 0 1.228-.437 2.248-1.332 3.08-.853.832-1.935 1.228-3.184 1.228h-3.08zm0-6.826v5.057h3.123c.728 0 1.352-.25 1.852-.75.5-.499.75-1.102.75-1.768 0-.666-.25-1.27-.75-1.749-.479-.52-1.103-.77-1.852-.77l-3.122-.02zm12.467 2.455c1.373 0 2.456.375 3.267 1.103.791.729 1.187 1.748 1.187 3.018v6.119h-1.77v-1.374h-.083c-.77 1.145-1.79 1.707-3.08 1.707-1.103 0-1.998-.313-2.747-.979-.728-.645-1.103-1.456-1.103-2.414 0-1.02.396-1.852 1.166-2.435.77-.603 1.81-.915 3.1-.915 1.103 0 2.02.208 2.727.603V9.52c0-.645-.25-1.186-.77-1.644a2.657 2.657 0 00-1.81-.687c-1.041 0-1.853.437-2.457 1.311L32.11 7.48c.916-1.332 2.269-1.977 4.017-1.977zm-2.393 7.201c0 .479.208.895.624 1.207a2.34 2.34 0 001.436.479c.79 0 1.478-.292 2.102-.874.603-.583.916-1.27.916-2.04-.583-.458-1.395-.687-2.414-.687-.75 0-1.395.188-1.894.542-.52.374-.77.832-.77 1.373zm10.779 7.389l6.202-14.277h-2.04l-2.851 7.117h-.042l-2.955-7.117h-2.019l4.1 9.282-2.31 4.995h1.915z" fill="#3A424C"/><path d="M16.255 8.584c0-.603-.063-1.186-.146-1.748H8.305v3.205H12.8a3.888 3.888 0 01-1.665 2.58v2.082h2.685c1.54-1.457 2.435-3.6 2.435-6.119z" fill="#4285F4"/><path d="M11.135 12.62c-.749.5-1.706.79-2.83.79-2.165 0-3.996-1.456-4.662-3.433H.875v2.143c1.374 2.706 4.183 4.579 7.43 4.579 2.248 0 4.12-.729 5.494-1.998l-2.664-2.081z" fill="#34A853"/><path d="M3.392 8.397c0-.562.084-1.082.25-1.582V4.672H.874A8.318 8.318 0 000 8.397C0 9.73.312 11 .874 12.123l2.768-2.144c-.166-.5-.25-1.02-.25-1.582z" fill="#FABB05"/><path d="M8.305 3.382c1.228 0 2.33.416 3.184 1.249l2.373-2.373C12.426.926 10.552.094 8.305.094a8.303 8.303 0 00-7.43 4.578l2.768 2.144c.666-1.977 2.497-3.434 4.662-3.434z" fill="#E94235"/></svg>