<svg width="116" height="21" fill="none" xmlns="http://www.w3.org/2000/svg"><path d="M10 20.094c5.523 0 10-4.477 10-10s-4.477-10-10-10-10 4.477-10 10 4.477 10 10 10z" fill="#EB001B"/><path d="M22.078 20.094c5.523 0 10-4.477 10-10s-4.477-10-10-10-10 4.477-10 10 4.477 10 10 10z" fill="#F79E1B"/><path d="M16.036 2.11a9.972 9.972 0 013.958 7.966c0 3.25-1.55 6.146-3.958 7.97a9.975 9.975 0 01-3.958-7.97 9.979 9.979 0 013.958-7.967z" fill="#FF5F00"/><path d="M31.455 16.734v.085h-.185v.479h-.09v-.479h-.184v-.085h.459zm.703 0v.564h-.09v-.464l-.165.409h-.1l-.164-.404v.459h-.09v-.564h.14l.165.404.164-.404h.14z" fill="#F79E1B"/><path d="M114.8 10.426v.085h-.184v.478h-.09v-.478h-.184v-.085h.458zm.698 0v.563h-.09v-.463l-.164.409h-.095l-.164-.404v.458h-.09v-.563h.14l.164.404.165-.404h.134zM46.48 4.1c1.53 0 2.612 1.052 2.612 2.557v4.038h-1.41V7.121c0-1.082-.559-1.685-1.496-1.685-.907 0-1.665.598-1.665 1.7V10.7h-1.41V7.126c0-1.082-.559-1.685-1.496-1.685-.907 0-1.665.598-1.665 1.7v3.564h-1.41v-6.43h1.395v.782c.518-.758 1.316-.952 1.974-.952.982 0 1.78.434 2.223 1.147.559-.928 1.55-1.152 2.348-1.152zm10.798.164v6.431h-1.4v-.772c-.445.568-1.108.937-2.02.937-1.8 0-3.215-1.416-3.215-3.38s1.416-3.38 3.215-3.38c.912 0 1.575.374 2.02.947v-.783h1.4zm-3.255 1.157c-1.207 0-1.94.932-1.94 2.059 0 1.126.733 2.059 1.94 2.059 1.161 0 1.939-.888 1.939-2.06 0-1.17-.778-2.058-1.94-2.058zm10.314-.638l-.604 1.092a4.166 4.166 0 00-1.984-.549c-.762 0-1.216.31-1.216.763 0 .449.469.578 1.062.663l.663.1c1.4.2 2.233.797 2.233 1.899 0 1.236-1.072 2.099-2.926 2.099-.663 0-1.82-.13-2.757-.828l.653-1.052c.464.354 1.072.658 2.119.658.957 0 1.46-.304 1.46-.782 0-.364-.348-.603-1.111-.713l-.673-.085c-1.42-.194-2.179-.852-2.179-1.884 0-1.276 1.022-2.059 2.657-2.059 1.008 0 1.94.25 2.603.678zm6.066-.519v1.277h-2.462v2.796c0 .868.459 1.202 1.022 1.202.434 0 .912-.195 1.296-.434l.558 1.122c-.518.348-1.166.638-1.974.638-1.456 0-2.308-.783-2.308-2.498V5.541h-1.281V4.264h1.281V2.32h1.41v1.944h2.459zm4.328-.164c1.8 0 3.03 1.37 3.04 3.375 0 .18-.015.364-.025.523h-4.75c.19 1.157 1.002 1.635 1.914 1.635.643 0 1.331-.254 1.86-.678l.697 1.002c-.782.673-1.67.908-2.642.908-1.924 0-3.29-1.341-3.29-3.38-.005-2.02 1.306-3.385 3.196-3.385zm-.025 1.246c-1.002 0-1.556.643-1.705 1.585h3.335c-.155-1.002-.738-1.585-1.63-1.585zM82.642 4.1c.428 0 .758.055 1.082.18l-.335 1.39c-.294-.154-.722-.234-1.066-.234-.893 0-1.53.633-1.53 1.725v3.534H79.39v-6.43h1.391v.722c.42-.608 1.077-.887 1.86-.887zm5.807 0c1.8 0 3.216 1.416 3.216 3.38s-1.416 3.38-3.216 3.38c-.912 0-1.57-.37-2.014-.933v3.45h-1.4V4.264h1.4v.763c.444-.558 1.102-.927 2.014-.927zm-.17 1.321c-1.16 0-1.938.887-1.938 2.059 0 1.171.777 2.059 1.939 2.059 1.206 0 1.939-.933 1.939-2.06 0-1.126-.733-2.058-1.94-2.058zm11.172-1.157v6.431h-1.4v-.772c-.444.568-1.107.937-2.02.937-1.799 0-3.215-1.416-3.215-3.38s1.416-3.38 3.216-3.38c.912 0 1.575.374 2.019.947v-.783h1.4zm-3.255 1.157c-1.206 0-1.94.932-1.94 2.059 0 1.126.734 2.059 1.94 2.059 1.162 0 1.94-.888 1.94-2.06 0-1.17-.778-2.058-1.94-2.058zm10.314-.638l-.603 1.092a4.164 4.164 0 00-1.984-.549c-.763 0-1.216.31-1.216.763 0 .449.468.578 1.061.663l.663.1c1.401.2 2.234.797 2.234 1.899 0 1.236-1.072 2.099-2.927 2.099-.663 0-1.819-.13-2.756-.828l.653-1.052c.463.354 1.072.658 2.118.658.958 0 1.461-.304 1.461-.782 0-.364-.349-.603-1.112-.713l-.673-.085c-1.42-.194-2.178-.852-2.178-1.884 0-1.276 1.022-2.059 2.657-2.059 1.007 0 1.939.25 2.602.678zm6.665 0l-.603 1.092a4.164 4.164 0 00-1.984-.549c-.763 0-1.216.31-1.216.763 0 .449.468.578 1.061.663l.663.1c1.401.2 2.234.797 2.234 1.899 0 1.236-1.072 2.099-2.927 2.099-.663 0-1.819-.13-2.756-.828l.653-1.052c.463.354 1.072.658 2.118.658.958 0 1.461-.304 1.461-.782 0-.364-.349-.603-1.112-.713l-.673-.085c-1.42-.194-2.178-.852-2.178-1.884 0-1.276 1.022-2.059 2.657-2.059 1.007 0 1.939.25 2.602.678zM40.239 14.17c.847 0 1.51.663 1.51 1.59s-.663 1.59-1.51 1.59c-.429 0-.738-.174-.947-.439v.36h-.658v-4.542h.658v1.88c.204-.265.518-.44.947-.44zm-.08.623c-.543 0-.912.419-.912.967s.364.967.912.967c.569 0 .913-.439.913-.967s-.345-.967-.913-.967zm5.1-.543l-2.388 4.302h-.733l1.082-1.9-1.336-2.403h.738l.972 1.735.937-1.735h.728zm5.618-.08c.718 0 1.226.493 1.226 1.201v1.9h-.663v-1.68c0-.509-.264-.793-.703-.793-.423 0-.782.279-.782.797v1.675h-.663v-1.68c0-.508-.26-.792-.703-.792-.424 0-.783.279-.783.797v1.675h-.663v-3.02h.658v.368c.244-.359.618-.448.927-.448.46 0 .838.204 1.042.538.265-.429.733-.538 1.107-.538zm5.01.08v3.02h-.658v-.363c-.21.269-.518.443-.947.443-.848 0-1.51-.663-1.51-1.59s.667-1.59 1.51-1.59c.429 0 .743.174.947.443v-.364h.658zm-1.53.543c-.569 0-.913.439-.913.967s.344.967.913.967c.543 0 .912-.419.912-.967 0-.553-.364-.967-.912-.967zm4.785-.3l-.284.514a1.94 1.94 0 00-.932-.259c-.359 0-.573.145-.573.359 0 .21.219.27.498.314l.314.05c.658.095 1.052.374 1.052.892 0 .578-.503.987-1.376.987-.314 0-.852-.06-1.296-.389l.304-.493c.22.17.504.309.997.309.449 0 .688-.14.688-.369 0-.17-.164-.284-.523-.334l-.314-.04c-.668-.09-1.027-.399-1.027-.887 0-.598.478-.967 1.25-.967.47-.005.908.11 1.222.314zm2.787-.244v.599h-1.157v1.316c0 .409.215.563.479.563.204 0 .429-.09.608-.204l.26.528a1.63 1.63 0 01-.928.3c-.683 0-1.087-.37-1.087-1.172v-1.331h-.603v-.599h.603v-.912h.663v.912h1.162zm1.969-.08c.847 0 1.426.644 1.43 1.586 0 .085-.004.17-.014.244H63.08c.09.544.469.768.898.768.304 0 .623-.12.872-.32l.33.47c-.37.314-.789.423-1.242.423-.907 0-1.546-.633-1.546-1.59.005-.937.619-1.58 1.506-1.58zm-.01.589c-.469 0-.733.304-.803.743h1.566c-.07-.469-.344-.743-.763-.743zm3.664-.588c.2 0 .354.025.508.085l-.159.653a1.144 1.144 0 00-.504-.11c-.418 0-.717.294-.717.812v1.66h-.658v-3.02h.653v.338c.2-.284.508-.418.877-.418zm2.308 0c.449 0 .862.164 1.127.483l-.424.449c-.21-.2-.434-.314-.728-.314-.508 0-.892.399-.892.967s.384.967.892.967c.29 0 .549-.135.743-.314l.409.454c-.274.319-.678.483-1.127.483-.962 0-1.59-.683-1.59-1.59 0-.902.628-1.585 1.59-1.585zm4.581.08v3.02h-.658v-.363c-.209.269-.518.443-.947.443-.847 0-1.51-.663-1.51-1.59s.663-1.59 1.51-1.59c.429 0 .743.174.947.443v-.364h.658zm-1.525.543c-.568 0-.912.439-.912.967s.344.967.912.967c.543 0 .912-.419.912-.967-.005-.553-.369-.967-.912-.967zm3.973-.623c.2 0 .354.025.508.085l-.159.653a1.144 1.144 0 00-.504-.11c-.418 0-.717.294-.717.812v1.66h-.658v-3.02h.653v.338c.194-.284.503-.418.877-.418zm2.348 0c.429 0 .743.174.947.443V12.73h.658v4.541h-.658v-.363c-.21.269-.518.443-.947.443-.847 0-1.51-.663-1.51-1.59s.667-1.59 1.51-1.59zm.08.623c-.569 0-.912.439-.912.967s.343.967.912.967c.543 0 .912-.419.912-.967 0-.553-.364-.967-.912-.967z" fill="#3A424C"/></svg>