<svg width="82" height="21" fill="none" xmlns="http://www.w3.org/2000/svg"><path d="M31.111 9.163c-.211 1.587-1.481 1.587-2.645 1.587h-.635l.529-3.069c0-.212.211-.317.423-.317h.318c.846 0 1.587 0 2.01.423v1.376zm-.529-4.233h-4.55c-.318 0-.53.211-.635.529l-1.8 11.64c0 .212.106.424.424.424h2.116c.318 0 .53-.212.635-.53l.53-3.174c0-.318.317-.53.634-.53h1.482c2.963 0 4.656-1.48 5.185-4.338.212-1.27 0-2.222-.529-2.963-.846-.635-2.01-1.058-3.492-1.058zm10.479 8.468c-.211 1.27-1.164 2.116-2.434 2.116-.635 0-1.164-.211-1.481-.635a1.837 1.837 0 01-.318-1.481c.212-1.27 1.164-2.117 2.434-2.117.635 0 1.164.212 1.482.635.211.318.423.847.317 1.482zm2.963-4.233h-2.116c-.212 0-.318.106-.423.317l-.106.635-.106-.211c-.423-.635-1.482-.953-2.54-.953-2.434 0-4.444 1.8-4.868 4.339-.212 1.27.106 2.434.847 3.28.635.741 1.587 1.059 2.751 1.059 1.905 0 2.963-1.27 2.963-1.27l-.105.635c0 .212.105.423.423.423h1.905c.317 0 .529-.212.635-.529l1.164-7.408c0-.106-.106-.317-.424-.317zm11.534-.001h-2.222a.582.582 0 00-.53.318l-2.962 4.444-1.27-4.233c-.106-.317-.318-.423-.635-.423h-2.117c-.212 0-.423.212-.317.529l2.434 6.985-2.223 3.174c-.211.212 0 .635.318.635h2.222a.582.582 0 00.53-.317L55.98 9.799c.106-.317-.105-.635-.423-.635z" fill="#263577"/><path d="M63.283 9.163c-.212 1.587-1.481 1.587-2.645 1.587h-.636l.53-3.069c0-.212.211-.317.423-.317h.318c.846 0 1.587 0 2.01.423.106.423.106.847 0 1.376zm-.529-4.233h-4.55c-.318 0-.53.211-.635.529l-1.8 11.64c0 .212.106.424.424.424h2.328c.212 0 .423-.106.423-.423l.53-3.281c0-.318.317-.53.634-.53h1.482c2.963 0 4.656-1.48 5.185-4.338.212-1.27 0-2.222-.529-2.963-.74-.635-1.905-1.058-3.492-1.058zm10.585 8.468c-.212 1.27-1.165 2.116-2.434 2.116-.635 0-1.164-.211-1.482-.635-.317-.423-.423-.952-.317-1.481.211-1.27 1.164-2.117 2.434-2.117.634 0 1.164.212 1.481.635.212.318.423.847.318 1.482zm2.963-4.233h-2.117c-.211 0-.317.106-.423.317l-.106.635-.106-.211c-.423-.635-1.481-.953-2.54-.953-2.434 0-4.444 1.8-4.868 4.339-.211 1.27.106 2.434.847 3.28.635.741 1.587 1.059 2.751 1.059 1.905 0 2.964-1.27 2.964-1.27l-.106.635c0 .212.106.423.423.423h1.905c.317 0 .53-.212.635-.529l1.164-7.408c0-.106-.212-.317-.423-.317zm2.54-3.918L76.938 17.1c0 .211.105.423.423.423h1.905c.317 0 .529-.212.635-.53L81.7 5.354c0-.212-.106-.423-.424-.423H79.16c-.106 0-.212.211-.318.317z" fill="#2199D6"/><path d="M4.764 19.746l.317-2.222H.637l2.54-16.192s0-.105.105-.105h6.35c2.01 0 3.492.423 4.233 1.27.317.423.529.846.635 1.27.106.528.106 1.058 0 1.798v.424l.317.211c.318.106.53.318.741.53.318.317.53.74.53 1.27.105.529.105 1.163-.107 1.904-.211.847-.423 1.482-.74 2.117-.318.529-.741.952-1.165 1.375-.423.318-1.058.53-1.587.741-.635.106-1.27.212-2.01.212h-.53c-.317 0-.635.106-.952.317-.212.212-.423.53-.53.847v.212l-.634 3.915v.212H4.764v-.106z" fill="#263577"/><path d="M15.24 5.57c0 .106 0 .212-.105.318-.847 4.233-3.598 5.608-7.196 5.608h-1.8c-.423 0-.846.318-.846.741l-.952 5.926-.212 1.694c0 .317.212.529.423.529h3.28c.424 0 .742-.318.742-.635v-.212l.635-3.81v-.211c.105-.423.423-.635.74-.635h.53c3.174 0 5.608-1.27 6.243-4.974.318-1.587.106-2.857-.635-3.704-.211-.211-.529-.423-.846-.635z" fill="#2199D6"/><path d="M14.394 5.247c-.106 0-.212-.106-.423-.106-.106 0-.318-.105-.424-.105-.529-.106-1.058-.106-1.587-.106H7.092c-.106 0-.212 0-.317.106-.212.105-.424.317-.424.529l-1.058 6.56v.213c.106-.424.423-.741.847-.741h1.799c3.598 0 6.35-1.482 7.196-5.61 0-.105 0-.21.106-.317l-.635-.317c-.106-.106-.212-.106-.212-.106z" fill="#252C5E"/><path d="M6.35 5.568c0-.212.211-.424.423-.53.106 0 .211-.105.317-.105h4.868c.53 0 1.164 0 1.588.105.105 0 .317 0 .423.106.106 0 .212.106.423.106.106 0 .106 0 .212.106l.635.317c.211-1.587 0-2.645-.847-3.598C13.44 1.017 11.747.594 9.63.594H3.386c-.423 0-.846.317-.846.74L0 17.633c0 .317.212.635.53.635h3.809l.952-6.138L6.35 5.568z" fill="#263577"/></svg>