<svg width="59" height="17" fill="none" xmlns="http://www.w3.org/2000/svg"><path d="M0 4.912c0-.318.163-.482.163-.8.319-1.918 1.119-2.718 2.882-3.037C5.282.594 7.527.594 9.763.912c2.237.318 3.2 1.6 3.2 3.682v.963H9.127v-.163c-.164-1.437-.482-1.6-1.918-1.6h-1.6c-.964.163-1.437.481-1.437 1.6 0 .963.318 1.436 1.437 1.436.963 0 1.918 0 2.881.164l2.882.481c1.282.319 1.918 1.282 2.082 2.564 0 1.118 0 2.4-.164 3.518-.163 1.282-.963 2.082-2.081 2.4-.964.319-1.764.482-2.719.637H5.61c-.964-.164-1.919-.164-2.882-.319-1.437-.318-2.4-1.281-2.564-2.718 0-.163-.163-.482-.163-.636v-1.445h3.837c.163 1.436.481 1.918 1.436 1.918h2.882c.963 0 1.282-.637 1.282-1.6 0-.964-.482-1.437-1.282-1.437-1.437-.163-3.037-.318-4.482-.482C1.591 9.712.637 8.757.31 6.675c0-.163-.164-.318-.164-.481C0 5.712 0 5.394 0 4.912zm31.037 11.682v-15.2c0-.637.163-.8.8-.8 2.718 0 5.436 0 8.163.163 2.882.164 4.318 1.6 4.482 4.482.163 1.282 0 2.563-.164 3.836-.318 1.919-1.763 3.2-3.836 3.2h-5.445v4.164c-1.282.155-2.719.155-4 .155zm4-7.837h3.681c.964 0 1.282-.482 1.282-1.436v-1.6c0-1.119-.482-1.6-1.6-1.764h-2.882c-.163 0-.481.318-.481.318v4.482zm7.681 7.837c.964-3.364 2.082-6.882 3.037-10.237.636-1.918 1.118-3.836 1.763-5.763H53.6c.163 0 .482.318.482.481l4.318 14.4c.163.319.318.8.482 1.119h-4.327c-.318-.8-.482-1.6-.8-2.4-.164-.164-.318-.482-.482-.482h-5.118c-.164 0-.482.164-.482.318-.318.8-.482 1.764-.645 2.564h-4.31zm8.164-12.637h-.164c-.636 2.237-1.281 4.637-1.918 6.882h4.163c-.645-2.409-1.445-4.645-2.081-6.882z" fill="#3A424C"/><path d="M25.753 14.03c-2.564 0-4.482-1.117-5.282-2.88h5.764l.636-1.764h-7.045V8.113l7.2.318.8-2.073h-7.682c.8-2.237 2.882-3.364 5.6-3.364a9.02 9.02 0 013.364.637l.636-2.237c-.636-.318-2.081-.636-4.163-.636-4.319 0-7.682 2.082-8.8 5.763h-1.918l-.8 1.764h2.4v1.428h-1.437l-.963 1.763h2.718c.972 3.2 4.017 5.118 8.335 5.118 2.082 0 3.682-.318 4.319-.645l-.482-2.236c-.637.163-1.918.327-3.2.318z" fill="#FCBD0C"/></svg>