<svg width="53" height="17" fill="none" xmlns="http://www.w3.org/2000/svg"><path d="M48.608.32h-3.276c-.99 0-1.752.305-2.21 1.296l-6.247 14.247h4.419s.762-1.905.914-2.362h5.41c.152.534.533 2.286.533 2.286h3.962L48.608.32zm-5.18 9.981c.38-.914 1.676-4.343 1.676-4.343 0 .077.38-.914.533-1.447l.305 1.371s.838 3.734.99 4.495h-3.505v-.076zm-6.248.459c0 3.2-2.895 5.334-7.39 5.334-1.904 0-3.733-.381-4.724-.838l.61-3.505.533.229c1.372.609 2.286.838 3.962.838 1.22 0 2.514-.458 2.514-1.524 0-.686-.533-1.143-2.21-1.905-1.6-.762-3.732-1.981-3.732-4.19 0-3.048 2.971-5.105 7.162-5.105 1.6 0 2.97.305 3.809.685l-.61 3.353-.304-.305c-.762-.305-1.753-.61-3.2-.61-1.6.077-2.362.762-2.362 1.372 0 .686.914 1.219 2.362 1.905 2.438 1.143 3.58 2.438 3.58 4.266z" fill="#3362AB"/><path d="M0 .477L.076.172H6.63c.914 0 1.6.305 1.828 1.295l1.448 6.857C8.457 4.667 5.105 1.696 0 .477z" fill="#F9B50B"/><path d="M19.125.326l-6.629 15.467H8.001L4.19 2.84c2.743 1.753 5.029 4.496 5.867 6.4l.457 1.6L14.63.25h4.496v.076zM20.878.25h4.19l-2.667 15.543h-4.19L20.878.25z" fill="#3362AB"/></svg>