<svg width="27" height="20" fill="none" xmlns="http://www.w3.org/2000/svg"><path clip-rule="evenodd" d="M6.987.5h13.026c1.14 0 2.122 0 2.908.106.843.113 1.651.368 2.306 1.024.656.655.911 1.463 1.024 2.306.106.786.106 1.768.106 2.908v6.598c0 1.14 0 2.122-.105 2.908-.114.843-.37 1.65-1.025 2.306-.655.655-1.463.91-2.306 1.024-.786.106-1.768.106-2.908.106H6.987c-1.14 0-2.122 0-2.908-.106-.843-.113-1.651-.369-2.306-1.024-.656-.655-.911-1.463-1.025-2.306-.105-.786-.105-1.768-.105-2.908V6.844c0-1.14 0-2.122.105-2.908.114-.843.37-1.651 1.025-2.306C2.428.974 3.236.719 4.079.606 4.865.5 5.847.5 6.987.5zM4.42 3.154c-.558.075-.732.196-.83.294-.098.098-.22.273-.294.83-.08.595-.083 1.402-.083 2.65h20.572c0-1.248-.003-2.055-.083-2.65-.075-.557-.196-.732-.294-.83-.098-.098-.273-.219-.83-.294-.595-.08-1.402-.083-2.65-.083H7.07c-1.248 0-2.055.003-2.65.083zM23.786 9.5H3.214v3.857c0 1.249.003 2.056.083 2.65.075.558.196.733.294.83.098.099.272.22.83.295.595.08 1.402.082 2.65.082h12.857c1.25 0 2.056-.002 2.65-.082.558-.075.733-.196.831-.294.098-.098.219-.273.294-.83.08-.595.083-1.402.083-2.65V9.5zM6.07 13.357a1 1 0 011-1h.013a1 1 0 010 2H7.07a1 1 0 01-1-1z"/></svg>