<svg width="21" height="23" fill="none" xmlns="http://www.w3.org/2000/svg"><path fill-rule="evenodd" clip-rule="evenodd" d="M2.404 5.763a.9.9 0 01.891-.775h14.409a.9.9 0 01.89.775l2.151 15.269a.9.9 0 01-.89 1.025H1.144a.9.9 0 01-.892-1.025l2.15-15.27zm1.673 1.025L2.18 20.258h16.64l-1.897-13.47H4.077z" fill="#3C3C3B"/><path fill-rule="evenodd" clip-rule="evenodd" d="M10.498 2.057c-1.439 0-2.649 1.21-2.649 2.649v3.548a.9.9 0 01-1.8 0V4.706c0-2.433 2.016-4.449 4.449-4.449 2.432 0 4.448 2.016 4.448 4.449v3.548a.9.9 0 11-1.8 0V4.706c0-1.439-1.21-2.649-2.648-2.649z" fill="#3C3C3B"/></svg>