<svg xmlns="http://www.w3.org/2000/svg" viewBox="0 0 24 25"><path class="st0" d="M5.5 7.7L0 16.2v.3c0 1.2.3 2.7 1.1 3.9.9 1.3 2.3 2.1 4.4 2.1s3.5-.8 4.4-2.1c.8-1.2 1.1-2.7 1.1-3.9v-.3L5.5 7.7zm0 3.7l2.7 4.2H2.8l2.7-4.2zm2.7 7.9c-.5.7-1.3 1.2-2.7 1.2s-2.3-.5-2.7-1.2c-.3-.5-.6-1.1-.7-1.8h6.8c-.1.6-.3 1.3-.7 1.8zM18.5 7.7L13 16.2v.3c0 1.2.3 2.7 1.1 3.9.9 1.3 2.3 2.1 4.4 2.1s3.5-.8 4.4-2.1c.8-1.2 1.1-2.7 1.1-3.9v-.3l-5.5-8.5zm0 3.7l2.7 4.2h-5.3l2.6-4.2zm2.7 7.9c-.5.7-1.3 1.2-2.7 1.2s-2.3-.6-2.7-1.2c-.3-.5-.6-1.1-.7-1.8h6.8c-.1.6-.3 1.3-.7 1.8zM12 2.5c.7 0 1.4.4 1.7 1H21v2h-7.3c-.3.6-1 1-1.7 1s-1.4-.4-1.7-1H3v-2h7.3c.3-.6 1-1 1.7-1z"/></svg>