<svg width="11" height="12" fill="none" xmlns="http://www.w3.org/2000/svg"><path fill-rule="evenodd" clip-rule="evenodd" d="M3.828 0h.438c.565 0 1.045 0 1.428.051.408.055.79.178 1.1.487.31.31.432.692.487 1.1.051.383.051.863.051 1.428v.219h-1.14v-.181c0-.613-.001-1.016-.042-1.314-.037-.282-.1-.384-.162-.446s-.164-.125-.446-.162c-.298-.04-.7-.042-1.314-.042h-.362c-.613 0-1.016.001-1.314.042-.282.037-.384.1-.446.162s-.125.164-.162.446c-.04.298-.042.7-.042 1.314v2.353c0 .368.004.456.018.517.06.26.263.465.524.524.06.014.15.018.517.018v1.14h-.058c-.279 0-.51 0-.713-.046A1.837 1.837 0 01.808 6.228c-.046-.204-.046-.434-.046-.713V3.066c0-.565 0-1.045.051-1.428.055-.408.178-.79.487-1.1.31-.31.692-.432 1.1-.487C2.783 0 3.263 0 3.828 0z" fill="#308AFC"/><path fill-rule="evenodd" clip-rule="evenodd" d="M7.085 4.344h.439c.565 0 1.045 0 1.428.051.408.055.79.178 1.1.487.309.309.431.691.486 1.1.052.383.052.863.052 1.427v1.525c0 .565 0 1.045-.052 1.428-.055.408-.177.79-.486 1.1-.31.309-.692.431-1.1.486C8.569 12 8.089 12 7.524 12h-.439c-.564 0-1.044 0-1.427-.052-.409-.055-.791-.177-1.1-.486-.31-.31-.432-.692-.487-1.1-.051-.383-.051-.863-.051-1.428V7.409c0-.564 0-1.044.051-1.427.055-.409.178-.791.487-1.1.309-.31.691-.432 1.1-.487.383-.051.863-.051 1.427-.051zM5.81 5.525c-.282.038-.384.101-.446.163s-.125.164-.163.446c-.04.298-.041.7-.041 1.314v1.448c0 .613.001 1.016.041 1.314.038.282.101.383.163.445s.164.125.446.163c.298.04.7.042 1.314.042h.362c.613 0 1.016-.002 1.314-.042.282-.038.384-.1.445-.163.062-.062.125-.163.163-.445.04-.298.042-.7.042-1.314V7.448c0-.614-.002-1.016-.042-1.314-.038-.282-.1-.384-.163-.446-.061-.062-.163-.125-.445-.163-.298-.04-.7-.041-1.314-.041h-.362c-.614 0-1.016.001-1.314.041z" fill="#308AFC"/></svg>