<svg xmlns="http://www.w3.org/2000/svg" width="25.087" height="25.087"><defs><style>.a{fill:#ff5f72}</style></defs><path class="a" d="M23.603 9.555l-1.3-.986a.125.125 0 01-.049-.116l.222-1.617a3.75 3.75 0 00-4.225-4.226l-1.617.223a.125.125 0 01-.117-.049l-.985-1.3a3.75 3.75 0 00-5.977 0l-.986 1.3a.125.125 0 01-.116.049L6.836 2.61a3.75 3.75 0 00-4.225 4.226l.222 1.617a.125.125 0 01-.049.116l-1.3.986a3.75 3.75 0 000 5.977l1.3.985a.125.125 0 01.049.117l-.222 1.617a3.75 3.75 0 004.225 4.225l1.617-.222a.125.125 0 01.116.048l.986 1.3a3.75 3.75 0 005.977 0l.985-1.3a.125.125 0 01.117-.048l1.617.222a3.75 3.75 0 004.225-4.225l-.222-1.617a.125.125 0 01.048-.117l1.3-.985a3.75 3.75 0 000-5.977zm-1.51 3.984l-1.301.986a2.625 2.625 0 00-1.015 2.45L20 18.59A1.25 1.25 0 0118.59 20l-1.616-.223a2.625 2.625 0 00-2.45 1.015l-.985 1.3a1.25 1.25 0 01-1.993 0l-.985-1.3a2.625 2.625 0 00-2.45-1.015L6.496 20a1.25 1.25 0 01-1.409-1.409l.222-1.616a2.625 2.625 0 00-1.014-2.45l-1.3-.986a1.25 1.25 0 010-1.992l1.3-.985a2.625 2.625 0 001.014-2.45l-.222-1.616a1.25 1.25 0 011.409-1.409l1.616.222a2.625 2.625 0 002.45-1.014l.985-1.3a1.25 1.25 0 011.993 0l.985 1.3a2.625 2.625 0 002.45 1.015l1.616-.223A1.25 1.25 0 0120 6.496l-.223 1.616a2.626 2.626 0 001.015 2.45l1.3.985a1.25 1.25 0 010 1.992z"/><circle class="a" cx="10.043" cy="10.043" r="1.25"/><circle class="a" cx="15.043" cy="15.043" r="1.25"/><path class="a" d="M14.16 9.16l-5 5a1.25 1.25 0 001.767 1.767l5-5a1.25 1.25 0 00-1.767-1.768z"/></svg>