<svg xmlns="http://www.w3.org/2000/svg" width="20" height="22"><defs><style>.a{fill:#fff}</style></defs><path class="a" d="M9.141 17.692a1.855 1.855 0 001.717 0 17.061 17.061 0 004.107-2.993A9.541 9.541 0 0018 8 8 8 0 002 8a9.541 9.541 0 003.035 6.699 17.061 17.061 0 004.106 2.993zM10 2a6 6 0 016 6 7.556 7.556 0 01-2.455 5.29A15.004 15.004 0 0110 15.884a15.004 15.004 0 01-3.545-2.592A7.556 7.556 0 014 8a6 6 0 016-6z"/><path class="a" d="M10 12a4 4 0 10-4-4 4 4 0 004 4zm0-6a2 2 0 11-2 2 2 2 0 012-2zm8.294 9.634a1 1 0 10-1 1.732c.575.332.705.588.706.634-.001.046-.13.302-.706.634a9.946 9.946 0 01-2.983.981 24.777 24.777 0 01-8.622 0 9.947 9.947 0 01-2.983-.981C2.13 18.302 2.002 18.046 2 18c.002-.046.13-.302.706-.634a1 1 0 00-1-1.732A2.785 2.785 0 000 18a2.785 2.785 0 001.706 2.366A11.933 11.933 0 005.31 21.58a26.39 26.39 0 009.378 0 11.932 11.932 0 003.605-1.214A2.785 2.785 0 0020 18a2.785 2.785 0 00-1.706-2.366z"/></svg>