<svg xmlns="http://www.w3.org/2000/svg" width="22" height="21" fill="currentColor"><path fill-rule="evenodd" d="M10.94 2.078a2.125 2.125 0 110 4.25 2.125 2.125 0 010-4.25zM12.518.392a4.124 4.124 0 10-3.157 7.621 4.124 4.124 0 003.157-7.62zM6.465 14.078a2.125 2.125 0 11-3.68 2.125 2.125 2.125 0 013.68-2.125zm2.25.524a4.125 4.125 0 10-8.18 1.076 4.125 4.125 0 008.18-1.076zm6.699-.524a2.125 2.125 0 103.68 2.125 2.125 2.125 0 00-3.68-2.125zm-2.25.524a4.127 4.127 0 014.629-3.552 4.126 4.126 0 11-4.628 3.552z" clip-rule="evenodd"/><path fill-rule="evenodd" d="M7.878 4.831a3.125 3.125 0 01.413-2.285 9.333 9.333 0 00-6.426 11.13 3.12 3.12 0 011.773-1.5 7.336 7.336 0 014.24-7.345zm6.123 0a7.333 7.333 0 014.24 7.344 3.122 3.122 0 011.774 1.5 9.333 9.333 0 00-6.426-11.13A3.124 3.124 0 0114 4.832zm3.365 13.433a3.128 3.128 0 01-2.186-.786 7.327 7.327 0 01-7.047.792 7.335 7.335 0 01-1.434-.792 3.12 3.12 0 01-2.186.785 9.333 9.333 0 0012.853 0z" clip-rule="evenodd"/></svg>