<svg width="26" height="26" fill="none" xmlns="http://www.w3.org/2000/svg"><path d="M13 5.095c2.575 0 2.88.01 3.896.056.94.043 1.451.2 1.79.332.451.175.772.384 1.11.721a3 3 0 01.721 1.109c.132.34.29.85.332 1.79.046 1.017.056 1.322.056 3.897 0 2.575-.01 2.88-.056 3.897-.043.94-.2 1.45-.332 1.79a3 3 0 01-.721 1.109 2.988 2.988 0 01-1.11.721c-.339.132-.85.29-1.79.332-1.016.047-1.321.056-3.896.056s-2.88-.01-3.897-.056c-.94-.043-1.45-.2-1.79-.332a2.988 2.988 0 01-1.109-.721 2.988 2.988 0 01-.721-1.109c-.132-.34-.29-.85-.332-1.79-.047-1.017-.057-1.322-.057-3.897 0-2.575.01-2.88.057-3.896.043-.94.2-1.451.332-1.791a3 3 0 01.721-1.109 2.988 2.988 0 011.109-.721c.34-.132.85-.29 1.79-.332 1.017-.047 1.322-.056 3.897-.056zm0-1.738c-2.619 0-2.947.011-3.976.058-1.026.047-1.727.21-2.34.448a4.727 4.727 0 00-1.709 1.113 4.727 4.727 0 00-1.112 1.708c-.238.613-.401 1.314-.448 2.34-.047 1.029-.058 1.357-.058 3.976 0 2.619.011 2.947.058 3.976.047 1.026.21 1.727.448 2.34a4.727 4.727 0 001.112 1.709 4.729 4.729 0 001.708 1.112c.614.238 1.315.401 2.341.448 1.029.047 1.357.058 3.976.058 2.619 0 2.947-.011 3.976-.058 1.026-.047 1.727-.21 2.34-.448a4.728 4.728 0 001.708-1.113 4.728 4.728 0 001.113-1.707c.238-.614.4-1.315.448-2.341.047-1.029.058-1.357.058-3.976 0-2.619-.011-2.947-.058-3.976-.047-1.026-.21-1.727-.448-2.34a4.728 4.728 0 00-1.113-1.708 4.726 4.726 0 00-1.708-1.113c-.613-.238-1.314-.4-2.34-.448-1.029-.047-1.357-.058-3.976-.058zm0 4.691a4.952 4.952 0 100 9.904 4.952 4.952 0 000-9.904zm0 8.166a3.214 3.214 0 110-6.428 3.214 3.214 0 010 6.428zm6.304-8.361a1.157 1.157 0 11-2.314 0 1.157 1.157 0 012.314 0z" fill="#fff"/></svg>