<svg width="16" height="18" fill="none" xmlns="http://www.w3.org/2000/svg"><path fill-rule="evenodd" clip-rule="evenodd" d="M3.585 1.367a5.6 5.6 0 019.263 4.385l.146.017c.656.089 1.284.287 1.794.797s.708 1.138.796 1.793c.082.612.082 1.376.082 2.262v.137c0 1.354 0 2.47-.118 3.354-.125.928-.397 1.748-1.053 2.404-.656.656-1.476.928-2.404 1.053-.883.118-2 .118-3.354.118H7.262c-1.354 0-2.47 0-3.354-.119-.928-.124-1.747-.396-2.403-1.052C.848 15.86.577 15.04.452 14.112c-.12-.883-.119-2-.119-3.354v-.137c0-.886 0-1.65.082-2.262.088-.655.287-1.283.797-1.793s1.138-.708 1.793-.797c.612-.082 1.376-.082 2.262-.082h5.582a3.6 3.6 0 00-5.954-2.809l-.682.591a1 1 0 01-1.31-1.512l.682-.59zm-.313 6.385c-.434.058-.57.152-.646.228-.076.076-.17.212-.229.646-.062.462-.064 1.09-.064 2.061 0 1.443.002 2.424.1 3.159.096.706.263 1.033.486 1.255.222.223.55.39 1.255.485.735.1 1.717.101 3.159.101h1.333c1.443 0 2.424-.002 3.159-.1.706-.096 1.033-.263 1.256-.486.222-.222.39-.55.484-1.255.1-.735.101-1.716.101-3.159 0-.97-.002-1.599-.064-2.061-.058-.434-.152-.57-.229-.646-.076-.076-.212-.17-.645-.228-.463-.063-1.09-.065-2.062-.065H5.333c-.971 0-1.599.002-2.061.065zM8 13.352a1.667 1.667 0 100-3.333 1.667 1.667 0 000 3.334z" fill="#FF5F72"/></svg>