<svg width="26" height="32" fill="none" xmlns="http://www.w3.org/2000/svg"><path fill-rule="evenodd" clip-rule="evenodd" d="M25.1 10.9c.441.461.717 1.057.784 1.693l.015.204V29.4A2.634 2.634 0 0123.3 32H2.6A2.635 2.635 0 010 29.4V2.6A2.634 2.634 0 012.6 0h10.5a2.82 2.82 0 011.725.642l.13.113L25.1 10.899zM2.6 29.4h20.7V12.91a.855.855 0 00-.053-.192L13.188 2.665a.635.635 0 00-.113-.065H2.6v26.8zm15.998-10.1a3.159 3.159 0 012.1.5c.106.11.175.249.2.4.127.397.091.828-.1 1.2a2.22 2.22 0 01-.5.3.75.75 0 01-.5.1 9.592 9.592 0 01-4.2-1.3 37.55 37.55 0 00-5.8 1.4c-1.6 2.8-2.8 4-3.8 4a1.088 1.088 0 01-.5-.1l-.4-.2c-.2-.1-.2-.5-.2-.7.1-.8 1.1-1.8 2.5-2.6.2-.1.9-.5.9-.5l.4-.2c.213-.373.425-.773.653-1.2.2-.379.413-.779.647-1.2a25.87 25.87 0 001.4-2.9l.1-.4c-.6-2.2-.9-3.9-.6-5.1a.923.923 0 011-.6h.3c.4-.1.7.3.8.6v.1a.367.367 0 01.1.3 24.555 24.555 0 01-.4 3.9c0 .05-.025.1-.05.15-.025.05-.05.1-.05.15a9.553 9.553 0 002.2 3.3c.36.322.764.592 1.2.8l.334-.034c.866-.088 1.645-.167 2.266-.167zm-10.8 3.5a6.258 6.258 0 00-2 2.3c.5-.2 1.2-.9 2.4-2.7l-.4.4zm4.8-10.6c0-.8-.2-1.6-.5-1.6-.05 0-.076.287-.101.581-.025.282-.05.57-.099.618a7.61 7.61 0 00.3 2.1 3.531 3.531 0 00.4-1.7zm-1.7 7.4c-.3.5-.5.9-.7 1.3 1.3-.4 2.7-.8 4.2-1.2l-.3-.3a8.181 8.181 0 01-2-2.5 25.682 25.682 0 01-1.2 2.7zm8.9 1.3c.2 0 .5 0 .6-.1.1 0 .1-.3-.5-.5a5.281 5.281 0 00-1.3-.1h-1.1c.722.361 1.5.598 2.3.7z" fill="#FFBC08"/></svg>