<svg width="21" height="20" fill="none" xmlns="http://www.w3.org/2000/svg"><path d="M4.557 8.646c1.667 3.229 4.115 5.677 7.344 7.344l2.448-2.448c.347-.348.73-.434 1.146-.26 1.25.416 2.57.624 3.958.624.313 0 .573.104.781.313.209.208.313.469.313.781v3.906c0 .313-.104.573-.313.782a1.06 1.06 0 01-.78.312c-5.21 0-9.671-1.84-13.386-5.52C2.388 10.763.547 6.301.547 1.093.547.78.65.52.859.312A1.06 1.06 0 011.641 0h3.906c.312 0 .573.104.781.313.208.208.313.468.313.78 0 1.39.208 2.71.625 3.96.139.45.052.832-.26 1.145l-2.45 2.448z" fill="#C3C8D5"/></svg>