<svg xmlns="http://www.w3.org/2000/svg" width="21.871" height="20.14"><defs><style>.a{fill:#fff}</style></defs><path class="a" d="M21.871 7.927a2.927 2.927 0 00-2.923-2.923h-1.563V0H4.486v5.004H2.923A2.927 2.927 0 000 7.927v9.077h4.486v3.136h12.899v-3.136h4.486zM6.486 2h8.899v3.004H6.486zm8.899 16.14H6.486v-4.144h8.899zm4.486-3.136h-2.486v-3.008H4.486v3.008H2V7.927a.924.924 0 01.923-.923h16.025a.924.924 0 01.923.923z"/><path class="a" d="M3.692 8.057a.77.77 0 10.769.769.769.769 0 00-.77-.77z"/></svg>