<svg xmlns="http://www.w3.org/2000/svg" width="26.376" height="25.5"><path d="M26.345 10.157a2.802 2.802 0 00-.298-.887c-.717-1.339-2.248-1.476-5.303-1.75a6.996 6.996 0 01-2.393-.405 1.865 1.865 0 01-.289-.215 6.923 6.923 0 01-1.07-2.159C15.825 1.833 15.24.373 13.772.061a2.82 2.82 0 00-1.17 0c-1.466.312-2.051 1.772-3.218 4.68v.003h-.001v.001a6.93 6.93 0 01-1.066 2.153 1.9 1.9 0 01-.294.219 7.02 7.02 0 01-2.393.404c-3.052.273-4.584.41-5.3 1.748a2.817 2.817 0 00-.299.888c-.237 1.499.89 2.524 3.138 4.57l.533.485a6.802 6.802 0 011.33 1.375 1.85 1.85 0 01.184.582 6.868 6.868 0 01-.295 1.89l-.094.422c-.556 2.506-.81 3.65-.28 4.587a2.798 2.798 0 002.316 1.43c1.061.033 1.983-.689 3.973-2.31a7.443 7.443 0 011.835-1.3 1.88 1.88 0 011.034-.001 7.476 7.476 0 011.835 1.3c1.925 1.57 2.837 2.313 3.87 2.313l.103-.002a2.796 2.796 0 002.316-1.429c.53-.937.276-2.082-.28-4.589l-.094-.423a6.87 6.87 0 01-.295-1.888 1.856 1.856 0 01.186-.585 6.836 6.836 0 011.33-1.374l.533-.484c2.246-2.044 3.374-3.07 3.136-4.57zm-4.818 2.72l-.533.484a7.655 7.655 0 00-1.875 2.088 4.35 4.35 0 00-.433 1.362 7.671 7.671 0 00.329 2.79l.094.421a22.398 22.398 0 01.543 2.82.616.616 0 01-.159.165 14.46 14.46 0 01-2.375-1.76 8.072 8.072 0 00-2.725-1.764 4.374 4.374 0 00-2.41.001 8.038 8.038 0 00-2.726 1.766A22.065 22.065 0 016.981 23a.608.608 0 01-.218-.068 14.55 14.55 0 01.505-2.909l.094-.425a7.66 7.66 0 00.329-2.787 4.357 4.357 0 00-.432-1.36 7.663 7.663 0 00-1.877-2.09l-.533-.485A17.505 17.505 0 012.5 10.548c.004-.02.01-.04.004-.044a14.261 14.261 0 013.352-.493 7.741 7.741 0 003.457-.753 4.475 4.475 0 00.68-.505 7.685 7.685 0 001.71-3.078H11.7l.003-.003A15.576 15.576 0 0113.181 2.5h.015a15.614 15.614 0 011.478 3.175 7.673 7.673 0 001.71 3.078 4.325 4.325 0 00.679.504 7.746 7.746 0 003.461.754 17.79 17.79 0 013.319.44c.01.018.018.038.024.038a14 14 0 01-2.34 2.388z" fill="#57ca70"/></svg>