<svg xmlns="http://www.w3.org/2000/svg" width="14" height="15" fill="currentColor"><path fill-rule="evenodd" d="M7.001 1.5c-.291 0-.562.024-.766.064a1.365 1.365 0 00-.215.056.75.75 0 01-.97-1.142C5.198.34 5.372.26 5.5.213c.14-.052.295-.092.453-.123A5.72 5.72 0 017 0c.365 0 .732.03 1.049.09.158.03.313.07.453.123.127.048.302.127.45.265a.75.75 0 01-.976 1.14 1.365 1.365 0 00-.21-.054A4.237 4.237 0 007 1.5zM.645 4.486a4.689 4.689 0 00-.35-.005v-1.5h13.411v1.5c-.236 0-.302 0-.35.005a1.25 1.25 0 00-1.13 1.13 4.712 4.712 0 00-.006.35v3.503c0 .898 0 1.647-.08 2.242-.084.628-.27 1.195-.725 1.65-.455.456-1.022.641-1.65.726-.595.08-1.344.08-2.243.08H6.477c-.898 0-1.647 0-2.242-.08-.628-.085-1.195-.27-1.65-.726-.456-.455-.641-1.022-.726-1.65-.08-.595-.08-1.344-.08-2.242V5.966c0-.235 0-.302-.005-.35a1.25 1.25 0 00-1.13-1.13zM11.02 4.48H2.979c.155.303.256.64.289.996.012.127.011.27.011.454v3.486c0 .965.002 1.612.067 2.095.062.462.17.66.3.79.13.13.327.237.789.3.483.064 1.13.066 2.094.066h.941c.964 0 1.612-.002 2.095-.067.462-.062.659-.17.79-.3.13-.13.237-.327.299-.789.065-.483.066-1.13.066-2.094V5.93c0-.184 0-.327.012-.454.033-.357.134-.693.289-.996zM5.508 6.705a.75.75 0 01.75.75V9.69a.75.75 0 01-1.5 0V7.455a.75.75 0 01.75-.75zm2.983 0a.75.75 0 01.75.75V9.69a.75.75 0 01-1.5 0V7.455a.75.75 0 01.75-.75z" clip-rule="evenodd"/></svg>