<svg xmlns="http://www.w3.org/2000/svg" width="16.762" height="12.085"><defs><style>.a{fill:#c3c8d5}</style></defs><path class="a" d="M8.381 2.615a3.429 3.429 0 103.43 3.428 3.432 3.432 0 00-3.43-3.428zm0 5.057a1.628 1.628 0 111.628-1.629 1.63 1.63 0 01-1.628 1.629z"/><path class="a" d="M15.964 4.401A16.032 16.032 0 0013 1.64 8.167 8.167 0 008.38 0a8.167 8.167 0 00-4.618 1.639A16.035 16.035 0 00.798 4.4 2.507 2.507 0 000 6.043a2.507 2.507 0 00.798 1.64 16.037 16.037 0 002.965 2.763 8.167 8.167 0 004.618 1.639A8.166 8.166 0 0013 10.446a16.034 16.034 0 002.964-2.762 2.506 2.506 0 00.798-1.641 2.507 2.507 0 00-.798-1.642zm-3.997 4.57a6.39 6.39 0 01-3.586 1.314 6.39 6.39 0 01-3.586-1.313 14.243 14.243 0 01-2.62-2.448c-.1-.12-.176-.21-.24-.289a1.703 1.703 0 01-.118-.165.122.122 0 01-.015-.027.12.12 0 01.015-.028 1.703 1.703 0 01.119-.165c.063-.08.138-.17.239-.289a14.242 14.242 0 012.62-2.448A6.39 6.39 0 018.381 1.8a6.39 6.39 0 013.586 1.313 14.247 14.247 0 012.62 2.448c.101.12.177.21.24.289a1.704 1.704 0 01.119.165.119.119 0 01.015.028.122.122 0 01-.015.027 1.704 1.704 0 01-.12.165c-.062.08-.138.17-.238.289a14.248 14.248 0 01-2.62 2.448z"/></svg>