<svg width="26" height="26" fill="none" xmlns="http://www.w3.org/2000/svg"><path d="M23.455 8.45s-.207-1.57-.847-2.26c-.811-.905-1.72-.911-2.136-.964-2.989-.228-7.467-.228-7.467-.228h-.01s-4.48 0-7.465.23c-.417.05-1.325.057-2.139.962-.638.69-.847 2.26-.847 2.26s-.214 1.84-.214 3.683v1.725c0 1.843.214 3.685.214 3.685s.209 1.568.847 2.258c.814.907 1.88.878 2.354.972 1.708.174 7.255.23 7.255.23s4.483-.01 7.472-.238c.415-.053 1.325-.057 2.136-.965.64-.69.847-2.258.847-2.258s.215-1.84.215-3.684v-1.725c0-1.842-.215-3.684-.215-3.684zm-6.894 4.317l-5.763 3.185-.002-4.903v-1.49l2.6 1.446 3.165 1.762z" fill="#fff"/></svg>