<svg width="37" height="25" fill="none" xmlns="http://www.w3.org/2000/svg"><path fill-rule="evenodd" clip-rule="evenodd" d="M25.669 0s8.06 5.06 10.183 9.746c3.062 6.622-1.999 14.931-11.807 11.495-2.125.563-3.874.313-5.31-.562.499-.874.936-1.874 1.374-3.124.03-.093.078-.187.124-.28.047-.095.094-.188.125-.282.563-1.437.375-3.061-.562-4.498-.687-1-1.687-1.874-2.936-2.624.633-.826 1.533-1.336 2.556-1.916 1.298-.737 2.793-1.585 4.191-3.332-.812 2.562-1.312 8.122 0 12.557-.5-5.622 1.375-10.62 2.187-12.557 2.561 1.375 6.685 5.373 8.371 8.372.875 1.562 1 3.373.625 4.935 1.437-2.249 1.562-5.248.375-7.81-1.687-3.748-7.56-7.87-9.371-9.058l-.348.326C24.352 2.42 22.152 4.492 18.36 7.56c-.812.625-1.374 1.437-1.749 2.25-.187-.125-.437-.25-.687-.375.437-.937 1.062-1.812 1.937-2.5C23.482 2.375 25.669 0 25.669 0zM7.739 19.553c-9.37-.687-6.934-8.871-2.873-11.37 11.683 0 16.306 4.873 14.744 8.497a2.123 2.123 0 01-.152.392c-.037.08-.073.156-.098.232-2.5 7.685-6.685 6.748-6.685 6.748s1.312-1.75 1.812-3.124c-1.75 2.499-3.624 4.873-7.435 3.81C.805 22.99.93 15.369.93 15.369c.675 4.621 5.32 4.84 9.417 5.034.832.039 1.642.077 2.39.151 2.937.25 4.499-.5 5.498-1.562-1.312 1.253-3.594 1.082-9.62.628a3961.3 3961.3 0 00-.875-.066zm2.84-3.297c1.015.5 2.189 1.078 2.846 2.36-.039-.526.055-1.05.15-1.584.368-2.063.762-4.272-6.335-7.35 0 0 1.374 2.812 1.437 4.686.03.967.888 1.389 1.901 1.888z" fill="#4B5563"/></svg>