<svg width="32" height="32" fill="none" xmlns="http://www.w3.org/2000/svg"><path fill-rule="evenodd" clip-rule="evenodd" d="M22.803 4.867L15.712.6c-.18-.12-.54-.06-.781.12L8.8 4.446c-.24.18-.36.36-.18.48l7.091 4.267c.18.12.54.06.781-.12l6.13-3.726c.24-.18.3-.42.18-.48zm-7.331-1.863l-4.688 1.742-.18-.12 4.747-2.885 5.109 3.065-4.988-1.802zm-.364 14.423c.18.06.3.06.3-.12v-6.911c0-.18-.12-.36-.3-.48L8.197 5.647c-.18-.06-.3-.06-.3.12v6.912c0 .18.12.36.3.48l6.91 4.267zM7.723 30.77c0 .18-.12.18-.3.12L.51 26.622c-.18-.12-.3-.3-.3-.48V19.23c0-.18.12-.18.3-.12l6.912 4.267c.18.12.3.3.3.48v6.912zm16.108.54c0 .18-.12.18-.3.12l-6.912-4.267c-.18-.12-.3-.3-.3-.48V19.77c0-.18.12-.18.3-.12l6.911 4.267c.18.12.3.3.3.48v6.912zM7.96 14l7.092 4.267c.18.12.12.3-.12.481l-6.13 3.726c-.241.18-.602.24-.782.12L.93 18.328c-.18-.12-.06-.3.18-.48l6.07-3.726c.24-.18.6-.24.781-.12zm-4.748 4.087L7.9 16.345l4.988 1.803-5.108-3.065-4.748 2.885.18.12zm27.703.66l-7.092-4.267c-.18-.12-.54-.06-.781.12l-6.13 3.726c-.24.18-.36.361-.18.481l7.091 4.267c.18.12.541.06.782-.12l6.13-3.726c.24-.12.3-.36.18-.48zm-7.212-1.923l-4.688 1.743-.18-.12 4.748-2.885 5.108 3.065-4.988-1.803zm1.205 7.032l6.25-3.846c.18-.06.3 0 .3.12v6.911c0 .18-.12.36-.3.48l-6.25 3.847c-.18.06-.3.06-.3-.12v-6.911c0-.18.12-.36.3-.481zm1.082 5.83l4.567-2.885.06-5.229-.12.06-.841 4.688-3.666 3.365zM23.11 6.008l-6.25 3.846c-.18.12-.3.3-.3.48v6.912c0 .18.12.18.3.12l6.25-3.846c.18-.12.3-.3.3-.481v-6.91c0-.12-.12-.18-.3-.12zm-.54 6.79l-4.568 2.885 3.666-3.365.841-4.688.12-.06-.06 5.229zM8.863 23.377l6.25-3.846c.18-.12.3-.06.3.12v6.911c0 .18-.12.36-.3.481l-6.25 3.846c-.18.06-.3.06-.3-.12v-6.911c0-.18.12-.36.3-.48zm1.202 5.77l4.567-2.885.06-5.229-.12.06-.841 4.688-3.666 3.365z" fill="#4B5563"/></svg>