<svg width="25" height="32" fill="none" xmlns="http://www.w3.org/2000/svg"><path d="M12.84.375C7.217.375.945 9.458.945 19.73c0 6.543 5.299 11.895 11.895 11.895 6.542 0 11.894-5.298 11.894-11.895C24.68 9.134 18.3.375 12.84.375zM3.919 22.434c0 1.081.162 2.162.487 3.19-1.136-1.676-1.839-3.677-1.839-5.893 0-9.354 5.731-17.734 10.273-17.734 2.703 0 6.271 3.244 8.434 8.38C19.166 6.81 16.354 4.7 14.191 4.7 9.65 4.7 3.92 13.08 3.92 22.434zm8.92 7.569c-.648 0-1.297-.054-1.892-.162a18.042 18.042 0 0012.111-10.435v.379c0 5.622-4.595 10.218-10.218 10.218z" fill="#4B5563"/></svg>