<svg width="35" height="33" fill="none" xmlns="http://www.w3.org/2000/svg"><path d="M34.358 15.308s-10.233-4.243-12.354-6.614c-1.498-1.747-1.81-3.058-5.18-2.995-2.12-1.186-3.306-3.682-3.556-4.805-.686-.936-1.56 4.867.874 7.363-.375 1.186-1.56 4.056-3.058 4.867-1.497.811-.873 2.184-1.996 3.37-1.436 1.497-4.618 5.615-6.24 6.114-.936.312-1.872 2.559-1.997 3.807-.125 1.185.811 1.81 1.747 2.745.936.936 2.683.5 3.744-.062 1.06-.562 3.245.062 4.93.998 3.057 1.81 5.678.998 7.237.562 2.746-1.061 4.992-3.245 5.99-6.24.437-1.373.625-2.746.5-4.056a8.958 8.958 0 01-.125 5.117c-.749 2.246-2.371 3.93-4.305 4.93 1.248.061 2.433.623 3.619 1.434 3.12 2.247 12.916-15.162 10.17-16.535zM13.206 2.392c.561 1.248 1.684 2.87 3.307 3.806l.125.062h.187c2.37 0 2.933.624 3.868 1.747-.623-.436-1.684-1.248-4.68-1.248l-1.247.936c-1.935-1.747-1.623-4.243-1.56-5.303zM3.035 25.978c-.125.437-.562.686-.874.561-.374-.124-.312-.436-.124-.873.124-.437.312-.811.686-.686.312.124.5.561.312.998zm8.174-11.294c-.686.312-.624.811-.749 1.435-.125.749-.25 1.31-.936 1.934-.374.312-1.185.999-1.684 1.56-1.997 2.309-4.056 3.432-5.491 4.243 0-.374.436-.748.624-.81 1.31-.438 3.244-2.372 5.366-4.868.437-.561.873-.998 1.185-1.373.624-.623.812-1.31.999-1.871.187-.624.312-1.061.873-1.373 1.81-.999 2.995-4.18 3.307-5.054.125.124.188.25.312.312l.312.25-.124.374c-.313.748-1.872 4.243-3.994 5.24zm4.368 3.12c-.749.25-1.81-.063-2.06-.063-.186 0-.873 0-.873-.25 0 0 1.06-1.434 2.87-1.06.874.187 1.436.562 1.436.562 0 .374-.624.686-1.373.81zm8.236-.874c-2.995 1.186-7.425.125-6.988-6.551 0 0 .312 6.489 4.867 6.177 3.681-.25 3.37-3.37.873-5.366 2.371 1.622 3.994 4.617 1.248 5.74zm-1.248-6.988c4.493 3.12 11.17 5.74 11.544 5.865 0 0 .062.063.062.125-7.675-1.248-11.543-5.928-11.606-5.99z" fill="#4B5563"/></svg>