<svg width="27" height="32" fill="none" xmlns="http://www.w3.org/2000/svg"><path fill-rule="evenodd" clip-rule="evenodd" d="M13.841.375S.981 1.994.801 15.573c0 0-.359 13.984 13.04 16.052 12.674-1.956 12.998-14.532 13.034-15.927.002-.08.003-.123.006-.125C26.7 1.993 13.84.375 13.84.375zm0 28.552C3.005 27.533 2.915 15.213 2.915 15.213c.45-11.106 10.926-12.14 10.926-12.14s10.477 1.034 10.926 12.14v.001c-.001.14-.171 12.285-10.926 13.713zm8.185-12.364c.45-.585.63-1.574.45-2.608-.27-1.529-.99-2.563-2.248-3.148l-.27-.135.18-.224c.494-.54.494-1.484.045-2.204-.45-.809-1.35-1.169-1.979-1.348l-.404-.09.314-.27c.135-.135.135-.27.135-.405a.743.743 0 00-.36-.584c-.404-.225-.944-.18-1.438-.135-.315.045-.63.18-.72.314-.045.045-.045.09-.045.135l.09.36-.36-.09c-.314-.045-.629.27-.719.63-.081.367.022.77.109 1.11l.026.104h-.045l.09.09c-.45.494-.675 1.214-.675 1.978.045.764.36 1.484.855 1.934l.36.314-.495.09c-.495.09-.81.585-.854 1.034-.045.45.135.9.54 1.484a.87.87 0 01.314.81c0 .193-.133.32-.256.437l-.059.057-.045.045c-.18.225-.27.54-.225.9.045.359.27.674.54.854l.27.18-.18.18c-.405.314-.63.809-.675 1.393-.045.585.18 1.124.585 1.529l.495.495-.675-.09h-.09a.55.55 0 00-.404.18c-.225.224-.36.584-.36.944 0 .18.04.36.08.54.02.09.04.18.055.27.09.359.18.764.18 1.213 0 .135 0 .27-.045.405 0 .062-.006.123-.01.183-.01.115-.02.223.01.311.045.315.45.585.809.585.315 0 .674-.36.72-.72l.044-.629.36.495c.225.314.54.18 1.259-.27l.18-.09c.54-.315.81-.54.9-1.574l.09-.9.359.81a.405.405 0 00.27.27c.314.09.854-.045 1.438-.36.585-.36 1.08-1.393 1.304-2.158.405-1.529.135-2.518-.989-3.597l-.36-.36.495-.045c.405-.09.764-.27 1.034-.63zm-10.12 5.17l.674-.09c.18 0 .315.046.405.18.225.225.405.585.36.945 0 .27-.045.54-.135.81l-.045.17c-.083.315-.173.656-.135.998 0 .068.011.135.022.203.011.067.023.134.023.202v.494c-.045.315-.45.63-.81.585-.314 0-.63-.315-.674-.674l-.045-.63-.36.495c-.225.314-.584.18-1.259-.27l-.18-.09c-.584-.315-.809-.54-.899-1.574l-.09-.899-.36.81a.405.405 0 01-.27.27c-.314.089-.854-.046-1.393-.36-.585-.36-1.08-1.395-1.304-2.159-.36-1.529-.135-2.473.99-3.597l.359-.36-.495-.045c-.45 0-.81-.224-1.079-.584-.45-.63-.63-1.619-.45-2.608.27-1.529.99-2.518 2.249-3.148l.27-.135-.18-.224c-.45-.54-.495-1.44-.045-2.204.45-.809 1.349-1.169 1.978-1.348l.405-.09-.315-.27c-.135-.135-.135-.27-.135-.405 0-.225.18-.45.36-.584.404-.225.944-.18 1.439-.135.314.045.63.18.719.314.045.045.045.09.045.135l-.09.36.315-.18c.315-.045.63.27.72.585.081.41-.024.819-.11 1.16a22.59 22.59 0 00-.026.099h.045l-.09.09c.495.494.72 1.214.675 1.978-.045.764-.36 1.484-.854 1.934l-.36.314.494.09c.495.045.81.585.855 1.034 0 .45-.18.9-.54 1.44-.27.269-.36.584-.315.809 0 .224.18.404.315.54l.045.044c.18.225.27.585.225.944-.045.36-.27.675-.54.855l-.27.18.27.18c.405.314.675.809.675 1.393 0 .63-.18 1.17-.585 1.53l-.494.494z" fill="#4B5563"/></svg>